<?xml version="1.0" encoding="UTF-8" standalone="no"?>
<!-- Created with Inkscape (http://www.inkscape.org/) -->
<svg
   xmlns:dc="http://purl.org/dc/elements/1.1/"
   xmlns:cc="http://web.resource.org/cc/"
   xmlns:rdf="http://www.w3.org/1999/02/22-rdf-syntax-ns#"
   xmlns:svg="http://www.w3.org/2000/svg"
   xmlns="http://www.w3.org/2000/svg"
   xmlns:sodipodi="http://inkscape.sourceforge.net/DTD/sodipodi-0.dtd"
   xmlns:inkscape="http://www.inkscape.org/namespaces/inkscape"
   id="svg2311"
   sodipodi:version="0.32"
   inkscape:version="0.43"
   width="392pt"
   height="470pt"
   sodipodi:docbase="F:\Guillermo\Imachens\wiki\andorra"
   sodipodi:docname="julià.svg"
   version="1.0">
  <metadata
     id="metadata2316">
    <rdf:RDF>
      <cc:Work
         rdf:about="">
        <dc:format>image/svg+xml</dc:format>
        <dc:type
           rdf:resource="http://purl.org/dc/dcmitype/StillImage" />
      </cc:Work>
    </rdf:RDF>
  </metadata>
  <defs
     id="defs2314" />
  <sodipodi:namedview
     inkscape:window-height="742"
     inkscape:window-width="1024"
     inkscape:pageshadow="2"
     inkscape:pageopacity="0.0"
     borderopacity="1.0"
     bordercolor="#666666"
     pagecolor="#ffffff"
     id="base"
     showgrid="true"
     inkscape:zoom="0.9168"
     inkscape:cx="372.04724"
     inkscape:cy="312.5"
     inkscape:window-x="-4"
     inkscape:window-y="-4"
     inkscape:current-layer="svg2311" />
  <path
     style="fill:#000000;fill-opacity:1;fill-rule:evenodd;stroke:#000000;stroke-width:2.90081739;stroke-linecap:butt;stroke-linejoin:miter;stroke-miterlimit:4;stroke-dasharray:none;stroke-opacity:1"
     d="M 290.72407,473.66445 C 305.01062,471.40964 300.12062,489.37445 299.88542,505.54959 L 279.34121,505.33219 C 281.14982,501.99591 246.74963,480.60482 290.72407,473.66445 z "
     id="path8357"
     sodipodi:nodetypes="cccs" />
  <path
     style="fill:#000000;fill-opacity:1;fill-rule:evenodd;stroke:#000000;stroke-width:3;stroke-linecap:butt;stroke-linejoin:miter;stroke-miterlimit:4;stroke-dasharray:none;stroke-opacity:1"
     d="M 272.72093,478.14697 C 283.13861,489.171 246.04291,512.78744 232.19501,520.5 L 213.21937,509.74883 C 217.43143,507.59354 235.8353,502.19907 244.18275,495.11566 C 246.58748,493.07508 248.8214,490.74872 251.40367,489.06829 C 256.67252,485.63955 269.67069,474.91919 272.72093,478.14697 z "
     id="path8353"
     sodipodi:nodetypes="cccsss" />
  <path
     style="fill:#000000;fill-opacity:1;fill-rule:evenodd;stroke:#000000;stroke-width:3;stroke-linecap:butt;stroke-linejoin:miter;stroke-miterlimit:4;stroke-dasharray:none;stroke-opacity:1"
     d="M 197.72092,524.14697 C 200.0402,529.38642 171.0429,558.78744 157.195,566.5 L 148.6316,557.29139 C 159.27543,551.845 194.05439,515.86395 197.72092,524.14697 z "
     id="path8349"
     sodipodi:nodetypes="cccs" />
  <path
     sodipodi:nodetypes="cssss"
     id="path2460"
     d="M 247.4536,34.272631 C 180.48126,33.359018 113.82941,112.80609 114.12451,228.16944 C 114.38585,329.6178 168.6983,421.9051 243.73278,420.43 C 326.82385,418.78291 376.13168,324.70879 377.06189,228.16944 C 377.99208,131.63009 323.10861,35.30467 247.4536,34.272631 z "
     style="opacity:1;color:#000000;fill:#808000;fill-opacity:1;fill-rule:evenodd;stroke:#000000;stroke-width:3.38300633;stroke-linecap:butt;stroke-linejoin:miter;marker:none;marker-start:none;marker-mid:none;marker-end:none;stroke-miterlimit:4;stroke-dasharray:none;stroke-dashoffset:0;stroke-opacity:1;visibility:visible;display:inline;overflow:visible" />
  <path
     style="fill:#66cc33;fill-opacity:1;fill-rule:evenodd;stroke:#000000;stroke-width:1.89999998;stroke-linecap:butt;stroke-linejoin:miter;stroke-miterlimit:4;stroke-dasharray:none;stroke-opacity:1"
     d="M 149.24002,53.403986 C 132.45696,63.209476 134.12899,64.383769 116.30221,86.05 C 147.50511,84.890432 153.50764,82.373317 161.82027,76.416355 C 170.13291,70.459393 173.71592,69.094471 186.76393,49.524861 C 173.70319,46.439922 164.11892,44.711004 149.24002,53.403986 z "
     id="path9236"
     sodipodi:nodetypes="cczcs" />
  <path
     style="color:#000000;fill:#ffcc00;fill-opacity:1;fill-rule:evenodd;stroke:#000000;stroke-width:3.24337602;stroke-linecap:butt;stroke-linejoin:miter;marker:none;marker-start:none;marker-mid:none;marker-end:none;stroke-miterlimit:4;stroke-dasharray:none;stroke-dashoffset:0;stroke-opacity:1;visibility:visible;display:inline;overflow:visible"
     d="M 247.14112,40.328989 C 183.26593,39.448529 119.69639,116.01349 119.97783,227.19179 C 120.22709,324.95989 172.02786,413.89926 243.59238,412.47768 C 322.8409,410.89034 369.86848,320.22896 370.75567,227.19179 C 371.64286,134.15461 319.29747,41.323598 247.14112,40.328989 z "
     id="path5979"
     sodipodi:nodetypes="cssss" />
  <path
     style="fill:#ff0033;fill-opacity:1;fill-rule:evenodd;stroke:#ff0033;stroke-width:0.85794675px;stroke-linecap:butt;stroke-linejoin:miter;stroke-opacity:1"
     d="M 146.21619,115.98693 C 147.13448,291.39053 146.83766,343.96094 146.83766,343.96094 C 151.1215,352.72688 166.60629,373.20827 176.16355,380.9401 L 176.16355,74.030264 C 169.51844,78.558197 149.84265,103.69801 146.21619,115.98693 z "
     id="path5977"
     sodipodi:nodetypes="ccccc" />
  <path
     style="fill:#ff0033;fill-opacity:1;fill-rule:evenodd;stroke:#ff0033;stroke-width:1px;stroke-linecap:butt;stroke-linejoin:miter;stroke-opacity:1"
     d="M 201.79675,53.490485 C 202.71504,291.78716 202.02632,401.523 202.02632,401.523 C 211.34247,407.45384 220.65862,409.25237 231.35221,410.36218 L 231.35221,42.362183 C 231.52507,42.321926 231.69794,42.281669 231.8708,42.241412 C 220.69825,44.15452 211.59186,47.215492 201.79675,53.490485 z "
     id="path5971"
     sodipodi:nodetypes="cccccc" />
  <path
     style="fill:#ff0033;fill-opacity:1;fill-rule:evenodd;stroke:#ff0033;stroke-width:1px;stroke-linecap:butt;stroke-linejoin:miter;stroke-opacity:1"
     d="M 286.39306,51.711525 C 285.47477,290.00816 286.16349,402.03973 286.16349,402.03973 C 276.84734,407.97057 267.53119,409.08038 256.8376,410.19019 L 256.8376,40.583225 C 256.66474,40.542975 256.49187,40.502715 256.31901,40.462455 C 267.49156,42.375565 276.59795,45.436535 286.39306,51.711525 z "
     id="path5973"
     sodipodi:nodetypes="cccccc" />
  <path
     style="fill:#ff0033;fill-opacity:1;fill-rule:evenodd;stroke:#ff0033;stroke-width:0.87195861px;stroke-linecap:butt;stroke-linejoin:miter;stroke-opacity:1"
     d="M 341.38916,110.22252 C 340.47087,291.40224 340.76769,345.70382 340.76769,345.70382 C 336.48385,354.75842 320.99906,375.91427 311.4418,383.90072 L 311.4418,70.884204 C 311.26894,70.8536 311.09607,70.822989 310.92321,70.792381 C 322.09576,72.24694 336.7887,101.26257 341.38916,110.22252 z "
     id="path5975"
     sodipodi:nodetypes="cccccc" />
  <path
     style="color:#000000;fill:none;fill-opacity:1;fill-rule:evenodd;stroke:#000000;stroke-width:3.24337602;stroke-linecap:butt;stroke-linejoin:miter;marker:none;marker-start:none;marker-mid:none;marker-end:none;stroke-miterlimit:4;stroke-dasharray:none;stroke-dashoffset:0;stroke-opacity:1;visibility:visible;display:inline;overflow:visible"
     d="M 247.1408,40.328655 C 183.26561,39.448195 119.69607,116.01316 119.97751,227.19146 C 120.22677,324.95956 172.02754,413.89893 243.59206,412.47735 C 322.84058,410.89001 369.86816,320.22863 370.75535,227.19146 C 371.64254,134.15428 319.29715,41.323264 247.1408,40.328655 z "
     id="path1349"
     sodipodi:nodetypes="cssss" />
  <path
     style="fill:#669f33;fill-opacity:1;fill-rule:evenodd;stroke:#000000;stroke-width:3;stroke-linecap:butt;stroke-linejoin:miter;stroke-miterlimit:4;stroke-dasharray:none;stroke-opacity:1"
     d="M 117.00647,82.511299 C 105.74963,98.258009 93.468498,118.05953 87.102208,135.65625 C 79.158018,157.61435 78.806038,177.25189 78.227208,184.65625 C 77.539848,193.44884 75.845068,212.39288 75.727208,232.3125 C 75.597388,254.25148 78.216538,278.48775 79.664708,293.28125 C 82.472058,321.95925 95.819558,357.14015 101.94596,372.80651 C 104.97583,380.55446 115.2444,399.13631 125.26959,413.57576 C 135.29478,428.01521 141.73822,436.52825 152.41771,446.15026 L 162.11547,440.6905 C 151.24675,433.03931 137.69479,418.04807 130.46521,407.52525 C 120.5793,393.13608 110.78064,379.36897 106.93996,372.80351 C 98.071038,357.6425 89.221228,338.39939 81.573958,293.51413 C 79.072018,278.8291 78.598888,254.03038 78.727208,232.34375 C 78.844148,212.58109 80.505198,193.74225 81.195958,184.90625 C 81.798388,177.20005 82.185848,158.13682 89.945958,136.6875 C 96.236828,119.29926 108.28924,99.865169 119.44397,84.261299 L 117.00647,82.511299 z "
     id="path1328"
     sodipodi:nodetypes="cssssssccsssssscc" />
  <path
     style="fill:#0000ff;fill-opacity:1;fill-rule:nonzero;stroke:none;stroke-width:1px;stroke-linecap:butt;stroke-linejoin:miter;stroke-opacity:1"
     id="path4212"
     d="M 230.93151,431.21991 C 232.29657,439.91413 230.72515,444.83519 230.9765,451.74717 C 226.77941,450.25183 219.47135,447.17758 202.50391,447.0044 C 189.46223,446.87129 168.26629,456.11097 152.85155,456.37556 C 136.10224,456.66306 118.03587,446.79277 104.02157,447.13932 C 84.854858,447.61328 71.550118,451.56956 70.268138,451.20728 C 69.391618,447.17833 70.954418,437.92002 70.284198,431.16288 C 74.533258,431.17915 86.339078,427.0537 103.13631,426.99225 C 117.56131,426.93948 135.1746,436.93498 152.29804,436.87066 C 167.04794,436.81526 187.51926,427.67279 200.08821,427.63803 C 219.46829,427.58443 228.43532,431.14276 230.93151,431.21991 z "
     sodipodi:nodetypes="ccsssccsssc" />
  <path
     style="fill:#ffcc00;fill-opacity:1;fill-rule:nonzero;stroke:none;stroke-width:1px;stroke-linecap:butt;stroke-linejoin:miter;stroke-opacity:1"
     id="path5960"
     d="M 231.05579,451.04989 C 231.28452,459.82528 230.45752,465.1637 230.70887,472.07568 C 226.51178,470.58034 218.97415,466.35823 202.00671,466.18505 C 188.96503,466.05194 167.76909,475.29162 152.35435,475.55621 C 135.60504,475.84371 118.45696,466.20299 104.44266,466.54954 C 85.275948,467.0235 72.012988,471.89807 70.731008,471.53579 C 69.123988,467.75034 70.686788,457.33024 70.016568,450.5731 C 74.265628,450.58937 86.071448,446.23435 102.86868,446.1729 C 117.29368,446.12013 134.90697,456.11563 152.03041,456.05131 C 166.78031,455.99591 187.48373,447.07299 200.05015,446.81868 C 222.00785,446.36502 228.5596,450.97274 231.05579,451.04989 z "
     sodipodi:nodetypes="ccsssccsssc" />
  <path
     style="fill:#000000;fill-opacity:1;fill-rule:evenodd;stroke:#000000;stroke-width:3;stroke-linecap:butt;stroke-linejoin:miter;stroke-miterlimit:4;stroke-dasharray:none;stroke-opacity:1"
     d="M 221.76289,480.14697 C 206.33191,488.08589 248.44091,514.78744 262.28881,522.5 L 278.17934,510.20628 C 273.96728,508.05099 258.64852,504.19907 250.30107,497.11566 C 247.89634,495.07508 245.66242,492.74872 243.08015,491.06829 C 237.8113,487.63955 225.7119,478.11528 221.76289,480.14697 z "
     id="path8351"
     sodipodi:nodetypes="cccsss" />
  <path
     style="fill:#000000;fill-opacity:1;fill-rule:evenodd;stroke:#000000;stroke-width:2.90081739;stroke-linecap:butt;stroke-linejoin:miter;stroke-miterlimit:4;stroke-dasharray:none;stroke-opacity:1"
     d="M 208.18851,473.94491 C 252.67027,482.9926 216.05931,490.47215 214.29748,506.55278 L 193.86564,504.39602 C 195.98126,501.24547 194.88209,471.23835 208.18851,473.94491 z "
     id="path8355"
     sodipodi:nodetypes="cccs" />
  <path
     style="fill:#ff0033;fill-opacity:1;fill-rule:nonzero;stroke:none;stroke-width:1px;stroke-linecap:butt;stroke-linejoin:miter;stroke-opacity:1"
     id="path5962"
     d="M 231.23205,470.37339 C 232.59711,479.06761 230.45753,483.98867 230.70888,490.90065 C 226.51179,489.40531 218.97416,485.1832 202.00672,485.01002 C 188.96504,484.87691 167.7691,494.11659 152.35436,494.38118 C 135.60505,494.66868 118.45697,485.02796 104.44267,485.37451 C 85.275958,485.84847 72.012998,490.72304 70.731018,490.36076 C 69.123998,486.57531 69.956298,477.0735 70.260078,470.23519 C 74.509138,470.25146 86.071458,466.20718 102.86869,466.14573 C 117.29369,466.09296 134.90698,475.62931 152.03042,475.56499 C 166.78032,475.50959 187.48121,465.90798 200.05016,465.87322 C 219.43024,465.81962 228.73586,470.29624 231.23205,470.37339 z "
     sodipodi:nodetypes="ccsssccsssc" />
  <path
     style="fill:#669f33;fill-opacity:1;fill-rule:nonzero;stroke:#000000;stroke-width:2;stroke-linecap:butt;stroke-linejoin:miter;stroke-miterlimit:4;stroke-dasharray:none;stroke-opacity:1"
     id="path11883"
     d="M 351.35221,421.30353 C 345.8506,415.23227 343.71523,412.44728 334.62474,413.09067 C 328.55536,413.6165 321.96617,418.5276 321.74942,423.2238 C 321.53254,427.92272 328.96768,430.90938 327.8557,425.25095 C 326.75507,419.65031 327.90774,418.0884 337.31302,416.12446 C 342.09525,415.28986 344.58719,420.50552 349.41434,423.32971 C 351.69336,420.77022 347.38851,425.28556 351.35221,421.30353 z "
     sodipodi:nodetypes="cczzccc" />
  <path
     style="fill:#669f33;fill-opacity:1;fill-rule:evenodd;stroke:#000000;stroke-width:3;stroke-linecap:butt;stroke-linejoin:miter;stroke-miterlimit:4;stroke-dasharray:none;stroke-opacity:1"
     d="M 373.03045,80.666218 C 384.4458,96.298408 397.2363,118.34555 403.78004,135.87706 C 411.94566,157.75378 412.49601,177.38677 413.14961,184.7849 C 413.92576,193.5701 415.81184,212.49605 416.13093,232.41346 C 416.48238,254.35001 414.10821,278.6115 412.80956,293.41888 C 410.29208,322.12378 397.30067,357.43772 391.33285,373.16518 C 388.38141,380.94334 378.30109,399.62798 368.42228,414.16797 C 358.54348,428.70796 352.18637,437.28566 341.60463,447.01507 L 331.85221,441.65356 C 342.64308,433.89296 356.0429,418.76558 363.1658,408.17026 C 372.90584,393.68195 382.56492,379.81655 386.33908,373.21263 C 395.05438,357.96279 403.70934,338.63126 410.90276,293.67103 C 413.25622,278.96148 413.4788,254.15924 413.1314,232.47502 C 412.81481,212.71455 410.96353,193.89345 410.18354,185.06488 C 409.50328,177.36516 408.92326,158.30682 400.94685,136.93699 C 394.48064,119.61319 381.92256,97.931138 370.61076,82.440753 L 373.03045,80.666218 z "
     id="path3954"
     sodipodi:nodetypes="cssssssccsssssscc" />
  <path
     style="fill:#0000ff;fill-opacity:1;fill-rule:nonzero;stroke:none;stroke-width:1px;stroke-linecap:butt;stroke-linejoin:miter;stroke-opacity:1"
     id="path5965"
     d="M 262.32535,433.34912 C 260.96029,442.04334 262.53171,446.9644 262.28036,453.87638 C 266.47745,452.38104 273.78551,449.30679 290.75295,449.13361 C 303.79463,449.0005 324.99057,458.24018 340.40531,458.50477 C 357.15462,458.79227 375.22099,448.92198 389.23529,449.26853 C 408.402,449.74249 421.70674,453.69877 422.98872,453.33649 C 423.86524,449.30754 422.30244,440.04923 422.97266,433.29209 C 418.7236,433.30836 406.91778,429.18291 390.12055,429.12146 C 375.69555,429.06869 358.08226,439.06419 340.95882,438.99987 C 326.20892,438.94447 305.7376,429.802 293.16865,429.76724 C 273.78857,429.71364 264.82154,433.27197 262.32535,433.34912 z "
     sodipodi:nodetypes="ccsssccsssc" />
  <path
     style="fill:#ffcc00;fill-opacity:1;fill-rule:nonzero;stroke:none;stroke-width:1px;stroke-linecap:butt;stroke-linejoin:miter;stroke-opacity:1"
     id="path5967"
     d="M 262.20107,453.1791 C 261.97234,461.95449 262.79934,467.29291 262.54799,474.20489 C 266.74508,472.70955 274.28271,468.48744 291.25015,468.31426 C 304.29183,468.18115 325.48777,477.42083 340.90251,477.68542 C 357.65182,477.97292 374.7999,468.3322 388.8142,468.67875 C 407.98091,469.15271 421.24387,474.02728 422.52585,473.665 C 424.13287,469.87955 422.57007,459.45945 423.24029,452.70231 C 418.99123,452.71858 407.18541,448.36356 390.38818,448.30211 C 375.96318,448.24934 358.34989,458.24484 341.22645,458.18052 C 326.47655,458.12512 305.77313,449.2022 293.20671,448.94789 C 271.24901,448.49423 264.69726,453.10195 262.20107,453.1791 z "
     sodipodi:nodetypes="ccsssccsssc" />
  <path
     style="fill:#ff0033;fill-opacity:1;fill-rule:nonzero;stroke:none;stroke-width:1px;stroke-linecap:butt;stroke-linejoin:miter;stroke-opacity:1"
     id="path5969"
     d="M 262.02481,472.5026 C 260.65975,481.19682 262.79933,486.11788 262.54798,493.02986 C 266.74507,491.53452 274.2827,487.31241 291.25014,487.13923 C 304.29182,487.00612 325.48776,496.2458 340.9025,496.51039 C 357.65181,496.79789 374.79989,487.15717 388.81419,487.50372 C 407.9809,487.97768 421.24386,492.85225 422.52584,492.48997 C 424.13286,488.70452 423.30056,479.20271 422.99678,472.3644 C 418.74772,472.38067 407.1854,468.33639 390.38817,468.27494 C 375.96317,468.22217 358.34988,477.75852 341.22644,477.6942 C 326.47654,477.6388 305.77565,468.03719 293.2067,468.00243 C 273.82662,467.94883 264.521,472.42545 262.02481,472.5026 z "
     sodipodi:nodetypes="ccsssccsssc" />
  <path
     style="fill:#0000ff;fill-opacity:1;fill-rule:nonzero;stroke:none;stroke-width:1px;stroke-linecap:butt;stroke-linejoin:miter;stroke-opacity:1"
     id="path6855"
     d="M 305.70332,509.56906 C 291.1579,515.84396 262.28278,525.10367 246.86804,525.36826 C 230.11873,525.65576 206.08347,518.99949 188.396,505.11252 C 189.89085,496.40357 189.53849,500.17871 193.47964,489.09777 C 211.5778,503.73766 230.10938,507.76426 247.23282,507.69994 C 261.98272,507.64454 289.60883,499.42979 305.1242,493.41671 C 307.32434,502.0963 306.01521,505.5899 305.70332,509.56906 z "
     sodipodi:nodetypes="csccscc" />
  <path
     style="fill:#000000;fill-opacity:1;fill-rule:evenodd;stroke:#000000;stroke-width:3;stroke-linecap:butt;stroke-linejoin:miter;stroke-miterlimit:4;stroke-dasharray:none;stroke-opacity:1"
     d="M 295.07796,524.78902 C 292.75868,530.02847 321.75598,559.42949 335.60388,567.14205 L 344.16728,557.93344 C 333.52345,552.48705 298.74449,516.506 295.07796,524.78902 z "
     id="path8347"
     sodipodi:nodetypes="cccs" />
  <path
     style="fill:#ffcc00;fill-opacity:1;fill-rule:nonzero;stroke:none;stroke-width:1px;stroke-linecap:butt;stroke-linejoin:miter;stroke-opacity:1"
     id="path6857"
     d="M 308.04321,526.32502 C 293.49779,532.59992 262.09737,542.08921 246.68263,542.3538 C 229.93332,542.6413 202.91362,535.06673 185.22615,521.17976 C 186.721,512.47081 184.76163,515.78681 188.70278,504.70587 C 206.80094,519.34576 229.00568,524.7498 246.12912,524.68548 C 260.87902,524.63008 290.34172,515.03789 305.85709,509.02481 C 308.2868,518.39312 308.3551,522.34586 308.04321,526.32502 z "
     sodipodi:nodetypes="csccscc" />
  <path
     style="fill:#ff0033;fill-opacity:1;fill-rule:nonzero;stroke:none;stroke-width:1px;stroke-linecap:butt;stroke-linejoin:miter;stroke-opacity:1"
     id="path6859"
     d="M 308.78442,540.99689 C 294.239,547.27179 262.83858,556.07236 247.42384,556.33695 C 230.67453,556.62445 199.98166,549.96817 182.29419,536.0812 C 183.78904,527.37225 183.89582,529.08124 185.31167,520.75517 C 203.40983,535.39506 229.74689,538.73295 246.87033,538.66863 C 261.62023,538.61323 292.91951,529.2506 308.43488,523.23752 C 310.63502,531.91711 309.09631,537.01773 308.78442,540.99689 z "
     sodipodi:nodetypes="csccscc" />
  <path
     style="fill:#66cc33;fill-opacity:1;fill-rule:evenodd;stroke:#000000;stroke-width:1.89999998;stroke-linecap:butt;stroke-linejoin:miter;stroke-miterlimit:4;stroke-dasharray:none;stroke-opacity:1"
     d="M 32.229618,266.81769 C 39.529926,274.86695 55.43974,292.74081 79.352818,306.9638 C 73.328548,266.7793 67.677168,255.90196 59.273103,240.31903 C 49.355463,221.92962 32.748079,206.90225 23.866278,214.44341 C 18.870596,218.68503 19.464768,252.74327 32.229618,266.81769 z "
     id="path3956"
     sodipodi:nodetypes="ccsss" />
  <path
     style="fill:#66cc33;fill-opacity:1;fill-rule:evenodd;stroke:#000000;stroke-width:1.89999998;stroke-linecap:butt;stroke-linejoin:miter;stroke-miterlimit:4;stroke-dasharray:none;stroke-opacity:1"
     d="M 39.731883,197.54089 C 45.396062,212.13465 51.489128,227.82701 75.402208,242.05 C 78.103938,199.684 77.486508,179.25401 66.229988,165.58847 C 54.676226,151.56206 47.885597,138.17082 36.822295,144.62123 C 31.160824,147.92213 32.856894,179.82747 39.731883,197.54089 z "
     id="path5704"
     sodipodi:nodetypes="ccsss" />
  <path
     style="fill:#66cc33;fill-opacity:1;fill-rule:evenodd;stroke:#000000;stroke-width:1.89999998;stroke-linecap:butt;stroke-linejoin:miter;stroke-miterlimit:4;stroke-dasharray:none;stroke-opacity:1"
     d="M 49.614281,126.44489 C 55.758834,140.84298 59.190025,150.73188 79.285478,166.04562 C 82.532588,134.58712 79.068118,117.8092 75.021638,108.12685 C 73.082968,103.48804 66.666298,83.68605 52.703821,83.341982 C 45.406222,88.824379 46.011544,118.00285 49.614281,126.44489 z "
     id="path5706"
     sodipodi:nodetypes="ccccs" />
  <path
     style="fill:#66cc33;fill-opacity:1;fill-rule:evenodd;stroke:#000000;stroke-width:1.89999998;stroke-linecap:butt;stroke-linejoin:miter;stroke-miterlimit:4;stroke-dasharray:none;stroke-opacity:1"
     d="M 77.330208,69.677843 C 76.967498,89.112023 78.585138,96.844977 92.686998,117.80864 C 105.88021,89.066337 109.63262,72.611049 108.91551,62.141682 C 108.57195,57.125811 109.95635,32.494578 96.846538,27.677749 C 88.173328,30.521524 77.572668,56.141181 77.330208,69.677843 z "
     id="path5708"
     sodipodi:nodetypes="ccccs" />
  <path
     style="fill:#66cc33;fill-opacity:1;fill-rule:evenodd;stroke:#000000;stroke-width:1.89999998;stroke-linecap:butt;stroke-linejoin:miter;stroke-miterlimit:4;stroke-dasharray:none;stroke-opacity:1"
     d="M 49.019463,341.16096 C 56.775705,348.77185 70.373338,355.50389 93.862628,356.90979 C 81.826418,319.54376 70.265898,312.05318 61.318496,302.97456 C 46.65264,288.09361 38.746185,287.20556 25.327966,284.61549 C 21.954135,305.92593 35.457396,327.85302 49.019463,341.16096 z "
     id="path5710"
     sodipodi:nodetypes="ccscs" />
  <path
     style="fill:#66cc33;fill-opacity:1;fill-rule:evenodd;stroke:#000000;stroke-width:1.89999998;stroke-linecap:butt;stroke-linejoin:miter;stroke-miterlimit:4;stroke-dasharray:none;stroke-opacity:1"
     d="M 82.574358,411.93418 C 96.849748,419.19245 106.29383,422.21388 129.7803,423.66604 C 109.77265,388.91429 103.75727,387.9796 93.403388,380.54491 C 77.317268,368.99416 61.011795,361.18465 50.451212,370.42481 C 47.82519,396.05401 65.637128,403.32251 82.574358,411.93418 z "
     id="path5713"
     sodipodi:nodetypes="ccscs" />
  <path
     style="fill:none;fill-opacity:0.75;fill-rule:evenodd;stroke:#000000;stroke-width:1.79999995;stroke-linecap:butt;stroke-linejoin:miter;stroke-miterlimit:4;stroke-dasharray:none;stroke-opacity:1"
     d="M 73.252208,383.9 C 94.839138,407.61118 117.91768,418.1442 128.98125,423.03232"
     id="path5715"
     sodipodi:nodetypes="cz" />
  <path
     style="fill:none;fill-opacity:0.75;fill-rule:evenodd;stroke:#000000;stroke-width:1.79999995;stroke-linecap:butt;stroke-linejoin:miter;stroke-miterlimit:4;stroke-dasharray:none;stroke-opacity:1"
     d="M 39.252208,302.9 C 55.297284,330.66276 83.133688,349.73972 92.903228,356.8708"
     id="path6590"
     sodipodi:nodetypes="cz" />
  <path
     style="fill:none;fill-opacity:0.75;fill-rule:evenodd;stroke:#000000;stroke-width:1.79999995;stroke-linecap:butt;stroke-linejoin:miter;stroke-miterlimit:4;stroke-dasharray:none;stroke-opacity:1"
     d="M 35.706833,238.17312 C 48.832027,268.5061 70.292148,295.31347 78.505548,304.19244"
     id="path6592"
     sodipodi:nodetypes="cz" />
  <path
     style="fill:none;fill-opacity:0.75;fill-rule:evenodd;stroke:#000000;stroke-width:1.79999995;stroke-linecap:butt;stroke-linejoin:miter;stroke-miterlimit:4;stroke-dasharray:none;stroke-opacity:1"
     d="M 49.252208,165.9 C 57.751845,202.23115 68.485478,229.86284 74.223538,240.51042"
     id="path8340"
     sodipodi:nodetypes="cz" />
  <path
     style="fill:none;fill-opacity:0.75;fill-rule:evenodd;stroke:#000000;stroke-width:1.79999995;stroke-linecap:butt;stroke-linejoin:miter;stroke-miterlimit:4;stroke-dasharray:none;stroke-opacity:1"
     d="M 62.342086,108.89738 C 70.493678,140.89085 73.788238,155.06837 79.410078,165.77775"
     id="path8342"
     sodipodi:nodetypes="cz" />
  <path
     style="fill:none;fill-opacity:0.75;fill-rule:evenodd;stroke:#000000;stroke-width:1.79999995;stroke-linecap:butt;stroke-linejoin:miter;stroke-miterlimit:4;stroke-dasharray:none;stroke-opacity:1"
     d="M 93.452208,57.9 C 91.569368,90.861883 90.432098,105.37267 92.560178,117.27927"
     id="path8344"
     sodipodi:nodetypes="cz" />
  <path
     style="fill:#66cc33;fill-opacity:1;fill-rule:evenodd;stroke:#000000;stroke-width:1.89999998;stroke-linecap:butt;stroke-linejoin:miter;stroke-miterlimit:4;stroke-dasharray:none;stroke-opacity:1"
     d="M 120.34598,44.315714 C 113.92078,62.660623 114.51103,59.484593 114.97851,87.538133 C 137.98847,66.431084 140.19068,65.24643 144.84141,53.686185 C 149.30394,42.593736 149.1545,40.400337 146.40682,17.04075 C 134.46136,23.156777 126.04219,28.052175 120.34598,44.315714 z "
     id="path8361"
     sodipodi:nodetypes="cczcs" />
  <path
     style="fill:#66cc33;fill-opacity:1;fill-rule:evenodd;stroke:#000000;stroke-width:1.89999998;stroke-linecap:butt;stroke-linejoin:miter;stroke-miterlimit:4;stroke-dasharray:none;stroke-opacity:1"
     d="M 101.89445,124.19157 C 88.944698,138.68718 87.079388,144.19814 80.605268,165.39148 C 109.9361,154.68318 112.75723,152.02696 121.493,145.48626 C 130.29517,138.89584 143.10081,117.9515 136.40221,108.95 C 127.38904,104.03615 113.37495,111.34059 101.89445,124.19157 z "
     id="path9238"
     sodipodi:nodetypes="cczcs" />
  <path
     style="fill:#66cc33;fill-opacity:1;fill-rule:evenodd;stroke:#000000;stroke-width:1.89999998;stroke-linecap:butt;stroke-linejoin:miter;stroke-miterlimit:4;stroke-dasharray:none;stroke-opacity:1"
     d="M 91.236248,186.36795 C 81.476098,203.17742 80.760578,208.95134 78.693808,231.01489 C 105.26225,214.61114 104.43771,213.47347 110.90919,205.45389 C 117.11056,197.76904 126.51972,178.49004 117.05258,169.38837 C 107.23359,166.39329 99.889028,171.46563 91.236248,186.36795 z "
     id="path9240"
     sodipodi:nodetypes="cczcs" />
  <path
     style="fill:#66cc33;fill-opacity:1;fill-rule:evenodd;stroke:#000000;stroke-width:1.89999998;stroke-linecap:butt;stroke-linejoin:miter;stroke-miterlimit:4;stroke-dasharray:none;stroke-opacity:1"
     d="M 87.703508,241.168 C 79.989738,259.00943 79.958808,264.82744 80.503368,286.98088 C 104.95634,267.56396 104.00362,266.53125 109.48619,257.8057 C 114.73991,249.44434 121.81446,229.19186 111.34183,221.26778 C 101.23856,219.44925 94.542088,225.35081 87.703508,241.168 z "
     id="path10115"
     sodipodi:nodetypes="cczcs" />
  <path
     style="fill:#66cc33;fill-opacity:1;fill-rule:nonzero;stroke:#000000;stroke-width:1.89999998;stroke-linecap:butt;stroke-linejoin:miter;stroke-miterlimit:4;stroke-dasharray:none;stroke-opacity:1"
     d="M 121.75307,372.70983 C 121.53236,392.14614 123.20654,393.7066 134.99579,414.47436 C 149.50144,398.56977 150.40517,390.35015 152.09036,380.18384 C 153.7052,370.44185 149.13245,339.21199 136.41135,335.95 C 126.39011,338.17662 121.94874,355.47871 121.75307,372.70983 z "
     id="path10117"
     sodipodi:nodetypes="cczcs" />
  <path
     style="fill:#66cc33;fill-opacity:1;fill-rule:evenodd;stroke:#000000;stroke-width:1.89999998;stroke-linecap:butt;stroke-linejoin:miter;stroke-miterlimit:4;stroke-dasharray:none;stroke-opacity:1"
     d="M 91.410858,314.7107 C 91.190148,325.87316 91.773578,341.7066 103.56283,362.47436 C 118.06848,346.56977 122.24446,337.80477 123.92965,327.63846 C 125.54449,317.89647 127.51624,269.75998 114.79514,268.67949 C 102.04703,268.17924 91.751518,297.48184 91.410858,314.7107 z "
     id="path10119"
     sodipodi:nodetypes="cczcs" />
  <path
     style="fill:none;fill-opacity:0.75;fill-rule:evenodd;stroke:#000000;stroke-width:1.79999995;stroke-linecap:butt;stroke-linejoin:miter;stroke-miterlimit:4;stroke-dasharray:none;stroke-opacity:1"
     d="M 136.17313,36.444503 C 123.80077,67.054232 118.06205,73.885948 116.25221,85.845059"
     id="path10121"
     sodipodi:nodetypes="cz" />
  <path
     style="fill:none;fill-opacity:0.75;fill-rule:evenodd;stroke:#000000;stroke-width:1.79999995;stroke-linecap:butt;stroke-linejoin:miter;stroke-miterlimit:4;stroke-dasharray:none;stroke-opacity:1"
     d="M 165.73757,58.9 C 136.91165,74.996492 128.15809,76.722902 119.25221,84.907104"
     id="path10123"
     sodipodi:nodetypes="cz" />
  <path
     style="fill:none;fill-opacity:0.75;fill-rule:evenodd;stroke:#000000;stroke-width:1.79999995;stroke-linecap:butt;stroke-linejoin:miter;stroke-miterlimit:4;stroke-dasharray:none;stroke-opacity:1"
     d="M 119.45221,125.933 C 95.783488,148.95088 87.776548,152.88715 81.296308,163.1"
     id="path10125"
     sodipodi:nodetypes="cz" />
  <path
     style="fill:none;fill-opacity:0.75;fill-rule:evenodd;stroke:#000000;stroke-width:1.79999995;stroke-linecap:butt;stroke-linejoin:miter;stroke-miterlimit:4;stroke-dasharray:none;stroke-opacity:1"
     d="M 110.23979,186.7753 C 91.011078,213.61349 83.825738,218.90273 79.252208,230.1"
     id="path10127"
     sodipodi:nodetypes="cz" />
  <path
     style="fill:none;fill-opacity:0.75;fill-rule:evenodd;stroke:#000000;stroke-width:1.79999995;stroke-linecap:butt;stroke-linejoin:miter;stroke-miterlimit:4;stroke-dasharray:none;stroke-opacity:1"
     d="M 106.45221,237.9 C 90.962748,267.05661 84.544478,273.25428 81.500388,284.96024"
     id="path10129"
     sodipodi:nodetypes="cz" />
  <path
     style="fill:none;fill-opacity:0.75;fill-rule:evenodd;stroke:#000000;stroke-width:1.79999995;stroke-linecap:butt;stroke-linejoin:miter;stroke-miterlimit:4;stroke-dasharray:none;stroke-opacity:1"
     d="M 109.45221,294.91115 C 106.64819,327.80749 101.63463,349.13852 103.42886,361.1"
     id="path10131"
     sodipodi:nodetypes="cz" />
  <path
     style="fill:none;fill-opacity:0.75;fill-rule:evenodd;stroke:#000000;stroke-width:1.79999995;stroke-linecap:butt;stroke-linejoin:miter;stroke-miterlimit:4;stroke-dasharray:none;stroke-opacity:1"
     d="M 138.59582,359.62392 C 135.7918,392.52026 133.86335,402.28213 135.65758,414.24361"
     id="path10133"
     sodipodi:nodetypes="cz" />
  <path
     style="fill:#669f33;fill-opacity:1;fill-rule:nonzero;stroke:#000000;stroke-width:2;stroke-linecap:butt;stroke-linejoin:miter;stroke-miterlimit:4;stroke-dasharray:none;stroke-opacity:1"
     id="path10135"
     d="M 142.02466,421.77607 C 147.52627,415.70481 149.66164,412.91982 158.75213,413.56321 C 164.82151,414.08904 171.4107,419.00014 171.62745,423.69634 C 171.84433,428.39526 164.40919,431.38192 165.52117,425.72349 C 166.6218,420.12285 165.46913,418.56094 156.06385,416.597 C 151.28162,415.7624 148.78968,420.97806 143.96253,423.80225 C 141.68351,421.24276 145.98836,425.7581 142.02466,421.77607 z "
     sodipodi:nodetypes="cczzccc" />
  <path
     style="fill:#000000;fill-opacity:1;fill-rule:nonzero;stroke:#000000;stroke-width:2;stroke-linecap:butt;stroke-linejoin:miter;stroke-miterlimit:4;stroke-dasharray:none;stroke-opacity:1"
     id="path11885"
     d="M 106.35221,98.965607 C 111.85382,92.894347 113.98919,90.109357 123.07968,90.752747 C 129.14906,91.278577 135.73825,96.189677 135.955,100.88588 C 136.17188,105.5848 134.12889,106.33792 132.35537,100.98484 C 130.56371,95.577014 129.79668,95.750477 120.3914,93.786537 C 115.60917,92.951937 113.11723,98.167597 108.29008,100.99179 C 106.01106,98.432297 110.31591,102.94764 106.35221,98.965607 z "
     sodipodi:nodetypes="cczzccc" />
  <path
     style="fill:#000000;fill-opacity:1;fill-rule:nonzero;stroke:#000000;stroke-width:2;stroke-linecap:butt;stroke-linejoin:miter;stroke-miterlimit:4;stroke-dasharray:none;stroke-opacity:1"
     id="path11887"
     d="M 382.9709,100.30353 C 377.46929,94.232275 375.33392,91.447285 366.24343,92.090675 C 360.17405,92.616505 353.58486,97.527605 353.36811,102.22381 C 353.15123,106.92273 355.19422,107.67585 356.96774,102.32277 C 358.7594,96.914945 359.52643,97.088405 368.93171,95.124465 C 373.71394,94.289865 376.20588,99.505522 381.03303,102.32972 C 383.31205,99.770222 379.0072,104.28557 382.9709,100.30353 z "
     sodipodi:nodetypes="cczzccc" />
  <path
     style="fill:#66cc33;fill-opacity:1;fill-rule:evenodd;stroke:#000000;stroke-width:1.89999998;stroke-linecap:butt;stroke-linejoin:miter;stroke-miterlimit:4;stroke-dasharray:none;stroke-opacity:1"
     d="M 340.41645,52.313235 C 357.19951,62.118725 355.52748,63.293015 373.35426,84.959245 C 342.15136,83.799685 336.14883,81.282565 327.8362,75.325605 C 319.52356,69.368645 315.94055,68.003725 302.89254,48.434115 C 315.95328,45.349175 325.53755,43.620255 340.41645,52.313235 z "
     id="path11890"
     sodipodi:nodetypes="cczcs" />
  <path
     style="fill:#66cc33;fill-opacity:1;fill-rule:evenodd;stroke:#000000;stroke-width:1.89999998;stroke-linecap:butt;stroke-linejoin:miter;stroke-miterlimit:4;stroke-dasharray:none;stroke-opacity:1"
     d="M 369.31049,43.224965 C 375.73569,61.569875 375.14544,58.393845 374.67796,86.447385 C 351.668,65.340335 349.46579,64.155675 344.81506,52.595435 C 340.35253,41.502985 340.50197,39.309587 343.24965,15.95 C 355.19511,22.066027 363.61428,26.961425 369.31049,43.224965 z "
     id="path11892"
     sodipodi:nodetypes="cczcs" />
  <path
     style="fill:none;fill-opacity:0.75;fill-rule:evenodd;stroke:#000000;stroke-width:1.79999995;stroke-linecap:butt;stroke-linejoin:miter;stroke-miterlimit:4;stroke-dasharray:none;stroke-opacity:1"
     d="M 353.48334,35.353753 C 365.8557,65.963485 371.59442,72.795195 373.40426,84.754305"
     id="path11894"
     sodipodi:nodetypes="cz" />
  <path
     style="fill:none;fill-opacity:0.75;fill-rule:evenodd;stroke:#000000;stroke-width:1.79999995;stroke-linecap:butt;stroke-linejoin:miter;stroke-miterlimit:4;stroke-dasharray:none;stroke-opacity:1"
     d="M 323.9189,57.809245 C 352.74482,73.905745 361.49838,75.632155 370.40426,83.816355"
     id="path11896"
     sodipodi:nodetypes="cz" />
  <path
     style="fill:#66cc33;fill-opacity:1;fill-rule:evenodd;stroke:#000000;stroke-width:1.89999998;stroke-linecap:butt;stroke-linejoin:miter;stroke-miterlimit:4;stroke-dasharray:none;stroke-opacity:1"
     d="M 411.53242,67.919205 C 411.89513,87.353385 410.27749,95.08634 396.17563,116.05 C 382.98242,87.307699 379.23001,70.852411 379.94712,60.383044 C 380.29068,55.367173 378.90628,30.73594 392.01609,25.919111 C 400.6893,28.762886 411.28996,54.382543 411.53242,67.919205 z "
     id="path11898"
     sodipodi:nodetypes="ccccs" />
  <path
     style="fill:none;fill-opacity:0.75;fill-rule:evenodd;stroke:#000000;stroke-width:1.79999995;stroke-linecap:butt;stroke-linejoin:miter;stroke-miterlimit:4;stroke-dasharray:none;stroke-opacity:1"
     d="M 395.41042,56.141362 C 397.29326,89.103245 398.43053,103.61403 396.30245,115.52063"
     id="path11900"
     sodipodi:nodetypes="cz" />
  <path
     style="fill:#66cc33;fill-opacity:1;fill-rule:evenodd;stroke:#000000;stroke-width:1.89999998;stroke-linecap:butt;stroke-linejoin:miter;stroke-miterlimit:4;stroke-dasharray:none;stroke-opacity:1"
     d="M 390.11354,126.86958 C 401.79766,142.40342 403.19264,148.05179 407.86053,169.71472 C 379.53474,156.57641 376.94712,153.69223 368.79269,146.43967 C 360.57627,139.13198 349.57837,117.18441 357.01063,108.77847 C 366.4053,104.64045 379.75507,113.09817 390.11354,126.86958 z "
     id="path11902"
     sodipodi:nodetypes="cczcs" />
  <path
     style="fill:none;fill-opacity:0.75;fill-rule:evenodd;stroke:#000000;stroke-width:1.79999995;stroke-linecap:butt;stroke-linejoin:miter;stroke-miterlimit:4;stroke-dasharray:none;stroke-opacity:1"
     d="M 372.47151,127.12747 C 394.1195,152.05528 401.76683,156.65132 407.36475,167.37322"
     id="path11904"
     sodipodi:nodetypes="cz" />
  <path
     style="fill:#66cc33;fill-opacity:1;fill-rule:evenodd;stroke:#000000;stroke-width:1.89999998;stroke-linecap:butt;stroke-linejoin:miter;stroke-miterlimit:4;stroke-dasharray:none;stroke-opacity:1"
     d="M 441.80533,122.44751 C 435.66078,136.8456 432.22959,146.7345 412.13413,162.04824 C 408.88702,130.58974 412.35149,113.81182 416.39797,104.12947 C 418.33664,99.49066 424.75331,79.68867 438.71579,79.344602 C 446.01339,84.827 445.40807,114.00547 441.80533,122.44751 z "
     id="path11906"
     sodipodi:nodetypes="ccccs" />
  <path
     style="fill:none;fill-opacity:0.75;fill-rule:evenodd;stroke:#000000;stroke-width:1.79999995;stroke-linecap:butt;stroke-linejoin:miter;stroke-miterlimit:4;stroke-dasharray:none;stroke-opacity:1"
     d="M 429.07753,104.9 C 420.92593,136.89347 417.63137,151.07099 412.00953,161.78037"
     id="path11908"
     sodipodi:nodetypes="cz" />
  <path
     style="fill:#66cc33;fill-opacity:1;fill-rule:evenodd;stroke:#000000;stroke-width:1.89999998;stroke-linecap:butt;stroke-linejoin:miter;stroke-miterlimit:4;stroke-dasharray:none;stroke-opacity:1"
     d="M 454.31064,196.54089 C 448.64646,211.13465 442.55339,226.82701 418.64031,241.05 C 415.93858,198.684 416.55601,178.25401 427.81253,164.58847 C 439.36629,150.56206 446.15692,137.17082 457.22022,143.62123 C 462.88169,146.92213 461.18562,178.82747 454.31064,196.54089 z "
     id="path11910"
     sodipodi:nodetypes="ccsss" />
  <path
     style="fill:none;fill-opacity:0.75;fill-rule:evenodd;stroke:#000000;stroke-width:1.79999995;stroke-linecap:butt;stroke-linejoin:miter;stroke-miterlimit:4;stroke-dasharray:none;stroke-opacity:1"
     d="M 444.79031,164.9 C 436.29067,201.23115 425.55704,228.86284 419.81898,239.51042"
     id="path11912"
     sodipodi:nodetypes="cz" />
  <path
     style="fill:#66cc33;fill-opacity:1;fill-rule:evenodd;stroke:#000000;stroke-width:1.89999998;stroke-linecap:butt;stroke-linejoin:miter;stroke-miterlimit:4;stroke-dasharray:none;stroke-opacity:1"
     d="M 400.46817,185.36795 C 410.22832,202.17742 410.94384,207.95134 413.01061,230.01489 C 386.44217,213.61114 387.26671,212.47347 380.79523,204.45389 C 374.59386,196.76904 365.1847,177.49004 374.65184,168.38837 C 384.47083,165.39329 391.81539,170.46563 400.46817,185.36795 z "
     id="path11914"
     sodipodi:nodetypes="cczcs" />
  <path
     style="fill:none;fill-opacity:0.75;fill-rule:evenodd;stroke:#000000;stroke-width:1.79999995;stroke-linecap:butt;stroke-linejoin:miter;stroke-miterlimit:4;stroke-dasharray:none;stroke-opacity:1"
     d="M 381.46463,185.7753 C 400.69334,212.61349 407.87868,217.90273 412.45221,229.1"
     id="path11916"
     sodipodi:nodetypes="cz" />
  <path
     style="fill:#66cc33;fill-opacity:1;fill-rule:evenodd;stroke:#000000;stroke-width:1.89999998;stroke-linecap:butt;stroke-linejoin:miter;stroke-miterlimit:4;stroke-dasharray:none;stroke-opacity:1"
     d="M 403.34098,241.23712 C 411.05475,259.07855 411.08568,264.89656 410.54112,287.05 C 386.08815,267.63308 387.04087,266.60037 381.5583,257.87482 C 376.30458,249.51346 369.23003,229.26098 379.70266,221.3369 C 389.80593,219.51837 396.5024,225.41993 403.34098,241.23712 z "
     id="path11918"
     sodipodi:nodetypes="cczcs" />
  <path
     style="fill:none;fill-opacity:0.75;fill-rule:evenodd;stroke:#000000;stroke-width:1.79999995;stroke-linecap:butt;stroke-linejoin:miter;stroke-miterlimit:4;stroke-dasharray:none;stroke-opacity:1"
     d="M 384.59228,237.96912 C 400.08174,267.12573 406.50001,273.3234 409.5441,285.02936"
     id="path11920"
     sodipodi:nodetypes="cz" />
  <path
     style="fill:#66cc33;fill-opacity:1;fill-rule:evenodd;stroke:#000000;stroke-width:1.89999998;stroke-linecap:butt;stroke-linejoin:miter;stroke-miterlimit:4;stroke-dasharray:none;stroke-opacity:1"
     d="M 459.92942,264.90389 C 452.62912,272.95315 436.7193,290.82701 412.80622,305.05 C 418.83049,264.8655 424.48187,253.98816 432.88594,238.40523 C 442.80358,220.01582 459.41096,204.98845 468.29276,212.52961 C 473.28845,216.77123 472.69427,250.82947 459.92942,264.90389 z "
     id="path11922"
     sodipodi:nodetypes="ccsss" />
  <path
     style="fill:none;fill-opacity:0.75;fill-rule:evenodd;stroke:#000000;stroke-width:1.79999995;stroke-linecap:butt;stroke-linejoin:miter;stroke-miterlimit:4;stroke-dasharray:none;stroke-opacity:1"
     d="M 456.45221,236.25932 C 443.32702,266.5923 421.86689,293.39967 413.65349,302.27864"
     id="path11924"
     sodipodi:nodetypes="cz" />
  <path
     style="fill:#66cc33;fill-opacity:1;fill-rule:evenodd;stroke:#000000;stroke-width:1.89999998;stroke-linecap:butt;stroke-linejoin:miter;stroke-miterlimit:4;stroke-dasharray:none;stroke-opacity:1"
     d="M 442.18669,344.16096 C 434.43045,351.77185 420.83281,358.50389 397.34352,359.90979 C 409.37973,322.54376 420.94025,315.05318 429.88765,305.97456 C 444.55351,291.09361 452.45996,290.20556 465.87818,287.61549 C 469.25201,308.92593 455.74875,330.85302 442.18669,344.16096 z "
     id="path11926"
     sodipodi:nodetypes="ccscs" />
  <path
     style="fill:none;fill-opacity:0.75;fill-rule:evenodd;stroke:#000000;stroke-width:1.79999995;stroke-linecap:butt;stroke-linejoin:miter;stroke-miterlimit:4;stroke-dasharray:none;stroke-opacity:1"
     d="M 451.95394,305.9 C 435.90887,333.66276 408.07246,352.73972 398.30292,359.8708"
     id="path11928"
     sodipodi:nodetypes="cz" />
  <path
     style="fill:#66cc33;fill-opacity:1;fill-rule:evenodd;stroke:#000000;stroke-width:1.89999998;stroke-linecap:butt;stroke-linejoin:miter;stroke-miterlimit:4;stroke-dasharray:none;stroke-opacity:1"
     d="M 370.38431,372.56622 C 370.60502,392.00253 368.93084,393.56299 357.14159,414.33075 C 342.63594,398.42616 341.73221,390.20654 340.04702,380.04023 C 338.43218,370.29824 343.00493,339.06838 355.72603,335.80639 C 365.74727,338.03301 370.18864,355.3351 370.38431,372.56622 z "
     id="path11930"
     sodipodi:nodetypes="cczcs" />
  <path
     style="fill:none;fill-opacity:0.75;fill-rule:evenodd;stroke:#000000;stroke-width:1.79999995;stroke-linecap:butt;stroke-linejoin:miter;stroke-miterlimit:4;stroke-dasharray:none;stroke-opacity:1"
     d="M 353.54156,359.48031 C 356.34558,392.37665 358.27403,402.13852 356.4798,414.1"
     id="path11932"
     sodipodi:nodetypes="cz" />
  <path
     style="fill:#66cc33;fill-opacity:1;fill-rule:evenodd;stroke:#000000;stroke-width:1.89999998;stroke-linecap:butt;stroke-linejoin:miter;stroke-miterlimit:4;stroke-dasharray:none;stroke-opacity:1"
     d="M 410.13006,411.31814 C 395.85467,418.57641 386.41059,421.59784 362.92412,423.05 C 382.93177,388.29825 388.94715,387.36356 399.30103,379.92887 C 415.38715,368.37812 431.69263,360.56861 442.25321,369.80877 C 444.87923,395.43797 427.06729,402.70647 410.13006,411.31814 z "
     id="path11934"
     sodipodi:nodetypes="ccscs" />
  <path
     style="fill:none;fill-opacity:0.75;fill-rule:evenodd;stroke:#000000;stroke-width:1.79999995;stroke-linecap:butt;stroke-linejoin:miter;stroke-miterlimit:4;stroke-dasharray:none;stroke-opacity:1"
     d="M 419.45221,383.28396 C 397.86528,406.99514 374.78674,417.52816 363.72317,422.41628"
     id="path11936"
     sodipodi:nodetypes="cz" />
  <path
     style="fill:#66cc33;fill-opacity:1;fill-rule:evenodd;stroke:#000000;stroke-width:1.89999998;stroke-linecap:butt;stroke-linejoin:miter;stroke-miterlimit:4;stroke-dasharray:none;stroke-opacity:1"
     d="M 400.73599,313.28192 C 401.79826,324.39591 402.41111,340.22824 392.22236,361.82629 C 376.55808,347.06147 371.73269,338.63652 369.28527,328.62633 C 366.94001,319.03395 361.34205,271.18343 373.94537,269.14623 C 386.6194,267.68558 399.09641,296.12787 400.73599,313.28192 z "
     id="path11938"
     sodipodi:nodetypes="cczcs" />
  <path
     style="fill:#66cc33;fill-opacity:1;fill-rule:evenodd;stroke:#000000;stroke-width:1.79999995;stroke-linecap:butt;stroke-linejoin:miter;stroke-miterlimit:4;stroke-dasharray:none;stroke-opacity:1"
     d="M 381.25221,294.9 C 386.53023,327.49102 393.1389,348.38298 392.25226,360.44574"
     id="path11940"
     sodipodi:nodetypes="cz" />
</svg>
