<?xml version="1.0" encoding="utf-8"?>
<!-- Generator: Adobe Illustrator 13.0.0, SVG Export Plug-In . SVG Version: 6.00 Build 14948)  -->
<!DOCTYPE svg PUBLIC "-//W3C//DTD SVG 1.1//EN" "http://www.w3.org/Graphics/SVG/1.1/DTD/svg11.dtd">
<svg version="1.1" id="Layer_1" xmlns="http://www.w3.org/2000/svg" xmlns:xlink="http://www.w3.org/1999/xlink" x="0px" y="0px"
	 width="569.334px" height="377.001px" viewBox="0 0 569.334 377.001" enable-background="new 0 0 569.334 377.001"
	 xml:space="preserve">
<circle fill="#FF0000" cx="535.081" cy="352.082" r="16.499"/>
<rect fill="#0061B6" width="569.334" height="364.081"/>
<path fill="#FFFB00" d="M203.961,207.811c-12.478-4.821-25.88-21.357-25.88-21.357l43.839-0.235c0,0-7.945-6.154-19.171-10.718
	c-6.476-2.633-16.763-3.117-20.25-5.75c-9.532-7.198-2.26-10.753-2.26-10.753s5.816,7.361,21.76,5.003
	c5.899-0.873,19.5,0.25,19.5,0.25s-7.321-2.589-11.5-5.5S195,145,195,145s11.221,4.421,17.75,4s13.424-1.061,13.424-1.061
	s-3.327-3.865-4.674-10.439c-1.035-5.047,2.157-12.559-3.25-18.25c-4.75-5-14.192-9.589-14.192-9.589S220.75,108,230.5,115.5
	c6.194,4.765,13.538,17.979,13.538,17.979s2.462-8.729,2.212-14.979s-1.362-13.092-1.362-13.092s7.362,2.592,10.362,8.342
	s4.949,11.222,4.949,11.222s-1.211-16.913,0.045-28.722c1.146-10.777-1.938-19.461-0.754-18.845
	c12.061,6.282,11.453,17.063,16.583,28.896c3.731,8.607,6.533,12.312,6.533,12.312s3.71-3.945,5.528-8.794
	c0.753-2.01-4.271-16.583,1.759-16.332c1.004,0.042-2.01,4.774,3.769,9.799c4.833,4.203,5.527,10.302,5.527,10.302
	s0.754-6.282,5.277-12.061c9.843-12.577,5.025-23.619,14.824-22.111c0.567,0.087-2.169,3.409-1.759,7.538
	c0.557,5.604,3.015,7.789,1.005,16.583C316.873,110.82,318,122.25,318,122.25s3.75-0.75,6.25-7.75s9.104-5.69,9.104-5.69
	s-4.34,5.826-2.104,9.44c3.25,5.25,1,11.5,1,11.5s9.231-7.875,20.5-7.5c7.5,0.25,17.75-17.5,17.75-17.5s0.691,16.086-7.25,24.75
	c-8.25,9-18.838,15.037-18.838,15.037s7.088,3.953,13.088,3.713s16.5-5,16.5-5s-3.767,6.982-8.5,11.5s-11.75,8.75-11.75,8.75
	s14.25-3.032,24.25,1.984s22.554,2.87,22.554,2.87s-0.053,8.727-13.054,8.896c-19.25,0.25-26.499,7.946-26.499,7.946l42.715-0.251
	c0,0-9.19,14.8-23.368,22.362c-7.537,4.021-23.116,3.518-23.116,3.518s9.557,7.904,12.313,14.071
	c5.276,11.809,4.64,35.326,4.64,35.326s-20.47,4.875-34.792,1.86c-12.736-2.681-21.35-13.77-21.35-13.77s2.026,15.367-3.776,24.071
	c-6.03,9.045-23.87,24.875-23.87,24.875s-13.063-11.269-22.614-20.604c-11.056-10.805-7.034-28.142-7.034-28.142
	s-2.011,5.025-15.077,10.051s-40.956,1.005-40.956,1.005s1.005-21.86,4.774-33.921s14.322-17.588,14.322-17.588
	S215.017,212.082,203.961,207.811z"/>
<path fill="#FF0000" d="M345,184.563c0,0,0.25,0.04,0.25,0.062C345.5,216.75,320.458,240,289.875,240S234.5,215.207,234.5,184.625
	c0-0.029,0.749-0.08,0.749-0.08L345,184.563z"/>
<path fill="#009260" d="M569.334,377.001v-190H418.462c-0.125,5.479-0.593,10.871-1.38,16.16l27.966,20.539
	c-2.591,10.182-6.157,19.973-10.589,29.271l-32.955-4.948c-2.949,5.148-6.238,10.076-9.846,14.747l17.088,28.648
	c-6.651,7.38-13.98,14.134-21.885,20.175l-29.377-17.95c-4.346,2.7-8.864,5.149-13.534,7.327l1.071,33.662
	c-9.499,3.503-19.421,6.125-29.668,7.784l-16.876-29.732c-2.967,0.204-5.959,0.315-8.978,0.315c-2.752,0-5.481-0.096-8.19-0.266
	l-16.117,29.936c-10.208-1.551-20.096-4.072-29.577-7.451l0.32-33.841c-4.694-2.146-9.235-4.563-13.606-7.235l-28.566,18.686
	c-8.122-6.046-15.649-12.844-22.486-20.286l16.343-29.418c-3.684-4.736-7.042-9.736-10.047-14.968l-33.596,3.606
	c-4.24-9.09-7.655-18.64-10.146-28.56l28.258-18.977c-0.887-5.63-1.418-11.378-1.552-17.226H0v190H569.334z"/>
<path fill="#009260" d="M151.006,186.332c-0.222-3.083-0.34-6.194-0.34-9.333c0-70.358,56.77-127.449,127-127.987
	c-0.334-0.002-0.666-0.013-1-0.013c-70.692,0-128,57.308-128,128c0,3.139,0.119,6.25,0.34,9.333H151.006z"/>
<path fill="#009260" d="M149.206,164.031c0.455,4.908-1.149,12.873-9.46,12.755c-6.701-0.095-10.151-6.903-9.74-13.969
	c0.514-8.849,7.495-24.546,7.495-24.546S148.45,155.864,149.206,164.031z"/>
<path fill="#009260" d="M165.727,111.895c-1.411,4.723-5.872,11.512-13.538,8.3c-6.181-2.59-6.839-10.194-3.82-16.596
	c3.781-8.017,16.119-19.972,16.119-19.972S168.076,104.036,165.727,111.895z"/>
<path fill="#009260" d="M197.31,75.702c-2.329,4.344-8.061,10.102-14.927,5.418c-5.536-3.776-4.657-11.358-0.416-17.025
	C187.278,57,201.762,47.76,201.762,47.76S201.187,68.474,197.31,75.702z"/>
<path fill="#009260" d="M241.091,53.236c-3.756,3.191-11.196,6.455-15.875-0.417c-3.772-5.539-0.181-12.274,5.838-15.997
	c7.539-4.663,24.398-7.966,24.398-7.966S247.342,47.926,241.091,53.236z"/>
<path fill="#009260" d="M170.208,162.02c-1.501,4.695-6.091,11.398-13.694,8.04c-6.13-2.708-6.644-10.322-3.503-16.666
	c3.933-7.943,16.497-19.661,16.497-19.661S172.706,154.207,170.208,162.02z"/>
<path fill="#009260" d="M185.462,119.599c-4.067,2.784-11.806,5.256-15.746-2.063c-3.176-5.901,1.095-12.227,7.469-15.305
	c7.982-3.854,25.093-5.388,25.093-5.388S192.231,114.967,185.462,119.599z"/>
<path fill="#009260" d="M212.691,90.134c-4.709,1.456-12.833,1.527-14.43-6.629c-1.288-6.576,4.663-11.355,11.663-12.41
	c8.766-1.319,25.564,2.279,25.564,2.279S220.528,87.712,212.691,90.134z"/>
<path fill="#009260" d="M255.234,70.333c-4.869,0.765-12.919-0.331-13.329-8.633c-0.33-6.693,6.246-10.567,13.324-10.605
	c8.864-0.048,24.972,5.925,24.972,5.925S263.337,69.062,255.234,70.333z"/>
<path fill="#009260" d="M426.168,186.332c0.223-3.083,0.34-6.194,0.34-9.333c0-70.358-56.77-127.449-127-127.987
	c0.334-0.002,0.666-0.013,1-0.013c70.692,0,128,57.308,128,128c0,3.139-0.118,6.25-0.34,9.333H426.168z"/>
<path fill="#009260" d="M427.968,164.031c-0.454,4.908,1.149,12.873,9.46,12.755c6.701-0.095,10.151-6.903,9.74-13.969
	c-0.514-8.849-7.495-24.546-7.495-24.546S428.724,155.864,427.968,164.031z"/>
<path fill="#009260" d="M411.447,111.895c1.41,4.723,5.872,11.512,13.538,8.3c6.181-2.59,6.839-10.194,3.819-16.596
	c-3.781-8.017-16.119-19.972-16.119-19.972S409.098,104.036,411.447,111.895z"/>
<path fill="#009260" d="M379.863,75.702c2.33,4.344,8.061,10.102,14.928,5.418c5.535-3.776,4.657-11.358,0.416-17.025
	C389.896,57,375.412,47.76,375.412,47.76S375.987,68.474,379.863,75.702z"/>
<path fill="#009260" d="M336.083,53.236c3.756,3.191,11.196,6.455,15.874-0.417c3.772-5.539,0.182-12.274-5.838-15.997
	c-7.539-4.663-24.398-7.966-24.398-7.966S329.832,47.926,336.083,53.236z"/>
<path fill="#009260" d="M406.967,162.02c1.5,4.695,6.091,11.398,13.693,8.04c6.131-2.708,6.645-10.322,3.504-16.666
	c-3.934-7.943-16.498-19.661-16.498-19.661S404.469,154.207,406.967,162.02z"/>
<path fill="#009260" d="M391.712,119.599c4.067,2.784,11.806,5.256,15.745-2.063c3.176-5.901-1.095-12.227-7.469-15.305
	c-7.982-3.854-25.093-5.388-25.093-5.388S384.943,114.967,391.712,119.599z"/>
<path fill="#009260" d="M364.482,90.134c4.71,1.456,12.834,1.527,14.431-6.629c1.288-6.576-4.663-11.355-11.663-12.41
	c-8.766-1.319-25.563,2.279-25.563,2.279S356.646,87.712,364.482,90.134z"/>
<path fill="#009260" d="M321.94,70.333c4.869,0.765,12.919-0.331,13.329-8.633c0.33-6.693-6.246-10.567-13.324-10.605
	c-8.864-0.048-24.972,5.925-24.972,5.925S313.837,69.062,321.94,70.333z"/>
<rect y="184.907" fill="#FF0000" width="160.534" height="2.106"/>
<rect x="418.484" y="184.907" fill="#FF0000" width="150.85" height="2.106"/>
</svg>
