<?xml version="1.0" encoding="UTF-8" standalone="no"?>
<!-- Created with Inkscape (http://www.inkscape.org/) -->
<svg
   xmlns:dc="http://purl.org/dc/elements/1.1/"
   xmlns:cc="http://web.resource.org/cc/"
   xmlns:rdf="http://www.w3.org/1999/02/22-rdf-syntax-ns#"
   xmlns:svg="http://www.w3.org/2000/svg"
   xmlns="http://www.w3.org/2000/svg"
   xmlns:xlink="http://www.w3.org/1999/xlink"
   xmlns:sodipodi="http://sodipodi.sourceforge.net/DTD/sodipodi-0.dtd"
   xmlns:inkscape="http://www.inkscape.org/namespaces/inkscape"
   width="728"
   height="484.55511"
   id="svg2227"
   sodipodi:version="0.32"
   inkscape:version="0.45"
   version="1.0"
   sodipodi:docname="chaco2.svg"
   inkscape:output_extension="org.inkscape.output.svg.inkscape"
   sodipodi:docbase="C:\Documents and Settings\Lu1g1 y EdU\Escritorio"
   sodipodi:modified="true">
  <defs
     id="defs2229" />
  <sodipodi:namedview
     id="base"
     pagecolor="#ffffff"
     bordercolor="#666666"
     borderopacity="1.0"
     inkscape:pageopacity="0.0"
     inkscape:pageshadow="2"
     inkscape:zoom="0.5"
     inkscape:cx="397.76129"
     inkscape:cy="281.22765"
     inkscape:document-units="px"
     inkscape:current-layer="layer1"
     inkscape:window-width="800"
     inkscape:window-height="544"
     inkscape:window-x="-4"
     inkscape:window-y="-4" />
  <metadata
     id="metadata2232">
    <rdf:RDF>
      <cc:Work
         rdf:about="">
        <dc:format>image/svg+xml</dc:format>
        <dc:type
           rdf:resource="http://purl.org/dc/dcmitype/StillImage" />
      </cc:Work>
    </rdf:RDF>
  </metadata>
  <g
     inkscape:label="Capa 1"
     inkscape:groupmode="layer"
     id="layer1"
     transform="translate(-70.223458,-250.61786)">
    <g
       id="g3320"
       transform="matrix(2.9074815,0,0,2.9074815,488.88569,864.51606)">
      <g
         transform="translate(6.0616348,-181.85601)"
         id="g4164">
        <path
           id="rect2218"
           d="M -150.05644,-29.287928 L -66.580025,-29.287928 L -66.580025,137.36957 L -150.05644,137.36957 L -150.05644,-29.287928 z "
           style="color:#000000;fill:#1db062;fill-opacity:1;fill-rule:evenodd;stroke:none;stroke-width:0.30000001;stroke-linecap:butt;stroke-linejoin:miter;marker:none;marker-start:none;marker-mid:none;marker-end:none;stroke-miterlimit:4;stroke-dashoffset:0;stroke-opacity:1;visibility:visible;display:inline;overflow:visible;enable-background:accumulate" />
        <path
           id="rect3191"
           d="M -66.586792,-29.28779 L 16.889626,-29.28779 L 16.889626,137.36971 L -66.586792,137.36971 L -66.586792,-29.28779 z "
           style="color:#000000;fill:#ffffff;fill-opacity:1;fill-rule:evenodd;stroke:none;stroke-width:0.30000001;stroke-linecap:butt;stroke-linejoin:miter;marker:none;marker-start:none;marker-mid:none;marker-end:none;stroke-miterlimit:4;stroke-dashoffset:0;stroke-opacity:1;visibility:visible;display:inline;overflow:visible;enable-background:accumulate" />
        <path
           id="rect3193"
           d="M 16.855658,-29.288309 L 100.33208,-29.288309 L 100.33208,137.36919 L 16.855658,137.36919 L 16.855658,-29.288309 z "
           style="color:#000000;fill:#94c9e9;fill-opacity:1;fill-rule:evenodd;stroke:none;stroke-width:0.30000001;stroke-linecap:butt;stroke-linejoin:miter;marker:none;marker-start:none;marker-mid:none;marker-end:none;stroke-miterlimit:4;stroke-dashoffset:0;stroke-opacity:1;visibility:visible;display:inline;overflow:visible;enable-background:accumulate" />
      </g>
      <g
         id="g3255">
        <g
           id="sun"
           style="fill:#fcbf49;stroke:#843511;stroke-width:1.5"
           transform="matrix(0.1532357,0,0,0.1532357,-18.656928,-172.73418)">
          <g
             id="16rays">
            <g
               id="8rays">
              <g
                 id="4rays">
                <g
                   id="2rays">
                  <path
                     d="M -8,0 L -2,159.5 C -2,159.5 -2,162.5 0,162.5 C 2,162.5 2,159.5 2,159.5 L 8,0"
                     id="path13" />
                  <path
                     d="M -4,0 L 0,109.5 L 4,0"
                     id="path15"
                     style="fill:#843511;stroke:none" />
                  <g
                     transform="matrix(0.9799247,0.1993679,-0.1993679,0.9799247,0,0)"
                     id="g17">
                    <path
                       d="M -4.5,53.5 C -9.5,75 1.5,89.5 -4,108.5 C -9.5,127.5 -1,140.5 0,148.5 C 1,156.5 -5,160 -3,161.5 C -1,163 5,158 5.5,147 C 6,136 -1.5,131.25 5,108 C 11.5,84.75 1,77 8,56"
                       id="path19" />
                    <path
                       d="M -1,58 C -4,79 6,90.5 0,109 C 8,95 -2,81 3,59"
                       id="path21"
                       style="fill:#843511;stroke:none" />
                  </g>
                </g>
                <use
                   xlink:href="#2rays"
                   transform="scale(-1,-1)"
                   id="use23"
                   x="0"
                   y="0"
                   width="330"
                   height="330" />
              </g>
              <use
                 xlink:href="#4rays"
                 transform="matrix(0,1,-1,0,0,0)"
                 id="use25"
                 x="0"
                 y="0"
                 width="330"
                 height="330" />
            </g>
            <use
               xlink:href="#8rays"
               transform="matrix(0.7071068,0.7071068,-0.7071068,0.7071068,0,0)"
               id="use27"
               x="0"
               y="0"
               width="330"
               height="330" />
          </g>
          <use
             xlink:href="#16rays"
             transform="matrix(0.9238795,0.3826834,-0.3826834,0.9238795,0,0)"
             id="use29"
             x="0"
             y="0"
             width="330"
             height="330" />
          <circle
             r="65"
             id="circle31"
             cx="0"
             cy="0"
             sodipodi:cx="0"
             sodipodi:cy="0"
             sodipodi:rx="65"
             sodipodi:ry="65"
             style="stroke-width:1" />
          <g
             id="face_right"
             style="fill:#843511;stroke:none">
            <path
               id="eyebrow_nose"
               d="M 41,-14 C 29.5,-24 15,-25.5 7,-18 C 1.1936273,-10.23694 1.7110236,-1.0962716 8.5,8.5 C 8,8.5 7,9 6.5,9.5 C 1.457445,-0.10281648 0.59005143,-9.991103 4,-19 C 15,-28 30,-29 41,-14" />
            <path
               id="uppalpebra"
               d="M 23,-17 C 16.5,-17 15,-15.5 12,-13 C 9,-10.5 7.5,-11 7,-10.5 C 6.5,-10 7,-8.5 8,-9 C 9,-9.5 11,-10.5 14,-13 C 17,-15.5 20,-15.5 23,-15.5 C 32,-15.5 37,-8 38,-8.5 C 39,-9 33,-17 23,-17" />
            <path
               id="upeyecontour"
               d="M 34.5,-8.5 C 28,-15.5 16,-16 11,-8 L 13,-8 C 18,-16 30,-12.5 31,-9 L 31,-8" />
            <circle
               id="pupil"
               cx="22"
               cy="-9"
               r="4.5"
               sodipodi:cx="22"
               sodipodi:cy="-9"
               sodipodi:rx="4.5"
               sodipodi:ry="4.5" />
            <path
               id="loweyecontour"
               d="M 11,-8 C 16,-3.5 27,-3 34.5,-8.5 L 31,-9 C 26,-3.5 18,-4 13,-8 L 13,-9" />
            <path
               id="lowpalpebra"
               d="M 35,-6 C 26.5,0.5 18,0 13,-3 C 8,-6 8,-7 9,-7 C 10,-7 11,-6 15,-4 C 19,-2 25,-2 35,-6" />
            <path
               id="nose"
               d="M 10.5,9 C 11.91609,9.5034893 12.741084,10.977139 12.430035,12.447534 C 12.118986,13.917928 10.767895,14.931246 9.2692225,14.818143 C 7.7705501,14.70504 6.5868446,13.500423 6.5,12 C 6,13 4,16 0,16 L -1,16 L 0,17.5 C 1,17.5 4,17.5 6,16 C 7.1633883,17.669092 9.3019644,18.349966 11.216194,17.660715 C 13.130424,16.971465 14.344072,15.083568 14.176399,13.055952 C 14.008726,11.028336 12.501448,9.3654448 10.5,9" />
            <path
               id="uplip"
               d="M 16.5,30 C 12,27 10,22.5 5,22.5 C 4,22.5 2,23 0,24 L -1,24 L 0,25.5 C 2,25.5 5,23 8.5,25 C 12,27 14,29 16.5,30" />
            <path
               id="midlip"
               d="M 15,30 C 5,27 3,29 0,29 L -1,29 L 0,31 C 4,31 6,28 15,30" />
            <path
               id="path43"
               d="M 16.5,30 C 5.5,29 9,35.5 0,35.5 L -1,35.5 L 0,37 C 11,37 6,31 16.5,30" />
            <path
               id="chin"
               d="M 9,46 C 9,41.029437 4.9705627,37 2.5494743e-015,37 C -4.9705627,37 -9,41.029437 -9,46 C -8.0103271,41.830032 -4.2858007,38.886001 1.0005764e-015,38.886001 C 4.2858007,38.886001 8.0103271,41.830032 9,46" />
          </g>
          <use
             xlink:href="#face_right"
             transform="scale(-1,1)"
             id="use46"
             x="0"
             y="0"
             width="330"
             height="330" />
        </g>
        <g
           id="g3219">
          <g
             style="fill:#fcbf49;fill-opacity:1;stroke:#ffdc4d"
             transform="translate(-5.7445686e-2,-8.4508088e-2)"
             id="g2264">
            <g
               style="fill:#fcbf49;fill-opacity:1;stroke:#ffdc4d"
               id="g2198">
              <path
                 transform="matrix(5.3756684,0,0,5.3756684,92.92972,603.41918)"
                 d="M -20.341813,-136.56178 L -20.728798,-136.84922 L -21.113819,-136.55872 L -20.96003,-137.01559 L -21.355292,-137.292 L -20.87326,-137.28692 L -20.732524,-137.74825 L -20.5884,-137.28824 L -20.106159,-137.29695 L -20.499118,-137.01773 L -20.341813,-136.56178 z "
                 inkscape:randomized="0"
                 inkscape:rounded="0"
                 inkscape:flatsided="false"
                 sodipodi:arg2="1.5661609"
                 sodipodi:arg1="0.93851503"
                 sodipodi:r2="0.24231865"
                 sodipodi:r1="0.65671289"
                 sodipodi:cy="-137.09154"
                 sodipodi:cx="-20.729921"
                 sodipodi:sides="5"
                 id="path2187"
                 style="opacity:1;color:#000000;fill:#fcbf49;fill-opacity:1;fill-rule:evenodd;stroke:#ffdc4d;stroke-width:0.03981259;stroke-linecap:butt;stroke-linejoin:miter;marker:none;marker-start:none;marker-mid:none;marker-end:none;stroke-miterlimit:4;stroke-dasharray:none;stroke-dashoffset:0;stroke-opacity:1;visibility:visible;display:inline;overflow:visible;enable-background:accumulate"
                 sodipodi:type="star" />
              <path
                 transform="matrix(5.1667636,-1.4840371,1.4840371,5.1667636,282.89946,544.9753)"
                 d="M -20.341813,-136.56178 L -20.728798,-136.84922 L -21.113819,-136.55872 L -20.96003,-137.01559 L -21.355292,-137.292 L -20.87326,-137.28692 L -20.732524,-137.74825 L -20.5884,-137.28824 L -20.106159,-137.29695 L -20.499118,-137.01773 L -20.341813,-136.56178 z "
                 inkscape:randomized="0"
                 inkscape:rounded="0"
                 inkscape:flatsided="false"
                 sodipodi:arg2="1.5661609"
                 sodipodi:arg1="0.93851503"
                 sodipodi:r2="0.24231865"
                 sodipodi:r1="0.65671289"
                 sodipodi:cy="-137.09154"
                 sodipodi:cx="-20.729921"
                 sodipodi:sides="5"
                 id="path2188"
                 style="opacity:1;color:#000000;fill:#fcbf49;fill-opacity:1;fill-rule:evenodd;stroke:#ffdc4d;stroke-width:0.03981259;stroke-linecap:butt;stroke-linejoin:miter;marker:none;marker-start:none;marker-mid:none;marker-end:none;stroke-miterlimit:4;stroke-dasharray:none;stroke-dashoffset:0;stroke-opacity:1;visibility:visible;display:inline;overflow:visible;enable-background:accumulate"
                 sodipodi:type="star" />
              <path
                 transform="matrix(4.7297375,-2.5548769,2.5548769,4.7297375,412.14635,466.29187)"
                 d="M -20.341813,-136.56178 L -20.728798,-136.84922 L -21.113819,-136.55872 L -20.96003,-137.01559 L -21.355292,-137.292 L -20.87326,-137.28692 L -20.732524,-137.74825 L -20.5884,-137.28824 L -20.106159,-137.29695 L -20.499118,-137.01773 L -20.341813,-136.56178 z "
                 inkscape:randomized="0"
                 inkscape:rounded="0"
                 inkscape:flatsided="false"
                 sodipodi:arg2="1.5661609"
                 sodipodi:arg1="0.93851503"
                 sodipodi:r2="0.24231865"
                 sodipodi:r1="0.65671289"
                 sodipodi:cy="-137.09154"
                 sodipodi:cx="-20.729921"
                 sodipodi:sides="5"
                 id="path2190"
                 style="opacity:1;color:#000000;fill:#fcbf49;fill-opacity:1;fill-rule:evenodd;stroke:#ffdc4d;stroke-width:0.03981259;stroke-linecap:butt;stroke-linejoin:miter;marker:none;marker-start:none;marker-mid:none;marker-end:none;stroke-miterlimit:4;stroke-dasharray:none;stroke-dashoffset:0;stroke-opacity:1;visibility:visible;display:inline;overflow:visible;enable-background:accumulate"
                 sodipodi:type="star" />
              <path
                 transform="matrix(3.9135994,-3.6853156,3.6853156,3.9135994,542.8586,336.42283)"
                 d="M -20.341813,-136.56178 L -20.728798,-136.84922 L -21.113819,-136.55872 L -20.96003,-137.01559 L -21.355292,-137.292 L -20.87326,-137.28692 L -20.732524,-137.74825 L -20.5884,-137.28824 L -20.106159,-137.29695 L -20.499118,-137.01773 L -20.341813,-136.56178 z "
                 inkscape:randomized="0"
                 inkscape:rounded="0"
                 inkscape:flatsided="false"
                 sodipodi:arg2="1.5661609"
                 sodipodi:arg1="0.93851503"
                 sodipodi:r2="0.24231865"
                 sodipodi:r1="0.65671289"
                 sodipodi:cy="-137.09154"
                 sodipodi:cx="-20.729921"
                 sodipodi:sides="5"
                 id="path2192"
                 style="opacity:1;color:#000000;fill:#fcbf49;fill-opacity:1;fill-rule:evenodd;stroke:#ffdc4d;stroke-width:0.03981259;stroke-linecap:butt;stroke-linejoin:miter;marker:none;marker-start:none;marker-mid:none;marker-end:none;stroke-miterlimit:4;stroke-dasharray:none;stroke-dashoffset:0;stroke-opacity:1;visibility:visible;display:inline;overflow:visible;enable-background:accumulate"
                 sodipodi:type="star" />
              <path
                 transform="matrix(2.7568901,-4.6149072,4.6149072,2.7568901,640.44856,165.42759)"
                 d="M -20.341813,-136.56178 L -20.728798,-136.84922 L -21.113819,-136.55872 L -20.96003,-137.01559 L -21.355292,-137.292 L -20.87326,-137.28692 L -20.732524,-137.74825 L -20.5884,-137.28824 L -20.106159,-137.29695 L -20.499118,-137.01773 L -20.341813,-136.56178 z "
                 inkscape:randomized="0"
                 inkscape:rounded="0"
                 inkscape:flatsided="false"
                 sodipodi:arg2="1.5661609"
                 sodipodi:arg1="0.93851503"
                 sodipodi:r2="0.24231865"
                 sodipodi:r1="0.65671289"
                 sodipodi:cy="-137.09154"
                 sodipodi:cx="-20.729921"
                 sodipodi:sides="5"
                 id="path2194"
                 style="opacity:1;color:#000000;fill:#fcbf49;fill-opacity:1;fill-rule:evenodd;stroke:#ffdc4d;stroke-width:0.03981259;stroke-linecap:butt;stroke-linejoin:miter;marker:none;marker-start:none;marker-mid:none;marker-end:none;stroke-miterlimit:4;stroke-dasharray:none;stroke-dashoffset:0;stroke-opacity:1;visibility:visible;display:inline;overflow:visible;enable-background:accumulate"
                 sodipodi:type="star" />
              <path
                 transform="matrix(1.6889489,-5.1034558,5.1034558,1.6889489,681.47627,17.388803)"
                 d="M -20.341813,-136.56178 L -20.728798,-136.84922 L -21.113819,-136.55872 L -20.96003,-137.01559 L -21.355292,-137.292 L -20.87326,-137.28692 L -20.732524,-137.74825 L -20.5884,-137.28824 L -20.106159,-137.29695 L -20.499118,-137.01773 L -20.341813,-136.56178 z "
                 inkscape:randomized="0"
                 inkscape:rounded="0"
                 inkscape:flatsided="false"
                 sodipodi:arg2="1.5661609"
                 sodipodi:arg1="0.93851503"
                 sodipodi:r2="0.24231865"
                 sodipodi:r1="0.65671289"
                 sodipodi:cy="-137.09154"
                 sodipodi:cx="-20.729921"
                 sodipodi:sides="5"
                 id="path2196"
                 style="opacity:1;color:#000000;fill:#fcbf49;fill-opacity:1;fill-rule:evenodd;stroke:#ffdc4d;stroke-width:0.03981259;stroke-linecap:butt;stroke-linejoin:miter;marker:none;marker-start:none;marker-mid:none;marker-end:none;stroke-miterlimit:4;stroke-dasharray:none;stroke-dashoffset:0;stroke-opacity:1;visibility:visible;display:inline;overflow:visible;enable-background:accumulate"
                 sodipodi:type="star" />
            </g>
            <g
               style="fill:#fcbf49;fill-opacity:1;stroke:#ffdc4d"
               id="g2206"
               transform="matrix(-0.9744281,-0.2246999,-0.2246999,0.9744281,-58.43232,-6.7610022)">
              <path
                 transform="matrix(5.3756684,0,0,5.3756684,92.92972,603.41918)"
                 d="M -20.341813,-136.56178 L -20.728798,-136.84922 L -21.113819,-136.55872 L -20.96003,-137.01559 L -21.355292,-137.292 L -20.87326,-137.28692 L -20.732524,-137.74825 L -20.5884,-137.28824 L -20.106159,-137.29695 L -20.499118,-137.01773 L -20.341813,-136.56178 z "
                 inkscape:randomized="0"
                 inkscape:rounded="0"
                 inkscape:flatsided="false"
                 sodipodi:arg2="1.5661609"
                 sodipodi:arg1="0.93851503"
                 sodipodi:r2="0.24231865"
                 sodipodi:r1="0.65671289"
                 sodipodi:cy="-137.09154"
                 sodipodi:cx="-20.729921"
                 sodipodi:sides="5"
                 id="path2208"
                 style="opacity:1;color:#000000;fill:#fcbf49;fill-opacity:1;fill-rule:evenodd;stroke:#ffdc4d;stroke-width:0.03981259;stroke-linecap:butt;stroke-linejoin:miter;marker:none;marker-start:none;marker-mid:none;marker-end:none;stroke-miterlimit:4;stroke-dasharray:none;stroke-dashoffset:0;stroke-opacity:1;visibility:visible;display:inline;overflow:visible;enable-background:accumulate"
                 sodipodi:type="star" />
              <path
                 transform="matrix(5.1667636,-1.4840371,1.4840371,5.1667636,282.89946,544.9753)"
                 d="M -20.341813,-136.56178 L -20.728798,-136.84922 L -21.113819,-136.55872 L -20.96003,-137.01559 L -21.355292,-137.292 L -20.87326,-137.28692 L -20.732524,-137.74825 L -20.5884,-137.28824 L -20.106159,-137.29695 L -20.499118,-137.01773 L -20.341813,-136.56178 z "
                 inkscape:randomized="0"
                 inkscape:rounded="0"
                 inkscape:flatsided="false"
                 sodipodi:arg2="1.5661609"
                 sodipodi:arg1="0.93851503"
                 sodipodi:r2="0.24231865"
                 sodipodi:r1="0.65671289"
                 sodipodi:cy="-137.09154"
                 sodipodi:cx="-20.729921"
                 sodipodi:sides="5"
                 id="path2210"
                 style="opacity:1;color:#000000;fill:#fcbf49;fill-opacity:1;fill-rule:evenodd;stroke:#ffdc4d;stroke-width:0.03981259;stroke-linecap:butt;stroke-linejoin:miter;marker:none;marker-start:none;marker-mid:none;marker-end:none;stroke-miterlimit:4;stroke-dasharray:none;stroke-dashoffset:0;stroke-opacity:1;visibility:visible;display:inline;overflow:visible;enable-background:accumulate"
                 sodipodi:type="star" />
              <path
                 transform="matrix(4.7297375,-2.5548769,2.5548769,4.7297375,412.14635,466.29187)"
                 d="M -20.341813,-136.56178 L -20.728798,-136.84922 L -21.113819,-136.55872 L -20.96003,-137.01559 L -21.355292,-137.292 L -20.87326,-137.28692 L -20.732524,-137.74825 L -20.5884,-137.28824 L -20.106159,-137.29695 L -20.499118,-137.01773 L -20.341813,-136.56178 z "
                 inkscape:randomized="0"
                 inkscape:rounded="0"
                 inkscape:flatsided="false"
                 sodipodi:arg2="1.5661609"
                 sodipodi:arg1="0.93851503"
                 sodipodi:r2="0.24231865"
                 sodipodi:r1="0.65671289"
                 sodipodi:cy="-137.09154"
                 sodipodi:cx="-20.729921"
                 sodipodi:sides="5"
                 id="path2212"
                 style="opacity:1;color:#000000;fill:#fcbf49;fill-opacity:1;fill-rule:evenodd;stroke:#ffdc4d;stroke-width:0.03981259;stroke-linecap:butt;stroke-linejoin:miter;marker:none;marker-start:none;marker-mid:none;marker-end:none;stroke-miterlimit:4;stroke-dasharray:none;stroke-dashoffset:0;stroke-opacity:1;visibility:visible;display:inline;overflow:visible;enable-background:accumulate"
                 sodipodi:type="star" />
              <path
                 transform="matrix(3.9135994,-3.6853156,3.6853156,3.9135994,542.8586,336.42283)"
                 d="M -20.341813,-136.56178 L -20.728798,-136.84922 L -21.113819,-136.55872 L -20.96003,-137.01559 L -21.355292,-137.292 L -20.87326,-137.28692 L -20.732524,-137.74825 L -20.5884,-137.28824 L -20.106159,-137.29695 L -20.499118,-137.01773 L -20.341813,-136.56178 z "
                 inkscape:randomized="0"
                 inkscape:rounded="0"
                 inkscape:flatsided="false"
                 sodipodi:arg2="1.5661609"
                 sodipodi:arg1="0.93851503"
                 sodipodi:r2="0.24231865"
                 sodipodi:r1="0.65671289"
                 sodipodi:cy="-137.09154"
                 sodipodi:cx="-20.729921"
                 sodipodi:sides="5"
                 id="path2214"
                 style="opacity:1;color:#000000;fill:#fcbf49;fill-opacity:1;fill-rule:evenodd;stroke:#ffdc4d;stroke-width:0.03981259;stroke-linecap:butt;stroke-linejoin:miter;marker:none;marker-start:none;marker-mid:none;marker-end:none;stroke-miterlimit:4;stroke-dasharray:none;stroke-dashoffset:0;stroke-opacity:1;visibility:visible;display:inline;overflow:visible;enable-background:accumulate"
                 sodipodi:type="star" />
              <path
                 transform="matrix(2.7568901,-4.6149072,4.6149072,2.7568901,640.44856,165.42759)"
                 d="M -20.341813,-136.56178 L -20.728798,-136.84922 L -21.113819,-136.55872 L -20.96003,-137.01559 L -21.355292,-137.292 L -20.87326,-137.28692 L -20.732524,-137.74825 L -20.5884,-137.28824 L -20.106159,-137.29695 L -20.499118,-137.01773 L -20.341813,-136.56178 z "
                 inkscape:randomized="0"
                 inkscape:rounded="0"
                 inkscape:flatsided="false"
                 sodipodi:arg2="1.5661609"
                 sodipodi:arg1="0.93851503"
                 sodipodi:r2="0.24231865"
                 sodipodi:r1="0.65671289"
                 sodipodi:cy="-137.09154"
                 sodipodi:cx="-20.729921"
                 sodipodi:sides="5"
                 id="path2216"
                 style="opacity:1;color:#000000;fill:#fcbf49;fill-opacity:1;fill-rule:evenodd;stroke:#ffdc4d;stroke-width:0.03981259;stroke-linecap:butt;stroke-linejoin:miter;marker:none;marker-start:none;marker-mid:none;marker-end:none;stroke-miterlimit:4;stroke-dasharray:none;stroke-dashoffset:0;stroke-opacity:1;visibility:visible;display:inline;overflow:visible;enable-background:accumulate"
                 sodipodi:type="star" />
              <path
                 transform="matrix(1.6889489,-5.1034558,5.1034558,1.6889489,681.47627,17.388803)"
                 d="M -20.341813,-136.56178 L -20.728798,-136.84922 L -21.113819,-136.55872 L -20.96003,-137.01559 L -21.355292,-137.292 L -20.87326,-137.28692 L -20.732524,-137.74825 L -20.5884,-137.28824 L -20.106159,-137.29695 L -20.499118,-137.01773 L -20.341813,-136.56178 z "
                 inkscape:randomized="0"
                 inkscape:rounded="0"
                 inkscape:flatsided="false"
                 sodipodi:arg2="1.5661609"
                 sodipodi:arg1="0.93851503"
                 sodipodi:r2="0.24231865"
                 sodipodi:r1="0.65671289"
                 sodipodi:cy="-137.09154"
                 sodipodi:cx="-20.729921"
                 sodipodi:sides="5"
                 id="path2218"
                 style="opacity:1;color:#000000;fill:#fcbf49;fill-opacity:1;fill-rule:evenodd;stroke:#ffdc4d;stroke-width:0.03981259;stroke-linecap:butt;stroke-linejoin:miter;marker:none;marker-start:none;marker-mid:none;marker-end:none;stroke-miterlimit:4;stroke-dasharray:none;stroke-dashoffset:0;stroke-opacity:1;visibility:visible;display:inline;overflow:visible;enable-background:accumulate"
                 sodipodi:type="star" />
            </g>
            <g
               style="fill:#fcbf49;fill-opacity:1;stroke:#ffdc4d"
               id="g2220"
               transform="matrix(0.9277105,0.3733006,0.3733006,-0.9277105,34.865861,-180.13437)">
              <path
                 transform="matrix(5.3756684,0,0,5.3756684,92.92972,603.41918)"
                 d="M -20.341813,-136.56178 L -20.728798,-136.84922 L -21.113819,-136.55872 L -20.96003,-137.01559 L -21.355292,-137.292 L -20.87326,-137.28692 L -20.732524,-137.74825 L -20.5884,-137.28824 L -20.106159,-137.29695 L -20.499118,-137.01773 L -20.341813,-136.56178 z "
                 inkscape:randomized="0"
                 inkscape:rounded="0"
                 inkscape:flatsided="false"
                 sodipodi:arg2="1.5661609"
                 sodipodi:arg1="0.93851503"
                 sodipodi:r2="0.24231865"
                 sodipodi:r1="0.65671289"
                 sodipodi:cy="-137.09154"
                 sodipodi:cx="-20.729921"
                 sodipodi:sides="5"
                 id="path2222"
                 style="opacity:1;color:#000000;fill:#fcbf49;fill-opacity:1;fill-rule:evenodd;stroke:#ffdc4d;stroke-width:0.03981259;stroke-linecap:butt;stroke-linejoin:miter;marker:none;marker-start:none;marker-mid:none;marker-end:none;stroke-miterlimit:4;stroke-dasharray:none;stroke-dashoffset:0;stroke-opacity:1;visibility:visible;display:inline;overflow:visible;enable-background:accumulate"
                 sodipodi:type="star" />
              <path
                 transform="matrix(5.1667636,-1.4840371,1.4840371,5.1667636,282.89946,544.9753)"
                 d="M -20.341813,-136.56178 L -20.728798,-136.84922 L -21.113819,-136.55872 L -20.96003,-137.01559 L -21.355292,-137.292 L -20.87326,-137.28692 L -20.732524,-137.74825 L -20.5884,-137.28824 L -20.106159,-137.29695 L -20.499118,-137.01773 L -20.341813,-136.56178 z "
                 inkscape:randomized="0"
                 inkscape:rounded="0"
                 inkscape:flatsided="false"
                 sodipodi:arg2="1.5661609"
                 sodipodi:arg1="0.93851503"
                 sodipodi:r2="0.24231865"
                 sodipodi:r1="0.65671289"
                 sodipodi:cy="-137.09154"
                 sodipodi:cx="-20.729921"
                 sodipodi:sides="5"
                 id="path2224"
                 style="opacity:1;color:#000000;fill:#fcbf49;fill-opacity:1;fill-rule:evenodd;stroke:#ffdc4d;stroke-width:0.03981259;stroke-linecap:butt;stroke-linejoin:miter;marker:none;marker-start:none;marker-mid:none;marker-end:none;stroke-miterlimit:4;stroke-dasharray:none;stroke-dashoffset:0;stroke-opacity:1;visibility:visible;display:inline;overflow:visible;enable-background:accumulate"
                 sodipodi:type="star" />
              <path
                 transform="matrix(4.7297375,-2.5548769,2.5548769,4.7297375,412.14635,466.29187)"
                 d="M -20.341813,-136.56178 L -20.728798,-136.84922 L -21.113819,-136.55872 L -20.96003,-137.01559 L -21.355292,-137.292 L -20.87326,-137.28692 L -20.732524,-137.74825 L -20.5884,-137.28824 L -20.106159,-137.29695 L -20.499118,-137.01773 L -20.341813,-136.56178 z "
                 inkscape:randomized="0"
                 inkscape:rounded="0"
                 inkscape:flatsided="false"
                 sodipodi:arg2="1.5661609"
                 sodipodi:arg1="0.93851503"
                 sodipodi:r2="0.24231865"
                 sodipodi:r1="0.65671289"
                 sodipodi:cy="-137.09154"
                 sodipodi:cx="-20.729921"
                 sodipodi:sides="5"
                 id="path2226"
                 style="opacity:1;color:#000000;fill:#fcbf49;fill-opacity:1;fill-rule:evenodd;stroke:#ffdc4d;stroke-width:0.03981259;stroke-linecap:butt;stroke-linejoin:miter;marker:none;marker-start:none;marker-mid:none;marker-end:none;stroke-miterlimit:4;stroke-dasharray:none;stroke-dashoffset:0;stroke-opacity:1;visibility:visible;display:inline;overflow:visible;enable-background:accumulate"
                 sodipodi:type="star" />
              <path
                 transform="matrix(3.9135994,-3.6853156,3.6853156,3.9135994,542.8586,336.42283)"
                 d="M -20.341813,-136.56178 L -20.728798,-136.84922 L -21.113819,-136.55872 L -20.96003,-137.01559 L -21.355292,-137.292 L -20.87326,-137.28692 L -20.732524,-137.74825 L -20.5884,-137.28824 L -20.106159,-137.29695 L -20.499118,-137.01773 L -20.341813,-136.56178 z "
                 inkscape:randomized="0"
                 inkscape:rounded="0"
                 inkscape:flatsided="false"
                 sodipodi:arg2="1.5661609"
                 sodipodi:arg1="0.93851503"
                 sodipodi:r2="0.24231865"
                 sodipodi:r1="0.65671289"
                 sodipodi:cy="-137.09154"
                 sodipodi:cx="-20.729921"
                 sodipodi:sides="5"
                 id="path2228"
                 style="opacity:1;color:#000000;fill:#fcbf49;fill-opacity:1;fill-rule:evenodd;stroke:#ffdc4d;stroke-width:0.03981259;stroke-linecap:butt;stroke-linejoin:miter;marker:none;marker-start:none;marker-mid:none;marker-end:none;stroke-miterlimit:4;stroke-dasharray:none;stroke-dashoffset:0;stroke-opacity:1;visibility:visible;display:inline;overflow:visible;enable-background:accumulate"
                 sodipodi:type="star" />
              <path
                 transform="matrix(2.7568901,-4.6149072,4.6149072,2.7568901,640.44856,165.42759)"
                 d="M -20.341813,-136.56178 L -20.728798,-136.84922 L -21.113819,-136.55872 L -20.96003,-137.01559 L -21.355292,-137.292 L -20.87326,-137.28692 L -20.732524,-137.74825 L -20.5884,-137.28824 L -20.106159,-137.29695 L -20.499118,-137.01773 L -20.341813,-136.56178 z "
                 inkscape:randomized="0"
                 inkscape:rounded="0"
                 inkscape:flatsided="false"
                 sodipodi:arg2="1.5661609"
                 sodipodi:arg1="0.93851503"
                 sodipodi:r2="0.24231865"
                 sodipodi:r1="0.65671289"
                 sodipodi:cy="-137.09154"
                 sodipodi:cx="-20.729921"
                 sodipodi:sides="5"
                 id="path2230"
                 style="opacity:1;color:#000000;fill:#fcbf49;fill-opacity:1;fill-rule:evenodd;stroke:#ffdc4d;stroke-width:0.03981259;stroke-linecap:butt;stroke-linejoin:miter;marker:none;marker-start:none;marker-mid:none;marker-end:none;stroke-miterlimit:4;stroke-dasharray:none;stroke-dashoffset:0;stroke-opacity:1;visibility:visible;display:inline;overflow:visible;enable-background:accumulate"
                 sodipodi:type="star" />
              <path
                 transform="matrix(1.6889489,-5.1034558,5.1034558,1.6889489,681.47627,17.388803)"
                 d="M -20.341813,-136.56178 L -20.728798,-136.84922 L -21.113819,-136.55872 L -20.96003,-137.01559 L -21.355292,-137.292 L -20.87326,-137.28692 L -20.732524,-137.74825 L -20.5884,-137.28824 L -20.106159,-137.29695 L -20.499118,-137.01773 L -20.341813,-136.56178 z "
                 inkscape:randomized="0"
                 inkscape:rounded="0"
                 inkscape:flatsided="false"
                 sodipodi:arg2="1.5661609"
                 sodipodi:arg1="0.93851503"
                 sodipodi:r2="0.24231865"
                 sodipodi:r1="0.65671289"
                 sodipodi:cy="-137.09154"
                 sodipodi:cx="-20.729921"
                 sodipodi:sides="5"
                 id="path2232"
                 style="opacity:1;color:#000000;fill:#fcbf49;fill-opacity:1;fill-rule:evenodd;stroke:#ffdc4d;stroke-width:0.03981259;stroke-linecap:butt;stroke-linejoin:miter;marker:none;marker-start:none;marker-mid:none;marker-end:none;stroke-miterlimit:4;stroke-dasharray:none;stroke-dashoffset:0;stroke-opacity:1;visibility:visible;display:inline;overflow:visible;enable-background:accumulate"
                 sodipodi:type="star" />
            </g>
            <g
               style="fill:#fcbf49;fill-opacity:1;stroke:#ffdc4d"
               id="g2256">
              <path
                 transform="matrix(-5.3274245,0.7185839,-0.7185839,-5.3274245,-222.88497,-776.9673)"
                 d="M -20.341813,-136.56178 L -20.728798,-136.84922 L -21.113819,-136.55872 L -20.96003,-137.01559 L -21.355292,-137.292 L -20.87326,-137.28692 L -20.732524,-137.74825 L -20.5884,-137.28824 L -20.106159,-137.29695 L -20.499118,-137.01773 L -20.341813,-136.56178 z "
                 inkscape:randomized="0"
                 inkscape:rounded="0"
                 inkscape:flatsided="false"
                 sodipodi:arg2="1.5661609"
                 sodipodi:arg1="0.93851503"
                 sodipodi:r2="0.24231865"
                 sodipodi:r1="0.65671289"
                 sodipodi:cy="-137.09154"
                 sodipodi:cx="-20.729921"
                 sodipodi:sides="5"
                 id="path2236"
                 style="color:#000000;fill:#fcbf49;fill-opacity:1;fill-rule:evenodd;stroke:#ffdc4d;stroke-width:0.03981259;stroke-linecap:butt;stroke-linejoin:miter;marker:none;marker-start:none;marker-mid:none;marker-end:none;stroke-miterlimit:4;stroke-dasharray:none;stroke-dashoffset:0;stroke-opacity:1;visibility:visible;display:inline;overflow:visible;enable-background:accumulate"
                 sodipodi:type="star" />
              <path
                 transform="matrix(-4.9220182,2.1613775,-2.1613775,-4.9220182,-403.33744,-693.65403)"
                 d="M -20.341813,-136.56178 L -20.728798,-136.84922 L -21.113819,-136.55872 L -20.96003,-137.01559 L -21.355292,-137.292 L -20.87326,-137.28692 L -20.732524,-137.74825 L -20.5884,-137.28824 L -20.106159,-137.29695 L -20.499118,-137.01773 L -20.341813,-136.56178 z "
                 inkscape:randomized="0"
                 inkscape:rounded="0"
                 inkscape:flatsided="false"
                 sodipodi:arg2="1.5661609"
                 sodipodi:arg1="0.93851503"
                 sodipodi:r2="0.24231865"
                 sodipodi:r1="0.65671289"
                 sodipodi:cy="-137.09154"
                 sodipodi:cx="-20.729921"
                 sodipodi:sides="5"
                 id="path2238"
                 style="color:#000000;fill:#fcbf49;fill-opacity:1;fill-rule:evenodd;stroke:#ffdc4d;stroke-width:0.03981259;stroke-linecap:butt;stroke-linejoin:miter;marker:none;marker-start:none;marker-mid:none;marker-end:none;stroke-miterlimit:4;stroke-dasharray:none;stroke-dashoffset:0;stroke-opacity:1;visibility:visible;display:inline;overflow:visible;enable-background:accumulate"
                 sodipodi:type="star" />
              <path
                 transform="matrix(-4.3457714,3.1641882,-3.1641882,-4.3457714,-520.90652,-598.39987)"
                 d="M -20.341813,-136.56178 L -20.728798,-136.84922 L -21.113819,-136.55872 L -20.96003,-137.01559 L -21.355292,-137.292 L -20.87326,-137.28692 L -20.732524,-137.74825 L -20.5884,-137.28824 L -20.106159,-137.29695 L -20.499118,-137.01773 L -20.341813,-136.56178 z "
                 inkscape:randomized="0"
                 inkscape:rounded="0"
                 inkscape:flatsided="false"
                 sodipodi:arg2="1.5661609"
                 sodipodi:arg1="0.93851503"
                 sodipodi:r2="0.24231865"
                 sodipodi:r1="0.65671289"
                 sodipodi:cy="-137.09154"
                 sodipodi:cx="-20.729921"
                 sodipodi:sides="5"
                 id="path2240"
                 style="color:#000000;fill:#fcbf49;fill-opacity:1;fill-rule:evenodd;stroke:#ffdc4d;stroke-width:0.03981259;stroke-linecap:butt;stroke-linejoin:miter;marker:none;marker-start:none;marker-mid:none;marker-end:none;stroke-miterlimit:4;stroke-dasharray:none;stroke-dashoffset:0;stroke-opacity:1;visibility:visible;display:inline;overflow:visible;enable-background:accumulate"
                 sodipodi:type="star" />
              <path
                 transform="matrix(-3.3858481,4.1753859,-4.1753859,-3.3858481,-633.08566,-452.22359)"
                 d="M -20.341813,-136.56178 L -20.728798,-136.84922 L -21.113819,-136.55872 L -20.96003,-137.01559 L -21.355292,-137.292 L -20.87326,-137.28692 L -20.732524,-137.74825 L -20.5884,-137.28824 L -20.106159,-137.29695 L -20.499118,-137.01773 L -20.341813,-136.56178 z "
                 inkscape:randomized="0"
                 inkscape:rounded="0"
                 inkscape:flatsided="false"
                 sodipodi:arg2="1.5661609"
                 sodipodi:arg1="0.93851503"
                 sodipodi:r2="0.24231865"
                 sodipodi:r1="0.65671289"
                 sodipodi:cy="-137.09154"
                 sodipodi:cx="-20.729921"
                 sodipodi:sides="5"
                 id="path2242"
                 style="color:#000000;fill:#fcbf49;fill-opacity:1;fill-rule:evenodd;stroke:#ffdc4d;stroke-width:0.03981259;stroke-linecap:butt;stroke-linejoin:miter;marker:none;marker-start:none;marker-mid:none;marker-end:none;stroke-miterlimit:4;stroke-dasharray:none;stroke-dashoffset:0;stroke-opacity:1;visibility:visible;display:inline;overflow:visible;enable-background:accumulate"
                 sodipodi:type="star" />
              <path
                 transform="matrix(-2.1152581,4.9420136,-4.9420136,-2.1152581,-706.94228,-269.71776)"
                 d="M -20.341813,-136.56178 L -20.728798,-136.84922 L -21.113819,-136.55872 L -20.96003,-137.01559 L -21.355292,-137.292 L -20.87326,-137.28692 L -20.732524,-137.74825 L -20.5884,-137.28824 L -20.106159,-137.29695 L -20.499118,-137.01773 L -20.341813,-136.56178 z "
                 inkscape:randomized="0"
                 inkscape:rounded="0"
                 inkscape:flatsided="false"
                 sodipodi:arg2="1.5661609"
                 sodipodi:arg1="0.93851503"
                 sodipodi:r2="0.24231865"
                 sodipodi:r1="0.65671289"
                 sodipodi:cy="-137.09154"
                 sodipodi:cx="-20.729921"
                 sodipodi:sides="5"
                 id="path2244"
                 style="color:#000000;fill:#fcbf49;fill-opacity:1;fill-rule:evenodd;stroke:#ffdc4d;stroke-width:0.03981259;stroke-linecap:butt;stroke-linejoin:miter;marker:none;marker-start:none;marker-mid:none;marker-end:none;stroke-miterlimit:4;stroke-dasharray:none;stroke-dashoffset:0;stroke-opacity:1;visibility:visible;display:inline;overflow:visible;enable-background:accumulate"
                 sodipodi:type="star" />
              <path
                 transform="matrix(-0.9915951,5.2834224,-5.2834224,-0.9915951,-727.81294,-117.52324)"
                 d="M -20.341813,-136.56178 L -20.728798,-136.84922 L -21.113819,-136.55872 L -20.96003,-137.01559 L -21.355292,-137.292 L -20.87326,-137.28692 L -20.732524,-137.74825 L -20.5884,-137.28824 L -20.106159,-137.29695 L -20.499118,-137.01773 L -20.341813,-136.56178 z "
                 inkscape:randomized="0"
                 inkscape:rounded="0"
                 inkscape:flatsided="false"
                 sodipodi:arg2="1.5661609"
                 sodipodi:arg1="0.93851503"
                 sodipodi:r2="0.24231865"
                 sodipodi:r1="0.65671289"
                 sodipodi:cy="-137.09154"
                 sodipodi:cx="-20.729921"
                 sodipodi:sides="5"
                 id="path2246"
                 style="color:#000000;fill:#fcbf49;fill-opacity:1;fill-rule:evenodd;stroke:#ffdc4d;stroke-width:0.03981259;stroke-linecap:butt;stroke-linejoin:miter;marker:none;marker-start:none;marker-mid:none;marker-end:none;stroke-miterlimit:4;stroke-dasharray:none;stroke-dashoffset:0;stroke-opacity:1;visibility:visible;display:inline;overflow:visible;enable-background:accumulate"
                 sodipodi:type="star" />
            </g>
            <path
               sodipodi:type="star"
               style="color:#000000;fill:#fcbf49;fill-opacity:1;fill-rule:evenodd;stroke:#ffdc4d;stroke-width:0.03981259;stroke-linecap:butt;stroke-linejoin:miter;marker:none;marker-start:none;marker-mid:none;marker-end:none;stroke-miterlimit:4;stroke-dasharray:none;stroke-dashoffset:0;stroke-opacity:1;visibility:visible;display:inline;overflow:visible;enable-background:accumulate"
               id="path2254"
               sodipodi:sides="5"
               sodipodi:cx="-20.729921"
               sodipodi:cy="-137.09154"
               sodipodi:r1="0.65671289"
               sodipodi:r2="0.24231865"
               sodipodi:arg1="0.93851503"
               sodipodi:arg2="1.5661609"
               inkscape:flatsided="false"
               inkscape:rounded="0"
               inkscape:randomized="0"
               d="M -20.341813,-136.56178 L -20.728798,-136.84922 L -21.113819,-136.55872 L -20.96003,-137.01559 L -21.355292,-137.292 L -20.87326,-137.28692 L -20.732524,-137.74825 L -20.5884,-137.28824 L -20.106159,-137.29695 L -20.499118,-137.01773 L -20.341813,-136.56178 z "
               transform="matrix(-5.3652063,-0.3352252,0.3352252,-5.3652063,-88.303726,-803.54901)" />
          </g>
          <g
             transform="translate(4.335664e-2,1.1180197e-3)"
             id="g3214">
            <path
               id="path2295"
               style="fill:#c24900;fill-opacity:1;fill-rule:evenodd;stroke:#c24900;stroke-width:0.13304763;stroke-linecap:butt;stroke-linejoin:miter;stroke-miterlimit:4;stroke-opacity:1"
               d="M -46.683858,-93.721302 C -45.408348,-95.228396 -43.740843,-94.795113 -42.935728,-94.616627 C -40.936691,-93.907059 -40.094039,-92.3743 -40.76057,-90.665143 C -36.955391,-90.553332 -35.149388,-91.186312 -34.695768,-91.623295 C -33.506837,-92.916724 -34.179884,-96.346527 -32.36376,-96.248372 C -30.164116,-95.770335 -32.923212,-93.626318 -32.232749,-92.42309 C -29.994727,-93.767114 -23.598968,-96.635643 -20.363089,-96.870937 C -16.392187,-97.270419 -13.126877,-96.415515 -11.978341,-95.482213 C -10.445504,-100.24937 -8.834268,-107.05491 -2.4406892,-107.90212 C 0.025583077,-107.93446 0.49614104,-106.55317 0.63407996,-105.5045 C 0.72268591,-104.29645 0.0074624774,-103.36558 -1.3452808,-103.29397 C -2.5381916,-103.1086 -2.7332452,-104.86351 -4.2587751,-104.6227 C -5.1958701,-104.22657 -5.7449095,-103.49781 -6.3216672,-102.21469 L -1.9735947,-98.158314 C 0.73347497,-100.5978 3.5236994,-102.81555 6.2307691,-102.73268 C 8.6503543,-102.68169 9.8762704,-100.36741 9.7171962,-99.098136 C 9.5547025,-97.801576 9.3814026,-96.966577 7.2792394,-96.505532 C 5.1661414,-96.042089 4.0355871,-98.517016 0.63549462,-95.791072 L -7.3617493,-88.002718 C -4.7427372,-86.826888 -3.4542013,-85.401594 -4.7434631,-84.558384 C -6.529113,-83.720949 -8.1583821,-83.739061 -9.6150446,-83.387548 C -11.341191,-82.971006 -12.183668,-82.751357 -11.991983,-78.897452 L -11.97574,-77.926105 L -26.172649,-77.916035 C -24.359998,-78.369736 -18.749946,-80.209349 -17.020449,-83.933804 L -17.045571,-86.995095 L -15.395037,-87.791207 L -15.809514,-88.365573 C -19.732531,-90.731399 -26.180278,-89.47719 -33.632599,-88.104313 C -33.698289,-86.527799 -34.05812,-84.158643 -35.753911,-83.109961 L -35.887975,-82.734776 C -35.599749,-82.481486 -34.31271,-81.123934 -34.315835,-79.577394 C -34.318961,-78.030825 -35.688182,-76.39381 -37.984162,-76.380709 C -40.267041,-76.367608 -41.220316,-78.587981 -41.233253,-79.564293 C -41.24619,-80.553706 -40.562845,-83.122823 -37.476396,-83.100678 L -37.292979,-83.555109 C -38.191542,-84.226159 -37.200264,-86.564716 -36.931572,-87.069016 C -38.593765,-86.694961 -41.275146,-86.418904 -43.70173,-86.966038 C -47.17841,-88.283537 -47.754324,-92.560601 -46.683858,-93.721302 z M -10.181446,-93.762959 C -9.5607865,-94.932412 -7.1565484,-99.943418 -6.8494853,-101.19127 C -6.5685553,-100.57714 -3.7200559,-97.709044 -2.9491317,-97.212518 C -3.9356534,-96.800922 -8.1365368,-92.116578 -8.8486618,-91.156189 C -9.109992,-91.95978 -9.8025171,-93.253365 -10.181446,-93.762959 z M -38.15471,-81.297509 C -38.15471,-80.932088 -38.451284,-80.635515 -38.816705,-80.635515 C -39.182125,-80.635515 -39.478699,-80.932088 -39.478699,-81.297509 C -39.478699,-81.662931 -39.182125,-81.959504 -38.816705,-81.959504 C -38.451284,-81.959504 -38.15471,-81.662931 -38.15471,-81.297509 z M -35.410744,-80.297917 C -35.410744,-79.932496 -35.707318,-79.635923 -36.072739,-79.635923 C -36.438159,-79.635923 -36.734733,-79.932496 -36.734733,-80.297917 C -36.734733,-80.663339 -36.438159,-80.959912 -36.072739,-80.959912 C -35.707318,-80.959912 -35.410744,-80.663339 -35.410744,-80.297917 z M -37.684315,-78.494742 C -37.684315,-78.129321 -37.980889,-77.832748 -38.34631,-77.832748 C -38.71173,-77.832748 -39.008304,-78.129321 -39.008304,-78.494742 C -39.008304,-78.860164 -38.71173,-79.156737 -38.34631,-79.156737 C -37.980889,-79.156737 -37.684315,-78.860164 -37.684315,-78.494742 z " />
            <path
               style="fill:#db8e45;fill-opacity:1;fill-rule:evenodd;stroke:#db8e45;stroke-width:0.13304763;stroke-linecap:butt;stroke-linejoin:miter;stroke-miterlimit:4;stroke-dasharray:none;stroke-opacity:1"
               d="M -43.222498,-91.559842 C -45.162982,-92.217759 -44.329671,-93.636127 -43.458454,-93.477241 C -40.955633,-92.825079 -43.77559,-90.683574 -42.07055,-89.50361 C -40.88194,-88.833206 -35.39517,-89.551599 -34.412357,-90.458976 C -33.204403,-91.897722 -33.336535,-95.630456 -32.49055,-95.449146 C -31.759974,-95.165137 -33.936986,-91.579771 -33.30196,-90.73688 C -30.370981,-91.36023 -25.970936,-95.254334 -20.268133,-95.572782 C -15.299374,-95.861391 -13.364541,-94.424404 -12.410033,-93.546539 C -10.435015,-92.080596 -9.9103791,-89.634666 -9.6601402,-88.501919 C -9.1862868,-89.086939 0.50537294,-101.34424 5.1097242,-101.55293 C 7.6027136,-101.55123 7.9994881,-100.26892 7.5859968,-100.03507 C 6.4677256,-99.664624 6.7653022,-100.60204 5.5075611,-100.57161 C 1.7095237,-100.2492 -7.0928827,-90.558342 -8.9514582,-88.058819 C -7.128973,-86.641643 -7.1647647,-86.159346 -7.428451,-85.648755 C -8.0067949,-84.903986 -9.2053207,-85.938982 -9.7776713,-86.015874 C -10.897923,-86.166375 -12.062964,-81.700597 -14.386675,-79.595251 L -19.508467,-79.611452 C -14.461855,-80.535547 -13.008247,-84.102149 -12.12154,-85.964626 C -10.611756,-88.730015 -12.943526,-92.906587 -16.843278,-93.006407 L -12.542259,-89.175581 L -15.175349,-89.181723 L -16.934161,-90.878679 C -19.401969,-92.898027 -26.057605,-92.142746 -34.092009,-89.106774 C -34.951797,-87.433303 -35.340377,-83.847271 -35.922983,-84.058641 C -36.572082,-84.452509 -34.955581,-88.4973 -34.686889,-89.0016 C -35.761089,-88.784343 -40.551367,-88.3218 -41.841164,-88.692536 C -43.38453,-89.106237 -43.998967,-89.909147 -43.222498,-91.559842 z "
               id="path2225"
               sodipodi:nodetypes="ccccccccccccccscccccccccccc" />
            <path
               style="opacity:1;color:#000000;fill:#db8e45;fill-opacity:1;fill-rule:evenodd;stroke:#db8e45;stroke-width:0.13304763;stroke-linecap:butt;stroke-linejoin:miter;marker:none;marker-start:none;marker-mid:none;marker-end:none;stroke-miterlimit:4;stroke-dasharray:none;stroke-dashoffset:0;stroke-opacity:1;visibility:visible;display:inline;overflow:visible;enable-background:accumulate"
               d="M -11.407365,-94.995248 C -10.602025,-97.824061 -8.0292472,-104.86176 -2.9767912,-106.90892 C -1.9235611,-107.16186 -1.5482625,-106.6577 -1.3428911,-106.29981 C -1.193959,-106.05716 -0.96392798,-105.11512 -2.2812026,-105.00449 C -2.9015486,-104.96042 -2.8429472,-105.69906 -4.1560967,-105.50982 C -6.4061995,-104.82439 -9.4266635,-98.626564 -10.521618,-94.902532 C -10.673928,-94.379153 -11.497387,-94.526343 -11.407365,-94.995248 z "
               id="path4166"
               sodipodi:nodetypes="ccccccc" />
          </g>
        </g>
      </g>
    </g>
  </g>
</svg>
