<?xml version="1.0" encoding="UTF-8" standalone="no"?>
<!-- Created with Inkscape (http://www.inkscape.org/) -->

<svg
   xmlns:dc="http://purl.org/dc/elements/1.1/"
   xmlns:cc="http://creativecommons.org/ns#"
   xmlns:rdf="http://www.w3.org/1999/02/22-rdf-syntax-ns#"
   xmlns:svg="http://www.w3.org/2000/svg"
   xmlns="http://www.w3.org/2000/svg"
   xmlns:xlink="http://www.w3.org/1999/xlink"
   xmlns:sodipodi="http://sodipodi.sourceforge.net/DTD/sodipodi-0.dtd"
   xmlns:inkscape="http://www.inkscape.org/namespaces/inkscape"
   version="1.1"
   width="390.68497"
   height="259.68387"
   viewBox="0 0 312.54799 207.74709"
   id="svg2"
   style="fill-rule:evenodd"
   inkscape:version="0.48.2 r9819"
   sodipodi:docname="Bandera_de_La_Pampa.svg">
  <sodipodi:namedview
     pagecolor="#ffffff"
     bordercolor="#666666"
     borderopacity="1"
     objecttolerance="10"
     gridtolerance="10"
     guidetolerance="10"
     inkscape:pageopacity="0"
     inkscape:pageshadow="2"
     inkscape:window-width="1024"
     inkscape:window-height="553"
     id="namedview3317"
     showgrid="false"
     fit-margin-top="0"
     fit-margin-left="0"
     fit-margin-right="0"
     fit-margin-bottom="0"
     inkscape:zoom="14.207307"
     inkscape:cx="206.2205"
     inkscape:cy="98.944963"
     inkscape:window-x="-4"
     inkscape:window-y="-4"
     inkscape:window-maximized="1"
     inkscape:current-layer="svg2" />
  <metadata
     id="metadata332">
    <rdf:RDF>
      <cc:Work
         rdf:about="">
        <dc:format>image/svg+xml</dc:format>
        <dc:type
           rdf:resource="http://purl.org/dc/dcmitype/StillImage" />
      </cc:Work>
    </rdf:RDF>
  </metadata>
  <defs
     id="defs330">
    <inkscape:perspective
       sodipodi:type="inkscape:persp3d"
       inkscape:vp_x="0 : 100 : 1"
       inkscape:vp_y="0 : 1000 : 0"
       inkscape:vp_z="300 : 100 : 1"
       inkscape:persp3d-origin="150 : 66.666667 : 1"
       id="perspective7996" />
    <clipPath
       id="clipPath7998">
      <path
         id="path8000"
         d="m 11600200,27707200 c 0,0 -65220,-175610 -667340,-130470 -572020,45170 -898140,40160 -998510,0 -105370,-40130 -195680,-65210 -341190,-95310 -120440,-20090 -366300,-45180 -301050,-40170 -125420,-15030 -240850,0 -240850,0 0,0 -25070,20080 40150,-85300 55200,-85300 170600,-125410 321110,-301060 48730,-56850 805430,-12790 863020,0 70270,15070 150550,10060 180660,0 30090,-10020 371280,-15030 521830,0 185200,40290 451640,57960 492000,57520 105900,-1160 145240,103060 160260,273650 15070,175630 25110,65250 -30090,321140 z"
         inkscape:connector-curvature="0" />
    </clipPath>
    <clipPath
       id="clipPath8002">
      <path
         id="path8004"
         d="m 11018100,29368000 c 0,0 -371290,90310 -426490,-40170 -30100,-65200 -50150,-566970 -275970,-727530 -230830,-155570 -332600,-290020 -824420,-666110 -150640,-115190 -294530,-196920 -349680,-292240 -40170,-70260 -45180,-165580 -90340,-200730 0,0 281020,-30100 732580,80280 0,0 -65250,220780 80290,296050 80280,40130 265950,316130 551940,451580 270920,125450 436500,577030 521800,822900 95360,270960 80290,275970 80290,275970 z"
         inkscape:connector-curvature="0" />
    </clipPath>
    <clipPath
       id="clipPath8006">
      <path
         id="path8008"
         d="m 9673400,29448300 c 0,0 361270,-70260 426490,-40160 65220,35150 135470,-411450 366280,-571980 265950,-180650 702480,-521840 1133980,-1128970 0,0 -95320,-175610 -516800,-120410 0,0 -10060,205710 -55180,285990 -50190,80290 -275970,411450 -562000,521830 -285990,110360 -506780,426490 -602090,697450 -95320,270960 -190680,356250 -190680,356250 z"
         inkscape:connector-curvature="0" />
    </clipPath>
    <inkscape:perspective
       sodipodi:type="inkscape:persp3d"
       inkscape:vp_x="0 : 100 : 1"
       inkscape:vp_y="0 : 1000 : 0"
       inkscape:vp_z="300 : 100 : 1"
       inkscape:persp3d-origin="150 : 66.666667 : 1"
       id="perspective6388" />
    <clipPath
       id="clipPath6390">
      <path
         id="path6392"
         d="m 11600200,27707200 c 0,0 -65220,-175610 -667340,-130470 -572020,45170 -898140,40160 -998510,0 -105370,-40130 -195680,-65210 -341190,-95310 -120440,-20090 -366300,-45180 -301050,-40170 -125420,-15030 -240850,0 -240850,0 0,0 -25070,20080 40150,-85300 55200,-85300 170600,-125410 321110,-301060 48730,-56850 805430,-12790 863020,0 70270,15070 150550,10060 180660,0 30090,-10020 371280,-15030 521830,0 185200,40290 451640,57960 492000,57520 105900,-1160 145240,103060 160260,273650 15070,175630 25110,65250 -30090,321140 z"
         inkscape:connector-curvature="0" />
    </clipPath>
    <clipPath
       id="clipPath6394">
      <path
         id="path6396"
         d="m 11018100,29368000 c 0,0 -371290,90310 -426490,-40170 -30100,-65200 -50150,-566970 -275970,-727530 -230830,-155570 -332600,-290020 -824420,-666110 -150640,-115190 -294530,-196920 -349680,-292240 -40170,-70260 -45180,-165580 -90340,-200730 0,0 281020,-30100 732580,80280 0,0 -65250,220780 80290,296050 80280,40130 265950,316130 551940,451580 270920,125450 436500,577030 521800,822900 95360,270960 80290,275970 80290,275970 z"
         inkscape:connector-curvature="0" />
    </clipPath>
    <clipPath
       id="clipPath6398">
      <path
         id="path6400"
         d="m 9673400,29448300 c 0,0 361270,-70260 426490,-40160 65220,35150 135470,-411450 366280,-571980 265950,-180650 702480,-521840 1133980,-1128970 0,0 -95320,-175610 -516800,-120410 0,0 -10060,205710 -55180,285990 -50190,80290 -275970,411450 -562000,521830 -285990,110360 -506780,426490 -602090,697450 -95320,270960 -190680,356250 -190680,356250 z"
         inkscape:connector-curvature="0" />
    </clipPath>
    <inkscape:perspective
       sodipodi:type="inkscape:persp3d"
       inkscape:vp_x="0 : 100 : 1"
       inkscape:vp_y="0 : 1000 : 0"
       inkscape:vp_z="300 : 100 : 1"
       inkscape:persp3d-origin="150 : 66.666667 : 1"
       id="perspective765" />
    <clipPath
       id="clipPath4551">
      <path
         id="path4553"
         d="m 11600200,27707200 c 0,0 -65220,-175610 -667340,-130470 -572020,45170 -898140,40160 -998510,0 -105370,-40130 -195680,-65210 -341190,-95310 -120440,-20090 -366300,-45180 -301050,-40170 -125420,-15030 -240850,0 -240850,0 0,0 -25070,20080 40150,-85300 55200,-85300 170600,-125410 321110,-301060 48730,-56850 805430,-12790 863020,0 70270,15070 150550,10060 180660,0 30090,-10020 371280,-15030 521830,0 185200,40290 451640,57960 492000,57520 105900,-1160 145240,103060 160260,273650 15070,175630 25110,65250 -30090,321140 z"
         inkscape:connector-curvature="0" />
    </clipPath>
    <clipPath
       id="clipPath4555">
      <path
         id="path4557"
         d="m 11018100,29368000 c 0,0 -371290,90310 -426490,-40170 -30100,-65200 -50150,-566970 -275970,-727530 -230830,-155570 -332600,-290020 -824420,-666110 -150640,-115190 -294530,-196920 -349680,-292240 -40170,-70260 -45180,-165580 -90340,-200730 0,0 281020,-30100 732580,80280 0,0 -65250,220780 80290,296050 80280,40130 265950,316130 551940,451580 270920,125450 436500,577030 521800,822900 95360,270960 80290,275970 80290,275970 z"
         inkscape:connector-curvature="0" />
    </clipPath>
    <clipPath
       id="clipPath4559">
      <path
         id="path4561"
         d="m 9673400,29448300 c 0,0 361270,-70260 426490,-40160 65220,35150 135470,-411450 366280,-571980 265950,-180650 702480,-521840 1133980,-1128970 0,0 -95320,-175610 -516800,-120410 0,0 -10060,205710 -55180,285990 -50190,80290 -275970,411450 -562000,521830 -285990,110360 -506780,426490 -602090,697450 -95320,270960 -190680,356250 -190680,356250 z"
         inkscape:connector-curvature="0" />
    </clipPath>
    <linearGradient
       gradientUnits="userSpaceOnUse"
       y2="28778046"
       x2="6258038.5"
       y1="29033866"
       x1="5850671.5"
       id="linearGradient5364"
       xlink:href="#linearGradient5358"
       inkscape:collect="always" />
    <marker
       markerUnits="strokeWidth"
       markerWidth="1"
       markerHeight="1"
       orient="auto"
       viewBox="0 0 1 1"
       id="marker15078"
       style="overflow:visible">
      <g
         transform="scale(0.00925926,0.00925926)"
         id="g15080">
        <path
           d="M -9,54 -9,-54 117,0 -9,54 z"
           id="path15082"
           inkscape:connector-curvature="0" />
      </g>
    </marker>
    <marker
       markerUnits="strokeWidth"
       markerWidth="1"
       markerHeight="1"
       orient="auto"
       viewBox="0 0 1 1"
       id="marker15084"
       style="overflow:visible">
      <g
         transform="scale(0.00925926,0.00925926)"
         id="g15086">
        <path
           d="M -27,54 -9,0 -27,-54 135,0 -27,54 z"
           id="path15088"
           inkscape:connector-curvature="0" />
      </g>
    </marker>
    <marker
       markerUnits="strokeWidth"
       markerWidth="1"
       markerHeight="1"
       orient="auto"
       viewBox="0 0 1 1"
       id="marker15090"
       style="overflow:visible">
      <g
         transform="scale(0.00925926,0.00925926)"
         id="g15092">
        <path
           d="m -9,0 0,-45 c 0,-6.708 11.808,-11.58 18,-9 l 108,45 c 3.916,1.631 9,4.758 9,9 0,4.242 -5.084,7.369 -9,9 L 9,54 C 2.808,56.58 -9,51.708 -9,45 L -9,0 z"
           id="path15094"
           inkscape:connector-curvature="0" />
      </g>
    </marker>
    <marker
       markerUnits="strokeWidth"
       markerWidth="1"
       markerHeight="1"
       orient="auto"
       viewBox="0 0 1 1"
       id="marker15096"
       style="overflow:visible">
      <g
         transform="scale(0.00925926,0.00925926)"
         id="g15098">
        <path
           d="M -54,0 C -54,29.807 -29.807,54 0,54 29.807,54 54,29.807 54,0 54,-29.807 29.807,-54 0,-54 -29.807,-54 -54,-29.807 -54,0 z"
           id="path15100"
           inkscape:connector-curvature="0" />
      </g>
    </marker>
    <marker
       markerUnits="strokeWidth"
       markerWidth="1"
       markerHeight="1"
       orient="auto"
       viewBox="0 0 1 1"
       id="marker15102"
       style="overflow:visible">
      <g
         transform="scale(0.00925926,0.00925926)"
         id="g15104">
        <path
           d="M -63,0 0,63 63,0 0,-63 -63,0 z"
           id="path15106"
           inkscape:connector-curvature="0" />
      </g>
    </marker>
    <marker
       markerUnits="strokeWidth"
       markerWidth="1"
       markerHeight="1"
       orient="auto"
       viewBox="0 0 1 1"
       id="marker15108"
       style="overflow:visible">
      <g
         transform="scale(0.00925926,0.00925926)"
         id="g15110">
        <path
           d="m 18,-54 90,0 L 63,0 108,54 18,54 -36,0 18,-54 z"
           id="path15112"
           inkscape:connector-curvature="0" />
      </g>
    </marker>
    <marker
       markerUnits="strokeWidth"
       markerWidth="1"
       markerHeight="1"
       orient="auto"
       viewBox="0 0 1 1"
       id="marker15114"
       style="overflow:visible">
      <g
         transform="scale(0.00925926,0.00925926)"
         id="g15116">
        <path
           d="m -36,0 54,-54 36,0 -36,36 9,0 36,-36 36,0 -36,36 9,0 36,-36 36,0 L 90,0 144,54 108,54 72,18 63,18 99,54 63,54 27,18 18,18 54,54 18,54 -36,0 z"
           id="path15118"
           inkscape:connector-curvature="0" />
      </g>
    </marker>
    <marker
       markerUnits="strokeWidth"
       markerWidth="1"
       markerHeight="1"
       orient="auto"
       viewBox="0 0 1 1"
       id="marker15120"
       style="overflow:visible">
      <g
         transform="scale(0.00925926,0.00925926)"
         id="g15122">
        <path
           d="M 0,45 -45,0 0,-45 45,0 0,45 z M 0,63 -63,0 0,-63 63,0 0,63 z"
           id="path15124"
           inkscape:connector-curvature="0" />
      </g>
    </marker>
    <filter
       id="filter15126"
       color-interpolation-filters="sRGB">
      <feBlend
         id="feBlend15128"
         result="blend"
         in="SourceGraphic"
         in2="BackgroundImage"
         mode="multiply" />
      <feComposite
         id="feComposite15130"
         result="comp"
         operator="in"
         in2="SourceAlpha"
         in="blend" />
    </filter>
    <filter
       id="filter15132"
       color-interpolation-filters="sRGB">
      <feBlend
         id="feBlend15134"
         result="blend"
         in="SourceGraphic"
         in2="BackgroundImage"
         mode="screen" />
      <feComposite
         id="feComposite15136"
         result="comp"
         operator="in"
         in2="SourceAlpha"
         in="blend" />
    </filter>
    <filter
       id="filter15138"
       color-interpolation-filters="sRGB">
      <feComponentTransfer
         id="feComponentTransfer15140">
        <feFuncR
           id="feFuncR15142"
           offset="-0.055"
           exponent=".416666666"
           amplitude="1.055"
           type="gamma" />
        <feFuncG
           id="feFuncG15144"
           offset="-0.055"
           exponent=".416666666"
           amplitude="1.055"
           type="gamma" />
        <feFuncB
           id="feFuncB15146"
           offset="-0.055"
           exponent=".416666666"
           amplitude="1.055"
           type="gamma" />
      </feComponentTransfer>
      <feComponentTransfer
         id="feComponentTransfer15148">
        <feFuncR
           id="feFuncR15150"
           intercept="1"
           slope="-1"
           type="linear" />
        <feFuncG
           id="feFuncG15152"
           intercept="1"
           slope="-1"
           type="linear" />
        <feFuncB
           id="feFuncB15154"
           intercept="1"
           slope="-1"
           type="linear" />
        <feFuncA
           id="feFuncA15156"
           intercept="0"
           slope="1"
           type="linear" />
      </feComponentTransfer>
      <feComponentTransfer
         id="feComponentTransfer15158">
        <feFuncR
           id="feFuncR15160"
           offset="0"
           exponent="2.4"
           amplitude="1"
           type="gamma" />
        <feFuncG
           id="feFuncG15162"
           offset="0"
           exponent="2.4"
           amplitude="1"
           type="gamma" />
        <feFuncB
           id="feFuncB15164"
           offset="0"
           exponent="2.4"
           amplitude="1"
           type="gamma" />
      </feComponentTransfer>
    </filter>
    <metadata
       id="CorelCorpID_0Corel-Layer" />
    <marker
       markerUnits="strokeWidth"
       markerWidth="1"
       markerHeight="1"
       orient="auto"
       viewBox="0 0 1 1"
       id="DefaultArrow2"
       style="overflow:visible">
      <g
         transform="scale(0.00925926,0.00925926)"
         id="g3145">
        <path
           d="M -9,54 -9,-54 117,0 -9,54 z"
           id="path3147"
           inkscape:connector-curvature="0" />
      </g>
    </marker>
    <marker
       markerUnits="strokeWidth"
       markerWidth="1"
       markerHeight="1"
       orient="auto"
       viewBox="0 0 1 1"
       id="DefaultArrow3"
       style="overflow:visible">
      <g
         transform="scale(0.00925926,0.00925926)"
         id="g3150">
        <path
           d="M -27,54 -9,0 -27,-54 135,0 -27,54 z"
           id="path3152"
           inkscape:connector-curvature="0" />
      </g>
    </marker>
    <marker
       markerUnits="strokeWidth"
       markerWidth="1"
       markerHeight="1"
       orient="auto"
       viewBox="0 0 1 1"
       id="DefaultArrow4"
       style="overflow:visible">
      <g
         transform="scale(0.00925926,0.00925926)"
         id="g3155">
        <path
           d="m -9,0 0,-45 c 0,-6.708 11.808,-11.58 18,-9 l 108,45 c 3.916,1.631 9,4.758 9,9 0,4.242 -5.084,7.369 -9,9 L 9,54 C 2.808,56.58 -9,51.708 -9,45 L -9,0 z"
           id="path3157"
           inkscape:connector-curvature="0" />
      </g>
    </marker>
    <marker
       markerUnits="strokeWidth"
       markerWidth="1"
       markerHeight="1"
       orient="auto"
       viewBox="0 0 1 1"
       id="DefaultArrow5"
       style="overflow:visible">
      <g
         transform="scale(0.00925926,0.00925926)"
         id="g3160">
        <path
           d="M -54,0 C -54,29.807 -29.807,54 0,54 29.807,54 54,29.807 54,0 54,-29.807 29.807,-54 0,-54 -29.807,-54 -54,-29.807 -54,0 z"
           id="path3162"
           inkscape:connector-curvature="0" />
      </g>
    </marker>
    <marker
       markerUnits="strokeWidth"
       markerWidth="1"
       markerHeight="1"
       orient="auto"
       viewBox="0 0 1 1"
       id="DefaultArrow6"
       style="overflow:visible">
      <g
         transform="scale(0.00925926,0.00925926)"
         id="g3165">
        <path
           d="M -63,0 0,63 63,0 0,-63 -63,0 z"
           id="path3167"
           inkscape:connector-curvature="0" />
      </g>
    </marker>
    <marker
       markerUnits="strokeWidth"
       markerWidth="1"
       markerHeight="1"
       orient="auto"
       viewBox="0 0 1 1"
       id="DefaultArrow7"
       style="overflow:visible">
      <g
         transform="scale(0.00925926,0.00925926)"
         id="g3170">
        <path
           d="m 18,-54 90,0 L 63,0 108,54 18,54 -36,0 18,-54 z"
           id="path3172"
           inkscape:connector-curvature="0" />
      </g>
    </marker>
    <marker
       markerUnits="strokeWidth"
       markerWidth="1"
       markerHeight="1"
       orient="auto"
       viewBox="0 0 1 1"
       id="DefaultArrow8"
       style="overflow:visible">
      <g
         transform="scale(0.00925926,0.00925926)"
         id="g3175">
        <path
           d="m -36,0 54,-54 36,0 -36,36 9,0 36,-36 36,0 -36,36 9,0 36,-36 36,0 L 90,0 144,54 108,54 72,18 63,18 99,54 63,54 27,18 18,18 54,54 18,54 -36,0 z"
           id="path3177"
           inkscape:connector-curvature="0" />
      </g>
    </marker>
    <marker
       markerUnits="strokeWidth"
       markerWidth="1"
       markerHeight="1"
       orient="auto"
       viewBox="0 0 1 1"
       id="DefaultArrow9"
       style="overflow:visible">
      <g
         transform="scale(0.00925926,0.00925926)"
         id="g3180">
        <path
           d="M 0,45 -45,0 0,-45 45,0 0,45 z M 0,63 -63,0 0,-63 63,0 0,63 z"
           id="path3182"
           inkscape:connector-curvature="0" />
      </g>
    </marker>
    <filter
       id="StainedFilter"
       color-interpolation-filters="sRGB">
      <feBlend
         id="feBlend3185"
         result="blend"
         in="SourceGraphic"
         in2="BackgroundImage"
         mode="multiply" />
      <feComposite
         id="feComposite3187"
         result="comp"
         operator="in"
         in2="SourceAlpha"
         in="blend" />
    </filter>
    <filter
       id="BleachFilter"
       color-interpolation-filters="sRGB">
      <feBlend
         id="feBlend3190"
         result="blend"
         in="SourceGraphic"
         in2="BackgroundImage"
         mode="screen" />
      <feComposite
         id="feComposite3192"
         result="comp"
         operator="in"
         in2="SourceAlpha"
         in="blend" />
    </filter>
    <filter
       id="InvertTransparencyBitmapFilter"
       color-interpolation-filters="sRGB">
      <feComponentTransfer
         id="feComponentTransfer3195">
        <feFuncR
           id="feFuncR3197"
           offset="-0.055"
           exponent=".416666666"
           amplitude="1.055"
           type="gamma" />
        <feFuncG
           id="feFuncG3199"
           offset="-0.055"
           exponent=".416666666"
           amplitude="1.055"
           type="gamma" />
        <feFuncB
           id="feFuncB3201"
           offset="-0.055"
           exponent=".416666666"
           amplitude="1.055"
           type="gamma" />
      </feComponentTransfer>
      <feComponentTransfer
         id="feComponentTransfer3203">
        <feFuncR
           id="feFuncR3205"
           intercept="1"
           slope="-1"
           type="linear" />
        <feFuncG
           id="feFuncG3207"
           intercept="1"
           slope="-1"
           type="linear" />
        <feFuncB
           id="feFuncB3209"
           intercept="1"
           slope="-1"
           type="linear" />
        <feFuncA
           id="feFuncA3211"
           intercept="0"
           slope="1"
           type="linear" />
      </feComponentTransfer>
      <feComponentTransfer
         id="feComponentTransfer3213">
        <feFuncR
           id="feFuncR3215"
           offset="0"
           exponent="2.4"
           amplitude="1"
           type="gamma" />
        <feFuncG
           id="feFuncG3217"
           offset="0"
           exponent="2.4"
           amplitude="1"
           type="gamma" />
        <feFuncB
           id="feFuncB3219"
           offset="0"
           exponent="2.4"
           amplitude="1"
           type="gamma" />
      </feComponentTransfer>
    </filter>
    <linearGradient
       id="XMLID_54_"
       gradientUnits="userSpaceOnUse"
       x1="90.558098"
       y1="132.7412"
       x2="93.577103"
       y2="131.2317">
      <stop
         offset="0"
         style="stop-color:#FE0007"
         id="stop5871" />
      <stop
         offset="1"
         style="stop-color:#DD0006"
         id="stop5873" />
    </linearGradient>
    <linearGradient
       id="XMLID_55_"
       gradientUnits="userSpaceOnUse"
       x1="89.390602"
       y1="91.894501"
       x2="93.680397"
       y2="89.749603">
      <stop
         offset="0"
         style="stop-color:#FE0007"
         id="stop5878" />
      <stop
         offset="1"
         style="stop-color:#DD0006"
         id="stop5880" />
    </linearGradient>
    <linearGradient
       id="XMLID_56_"
       gradientUnits="userSpaceOnUse"
       x1="82.251503"
       y1="80.806198"
       x2="90.4468"
       y2="80.806198"
       gradientTransform="translate(2.83096,73.29667)">
      <stop
         offset="0"
         style="stop-color:#FE0007"
         id="stop5885" />
      <stop
         offset="1"
         style="stop-color:#8F0000"
         id="stop5887" />
    </linearGradient>
    <linearGradient
       id="XMLID_57_"
       gradientUnits="userSpaceOnUse"
       x1="94.804703"
       y1="81.450203"
       x2="102.0918"
       y2="81.450203"
       gradientTransform="translate(2.83096,73.29667)">
      <stop
         offset="0"
         style="stop-color:#BE0005"
         id="stop5892" />
      <stop
         offset="1"
         style="stop-color:#8F0000"
         id="stop5894" />
    </linearGradient>
    <linearGradient
       id="XMLID_58_"
       gradientUnits="userSpaceOnUse"
       x1="86.9785"
       y1="151.1055"
       x2="88.029198"
       y2="153.4666"
       gradientTransform="translate(2.83096,73.29667)">
      <stop
         offset="0"
         style="stop-color:#BABABA"
         id="stop5913" />
      <stop
         offset="0.007"
         style="stop-color:#BCBCBC"
         id="stop5915" />
      <stop
         offset="0.1279"
         style="stop-color:#D4D4D4"
         id="stop5917" />
      <stop
         offset="0.2632"
         style="stop-color:#E7E7E7"
         id="stop5919" />
      <stop
         offset="0.4212"
         style="stop-color:#F5F5F5"
         id="stop5921" />
      <stop
         offset="0.621"
         style="stop-color:#FDFDFD"
         id="stop5923" />
      <stop
         offset="1"
         style="stop-color:#FFFFFF"
         id="stop5925" />
    </linearGradient>
    <linearGradient
       y2="154.12849"
       x2="80.075104"
       y1="155.7451"
       x1="83.611298"
       gradientUnits="userSpaceOnUse"
       id="XMLID_43_"
       gradientTransform="matrix(1.8412422,0,0,1.941944,251.32988,143.4147)">
      <stop
         id="stop5654"
         style="stop-color:#BABABA"
         offset="0" />
      <stop
         id="stop5656"
         style="stop-color:#BCBCBC"
         offset="0.007" />
      <stop
         id="stop5658"
         style="stop-color:#D4D4D4"
         offset="0.1279" />
      <stop
         id="stop5660"
         style="stop-color:#E7E7E7"
         offset="0.2632" />
      <stop
         id="stop5662"
         style="stop-color:#F5F5F5"
         offset="0.4212" />
      <stop
         id="stop5664"
         style="stop-color:#FDFDFD"
         offset="0.621" />
      <stop
         id="stop5666"
         style="stop-color:#FFFFFF"
         offset="1" />
    </linearGradient>
    <linearGradient
       y2="154.19431"
       x2="112.1753"
       y1="154.19431"
       x1="102.0342"
       gradientUnits="userSpaceOnUse"
       id="XMLID_44_"
       gradientTransform="matrix(1.8412422,0,0,1.941944,251.32988,143.4147)">
      <stop
         id="stop5717"
         style="stop-color:#BABABA"
         offset="0" />
      <stop
         id="stop5719"
         style="stop-color:#BCBCBC"
         offset="0.007" />
      <stop
         id="stop5721"
         style="stop-color:#D4D4D4"
         offset="0.1279" />
      <stop
         id="stop5723"
         style="stop-color:#E7E7E7"
         offset="0.2632" />
      <stop
         id="stop5725"
         style="stop-color:#F5F5F5"
         offset="0.4212" />
      <stop
         id="stop5727"
         style="stop-color:#FDFDFD"
         offset="0.621" />
      <stop
         id="stop5729"
         style="stop-color:#FFFFFF"
         offset="1" />
    </linearGradient>
    <linearGradient
       y2="149.9678"
       x2="101.4902"
       y1="149.9678"
       x1="83.583504"
       gradientUnits="userSpaceOnUse"
       id="XMLID_45_">
      <stop
         id="stop5736"
         style="stop-color:#BFBFBF"
         offset="0" />
      <stop
         id="stop5738"
         style="stop-color:#C4C4C4"
         offset="0.0329" />
      <stop
         id="stop5740"
         style="stop-color:#DEDEDE"
         offset="0.2599" />
      <stop
         id="stop5742"
         style="stop-color:#F0F0F0"
         offset="0.4935" />
      <stop
         id="stop5744"
         style="stop-color:#FBFBFB"
         offset="0.7357" />
      <stop
         id="stop5746"
         style="stop-color:#FFFFFF"
         offset="1" />
    </linearGradient>
    <linearGradient
       y2="158.1553"
       x2="85.959503"
       y1="158.1553"
       x1="72.540001"
       gradientUnits="userSpaceOnUse"
       id="XMLID_46_"
       gradientTransform="matrix(1.8412422,0,0,1.941944,251.32988,143.4147)">
      <stop
         id="stop5751"
         style="stop-color:#BABABA"
         offset="0" />
      <stop
         id="stop5753"
         style="stop-color:#BCBCBC"
         offset="0.007" />
      <stop
         id="stop5755"
         style="stop-color:#D4D4D4"
         offset="0.1279" />
      <stop
         id="stop5757"
         style="stop-color:#E7E7E7"
         offset="0.2632" />
      <stop
         id="stop5759"
         style="stop-color:#F5F5F5"
         offset="0.4212" />
      <stop
         id="stop5761"
         style="stop-color:#FDFDFD"
         offset="0.621" />
      <stop
         id="stop5763"
         style="stop-color:#FFFFFF"
         offset="1" />
    </linearGradient>
    <linearGradient
       y2="157.4832"
       x2="92.706497"
       y1="162.4063"
       x1="90.539597"
       gradientUnits="userSpaceOnUse"
       id="XMLID_47_"
       gradientTransform="matrix(1.8412422,0,0,1.941944,251.32988,143.4147)">
      <stop
         id="stop5768"
         style="stop-color:#BABABA"
         offset="0" />
      <stop
         id="stop5770"
         style="stop-color:#BCBCBC"
         offset="0.007" />
      <stop
         id="stop5772"
         style="stop-color:#D4D4D4"
         offset="0.1279" />
      <stop
         id="stop5774"
         style="stop-color:#E7E7E7"
         offset="0.2632" />
      <stop
         id="stop5776"
         style="stop-color:#F5F5F5"
         offset="0.4212" />
      <stop
         id="stop5778"
         style="stop-color:#FDFDFD"
         offset="0.621" />
      <stop
         id="stop5780"
         style="stop-color:#FFFFFF"
         offset="1" />
    </linearGradient>
    <linearGradient
       y2="158.8232"
       x2="110.1816"
       y1="158.8232"
       x1="94.898399"
       gradientUnits="userSpaceOnUse"
       id="XMLID_48_"
       gradientTransform="matrix(1.8412422,0,0,1.941944,251.32988,143.4147)">
      <stop
         id="stop5785"
         style="stop-color:#BABABA"
         offset="0" />
      <stop
         id="stop5787"
         style="stop-color:#BCBCBC"
         offset="0.007" />
      <stop
         id="stop5789"
         style="stop-color:#D4D4D4"
         offset="0.1279" />
      <stop
         id="stop5791"
         style="stop-color:#E7E7E7"
         offset="0.2632" />
      <stop
         id="stop5793"
         style="stop-color:#F5F5F5"
         offset="0.4212" />
      <stop
         id="stop5795"
         style="stop-color:#FDFDFD"
         offset="0.621" />
      <stop
         id="stop5797"
         style="stop-color:#FFFFFF"
         offset="1" />
    </linearGradient>
    <linearGradient
       y2="156.3038"
       x2="97.002602"
       y1="153.08591"
       x1="99.234398"
       gradientUnits="userSpaceOnUse"
       id="XMLID_49_"
       gradientTransform="matrix(1.8412422,0,0,1.941944,251.32988,143.4147)">
      <stop
         id="stop5802"
         style="stop-color:#BABABA"
         offset="0" />
      <stop
         id="stop5804"
         style="stop-color:#BCBCBC"
         offset="0.007" />
      <stop
         id="stop5806"
         style="stop-color:#D4D4D4"
         offset="0.1279" />
      <stop
         id="stop5808"
         style="stop-color:#E7E7E7"
         offset="0.2632" />
      <stop
         id="stop5810"
         style="stop-color:#F5F5F5"
         offset="0.4212" />
      <stop
         id="stop5812"
         style="stop-color:#FDFDFD"
         offset="0.621" />
      <stop
         id="stop5814"
         style="stop-color:#FFFFFF"
         offset="1" />
    </linearGradient>
    <linearGradient
       y2="176.2222"
       x2="84.623497"
       y1="162.30569"
       x1="84.623497"
       gradientUnits="userSpaceOnUse"
       id="XMLID_50_"
       gradientTransform="matrix(1.8412422,0,0,1.941944,251.32988,143.4147)">
      <stop
         id="stop5819"
         style="stop-color:#BABABA"
         offset="0" />
      <stop
         id="stop5821"
         style="stop-color:#BCBCBC"
         offset="0.007" />
      <stop
         id="stop5823"
         style="stop-color:#D4D4D4"
         offset="0.1279" />
      <stop
         id="stop5825"
         style="stop-color:#E7E7E7"
         offset="0.2632" />
      <stop
         id="stop5827"
         style="stop-color:#F5F5F5"
         offset="0.4212" />
      <stop
         id="stop5829"
         style="stop-color:#FDFDFD"
         offset="0.621" />
      <stop
         id="stop5831"
         style="stop-color:#FFFFFF"
         offset="1" />
    </linearGradient>
    <linearGradient
       y2="176.22321"
       x2="98.847198"
       y1="162.30569"
       x1="98.847198"
       gradientUnits="userSpaceOnUse"
       id="XMLID_51_"
       gradientTransform="matrix(1.8412422,0,0,1.941944,251.32988,143.4147)">
      <stop
         id="stop5836"
         style="stop-color:#BABABA"
         offset="0" />
      <stop
         id="stop5838"
         style="stop-color:#BCBCBC"
         offset="0.007" />
      <stop
         id="stop5840"
         style="stop-color:#D4D4D4"
         offset="0.1279" />
      <stop
         id="stop5842"
         style="stop-color:#E7E7E7"
         offset="0.2632" />
      <stop
         id="stop5844"
         style="stop-color:#F5F5F5"
         offset="0.4212" />
      <stop
         id="stop5846"
         style="stop-color:#FDFDFD"
         offset="0.621" />
      <stop
         id="stop5848"
         style="stop-color:#FFFFFF"
         offset="1" />
    </linearGradient>
    <clipPath
       id="id3">
      <path
         id="path16-4"
         d="m 11600200,27707200 c 0,0 -65220,-175610 -667340,-130470 -572020,45170 -898140,40160 -998510,0 -105370,-40130 -195680,-65210 -341190,-95310 -120440,-20090 -366300,-45180 -301050,-40170 -125420,-15030 -240850,0 -240850,0 0,0 -25070,20080 40150,-85300 55200,-85300 170600,-125410 321110,-301060 48730,-56850 805430,-12790 863020,0 70270,15070 150550,10060 180660,0 30090,-10020 371280,-15030 521830,0 185200,40290 451640,57960 492000,57520 105900,-1160 145240,103060 160260,273650 15070,175630 25110,65250 -30090,321140 z"
         inkscape:connector-curvature="0" />
    </clipPath>
    <clipPath
       id="id2">
      <path
         id="path13"
         d="m 11018100,29368000 c 0,0 -371290,90310 -426490,-40170 -30100,-65200 -50150,-566970 -275970,-727530 -230830,-155570 -332600,-290020 -824420,-666110 -150640,-115190 -294530,-196920 -349680,-292240 -40170,-70260 -45180,-165580 -90340,-200730 0,0 281020,-30100 732580,80280 0,0 -65250,220780 80290,296050 80280,40130 265950,316130 551940,451580 270920,125450 436500,577030 521800,822900 95360,270960 80290,275970 80290,275970 z"
         inkscape:connector-curvature="0" />
    </clipPath>
    <clipPath
       id="id1">
      <path
         id="path10-7"
         d="m 9673400,29448300 c 0,0 361270,-70260 426490,-40160 65220,35150 135470,-411450 366280,-571980 265950,-180650 702480,-521840 1133980,-1128970 0,0 -95320,-175610 -516800,-120410 0,0 -10060,205710 -55180,285990 -50190,80290 -275970,411450 -562000,521830 -285990,110360 -506780,426490 -602090,697450 -95320,270960 -190680,356250 -190680,356250 z"
         inkscape:connector-curvature="0" />
    </clipPath>
    <clipPath
       id="id0">
      <path
         id="path7"
         d="m 17842400,17373200 c 0,5159380 -3287490,9343450 -7341290,9343450 -4053800,0 -7341290,-4184070 -7341290,-9343450 0,-5159380 3287490,-9343450 7341290,-9343450 4053800,0 7341290,4184070 7341290,9343450 z"
         inkscape:connector-curvature="0" />
    </clipPath>
    <linearGradient
       id="linearGradient5358"
       inkscape:collect="always">
      <stop
         id="stop5360"
         offset="0"
         style="stop-color:#ffffff;stop-opacity:1;" />
      <stop
         id="stop5362"
         offset="1"
         style="stop-color:#ffffff;stop-opacity:0;" />
    </linearGradient>
    <inkscape:perspective
       id="perspective525"
       inkscape:persp3d-origin="372.04724 : 350.78739 : 1"
       inkscape:vp_z="744.09448 : 526.18109 : 1"
       inkscape:vp_y="0 : 1000 : 0"
       inkscape:vp_x="0 : 526.18109 : 1"
       sodipodi:type="inkscape:persp3d" />
  </defs>
  <g
     style="fill-rule:evenodd"
     id="g5918"
     transform="matrix(5.3872056e-6,0,0,5.3872056e-6,135.47397,47.746525)">
    <path
       style="font-size:16px;fill:none;stroke:none;stroke-width:0.78600001;marker-start:none;marker-end:none;font-family:Times New Roman"
       id="path3232"
       d="m -15436905,-8862955.1 c 5360035,0 9710360.9,5497950.5 9710360.9,12272207.5 0,6774339.6 -4350325.9,12272299.6 -9710360.9,12272299.6 -5360124,0 -9710450,-5497960 -9710450,-12272299.6 0,-6774257 4350326,-12272207.5 9710450,-12272207.5 z"
       inkscape:connector-curvature="0" />
    <g
       transform="matrix(88516.616,0,0,86888.447,-25587929,-3308864.6)"
       id="g5370"
       style="fill-rule:evenodd;stroke-width:0.50099999;stroke-linejoin:bevel" />
    <path
       style="fill:#23accd;fill-rule:evenodd;stroke:#000000;stroke-width:161685.796875;stroke-linecap:round;stroke-linejoin:bevel"
       id="path5623"
       d=""
       inkscape:connector-curvature="0" />
    <path
       style="fill:none;stroke-width:0.50099999;stroke-linejoin:bevel"
       id="path5625"
       d=""
       inkscape:connector-curvature="0" />
    <path
       style="fill:none;stroke:#000000;stroke-width:161685.796875;stroke-linecap:round;stroke-linejoin:bevel"
       id="path5680"
       d=""
       inkscape:connector-curvature="0" />
    <g
       transform="matrix(1.3004735,0,0,1.3004413,-10026078,-8848284.5)"
       id="g7637">
      <g
         inkscape:label="Capa 1"
         id="g6402"
         transform="matrix(148589.22,0,0,148024.68,-23458220,-20390560)">
        <rect
           style="fill:#75aadb;fill-opacity:1;fill-rule:evenodd;stroke:none"
           id="rect2274"
           width="300"
           height="200"
           x="79.857277"
           y="138.00513" />
        <path
           style="fill:#ffffff;fill-opacity:1;fill-rule:evenodd;stroke:none"
           d="m 79.857275,203.00513 0,70 0.201882,0 -0.201882,-70 z m 0.346086,0 0.02884,70 299.625079,0 0,-70 -299.653919,0 z"
           id="rect2337"
           sodipodi:nodetypes="ccccccccc"
           inkscape:connector-curvature="0" />
      </g>
    </g>
  </g>
  <g
     style="fill-rule:evenodd"
     id="g4"
     transform="matrix(0.18571916,0,0,0.16272692,135.88794,56.400595)">
    <g
       id="g6"
       transform="matrix(1.1508678,0,0,1.3344143,-220.85584,-309.74276)">
      <path
         d="m 217.437,351.1 164.344,0 -0.708,97.048 -155.135,-0.708 -9.209,-60.213 0.708,-36.127 z"
         inkscape:connector-curvature="0"
         id="path8"
         style="fill:#80b3ff;stroke:#80b3ff;stroke-width:1.00262296000000010" />
      <path
         d="m 377.51,447.8 -151.188,0 3.187,27.972 23.369,41.072 27.971,26.91 21.598,7.789 40.364,-25.493 25.848,-39.656 8.851,-38.594 z"
         inkscape:connector-curvature="0"
         id="path10"
         style="fill:#b8c59a;stroke:#2c2c2b;stroke-width:1.00262296" />
      <path
         d="m 202.929,384.212 c 9.446,2.171 13.898,7.166 13.355,14.984 2.307,-7.71 5.835,-13.791 12.052,-16.287 -0.926,3.694 -1.58,7.17 -0.326,9.12 1.548,5.782 1.602,11.157 -1.628,15.636 1.954,-1.086 3.909,-1.303 5.863,-0.652 -2.009,2.117 -3.204,5.049 -2.606,9.772 0.33,5.38 -0.866,8.853 -2.28,12.053 1.086,-0.652 2.172,-1.303 3.257,-1.955 -1.574,3.067 -2.335,6.27 -1.303,9.772 1.759,6.797 0.12,11.895 -1.628,16.938 1.411,-2.823 2.606,-2.823 4.886,-3.908 -1.629,5.754 -1.52,7.817 0.325,10.097 3.811,4.774 3.807,11.073 3.258,17.59 0.76,-1.411 2.171,-2.171 2.931,-3.583 0.713,3.032 -1.241,4.772 1.629,9.121 3.149,1.954 4.235,7.926 3.909,13.355 0.434,-1.738 1.846,-3.801 2.28,-5.538 1.737,5.646 1.846,6.406 2.932,9.447 3.583,2.116 4.777,7.22 4.886,13.68 0.651,-1.845 1.303,-3.691 1.954,-5.537 1.509,4.197 3.722,10.025 7.003,11.564 2.633,1.6 4.696,3.338 6.026,10.586 0.326,-1.737 0.652,-3.475 0.978,-5.212 2.171,4.018 5.211,7.166 9.12,9.447 7.873,4.342 10.37,9.88 10.424,15.961 -11.075,-1.521 -22.15,-3.041 -33.225,-4.561 -8.919,-3.577 -12.496,-9.442 -15.31,-15.635 -1.737,-1.954 -4.234,-2.063 -6.84,-2.28 0,-1.195 1.846,-2.497 4.886,-1.955 -5.535,-0.753 -8.47,-4.126 -8.795,-10.097 -1.04,-3.257 -2.928,-6.081 -9.121,-8.47 2.172,-1.411 4.344,-1.52 6.515,-0.325 -3.368,-1.071 -7.171,-3.449 -8.795,-14.984 -2.28,-3.8 -4.071,-6.623 -6.352,-7.818 1.521,-1.411 2.986,-1.628 5.375,-1.303 -5.537,-5.103 -8.903,-11.943 -10.098,-20.521 0.007,-1.954 -0.322,-3.257 -2.931,-5.212 1.954,-1.142 3.365,-0.926 6.189,0.977 -6.096,-4.554 -7.176,-12.374 -7.166,-19.544 1.194,-3.474 0.651,-6.732 -1.629,-9.772 2.445,0.106 4.726,0.43 5.863,2.28 -1.411,-4.777 -2.823,-9.554 -4.234,-14.332 0.244,-5.484 -1.005,-7.981 -2.932,-9.121 2.01,-0.6 3.638,-0.056 5.212,0.652 -3.313,-5.51 -4.29,-9.148 -3.258,-15.961 1.471,-2.063 0.058,-6.406 -0.651,-8.469 z"
         inkscape:connector-curvature="0"
         id="path12"
         style="fill:#d7b46d;stroke:#2c2c2b;stroke-width:1.00262296" />
      <path
         d="m 187.619,359.782 26.711,27.687 -1.955,4.886 -28.99,-29.316 4.234,-3.257 z"
         inkscape:connector-curvature="0"
         id="path14"
         style="fill:#d7b46d;stroke:#2c2c2b;stroke-width:1.00262296" />
      <path
         d="m 239.355,351.157 112.914,0.113 c 2.717,-0.756 3.554,-1.84 5.399,-5.214 3.692,-2.069 7.386,-1.849 11.079,-1.303 -4.343,-2.396 -8.903,-4.139 -14.989,-1.303 -3.042,2.07 -6.083,1.85 -9.124,1.303 4.022,-1.408 7.717,-3.144 9.124,-7.169 1.082,-2.61 3.69,-3.695 6.517,-4.562 -4.128,-1.954 -8.256,-1.302 -12.383,1.955 -2.168,4.247 -5.863,4.677 -9.775,4.562 2.936,-2.497 5.544,-5.102 5.865,-8.472 2.607,-4.127 6.518,-6.516 11.731,-7.169 -4.128,-1.962 -8.256,-3.27 -12.383,0 -2.39,4.128 -5.214,6.952 -8.472,8.473 1.998,-5.228 4.691,-10.688 3.91,-14.99 0.651,-1.737 0,-3.91 -1.955,-6.517 -1.078,10.882 -5.209,14.132 -9.775,16.293 6.134,-14.696 3.795,-18.095 1.955,-22.158 -0.26,7.566 -1.462,9.482 -2.607,11.731 -1.521,2.389 -3.693,3.476 -5.214,5.865 2.498,-7.114 4.018,-12.654 1.304,-18.9 -1.739,-2.823 -3.477,-4.343 -5.214,-4.562 1.846,5.649 2.063,11.297 -1.303,16.945 -2.024,0.882 -3.409,3.679 -4.562,7.169 1.417,-8.916 2.29,-16.96 -0.652,-18.9 -1.521,-2.389 -3.041,-4.779 -4.562,-7.169 0.869,3.911 1.738,7.821 2.607,11.731 -1.738,3.91 -3.476,7.821 -5.214,11.731 0.597,-7.332 -0.163,-14.392 -3.91,-20.855 -1.521,-0.651 -3.476,-1.303 -5.865,-1.955 2.611,4.232 4.786,8.792 3.91,15.641 -0.435,2.173 -1.847,5.322 -2.281,7.494 -0.598,-9.068 -1.033,-16.671 -4.236,-17.921 -2.607,-3.523 -5.214,-3.28 -7.821,-3.259 3.153,2.495 5.979,5.317 6.517,10.428 -2.07,3.582 -1.85,7.928 -1.303,12.382 -1.082,-6.956 -2.6,-13.476 -7.169,-16.944 -2.607,-2.736 -5.214,-1.998 -7.82,-1.956 3.909,2.282 6.733,6.192 7.168,13.686 -1.52,3.042 -1.303,6.083 0.652,9.124 -2.744,-0.401 -5.667,-2.172 -6.517,-14.337 -2.39,-3.484 -4.78,-3.915 -7.169,-3.911 3.504,3.612 6.057,7.034 5.214,9.776 -2.75,4.652 -1.389,7.31 1.955,11.079 -2.824,-4.127 -5.974,0.54 -7.495,-13.36 -3.259,-3.475 -7.495,-3.801 -10.753,-2.933 4.073,2.281 6.788,5.106 6.517,9.124 0.652,4.779 2.607,8.689 5.866,11.731 -4.996,-1.955 -8.255,-5.214 -9.776,-9.776 -3.91,-6.96 -7.821,-4.506 -11.731,-2.606 6.191,0.869 10.753,3.911 11.731,11.73 0.218,1.738 2.173,3.476 5.865,5.214 -4.671,-0.643 -9.234,-2.157 -13.034,-9.776 -3.693,-1.09 -7.386,-1.745 -11.079,0.652 5.328,0.972 10.111,2.489 11.079,7.821 2.173,2.172 4.78,3.475 7.821,3.91 -1.956,1.954 -6.084,1.303 -12.383,-1.955 -6.038,-2.78 -7.444,-0.927 -9.775,0 4.456,1.845 8.586,3.8 10.427,6.517 2.93,1.414 6.624,2.065 10.427,2.607 -4.452,1.635 -9.014,2.725 -14.337,0 -3.694,-2.615 -7.386,-2.177 -11.079,-1.304 3.91,1.087 5.728,1.626 6.163,4.449 z"
         inkscape:connector-curvature="0"
         id="path16"
         style="fill:#ffcc00;stroke:#2c2c2b;stroke-width:1.00262296" />
      <path
         d="m 274.265,339.586 11.726,-0.326 7.492,1.955 1.303,-1.955 -3.583,-1.628 -6.515,-0.978 -4.56,0.652 -5.863,2.28 z"
         inkscape:connector-curvature="0"
         id="path18"
         style="fill:#1f211d;stroke:#2c2c2b;stroke-width:1.00262296" />
      <path
         d="m 325.405,339.26 -11.726,-0.325 -7.492,1.954 -1.303,-1.954 3.583,-1.629 6.515,-0.977 4.56,0.651 5.863,2.28 z"
         inkscape:connector-curvature="0"
         id="path20"
         style="fill:#1f211d;stroke:#2c2c2b;stroke-width:1.00262296" />
      <path
         d="m 274.916,346.101 3.909,0.325 2.606,1.955 4.56,0.977 4.886,-1.629 2.606,-1.954 -3.257,-3.583 -5.212,-1.303 -3.583,0.977 -6.515,4.235 z"
         inkscape:connector-curvature="0"
         id="path22"
         style="fill:#ffffff;stroke:#2c2c2b;stroke-width:1.00262296" />
      <path
         d="m 324.754,345.775 -3.909,0.326 -2.606,1.954 -4.56,0.977 -4.886,-1.628 -2.606,-1.955 3.257,-3.583 5.212,-1.303 3.583,0.977 6.515,4.235 z"
         inkscape:connector-curvature="0"
         id="path24"
         style="fill:#ffffff;stroke:#2c2c2b;stroke-width:1.00262296" />
      <path
         d="m 285.991,341.215 c 2.158,0 3.909,1.751 3.909,3.909 0,2.157 -1.751,3.908 -3.909,3.908 -2.157,0 -3.909,-1.751 -3.909,-3.908 0,-2.158 1.752,-3.909 3.909,-3.909 z"
         inkscape:connector-curvature="0"
         id="path26"
         style="fill:#2c2c2b;stroke:#2c2c2b;stroke-width:1.00262296" />
      <path
         d="m 313.353,341.215 c -2.158,0 -3.909,1.751 -3.909,3.909 0,2.157 1.751,3.908 3.909,3.908 2.157,0 3.909,-1.751 3.909,-3.908 0,-2.158 -1.752,-3.909 -3.909,-3.909 z"
         inkscape:connector-curvature="0"
         id="path28"
         style="fill:#2c2c2b;stroke:#2c2c2b;stroke-width:1.00262296" />
      <path
         d="m 286.643,342.843 c 1.078,0 1.954,0.73 1.954,1.629 0,0.899 -0.876,1.629 -1.954,1.629 -1.079,0 -1.955,-0.73 -1.955,-1.629 0,-0.899 0.876,-1.629 1.955,-1.629 z"
         inkscape:connector-curvature="0"
         id="path30"
         style="fill:#ffffff;stroke:#2c2c2b;stroke-width:1.00262296" />
      <path
         d="m 313.027,342.518 c -1.079,0 -1.954,0.729 -1.954,1.628 0,0.899 0.875,1.629 1.954,1.629 1.079,0 1.955,-0.73 1.955,-1.629 0,-0.899 -0.876,-1.628 -1.955,-1.628 z"
         inkscape:connector-curvature="0"
         id="path32"
         style="fill:#ffffff;stroke:#2c2c2b;stroke-width:1.00262296" />
      <path
         d="m 181.707,353.877 c -10.21,-10.645 -20.42,-21.289 -30.63,-31.934 4.323,8.196 8.425,16.336 16.292,25.417 3.693,3.476 7.386,6.951 11.079,10.427 1.087,-1.303 2.173,-2.607 3.259,-3.91 z"
         inkscape:connector-curvature="0"
         id="path34"
         style="fill:#d7b46d;stroke:#2c2c2b;stroke-width:1.00262296" />
      <path
         d="m 182.733,352.29 c 3.057,0 5.538,2.408 5.538,5.374 0,2.967 -2.481,5.375 -5.538,5.375 -3.056,0 -5.537,-2.408 -5.537,-5.375 0,-2.966 2.481,-5.374 5.537,-5.374 z"
         inkscape:connector-curvature="0"
         id="path36"
         style="fill:#d7b46d;stroke:#2c2c2b;stroke-width:1.00262296" />
      <path
         d="m 181.919,354.57 c 1.169,0 2.117,0.876 2.117,1.954 0,1.079 -0.948,1.955 -2.117,1.955 -1.169,0 -2.117,-0.876 -2.117,-1.955 0,-1.078 0.948,-1.954 2.117,-1.954 z"
         inkscape:connector-curvature="0"
         id="path38"
         style="fill:#fcd5a7;stroke:#fcd5a7;stroke-width:1.00262296" />
      <path
         d="m 157.652,330.791 20.521,21.499 -0.977,0.977 -19.544,-22.476 z"
         inkscape:connector-curvature="0"
         id="path40"
         style="fill:#fcd5a7;stroke:#fcd5a7;stroke-width:1.00262296" />
      <path
         d="m 187.945,362.062 23.779,25.407 2.28,1.955 -0.652,0.977 -25.081,-25.733 -0.326,-2.606 z"
         inkscape:connector-curvature="0"
         id="path42"
         style="fill:#fcd5a7;stroke:#fcd5a7;stroke-width:1.00262296" />
      <path
         d="m 189.248,364.016 c 0.326,-0.326 0.977,-1.303 1.303,-1.954 l 2.606,0 c 2.661,6.352 3.421,12.975 0,20.195 -0.326,-0.325 -1.303,-4.886 -1.303,-6.189 l -0.652,11.075 c -0.325,-0.325 -1.954,-8.794 -1.954,-10.423 0,2.606 0.977,11.726 -0.651,13.355 0,-9.121 -7.167,-14.658 -2.932,-23.127 0.977,0 2.28,0.326 2.932,0.326 l 0,-2.606 c 0.325,-0.326 0.651,-0.652 0.651,-0.652 z"
         inkscape:connector-curvature="0"
         id="path44"
         style="fill:#e21c2a;stroke:#2c2c2b;stroke-width:1.00262296" />
      <path
         d="m 205.86,361.41 0,16.939"
         inkscape:connector-curvature="0"
         id="path46"
         style="fill:none;stroke:#2c2c2b;stroke-width:1.00262296" />
      <path
         d="m 209.769,357.176 0,25.081"
         inkscape:connector-curvature="0"
         id="path48"
         style="fill:none;stroke:#2c2c2b;stroke-width:1.00262296" />
      <path
         d="m 214.33,353.918 -0.326,31.597"
         inkscape:connector-curvature="0"
         id="path50"
         style="fill:none;stroke:#2c2c2b;stroke-width:1.00262296" />
      <path
         d="m 216.456,429.412 c -5.245,8.551 -6.887,21.096 1.161,29.132 l -1.161,-29.132 z"
         inkscape:connector-curvature="0"
         id="path52"
         style="fill:#ffffff;stroke:#2c2c2b;stroke-width:1.00262296" />
      <path
         d="m 217.632,456.525 c -5.19,7.401 -1.697,22.821 10.103,24.825 l -10.103,-24.825 z"
         inkscape:connector-curvature="0"
         id="path54"
         style="fill:#ffffff;stroke:#2c2c2b;stroke-width:1.00262296" />
      <path
         d="m 216.935,383.614 c -6.622,7.795 -9.283,19.522 -0.38,27.471 l 0.38,-27.471 z"
         inkscape:connector-curvature="0"
         id="path56"
         style="fill:#ffffff;stroke:#2c2c2b;stroke-width:1.00262296" />
      <path
         d="m 217.893,456.782 10.103,24.825 c 5.226,-10.569 -1.305,-21.015 -10.103,-24.825 z"
         inkscape:connector-curvature="0"
         id="path58"
         style="fill:none;stroke:#2c2c2b;stroke-width:1.00262296" />
      <path
         d="m 216.669,383.966 -0.314,27.119 c 8.347,-8.678 6.514,-20.775 0.314,-27.119 z"
         inkscape:connector-curvature="0"
         id="path60"
         style="fill:#d7b46d;stroke:#2c2c2b;stroke-width:1.00262296" />
      <path
         d="m 238.271,525.907 c 3.257,0 6.678,0.163 9.284,1.954 0,0.163 0.162,0.326 0.162,0.489"
         inkscape:connector-curvature="0"
         id="path62"
         style="fill:none;stroke:#2c2c2b;stroke-width:1.00262296" />
      <path
         d="m 240.877,530.141 c 3.257,1.14 6.352,3.583 9.446,4.235 l 0.652,0 -0.163,0.163"
         inkscape:connector-curvature="0"
         id="path64"
         style="fill:none;stroke:#2c2c2b;stroke-width:1.00262296" />
      <path
         d="m 273.776,529.978 c 0,3.095 1.955,6.352 1.955,9.447"
         inkscape:connector-curvature="0"
         id="path66"
         style="fill:none;stroke:#2c2c2b;stroke-width:1.00262296" />
      <path
         d="m 269.867,529.978 c -0.163,1.466 -1.465,8.47 -1.465,9.935"
         inkscape:connector-curvature="0"
         id="path68"
         style="fill:none;stroke:#2c2c2b;stroke-width:1.00262296" />
      <path
         d="m 258.304,511.574 c -1.14,4.072 0.488,8.795 0.488,13.03 l -0.488,-1.466"
         inkscape:connector-curvature="0"
         id="path70"
         style="fill:none;stroke:#2c2c2b;stroke-width:1.00262296" />
      <path
         d="m 255.046,512.226 c -0.162,2.117 -2.117,7.003 -3.583,8.469"
         inkscape:connector-curvature="0"
         id="path72"
         style="fill:none;stroke:#2c2c2b;stroke-width:1.00262296" />
      <path
         d="m 248.532,495.288 c -2.932,4.234 -0.489,8.632 -0.489,13.355"
         inkscape:connector-curvature="0"
         id="path74"
         style="fill:none;stroke:#2c2c2b;stroke-width:1.00262296" />
      <path
         d="m 245.274,494.473 c -0.488,2.769 -1.14,7.329 -3.094,9.284"
         inkscape:connector-curvature="0"
         id="path76"
         style="fill:none;stroke:#2c2c2b;stroke-width:1.00262296" />
      <path
         d="m 227.848,507.014 c 1.628,0.814 3.42,1.466 5.374,1.629 0.326,0 2.606,-0.163 2.606,0.325"
         inkscape:connector-curvature="0"
         id="path78"
         style="fill:none;stroke:#2c2c2b;stroke-width:1.00262296" />
      <path
         d="m 227.033,510.434 c 4.398,0.815 6.515,5.212 10.912,5.212"
         inkscape:connector-curvature="0"
         id="path80"
         style="fill:none;stroke:#2c2c2b;stroke-width:1.00262296" />
      <path
         d="m 240.063,480.141 c -2.932,1.791 -2.443,8.143 -2.443,11.238"
         inkscape:connector-curvature="0"
         id="path82"
         style="fill:none;stroke:#2c2c2b;stroke-width:1.00262296" />
      <path
         d="m 236.968,475.906 c -0.326,1.303 -2.606,3.909 -2.606,5.049 -0.163,0 -0.814,2.117 -1.14,2.117"
         inkscape:connector-curvature="0"
         id="path84"
         style="fill:none;stroke:#2c2c2b;stroke-width:1.00262296" />
      <path
         d="m 217.261,487.796 c 1.303,-0.163 2.606,-0.163 3.583,0.488 l 4.398,2.932"
         inkscape:connector-curvature="0"
         id="path86"
         style="fill:none;stroke:#2c2c2b;stroke-width:1.00262296" />
      <path
         d="m 228.631,431.443 c -2.315,2.851 -1.781,9.62 -5.344,11.401"
         inkscape:connector-curvature="0"
         id="path88"
         style="fill:none;stroke:#2c2c2b;stroke-width:1.00262296" />
      <path
         d="m 205.698,434.049 c 4.397,2.606 2.605,7.818 6.351,10.587 l 0,0.163 -0.162,-0.326"
         inkscape:connector-curvature="0"
         id="path90"
         style="fill:none;stroke:#2c2c2b;stroke-width:1.00262296" />
      <path
         d="m 208.955,431.443 c 1.303,1.955 3.257,3.095 4.886,4.724 l -0.163,0 -0.163,0"
         inkscape:connector-curvature="0"
         id="path92"
         style="fill:none;stroke:#2c2c2b;stroke-width:1.00262296" />
      <path
         d="m 228.01,428.512 c -1.588,3.546 -4.366,4.965 -6.351,7.329"
         inkscape:connector-curvature="0"
         id="path94"
         style="fill:none;stroke:#2c2c2b;stroke-width:1.00262296" />
      <path
         d="m 204.452,411.085 c 4.309,3.446 2.155,7.755 5.17,11.416 0,0 0.431,0.431 0.646,0.431 0.216,0.431 0.647,0.862 1.077,0.862 l 0.216,0.215 0.215,0.216 0,0.215 0,-0.215"
         inkscape:connector-curvature="0"
         id="path96"
         style="fill:none;stroke:#2c2c2b;stroke-width:1.00262296" />
      <path
         d="m 206.186,407.665 c 1.08,2.16 4.32,3.42 5.221,5.22 0.36,0 0.9,0.18 0.9,0.54 0.54,0 0.36,0.36 0.54,0.36 l 0.36,0 0.18,0.18 0.18,0.18 c 0,0.18 0.18,0.36 0.36,0.36"
         inkscape:connector-curvature="0"
         id="path98"
         style="fill:none;stroke:#2c2c2b;stroke-width:1.00262296" />
      <path
         d="m 226.708,407.99 c -1.629,2.281 -3.746,3.909 -6.189,4.886"
         inkscape:connector-curvature="0"
         id="path100"
         style="fill:none;stroke:#2c2c2b;stroke-width:1.00262296" />
      <path
         d="m 229.476,411.574 c -0.814,0.325 -2.28,1.14 -2.768,1.954 -1.141,1.792 -1.303,4.56 -2.606,6.189 -0.326,0.326 -1.14,0.814 -1.303,1.14"
         inkscape:connector-curvature="0"
         id="path102"
         style="fill:none;stroke:#2c2c2b;stroke-width:1.00262296" />
      <path
         d="m 203.906,388.121 c 1.665,1.294 2.959,2.774 3.329,4.808 0.555,2.96 1.48,4.254 3.699,6.104 l 0,0"
         inkscape:connector-curvature="0"
         id="path104"
         style="fill:none;stroke:#2c2c2b;stroke-width:1.00262296" />
      <path
         d="m 227.196,388.284 c -2.006,3.42 -2.932,6.188 -3.857,9.934 -0.155,0.978 -2.006,3.746 -2.006,4.398 l 0,-0.163 0,-0.163"
         inkscape:connector-curvature="0"
         id="path106"
         style="fill:none;stroke:#2c2c2b;stroke-width:1.00262296" />
      <path
         d="m 216.036,409.355 c -5.595,7.516 -7.589,18.622 0.478,25.853 l -0.478,-25.853 z"
         inkscape:connector-curvature="0"
         id="path108"
         style="fill:#ffffff;stroke:#2c2c2b;stroke-width:1.00262296" />
      <path
         d="m 215.965,409.669 0.488,25.854 c 8.396,-8.542 6.132,-20.01 -0.488,-25.854 z"
         inkscape:connector-curvature="0"
         id="path110"
         style="fill:#d7b46d;stroke:#2c2c2b;stroke-width:1.00262296" />
      <path
         d="m 218.89,483.235 c 1.14,1.14 4.886,1.792 6.515,1.792"
         inkscape:connector-curvature="0"
         id="path112"
         style="fill:none;stroke:#2c2c2b;stroke-width:1.00262296" />
      <path
         d="m 212.212,458.642 c 0.977,0.815 2.118,1.303 3.258,1.955"
         inkscape:connector-curvature="0"
         id="path114"
         style="fill:none;stroke:#2c2c2b;stroke-width:1.00262296" />
      <path
         d="m 231.431,454.896 c -2.606,2.606 -1.955,10.913 -1.955,14.007"
         inkscape:connector-curvature="0"
         id="path116"
         style="fill:none;stroke:#2c2c2b;stroke-width:1.00262296" />
      <path
         d="m 221.821,458.317 c 1.955,-0.489 4.561,-4.561 5.864,-5.212 l 0,-0.326 0.163,0 0.162,-0.489"
         inkscape:connector-curvature="0"
         id="path118"
         style="fill:none;stroke:#2c2c2b;stroke-width:1.00262296" />
      <path
         d="m 216.61,429.757 1.161,29.132 c 8.174,-9.758 5.611,-22.649 -1.161,-29.132 z"
         inkscape:connector-curvature="0"
         id="path120"
         style="fill:#d7b46d;stroke:#2c2c2b;stroke-width:1.00262296" />
      <path
         d="m 209.118,461.411 c 3.474,0.869 4.777,5.103 5.863,10.098 l 0.326,0 0.326,0 0.325,0.326"
         inkscape:connector-curvature="0"
         id="path122"
         style="fill:none;stroke:#2c2c2b;stroke-width:1.00262296" />
      <path
         d="m 225.369,478.158 11.836,26.644 c 3.993,-12.086 -3.149,-23.12 -11.836,-26.644 z"
         inkscape:connector-curvature="0"
         id="path124"
         style="fill:#d7b46d;stroke:#2c2c2b;stroke-width:1.00262296" />
      <path
         d="m 225.099,477.894 c -1.717,9.883 1.389,22.148 11.835,26.645 l -11.835,-26.645 z"
         inkscape:connector-curvature="0"
         id="path126"
         style="fill:#ffffff;stroke:#2c2c2b;stroke-width:1.00262296" />
      <path
         d="m 233.636,499.936 c -0.337,9.204 4.143,21.039 15.088,20.906 l -15.088,-20.906 z"
         inkscape:connector-curvature="0"
         id="path128"
         style="fill:#ffffff;stroke:#2c2c2b;stroke-width:1.00262296" />
      <path
         d="m 233.932,500.128 15.088,20.906 c 3.132,-10.24 -5.946,-18.767 -15.088,-20.906 z"
         inkscape:connector-curvature="0"
         id="path130"
         style="fill:#d7b46d;stroke:#2c2c2b;stroke-width:1.00262296" />
      <path
         d="m 246.829,519.793 21.353,24.843 c 0.822,-13.945 -10.535,-23.593 -21.353,-24.843 z"
         inkscape:connector-curvature="0"
         id="path132"
         style="fill:#d7b46d;stroke:#2c2c2b;stroke-width:1.00262296" />
      <path
         d="m 246.445,519.591 c 1.066,10.96 8.267,23.066 21.354,24.843 l -21.354,-24.843 z"
         inkscape:connector-curvature="0"
         id="path134"
         style="fill:#ffffff;stroke:#2c2c2b;stroke-width:1.00262296" />
      <path
         d="m 270.682,547.731 c -4.759,-1.743 -3.925,-2.53 -6.026,-7.818 7.22,4.995 11.672,5.266 18.892,10.261 -4.289,-0.814 -8.577,-1.629 -12.866,-2.443 z"
         inkscape:connector-curvature="0"
         id="path136"
         style="fill:#ffffff;stroke:#2c2c2b;stroke-width:1.00262296" />
      <path
         d="m 264.656,539.425 c 6.882,5.103 11.449,5.971 19.218,11.075 1.737,0.38 3.474,0.76 5.212,1.14 -4.669,-11.564 -10.641,-12.812 -24.43,-12.215 z"
         inkscape:connector-curvature="0"
         id="path138"
         style="fill:#d7b46d;stroke:#2c2c2b;stroke-width:1.00262296" />
      <path
         d="m 243.32,534.376 -44.626,47.557 3.258,3.583 43.974,-46.906 -2.606,-4.234 z"
         inkscape:connector-curvature="0"
         id="path140"
         style="fill:#d7b46d;stroke:#2c2c2b;stroke-width:1.00262296" />
      <path
         d="m 200.974,581.607 0.652,0.978 41.043,-43.649 0.325,-1.629 -42.02,44.3 z"
         inkscape:connector-curvature="0"
         id="path142"
         style="fill:#fcd5a7;stroke:#fcd5a7;stroke-width:1.00262296" />
      <path
         d="m 201.479,582.79 c 0.901,0.982 1.026,2.336 0.279,3.02 -0.747,0.685 -2.084,0.443 -2.985,-0.54 -0.901,-0.982 -1.025,-2.336 -0.279,-3.02 0.747,-0.685 2.084,-0.443 2.985,0.54 z"
         inkscape:connector-curvature="0"
         id="path144"
         style="fill:#af9779;stroke:#2c2c2b;stroke-width:1.00262296" />
      <path
         d="m 256.349,551.314 c -1.085,-2.714 0.978,-3.909 4.235,-4.886 12.451,-0.719 25.107,3.846 28.99,5.863 0,6.298 0.326,8.361 0.326,14.658 -8.61,-6.439 -19.5,-5.855 -23.453,1.303 1.086,1.412 2.497,2.823 3.583,4.235 17.996,-4.806 13.817,-4.932 19.219,-5.538 -17.889,15.059 -37.922,24.464 -59.284,19.544 8.366,-2.274 16.295,-4.986 21.173,-10.749 2.171,-1.954 3.04,-3.474 2.605,-4.56 -7.69,1.767 -12.557,-3.057 -17.589,-7.492 10.024,1.543 19.968,2.867 27.362,-2.606 -2.389,-3.257 -4.778,-6.515 -7.167,-9.772 z"
         inkscape:connector-curvature="0"
         id="path146"
         style="fill:#008ed1;stroke:#2c2c2b;stroke-width:1.00262296" />
      <path
         d="m 263.516,561.738 c 1.085,-0.652 2.171,-1.303 3.257,-1.955 4.234,-2.823 8.035,-2.606 11.401,0.652 4.017,1.628 8.252,2.714 11.4,2.606 -0.325,-1.955 0,-4.235 -0.325,-6.189 -1.629,0.434 -6.732,-0.869 -12.704,-3.909 -5.32,0.036 -10.641,-1.086 -15.961,3.583 0.977,1.737 1.954,3.474 2.932,5.212 z"
         inkscape:connector-curvature="0"
         id="path148"
         style="fill:#ffffff;stroke:#2c2c2b;stroke-width:1.00262296" />
      <path
         d="m 252.115,572.161 c 5.537,-0.434 10.858,-2.063 14.658,-4.234 1.408,2.394 2.491,4.677 6.515,3.583 -7.601,4.668 -15.636,6.731 -24.105,6.189 2.118,-2.227 3.421,-4.181 2.932,-5.538 z"
         inkscape:connector-curvature="0"
         id="path150"
         style="fill:#ffffff;stroke:#2c2c2b;stroke-width:1.00262296" />
      <path
         d="m 267.099,568.578 -3.909,-7.166"
         inkscape:connector-curvature="0"
         id="path152"
         style="fill:none;stroke:#2c2c2b;stroke-width:1.00262296" />
      <path
         d="m 289.574,566.461 c -3.497,4.008 -7.656,6.202 -11.499,12.984 -1.946,3.434 -2.609,4.929 -10.325,10.794 -0.031,0.475 -3.832,2.236 -7.166,3.095 3.583,0.108 7.166,0.217 10.749,0.326 12.239,-17.482 15.711,-23.023 19.056,-25.408 -0.543,-0.868 -0.272,-0.923 -0.815,-1.791 z"
         inkscape:connector-curvature="0"
         id="path154"
         style="fill:#d7b46d;stroke:#2c2c2b;stroke-width:1.00262296" />
      <path
         d="m 266.121,592.357 c 3.057,0 5.538,0.729 5.538,1.628 0,0.899 -2.481,1.629 -5.538,1.629 -3.056,0 -5.537,-0.73 -5.537,-1.629 0,-0.899 2.481,-1.628 5.537,-1.628 z"
         inkscape:connector-curvature="0"
         id="path156"
         style="fill:#877973;stroke:#2c2c2b;stroke-width:1.00262296" />
      <path
         d="m 400.024,384.863 c -9.446,2.172 -13.898,7.167 -13.355,14.984 -2.307,-7.709 -5.835,-13.79 -12.052,-16.286 0.926,3.694 1.579,7.17 0.325,9.12 -1.547,5.782 -1.602,11.157 1.629,15.635 -1.954,-1.085 -3.909,-1.303 -5.863,-0.651 2.009,2.117 3.203,5.048 2.606,9.772 -0.33,5.38 0.866,8.852 2.28,12.052 -1.086,-0.651 -2.172,-1.303 -3.258,-1.954 1.575,3.067 2.335,6.27 1.303,9.772 -1.759,6.797 -0.119,11.895 1.629,16.938 -1.411,-2.823 -2.606,-2.823 -4.886,-3.909 1.629,5.755 1.52,7.818 -0.326,10.098 -3.811,4.773 -3.806,11.072 -3.257,17.59 -0.76,-1.412 -2.172,-2.172 -2.932,-3.583 -0.712,3.032 1.241,4.772 -1.628,9.12 -3.149,1.955 -4.235,7.927 -3.909,13.355 -0.435,-1.737 -1.846,-3.8 -2.28,-5.537 -1.738,5.646 -1.846,6.406 -2.932,9.446 -3.584,2.117 -4.777,7.22 -4.886,13.681 -0.651,-1.846 -1.303,-3.692 -1.954,-5.537 -1.51,4.197 -3.722,10.025 -7.004,11.563 -2.633,1.601 -4.696,3.338 -6.026,10.587 -0.325,-1.738 -0.651,-3.475 -0.977,-5.212 -2.172,4.017 -5.212,7.166 -9.121,9.446 -7.872,4.343 -10.369,9.88 -10.423,15.961 11.075,-1.52 22.15,-3.04 33.225,-4.56 8.918,-3.577 12.495,-9.443 15.309,-15.635 1.738,-1.955 4.235,-2.063 6.841,-2.28 0,-1.195 -1.846,-2.498 -4.886,-1.955 5.534,-0.754 8.47,-4.127 8.795,-10.098 1.04,-3.256 2.928,-6.08 9.12,-8.469 -2.171,-1.411 -4.343,-1.52 -6.514,-0.326 3.368,-1.07 7.17,-3.449 8.794,-14.983 2.281,-3.801 4.072,-6.624 6.352,-7.818 -1.52,-1.412 -2.986,-1.629 -5.374,-1.303 5.537,-5.103 8.903,-11.944 10.097,-20.521 -0.006,-1.955 0.322,-3.258 2.932,-5.212 -1.954,-1.142 -3.366,-0.926 -6.189,0.977 6.095,-4.554 7.175,-12.374 7.166,-19.544 -1.194,-3.474 -0.651,-6.732 1.629,-9.772 -2.445,0.106 -4.726,0.43 -5.863,2.28 1.411,-4.777 2.823,-9.555 4.234,-14.332 -0.244,-5.484 1.005,-7.981 2.932,-9.121 -2.01,-0.6 -3.638,-0.056 -5.212,0.652 3.312,-5.51 4.29,-9.148 3.257,-15.961 -1.471,-2.063 -0.057,-6.407 0.652,-8.47 z"
         inkscape:connector-curvature="0"
         id="path158"
         style="fill:#d7b46d;stroke:#2c2c2b;stroke-width:1.00262296" />
      <path
         d="m 415.333,360.433 -26.71,27.688 1.955,4.886 28.99,-29.316 -4.235,-3.258 z"
         inkscape:connector-curvature="0"
         id="path160"
         style="fill:#d7b46d;stroke:#2c2c2b;stroke-width:1.00262296" />
      <path
         d="m 421.246,354.529 c 10.21,-10.645 20.42,-21.289 30.63,-31.934 -4.323,8.195 -8.425,16.335 -16.293,25.417 -3.693,3.476 -7.386,6.951 -11.079,10.427 -1.086,-1.303 -2.172,-2.607 -3.258,-3.91 z"
         inkscape:connector-curvature="0"
         id="path162"
         style="fill:#d7b46d;stroke:#2c2c2b;stroke-width:1.00262296" />
      <path
         d="m 420.219,352.941 c -3.056,0 -5.537,2.408 -5.537,5.375 0,2.967 2.481,5.375 5.537,5.375 3.057,0 5.538,-2.408 5.538,-5.375 0,-2.967 -2.481,-5.375 -5.538,-5.375 z"
         inkscape:connector-curvature="0"
         id="path164"
         style="fill:#d7b46d;stroke:#2c2c2b;stroke-width:1.00262296" />
      <path
         d="m 421.034,355.222 c -1.169,0 -2.118,0.875 -2.118,1.954 0,1.079 0.949,1.954 2.118,1.954 1.168,0 2.117,-0.875 2.117,-1.954 0,-1.079 -0.949,-1.954 -2.117,-1.954 z"
         inkscape:connector-curvature="0"
         id="path166"
         style="fill:#fcd5a7;stroke:#fcd5a7;stroke-width:1.00262296" />
      <path
         d="m 445.301,331.443 -20.521,21.498 0.977,0.978 19.544,-22.476 z"
         inkscape:connector-curvature="0"
         id="path168"
         style="fill:#fcd5a7;stroke:#fcd5a7;stroke-width:1.00262296" />
      <path
         d="m 415.008,362.714 -23.779,25.407 -2.28,1.954 0.651,0.977 25.082,-25.733 0.326,-2.605 z"
         inkscape:connector-curvature="0"
         id="path170"
         style="fill:#fcd5a7;stroke:#fcd5a7;stroke-width:1.00262296" />
      <path
         d="m 413.705,364.668 c -0.326,-0.326 -0.978,-1.303 -1.303,-1.954 l -2.606,0 c -2.661,6.351 -3.421,12.974 0,20.195 0.326,-0.326 1.303,-4.886 1.303,-6.189 l 0.651,11.075 c 0.326,-0.326 1.955,-8.795 1.955,-10.423 0,2.605 -0.978,11.726 0.651,13.355 0,-9.121 7.166,-14.658 2.932,-23.127 -0.977,0 -2.28,0.325 -2.932,0.325 l 0,-2.606 c -0.326,-0.325 -0.651,-0.651 -0.651,-0.651 z"
         inkscape:connector-curvature="0"
         id="path172"
         style="fill:#e21c2a;stroke:#2c2c2b;stroke-width:1.00262296" />
      <path
         d="m 397.092,362.062 0,16.938"
         inkscape:connector-curvature="0"
         id="path174"
         style="fill:none;stroke:#2c2c2b;stroke-width:1.00262296" />
      <path
         d="m 393.183,357.827 0,25.082"
         inkscape:connector-curvature="0"
         id="path176"
         style="fill:none;stroke:#2c2c2b;stroke-width:1.00262296" />
      <path
         d="m 388.623,354.57 0.326,31.596"
         inkscape:connector-curvature="0"
         id="path178"
         style="fill:none;stroke:#2c2c2b;stroke-width:1.00262296" />
      <path
         d="m 386.497,430.064 c 5.244,8.55 6.886,21.096 -1.162,29.132 l 1.162,-29.132 z"
         inkscape:connector-curvature="0"
         id="path180"
         style="fill:#ffffff;stroke:#2c2c2b;stroke-width:1.00262296" />
      <path
         d="m 385.321,457.177 c 5.19,7.4 1.697,22.82 -10.103,24.824 l 10.103,-24.824 z"
         inkscape:connector-curvature="0"
         id="path182"
         style="fill:#ffffff;stroke:#2c2c2b;stroke-width:1.00262296" />
      <path
         d="m 386.017,384.265 c 6.623,7.795 9.284,19.523 0.38,27.472 l -0.38,-27.472 z"
         inkscape:connector-curvature="0"
         id="path184"
         style="fill:#ffffff;stroke:#2c2c2b;stroke-width:1.00262296" />
      <path
         d="m 385.06,457.434 -10.103,24.824 c -5.226,-10.568 1.305,-21.014 10.103,-24.824 z"
         inkscape:connector-curvature="0"
         id="path186"
         style="fill:none;stroke:#2c2c2b;stroke-width:1.00262296" />
      <path
         d="m 386.284,384.618 0.314,27.119 c -8.347,-8.678 -6.514,-20.775 -0.314,-27.119 z"
         inkscape:connector-curvature="0"
         id="path188"
         style="fill:#d7b46d;stroke:#2c2c2b;stroke-width:1.00262296" />
      <path
         d="m 364.682,526.558 c -3.258,0 -6.678,0.163 -9.284,1.955 0,0.163 -0.163,0.326 -0.163,0.488"
         inkscape:connector-curvature="0"
         id="path190"
         style="fill:none;stroke:#2c2c2b;stroke-width:1.00262296" />
      <path
         d="m 362.076,530.793 c -3.258,1.14 -6.352,3.583 -9.447,4.234 l -0.651,0 0.163,0.163"
         inkscape:connector-curvature="0"
         id="path192"
         style="fill:none;stroke:#2c2c2b;stroke-width:1.00262296" />
      <path
         d="m 329.177,530.63 c 0,3.095 -1.955,6.352 -1.955,9.446"
         inkscape:connector-curvature="0"
         id="path194"
         style="fill:none;stroke:#2c2c2b;stroke-width:1.00262296" />
      <path
         d="m 333.085,530.63 c 0.163,1.466 1.466,8.469 1.466,9.935"
         inkscape:connector-curvature="0"
         id="path196"
         style="fill:none;stroke:#2c2c2b;stroke-width:1.00262296" />
      <path
         d="m 344.649,512.226 c 1.14,4.072 -0.489,8.795 -0.489,13.029 l 0.489,-1.465"
         inkscape:connector-curvature="0"
         id="path198"
         style="fill:none;stroke:#2c2c2b;stroke-width:1.00262296" />
      <path
         d="m 347.906,512.877 c 0.163,2.118 2.118,7.004 3.583,8.47"
         inkscape:connector-curvature="0"
         id="path200"
         style="fill:none;stroke:#2c2c2b;stroke-width:1.00262296" />
      <path
         d="m 354.421,495.939 c 2.932,4.235 0.489,8.632 0.489,13.355"
         inkscape:connector-curvature="0"
         id="path202"
         style="fill:none;stroke:#2c2c2b;stroke-width:1.00262296" />
      <path
         d="m 357.678,495.125 c 0.489,2.769 1.14,7.329 3.095,9.283"
         inkscape:connector-curvature="0"
         id="path204"
         style="fill:none;stroke:#2c2c2b;stroke-width:1.00262296" />
      <path
         d="m 375.105,507.666 c -1.629,0.814 -3.42,1.466 -5.374,1.628 -0.326,0 -2.606,-0.162 -2.606,0.326"
         inkscape:connector-curvature="0"
         id="path206"
         style="fill:none;stroke:#2c2c2b;stroke-width:1.00262296" />
      <path
         d="m 375.919,511.086 c -4.397,0.814 -6.514,5.212 -10.912,5.212"
         inkscape:connector-curvature="0"
         id="path208"
         style="fill:none;stroke:#2c2c2b;stroke-width:1.00262296" />
      <path
         d="m 362.89,480.793 c 2.932,1.791 2.443,8.143 2.443,11.237"
         inkscape:connector-curvature="0"
         id="path210"
         style="fill:none;stroke:#2c2c2b;stroke-width:1.00262296" />
      <path
         d="m 365.985,476.558 c 0.325,1.303 2.605,3.909 2.605,5.049 0.163,0 0.815,2.117 1.141,2.117"
         inkscape:connector-curvature="0"
         id="path212"
         style="fill:none;stroke:#2c2c2b;stroke-width:1.00262296" />
      <path
         d="m 385.692,488.447 c -1.303,-0.163 -2.606,-0.163 -3.584,0.489 l -4.397,2.932"
         inkscape:connector-curvature="0"
         id="path214"
         style="fill:none;stroke:#2c2c2b;stroke-width:1.00262296" />
      <path
         d="m 374.321,432.095 c 2.316,2.85 1.782,9.619 5.344,11.401"
         inkscape:connector-curvature="0"
         id="path216"
         style="fill:none;stroke:#2c2c2b;stroke-width:1.00262296" />
      <path
         d="m 397.255,434.701 c -4.397,2.606 -2.606,7.818 -6.352,10.586 l 0,0.163 0.163,-0.325"
         inkscape:connector-curvature="0"
         id="path218"
         style="fill:none;stroke:#2c2c2b;stroke-width:1.00262296" />
      <path
         d="m 393.998,432.095 c -1.303,1.955 -3.258,3.095 -4.886,4.723 l 0.163,0 0.162,0"
         inkscape:connector-curvature="0"
         id="path220"
         style="fill:none;stroke:#2c2c2b;stroke-width:1.00262296" />
      <path
         d="m 374.942,429.163 c 1.588,3.547 4.367,4.965 6.352,7.33"
         inkscape:connector-curvature="0"
         id="path222"
         style="fill:none;stroke:#2c2c2b;stroke-width:1.00262296" />
      <path
         d="m 398.5,411.737 c -4.308,3.446 -2.154,7.754 -5.169,11.416 0,0 -0.431,0.431 -0.647,0.431 -0.215,0.431 -0.646,0.862 -1.077,0.862 l -0.215,0.215 -0.216,0.215 0,0.216 0,-0.216"
         inkscape:connector-curvature="0"
         id="path224"
         style="fill:none;stroke:#2c2c2b;stroke-width:1.00262296" />
      <path
         d="m 396.766,408.316 c -1.08,2.161 -4.32,3.421 -5.22,5.221 -0.36,0 -0.9,0.18 -0.9,0.54 -0.54,0 -0.36,0.36 -0.54,0.36 l -0.36,0 -0.18,0.18 -0.18,0.18 c 0,0.18 -0.18,0.36 -0.36,0.36"
         inkscape:connector-curvature="0"
         id="path226"
         style="fill:none;stroke:#2c2c2b;stroke-width:1.00262296" />
      <path
         d="m 376.245,408.642 c 1.629,2.28 3.746,3.909 6.189,4.886"
         inkscape:connector-curvature="0"
         id="path228"
         style="fill:none;stroke:#2c2c2b;stroke-width:1.00262296" />
      <path
         d="m 373.476,412.225 c 0.815,0.326 2.281,1.14 2.769,1.955 1.14,1.791 1.303,4.56 2.606,6.189 0.326,0.325 1.14,0.814 1.303,1.14"
         inkscape:connector-curvature="0"
         id="path230"
         style="fill:none;stroke:#2c2c2b;stroke-width:1.00262296" />
      <path
         d="m 399.047,388.772 c -1.665,1.295 -2.96,2.775 -3.329,4.809 -0.555,2.959 -1.48,4.254 -3.7,6.103 l 0,0"
         inkscape:connector-curvature="0"
         id="path232"
         style="fill:none;stroke:#2c2c2b;stroke-width:1.00262296" />
      <path
         d="m 375.757,388.935 c 2.005,3.42 2.931,6.189 3.857,9.935 0.154,0.977 2.006,3.746 2.006,4.398 l 0,-0.163 0,-0.163"
         inkscape:connector-curvature="0"
         id="path234"
         style="fill:none;stroke:#2c2c2b;stroke-width:1.00262296" />
      <path
         d="m 386.917,410.006 c 5.595,7.516 7.588,18.622 -0.478,25.854 l 0.478,-25.854 z"
         inkscape:connector-curvature="0"
         id="path236"
         style="fill:#ffffff;stroke:#2c2c2b;stroke-width:1.00262296" />
      <path
         d="m 386.987,410.321 -0.487,25.853 c -8.396,-8.541 -6.132,-20.01 0.487,-25.853 z"
         inkscape:connector-curvature="0"
         id="path238"
         style="fill:#d7b46d;stroke:#2c2c2b;stroke-width:1.00262296" />
      <path
         d="m 384.063,483.887 c -1.14,1.14 -4.886,1.792 -6.515,1.792"
         inkscape:connector-curvature="0"
         id="path240"
         style="fill:none;stroke:#2c2c2b;stroke-width:1.00262296" />
      <path
         d="m 390.74,459.294 c -0.977,0.814 -2.117,1.303 -3.257,1.954"
         inkscape:connector-curvature="0"
         id="path242"
         style="fill:none;stroke:#2c2c2b;stroke-width:1.00262296" />
      <path
         d="m 371.522,455.548 c 2.606,2.606 1.954,10.912 1.954,14.007"
         inkscape:connector-curvature="0"
         id="path244"
         style="fill:none;stroke:#2c2c2b;stroke-width:1.00262296" />
      <path
         d="m 381.131,458.968 c -1.954,-0.488 -4.56,-4.56 -5.863,-5.211 l 0,-0.326 -0.163,0 -0.163,-0.489"
         inkscape:connector-curvature="0"
         id="path246"
         style="fill:none;stroke:#2c2c2b;stroke-width:1.00262296" />
      <path
         d="m 386.343,430.409 -1.162,29.132 c -8.173,-9.759 -5.61,-22.65 1.162,-29.132 z"
         inkscape:connector-curvature="0"
         id="path248"
         style="fill:#d7b46d;stroke:#2c2c2b;stroke-width:1.00262296" />
      <path
         d="m 393.835,462.063 c -3.475,0.868 -4.778,5.103 -5.863,10.098 l -0.326,0 -0.326,0 -0.326,0.325"
         inkscape:connector-curvature="0"
         id="path250"
         style="fill:none;stroke:#2c2c2b;stroke-width:1.00262296" />
      <path
         d="m 377.584,478.81 -11.836,26.644 c -3.993,-12.087 3.148,-23.12 11.836,-26.644 z"
         inkscape:connector-curvature="0"
         id="path252"
         style="fill:#d7b46d;stroke:#2c2c2b;stroke-width:1.00262296" />
      <path
         d="m 377.854,478.546 c 1.717,9.883 -1.389,22.148 -11.836,26.644 l 11.836,-26.644 z"
         inkscape:connector-curvature="0"
         id="path254"
         style="fill:#ffffff;stroke:#2c2c2b;stroke-width:1.00262296" />
      <path
         d="m 369.316,500.587 c 0.337,9.205 -4.143,21.039 -15.087,20.907 l 15.087,-20.907 z"
         inkscape:connector-curvature="0"
         id="path256"
         style="fill:#ffffff;stroke:#2c2c2b;stroke-width:1.00262296" />
      <path
         d="m 369.021,500.78 -15.088,20.906 c -3.132,-10.24 5.945,-18.767 15.088,-20.906 z"
         inkscape:connector-curvature="0"
         id="path258"
         style="fill:#d7b46d;stroke:#2c2c2b;stroke-width:1.00262296" />
      <path
         d="m 356.124,520.444 -21.354,24.844 c -0.822,-13.945 10.536,-23.593 21.354,-24.844 z"
         inkscape:connector-curvature="0"
         id="path260"
         style="fill:#d7b46d;stroke:#2c2c2b;stroke-width:1.00262296" />
      <path
         d="m 356.507,520.242 c -1.066,10.961 -8.266,23.066 -21.353,24.844 l 21.353,-24.844 z"
         inkscape:connector-curvature="0"
         id="path262"
         style="fill:#ffffff;stroke:#2c2c2b;stroke-width:1.00262296" />
      <path
         d="m 332.271,548.383 c 4.759,-1.743 3.925,-2.53 6.026,-7.818 -7.22,4.995 -11.672,5.266 -18.892,10.261 4.288,-0.815 8.577,-1.629 12.866,-2.443 z"
         inkscape:connector-curvature="0"
         id="path264"
         style="fill:#ffffff;stroke:#2c2c2b;stroke-width:1.00262296" />
      <path
         d="m 338.297,540.076 c -6.882,5.103 -11.449,5.972 -19.218,11.075 -1.737,0.38 -3.475,0.76 -5.212,1.14 4.669,-11.563 10.641,-12.812 24.43,-12.215 z"
         inkscape:connector-curvature="0"
         id="path266"
         style="fill:#d7b46d;stroke:#2c2c2b;stroke-width:1.00262296" />
      <path
         d="m 359.633,535.027 44.625,47.558 -3.257,3.583 -43.974,-46.906 2.606,-4.235 z"
         inkscape:connector-curvature="0"
         id="path268"
         style="fill:#d7b46d;stroke:#2c2c2b;stroke-width:1.00262296" />
      <path
         d="m 401.978,582.259 -0.651,0.977 -41.043,-43.648 -0.326,-1.629 42.02,44.3 z"
         inkscape:connector-curvature="0"
         id="path270"
         style="fill:#fcd5a7;stroke:#fcd5a7;stroke-width:1.00262296" />
      <path
         d="m 401.474,583.441 c -0.901,0.983 -1.026,2.336 -0.279,3.021 0.747,0.684 2.084,0.442 2.985,-0.54 0.9,-0.983 1.025,-2.336 0.278,-3.021 -0.746,-0.684 -2.084,-0.442 -2.984,0.54 z"
         inkscape:connector-curvature="0"
         id="path272"
         style="fill:#af9779;stroke:#2c2c2b;stroke-width:1.00262296" />
      <path
         d="m 346.603,551.966 c 1.086,-2.715 -0.977,-3.909 -4.234,-4.886 -12.451,-0.719 -25.107,3.846 -28.991,5.863 0,6.297 -0.325,8.36 -0.325,14.658 8.61,-6.439 19.5,-5.855 23.453,1.303 -1.086,1.411 -2.498,2.823 -3.583,4.235 -17.996,-4.806 -13.817,-4.932 -19.219,-5.538 17.889,15.058 37.921,24.464 59.284,19.544 -8.366,-2.275 -16.295,-4.986 -21.173,-10.749 -2.171,-1.955 -3.04,-3.475 -2.606,-4.56 7.691,1.767 12.557,-3.057 17.59,-7.492 -10.025,1.543 -19.968,2.867 -27.362,-2.606 2.389,-3.258 4.778,-6.515 7.166,-9.772 z"
         inkscape:connector-curvature="0"
         id="path274"
         style="fill:#008ed1;stroke:#2c2c2b;stroke-width:1.00262296" />
      <path
         d="m 339.437,562.389 c -1.086,-0.651 -2.171,-1.303 -3.257,-1.954 -4.235,-2.823 -8.035,-2.606 -11.401,0.651 -4.017,1.629 -8.252,2.715 -11.401,2.606 0.326,-1.954 0,-4.234 0.326,-6.189 1.629,0.435 6.732,-0.868 12.704,-3.909 5.32,0.037 10.64,-1.085 15.961,3.583 -0.977,1.738 -1.955,3.475 -2.932,5.212 z"
         inkscape:connector-curvature="0"
         id="path276"
         style="fill:#ffffff;stroke:#2c2c2b;stroke-width:1.00262296" />
      <path
         d="m 350.838,572.813 c -5.538,-0.435 -10.858,-2.063 -14.658,-4.235 -1.408,2.394 -2.491,4.677 -6.515,3.583 7.601,4.669 15.635,6.732 24.105,6.189 -2.118,-2.226 -3.421,-4.18 -2.932,-5.537 z"
         inkscape:connector-curvature="0"
         id="path278"
         style="fill:#ffffff;stroke:#2c2c2b;stroke-width:1.00262296" />
      <path
         d="m 335.854,569.23 3.909,-7.166"
         inkscape:connector-curvature="0"
         id="path280"
         style="fill:none;stroke:#2c2c2b;stroke-width:1.00262296" />
      <path
         d="m 313.378,567.112 c 3.498,4.009 7.657,6.203 11.5,12.985 1.946,3.433 2.608,4.929 10.325,10.794 0.03,0.474 3.831,2.236 7.166,3.095 -3.583,0.108 -7.166,0.217 -10.749,0.325 -12.239,-17.481 -15.711,-23.022 -19.056,-25.407 0.543,-0.869 0.272,-0.923 0.814,-1.792 z"
         inkscape:connector-curvature="0"
         id="path282"
         style="fill:#d7b46d;stroke:#2c2c2b;stroke-width:1.00262296" />
      <path
         d="m 336.831,593.008 c -3.056,0 -5.537,0.73 -5.537,1.629 0,0.899 2.481,1.629 5.537,1.629 3.057,0 5.538,-0.73 5.538,-1.629 0,-0.899 -2.481,-1.629 -5.538,-1.629 z"
         inkscape:connector-curvature="0"
         id="path284"
         style="fill:#877973;stroke:#2c2c2b;stroke-width:1.00262296" />
      <path
         d="m 298.553,549.773 c -2.597,0.118 -5.193,0.236 -7.79,0.354 -1.327,-2.863 -1.032,-6.698 0,-10.976 0.252,3.233 4.295,6.867 4.249,6.727 2.483,1.064 8.385,4.901 6.017,5.133 0.354,0 -2.122,-0.884 -2.122,-0.53 -0.118,-0.236 -0.236,-0.472 -0.354,-0.708 z"
         inkscape:connector-curvature="0"
         id="path286"
         style="fill:#d7b46d;stroke:#2c2c2b;stroke-width:1.00262296" />
      <path
         d="m 304.365,550.303 c 2.596,0.119 5.193,0.237 7.789,0.355 1.328,-2.863 1.032,-6.698 0,-10.977 -0.252,3.234 -4.295,6.868 -4.249,6.728 -2.482,1.064 -8.385,4.901 -6.017,5.133 -0.354,0 2.123,-0.884 2.123,-0.53 0.118,-0.237 0.236,-0.472 0.354,-0.709 z"
         inkscape:connector-curvature="0"
         id="path288"
         style="fill:#d7b46d;stroke:#2c2c2b;stroke-width:1.00262296" />
      <path
         d="m 289.011,552.017 c -0.267,-3.451 26.094,-3.037 25.476,0 -1.091,5.248 -1.74,11.086 -1.415,18.223 -0.236,0.884 -0.944,1.297 -2.123,1.238 -7.078,-3.847 -13.742,-2.721 -20.345,-0.885 -1.298,-0.59 -1.651,-1.415 -1.062,-2.476 0.03,-5.367 -0.088,-10.734 -0.531,-16.1 z"
         inkscape:connector-curvature="0"
         id="path290"
         style="fill:#008ed1;stroke:#2c2c2b;stroke-width:1.00262296" />
      <path
         d="m 289.542,558.032 3.715,0.354 3.716,-0.531 3.538,-0.884 3.184,0 3.008,0.354 4.423,1.061 2.477,1.062 -0.531,3.715 0,1.238 -5.131,-1.592 -4.246,-0.177 -3.007,0 -3.008,0.708 -3.715,0.354 -4.069,-0.177 -0.708,-3.539 0.354,-1.946 z"
         inkscape:connector-curvature="0"
         id="path292"
         style="fill:#ffffff;stroke:#2c2c2b;stroke-width:1.00262296" />
      <path
         d="m 268.579,567.94 c 0.531,1.946 6.102,2.653 6.102,2.83 -0.707,0 -1.239,0.355 -2.124,0.355 l -1.06,-10e-4 c -0.354,0 -0.708,-0.177 -0.708,-0.354 -0.354,0 -1.238,-0.707 -1.415,-0.884 l -0.795,-1.946 z"
         inkscape:connector-curvature="0"
         id="path294"
         style="fill:#c5c7c9;stroke:#c5c7c9;stroke-width:1.00262296" />
      <path
         d="m 268.756,565.463 c 4.366,-1.303 8.554,-2.132 11.5,0.354 0.472,0.412 0.943,0.825 1.415,1.238 -1.651,-0.649 -3.066,-0.354 -4.246,0.885 2.241,-0.236 3.303,0.235 3.185,1.415 2.948,-0.884 5.897,-1.769 8.845,-2.654 -3.036,-2.3 -6.811,-4.01 -12.207,-4.422 -5.424,0.197 -7.324,1.569 -8.492,3.184 z"
         inkscape:connector-curvature="0"
         id="path296"
         style="fill:#1f211d;stroke:#2c2c2b;stroke-width:1.00262296" />
      <path
         d="m 332.511,566.567 c 0.795,0 2.385,0.619 2.385,1.679 -0.176,0 -0.53,-0.089 -0.795,-0.089 0.177,0.177 0.53,0.531 0.53,0.796 l -0.883,0 c 0,0.088 0.177,0.265 0.265,0.353 l 0,0.442 c -0.265,0 -0.618,-0.265 -0.972,-0.265 0,0.265 0.177,0.618 0.177,0.971 -0.177,0 -0.53,-0.353 -0.795,-0.353 0,0.265 0.088,0.707 0.088,1.06 -0.176,0 -0.53,-0.353 -0.706,-0.353 0,0.265 0.176,0.618 0.176,0.883 -0.618,0 -1.325,-0.177 -1.943,-0.177 -0.089,-0.088 -1.414,-0.441 -1.679,-0.441 l -0.088,-0.177 c 0.53,0 1.237,0.177 1.767,0 -0.089,-0.177 -0.884,-0.442 -1.149,-0.442 0.089,-0.088 1.59,0 1.59,-0.441 -0.353,0 -0.795,-0.177 -1.06,-0.265 0.177,-0.177 0.972,-0.177 1.237,-0.265 l 0,-0.089 0,-0.088 c -0.177,-0.088 -0.707,-0.353 -0.883,-0.353 l 1.502,-0.089 c 0,-0.088 0.088,-0.265 0.088,-0.353 -0.265,0 -0.618,-0.089 -0.884,-0.089 l -0.088,-0.088 c 0.442,0 0.972,-0.265 1.325,-0.265 0,0 0.089,-0.088 0.177,-0.088 l 0.088,-0.089 c 0,-0.353 -0.706,-0.088 -0.883,-0.265 0.353,0 0.883,-0.176 1.237,-0.265 l 0,-0.088 0,-0.088 c -0.089,0 -0.354,-0.265 -0.619,-0.265 l -0.088,-0.089 c 0.265,0 0.618,-0.176 0.883,-0.265 z"
         inkscape:connector-curvature="0"
         id="path298"
         style="fill:#c5c7c9;stroke:#c5c7c9;stroke-width:1.00262296" />
      <path
         d="m 324.041,563.34 c -1.15,0.324 -2.271,0.677 -3.185,1.238 0.236,0.236 0.472,0.472 0.708,0.708 -0.707,-0.177 -1.297,0.118 -1.769,0.884 0.354,0.177 0.707,0.354 1.061,0.531 -0.56,0.147 -1.091,0.324 -1.415,0.708 -0.412,0.589 -0.353,1.179 0.177,1.769 -1.179,-0.472 -2.359,-0.944 -3.538,-1.415 -0.826,-0.059 -1.828,-0.472 -2.654,-0.531 4.356,-2.667 7.909,-3.581 10.615,-3.892 z"
         inkscape:connector-curvature="0"
         id="path300"
         style="fill:#2c2c2b;stroke:#2c2c2b;stroke-width:1.00262296" />
      <path
         d="m 288.658,495.935 c 0,0.177 -0.177,0.354 -0.177,0.354 -1.062,-2.3 -4.246,-2.3 -4.954,-4.6 -0.885,0 -1.946,-0.354 -2.654,-0.354 0,0.354 -1.238,0.177 -1.415,0.177 l -0.177,-0.177 c 0,-0.177 -0.354,-0.354 -0.531,-0.531 0,-2.123 1.416,-2.654 2.123,-4.6 0.354,-0.884 1.239,-3.361 2.123,-3.715 l 0.531,-5.13 c 0.531,0 0.531,1.238 0.531,1.592 0.707,0 1.238,0.354 1.946,0.354 -0.472,-1.415 -0.706,-3.446 -1.611,-4.902 l -8.296,-8.013 0,-1.593 c 0.735,-0.452 8.318,8.846 11.322,8.846 -0.354,0 3.538,0.177 4.246,0.708 0.708,0.531 2.123,2.123 2.123,3.008 -0.354,-0.177 -4.777,-2.654 -4.777,-0.531 l 0.177,0 10.261,8.492 c 0.193,0.159 0.708,1.061 1.239,1.061 0,-0.354 1.946,-5.13 2.654,-5.13 l 0,-0.708 -0.177,0 0,-0.177 0,-0.177 -0.619,-0.442 c -0.177,-0.353 0.353,-1.062 0.353,-1.416 -0.176,0 -0.883,-0.265 -1.06,-0.265 l 0.618,-1.238 0.354,-0.885 0,-0.177 c 0,-0.177 -0.177,-0.53 -0.177,-0.884 l 0.177,-0.177 1.946,0 c 0.531,0 1.769,1.061 2.123,1.061 0,0.531 0.531,2.654 0.708,2.831 l 0,2.123 -0.708,0 -0.177,-0.177 c 0,-0.177 -0.177,-0.354 -0.354,-0.531 l 0,1.239 0.177,0 0,0.53 c 0.177,0 0.354,0.354 0.354,0.531 0.354,0 0.708,1.062 0.884,1.239 0,1.061 0,2.476 -0.353,3.361 l -0.177,0 c 0,0.354 -0.177,0.708 -0.354,0.885 l 0,1.415 -0.177,0 0,0.708 c 3.008,1.415 6.369,0.53 9.553,2.123 l 0.177,0.353 c 2.477,0 5.131,0.885 7.431,0.885 0,0.177 2.654,2.3 3.007,2.477 0,0.354 0.354,1.061 0.531,1.061 l 0,-0.177 c 0,1.062 -0.531,3.185 -0.177,4.246 0.354,1.416 2.477,3.008 2.477,4.423 0.354,0.177 0.354,0.885 0.354,1.239 -0.531,0.53 -0.708,0.53 -1.415,0.53 l -3.539,-3.007 c -2.477,-2.123 -2.3,-5.308 -3.184,-8.315 -0.354,-0.177 -0.708,-0.354 -1.239,-0.354 -0.108,11.712 3.654,12.166 11.058,17.868 0.354,0 1.415,0.885 1.769,0.885 0,0.353 -0.089,0.531 -0.089,0.708 l -0.884,0.353 c -0.177,-0.354 -2.213,-1.416 -2.213,-1.416 -0.353,0.354 -1.679,0.709 -2.033,1.24 -5.766,0.295 -2.887,-0.797 -4.6,-3.892 0,-2.123 -2.831,-3.185 -4.423,-3.893 0,-1.061 -4.6,-2.3 -5.484,-2.83 -0.708,2.123 0.884,3.007 2.123,4.246 l 0,0.177 0,0.177 c -0.531,0.53 -1.239,1.415 -1.77,1.592 -0.884,1.946 -2.476,4.069 -2.476,6.192 -0.177,0 -0.354,0.177 -0.354,0.354 -1.062,0 -3.185,0.177 -3.892,0 0,-0.708 0.53,-1.593 0.707,-2.123 l 2.3,-1.239 c 0,-1.592 1.769,-3.715 1.769,-5.484 -1.415,-1.415 -4.423,-2.831 -4.423,-5.308 -1.769,0 -3.715,0.531 -5.484,0.531 0,1.592 -0.708,3.008 -0.708,4.6 l -3.538,0.177 -0.354,-0.354 0,-0.531 c 0.354,-0.354 1.062,-1.238 1.769,-1.238 l 0,-0.531 c 0.354,0 0,-0.177 0.354,-0.177 0,-0.531 -0.177,-1.061 -0.354,-1.592 -1.415,0 -3.361,-0.531 -4.776,-0.531 0,3.362 1.415,6.192 1.946,9.377 0.177,1.238 -0.354,2.654 -0.354,3.892 -0.531,0.177 -1.769,1.238 -2.3,1.238 0,-0.53 0.354,-3.184 0.885,-3.184 0,-0.354 0.177,-0.885 0.177,-1.239 -0.885,-0.884 -2.3,-6.015 -2.3,-7.43 l -0.177,0 -0.177,0 c -0.885,1.946 -4.069,2.123 -6.015,2.123 l 0,2.3 c 0.707,0 2.3,0.531 2.476,1.061 0.531,0 1.239,-0.53 1.947,-0.53 l 0.176,2.83 c -0.53,-1.238 -6.192,-2.3 -7.43,-2.3 l -0.177,-0.177 -0.177,-3.538 c 1.416,-1.415 4.423,-3.184 5.838,-4.6 l -0.353,-7.253 z"
         inkscape:connector-curvature="0"
         id="path302"
         style="fill:#1f211d;stroke:#2c2c2b;stroke-width:1.00262296" />
      <path
         d="m 285.65,487.973 c -0.531,0.531 -1.238,1.062 -1.946,1.416 0,0.177 -0.177,0.354 -0.177,0.531 0.531,0.53 2.477,1.415 3.361,1.592 0.354,-0.885 0.177,-3.008 0.177,-4.246 l -0.884,0 c -0.177,0.177 -0.354,0.354 -0.531,0.707 z"
         inkscape:connector-curvature="0"
         id="path304"
         style="fill:#b8c59a;stroke:#2c2c2b;stroke-width:1.00262296" />
      <path
         d="m 325.81,510.176 2.654,1.858 -1.416,0.885 -1.238,0 c 0.532,-1.328 -0.174,-2.302 0,-2.743 z"
         inkscape:connector-curvature="0"
         id="path306"
         style="fill:#b8c59a;stroke:#2c2c2b;stroke-width:1.00262296" />
      <path
         d="m 287.773,479.482 0.354,-1.416 3.538,3.362 -3.892,-1.946 z"
         inkscape:connector-curvature="0"
         id="path308"
         style="fill:#b8c59a;stroke:#2c2c2b;stroke-width:1.00262296" />
      <path
         d="m 271.289,413.456 23.723,-2.125 26.555,7.79 1.417,7.789 -3.895,3.895 -19.474,0.354 -21.598,0 -9.56,-7.081 2.832,-10.622 z"
         inkscape:connector-curvature="0"
         id="path310"
         style="fill:#b8c59a;stroke:#2c2c2b;stroke-width:1.00262296" />
      <path
         d="m 290.409,414.164 c -1.062,3.54 -1.416,6.373 -1.416,10.622 -2.833,0 -4.249,-6.019 -5.311,-7.436 l -0.354,0 c 0,0 0,-0.708 -0.708,-0.708 0,2.125 1.062,3.187 1.77,5.311 -1.416,-1.416 -7.081,-1.062 -9.206,-1.062 l -0.708,0.708 0,1.417 7.081,0 c 1.063,1.062 3.541,6.019 4.603,6.019 l 0.354,0.354 c 0,0.354 0,0.708 0.354,0.708 l -3.894,0 0,2.124 c 3.186,0 6.373,1.063 9.205,1.063 l 0.709,0.708 c 0,4.603 2.478,9.56 -2.125,13.1 l 0,0.354 -0.708,-0.354 0.354,0.354 15.933,0 c -4.957,-9.914 1.771,-15.933 11.331,-15.933 l 0,-0.354 0,-0.354 c -1.063,-1.062 -3.187,-1.062 -4.603,-1.062 0,-0.354 -0.709,-1.062 -1.063,-1.062 0,-0.709 -0.354,-2.125 -0.354,-2.833 1.063,-0.354 2.479,-2.832 2.479,-4.249 l -1.416,0 c -1.417,1.417 -2.833,3.541 -4.249,4.957 0,-1.416 1.416,-3.54 1.416,-4.957 -0.708,0 -1.77,0.354 -2.124,0.708 0,1.063 -2.125,6.02 -3.187,6.374 l -0.354,0 c -0.708,0 -0.354,-0.709 -0.354,-1.063 l -0.354,0 c -0.708,-1.062 0.708,-4.602 0.708,-5.665 0.708,0 0.708,-0.708 0.708,-1.062 l 0.354,0 c 0,-0.354 0.354,-0.708 0.354,-1.062 l -1.77,0 c 0,2.478 -2.479,7.435 -4.249,9.206 l -1.062,0 c -0.354,-2.125 -1.062,-6.374 -2.125,-8.498 l -1.77,0 c 0,0.708 -0.708,4.957 0,4.957 0,1.062 0.708,2.124 0.708,3.187 l -0.708,0.354 c -0.354,0 -1.416,-0.708 -1.77,-0.708 0,-0.355 -0.354,-1.417 -0.709,-1.417 0,-0.354 -0.354,-1.77 -0.708,-1.77 0,-3.895 -0.708,-7.79 -1.062,-10.976 z"
         inkscape:connector-curvature="0"
         id="path312"
         style="fill:#877760;stroke:#2c2c2b;stroke-width:1.00262296" />
      <path
         d="m 281.203,398.939 c -1.77,-0.354 -2.832,-0.708 -4.249,-0.708 -0.354,1.062 -1.77,2.124 -1.77,3.54 l -2.478,0 -8.498,8.144 0,3.895 c 0.708,0 1.062,0.354 1.77,0.354 0,0.354 0.354,1.062 0.354,1.416 -0.354,0 -1.416,1.062 -1.77,1.062 l 0,1.062 c 0.708,0 2.124,1.417 2.478,1.417 0,1.062 -1.77,0.708 -2.478,0.708 0,0.354 -0.708,2.478 -0.708,3.541 l -2.125,1.77 0,2.478 c 0.709,0.354 1.063,0.709 1.417,1.417 1.062,0.354 3.186,1.062 4.249,1.062 0,0.708 1.062,2.478 1.062,3.187 l 2.124,0 0.354,-0.709 c 3.895,0 7.79,2.125 12.039,2.125 0,-0.354 0.708,-1.062 0.708,-1.062 0,-1.063 0.354,-2.125 0.354,-3.187 0.708,0 1.77,-0.354 2.124,-0.354 l 0,-1.062 c -0.354,-0.354 -1.416,-1.417 -1.416,-1.771 l -0.354,0 -0.354,0 c 0,0.354 -1.062,1.063 -1.062,1.417 -0.354,0 -0.708,0 -0.708,0.354 l -0.709,-0.354 0,-0.354 c 0,0 0.709,0 0.709,-0.709 l 1.062,0 c 0,-1.416 -1.062,-2.832 -1.062,-3.894 l -0.709,0 0,-0.354 -1.416,0 c -0.354,0.354 -4.249,1.416 -4.249,1.77 -0.708,0 -1.416,-0.708 -2.124,-0.708 l 0,-0.354 0,-0.354 c 0.354,0 1.062,-1.063 1.416,-1.417 l 0,-2.124 c -0.354,0 -1.062,-0.708 -1.062,-1.062 l 0,-0.708 0.354,-0.709 1.77,0 c 0,-0.354 0.354,-1.062 0.354,-1.416 0,2.125 1.771,2.833 3.541,2.833 l 0,-2.833 c 1.062,0 2.479,0.354 3.541,0.354 0,-0.354 0.354,-1.416 0.354,-1.77 0.354,0 0.708,-0.708 1.062,-0.708 l 0.354,0.354 c 0,1.062 0.708,2.124 0.708,3.186 0.708,0 0,0.355 0.708,0.355 l 0,1.062 0.355,0 0.354,0 c 0,-1.062 0.354,-3.187 0.354,-4.603 1.062,0 2.124,-1.062 2.832,-1.062 l 0,0.354 0,0.354 0.708,0.354 c 0,0.708 0.354,1.062 0.354,1.77 0.709,0 1.063,-1.062 1.771,-1.062 0,0.354 0.354,0.708 0.708,0.708 l 0,1.77 c -0.354,0 -0.708,0.709 -1.062,1.063 l 0,1.77 1.77,0 c 0.354,-0.354 1.416,-1.77 2.124,-1.77 0,0.708 0.355,1.77 0.355,2.478 0.354,0 1.062,0.354 1.77,0.354 0,0.354 0.354,0.708 0.354,1.062 l 0.354,0.355 c 1.77,0 2.478,-1.063 2.478,-2.833 l 0.355,-0.354 c 1.062,0 2.124,0.354 3.54,0 l 0.354,-0.708 0.354,0 0.354,0 c 0,0.708 0,1.77 0.355,2.478 1.77,0 2.832,-1.062 3.54,-2.478 l 0.354,-0.354 c 0.354,0.354 0.708,0.708 1.063,0.708 l 0,1.77 c 0.354,0 1.416,0.354 2.124,0.354 l 0,3.541 c 1.062,0 1.77,-0.354 2.833,-0.708 0,0.354 -1.063,2.124 -1.417,2.124 l -0.354,0.708 c 0,0.354 0.354,1.063 0.354,1.063 1.062,0.708 2.479,0 3.541,-0.355 0,1.063 0.708,2.125 0.708,2.833 l 0.354,0 0.354,0 c 0,-0.354 0.708,-1.062 0.708,-1.416 0.354,0 1.063,0 1.063,0.354 0,-0.354 0.354,-0.354 0.708,-0.354 0,-1.062 1.062,-2.833 1.062,-4.249 l 2.478,0 c 2.125,-2.124 3.187,-5.665 1.417,-7.79 -0.708,0 -1.417,0 -1.771,0.354 0.708,-1.77 1.771,-4.602 -1.416,-5.665 l -0.354,-0.354 0,-3.186 c -1.062,-0.709 -2.124,-0.709 -3.541,-0.709 -1.062,-1.062 -2.478,-2.478 -2.478,-3.894 -0.354,-0.354 -1.062,-0.354 -1.062,-1.063 -0.709,0 -2.833,-0.354 -3.541,-0.708 0,-0.708 0.354,-2.124 0.354,-2.832 -0.708,0 -1.416,-0.708 -2.124,-0.708 l -0.709,0.708 c 0,0 -6.019,-4.957 -6.019,-2.479 -3.186,-1.416 -3.895,-0.708 -7.081,0.708 0,-0.708 -0.708,-2.124 -0.708,-2.832 -0.354,0 -1.417,-0.354 -1.771,-0.354 -0.354,0.354 -1.062,0.708 -1.416,1.416 -0.354,0 -0.708,0.354 -0.708,0.354 0,-0.354 -1.416,-1.416 -2.125,-1.416 -0.708,0.354 -2.478,1.77 -2.478,2.478 -1.062,0 -2.124,-0.708 -2.833,-1.062 -1.062,0.354 -2.124,1.416 -3.186,2.125 0,0.354 -0.354,0.708 -0.708,1.062 -0.708,0 -1.771,-0.354 -1.771,-0.354 z"
         inkscape:connector-curvature="0"
         id="path314"
         style="fill:#b8c59a;stroke:#2c2c2b;stroke-width:1.00262296" />
      <path
         d="m 316.964,403.542 c 0,2.124 0.709,5.311 -2.478,5.311 0,-0.354 -0.354,-0.354 -0.708,-0.354 l 0,1.062 c -0.354,0 -1.062,0.708 -1.417,0.708 -0.354,0 -1.77,-1.062 -2.124,-1.062 -0.354,-1.062 -1.77,-3.187 -2.833,-4.249 0,-0.708 0.355,-1.416 0.709,-2.125"
         inkscape:connector-curvature="0"
         id="path316"
         style="fill:none;stroke:#2c2c2b;stroke-width:1.00262296" />
      <path
         d="m 314.132,409.915 0,3.187 c 1.416,0.354 3.186,0.354 4.603,0.354 0,-0.354 1.062,-1.417 1.416,-1.771"
         inkscape:connector-curvature="0"
         id="path318"
         style="fill:none;stroke:#2c2c2b;stroke-width:1.00262296" />
      <path
         d="m 313.778,413.81 c 0,0.708 -0.708,1.77 -1.062,2.124 l -1.771,0 c 0,0.354 -1.062,1.416 -1.416,1.77 -1.062,0 -2.125,-0.354 -2.833,-0.354"
         inkscape:connector-curvature="0"
         id="path320"
         style="fill:none;stroke:#2c2c2b;stroke-width:1.00262296" />
      <path
         d="m 320.151,414.872 c -0.708,1.416 -5.665,3.187 -5.665,3.187 l -2.125,0"
         inkscape:connector-curvature="0"
         id="path322"
         style="fill:none;stroke:#2c2c2b;stroke-width:1.00262296" />
      <path
         d="m 294.304,408.499 c 0,2.832 -1.062,4.248 -3.895,4.248 -0.708,-0.708 -2.124,-1.77 -2.832,-2.124 -0.354,1.062 -2.125,1.062 -3.187,1.062 l 0,0.354 0,0.354 c -0.708,0 -1.416,-0.354 -2.124,-0.354 -0.709,-1.416 -1.063,-3.186 -1.063,-4.603 0,1.063 -0.708,2.125 -1.062,3.187 l -4.603,0 c 0,0.354 0.354,1.416 0.354,1.77 -0.354,0 -0.708,0 -0.708,0.354"
         inkscape:connector-curvature="0"
         id="path324"
         style="fill:none;stroke:#2c2c2b;stroke-width:1.00262296" />
      <path
         d="m 272.352,425.848 c 2.124,0 2.832,1.062 3.54,3.187 l -0.708,0.708 -1.416,0 0,2.124 c -0.708,0 -0.708,0.354 -1.416,0.708"
         inkscape:connector-curvature="0"
         id="path326"
         style="fill:none;stroke:#2c2c2b;stroke-width:1.00262296" />
    </g>
  </g>
</svg>
