<?xml version="1.0" encoding="UTF-8" standalone="no"?>
<!-- Created with Inkscape (http://www.inkscape.org/) -->
<svg
   xmlns:dc="http://purl.org/dc/elements/1.1/"
   xmlns:cc="http://web.resource.org/cc/"
   xmlns:rdf="http://www.w3.org/1999/02/22-rdf-syntax-ns#"
   xmlns:svg="http://www.w3.org/2000/svg"
   xmlns="http://www.w3.org/2000/svg"
   xmlns:sodipodi="http://sodipodi.sourceforge.net/DTD/sodipodi-0.dtd"
   xmlns:inkscape="http://www.inkscape.org/namespaces/inkscape"
   width="435"
   height="217"
   id="svg2"
   sodipodi:version="0.32"
   inkscape:version="0.45.1"
   version="1.0"
   sodipodi:docbase="/home/sfish/Desktop/banderas"
   sodipodi:docname="Bandera-StaFe-argentina.svg"
   inkscape:output_extension="org.inkscape.output.svg.inkscape">
  <defs
     id="defs4" />
  <sodipodi:namedview
     id="base"
     pagecolor="#ffffff"
     bordercolor="#666666"
     borderopacity="1.0"
     inkscape:pageopacity="0.0"
     inkscape:pageshadow="2"
     inkscape:zoom="1"
     inkscape:cx="244.64647"
     inkscape:cy="137.49345"
     inkscape:document-units="px"
     inkscape:current-layer="layer1"
     inkscape:window-width="1006"
     inkscape:window-height="686"
     inkscape:window-x="0"
     inkscape:window-y="24" />
  <metadata
     id="metadata7">
    <rdf:RDF>
      <cc:Work
         rdf:about="">
        <dc:format>image/svg+xml</dc:format>
        <dc:type
           rdf:resource="http://purl.org/dc/dcmitype/StillImage" />
      </cc:Work>
    </rdf:RDF>
  </metadata>
  <g
     inkscape:label="Capa 1"
     inkscape:groupmode="layer"
     id="layer1"
     transform="translate(-19.64287,-406.7193)">
    <g
       id="g2365">
      <g
         id="g10129">
        <rect
           style="opacity:1;fill:#b43232;fill-opacity:1;fill-rule:evenodd;stroke:none;stroke-width:0.98236656;stroke-linecap:butt;stroke-linejoin:miter;stroke-miterlimit:4;stroke-dasharray:none;stroke-opacity:1"
           id="rect2371"
           width="145.76762"
           height="217.01762"
           x="19.634054"
           y="406.71048" />
        <rect
           style="opacity:1;fill:#ffffff;fill-opacity:1;fill-rule:evenodd;stroke:none;stroke-width:1.00768793;stroke-linecap:butt;stroke-linejoin:miter;stroke-miterlimit:4;stroke-dasharray:none;stroke-opacity:1"
           id="rect4311"
           width="143.22975"
           height="216.91908"
           x="165.64673"
           y="406.61957" />
        <rect
           style="opacity:1;fill:#96beff;fill-opacity:1;fill-rule:evenodd;stroke:none;stroke-width:1.00574827;stroke-linecap:butt;stroke-linejoin:miter;stroke-miterlimit:4;stroke-dasharray:none;stroke-opacity:1"
           id="rect5282"
           width="146.03693"
           height="217.24025"
           x="308.97375"
           y="406.5975" />
      </g>
      <g
         id="g2316">
        <g
           id="g13119">
          <path
             transform="translate(19.64287,406.7193)"
             id="path11103"
             d="M 203.5,61 C 203.5,60.666667 203.5,60.666667 203.5,61 z "
             style="opacity:1;fill:#96beff;fill-opacity:1;fill-rule:evenodd;stroke:#000000;stroke-width:1;stroke-linecap:butt;stroke-linejoin:miter;stroke-miterlimit:4;stroke-dasharray:none;stroke-opacity:1" />
          <path
             sodipodi:end="6.2570294"
             sodipodi:start="3.1456703"
             transform="matrix(1.1861404,0,0,1.9684321,-20.89789,353.16831)"
             d="M 209.75006,57.85818 A 7.375,4.125 0 0 1 224.49748,57.767119 L 217.125,57.875 z"
             sodipodi:ry="4.125"
             sodipodi:rx="7.375"
             sodipodi:cy="57.875"
             sodipodi:cx="217.125"
             id="path11107"
             style="opacity:1;fill:#ffd744;fill-opacity:1;fill-rule:evenodd;stroke:none;stroke-width:1;stroke-linecap:butt;stroke-linejoin:miter;stroke-miterlimit:4;stroke-dasharray:none;stroke-opacity:1"
             sodipodi:type="arc" />
          <path
             transform="translate(19.64287,406.7193)"
             id="path13051"
             d="M 224.25,56 C 224.25,55.916666 224.25,55.833333 224.25,56 z "
             style="opacity:1;fill:none;fill-opacity:1;fill-rule:evenodd;stroke:#ffd652;stroke-width:1;stroke-linecap:butt;stroke-linejoin:miter;stroke-miterlimit:4;stroke-dasharray:none;stroke-opacity:1" />
          <path
             transform="translate(19.64287,406.7193)"
             id="path13057"
             d="M 231,60.5 L 224.75,60.25"
             style="opacity:1;fill:none;fill-opacity:1;fill-rule:evenodd;stroke:#ffd652;stroke-width:1;stroke-linecap:butt;stroke-linejoin:miter;stroke-miterlimit:4;stroke-dasharray:none;stroke-opacity:1" />
          <path
             transform="translate(19.64287,406.7193)"
             id="path13065"
             d="M 229.75,56.5 L 225.17644,57.725481"
             style="opacity:1;fill:none;fill-opacity:1;fill-rule:evenodd;stroke:#ffd652;stroke-width:1;stroke-linecap:butt;stroke-linejoin:miter;stroke-miterlimit:4;stroke-dasharray:none;stroke-opacity:1" />
          <path
             transform="translate(19.64287,406.7193)"
             id="path13069"
             d="M 224.75,55.5 L 229.12829,52.972196"
             style="opacity:1;fill:none;fill-opacity:1;fill-rule:evenodd;stroke:#ffd652;stroke-width:1;stroke-linecap:butt;stroke-linejoin:miter;stroke-miterlimit:4;stroke-dasharray:none;stroke-opacity:1" />
          <path
             transform="translate(19.64287,406.7193)"
             id="path13073"
             d="M 222,54 L 225.75,50.25"
             style="opacity:1;fill:none;fill-opacity:1;fill-rule:evenodd;stroke:#ffd652;stroke-width:1;stroke-linecap:butt;stroke-linejoin:miter;stroke-miterlimit:4;stroke-dasharray:none;stroke-opacity:1" />
          <path
             transform="translate(19.64287,406.7193)"
             id="path13083"
             d="M 221.75,48 L 220.32027,53.335817"
             style="opacity:1;fill:none;fill-opacity:1;fill-rule:evenodd;stroke:#ffd652;stroke-width:1;stroke-linecap:butt;stroke-linejoin:miter;stroke-miterlimit:4;stroke-dasharray:none;stroke-opacity:1" />
          <path
             transform="translate(19.64287,406.7193)"
             id="path13089"
             d="M 216.75,52 C 216.66667,51.916666 216.58333,51.833333 216.75,52 z "
             style="opacity:1;fill:none;fill-opacity:1;fill-rule:evenodd;stroke:#ffd652;stroke-width:1;stroke-linecap:butt;stroke-linejoin:miter;stroke-miterlimit:4;stroke-dasharray:none;stroke-opacity:1" />
          <path
             transform="translate(19.64287,406.7193)"
             id="path13091"
             d="M 217.25,47.25 L 217.25,52"
             style="opacity:1;fill:none;fill-opacity:1;fill-rule:evenodd;stroke:#ffd652;stroke-width:1;stroke-linecap:butt;stroke-linejoin:miter;stroke-miterlimit:4;stroke-dasharray:none;stroke-opacity:1" />
          <path
             transform="translate(19.64287,406.7193)"
             id="path13107"
             d="M 214.75,52.75 L 211.91418,47.838221"
             style="opacity:1;fill:none;fill-opacity:1;fill-rule:evenodd;stroke:#ffd652;stroke-width:1;stroke-linecap:butt;stroke-linejoin:miter;stroke-miterlimit:4;stroke-dasharray:none;stroke-opacity:1" />
          <path
             transform="translate(19.64287,406.7193)"
             id="path13111"
             d="M 212,53.5 L 208.75,50"
             style="opacity:1;fill:none;fill-opacity:1;fill-rule:evenodd;stroke:#ffd652;stroke-width:1;stroke-linecap:butt;stroke-linejoin:miter;stroke-miterlimit:4;stroke-dasharray:none;stroke-opacity:1" />
          <path
             transform="translate(19.64287,406.7193)"
             id="path13113"
             d="M 205.5,53 L 210.25,56"
             style="opacity:1;fill:none;fill-opacity:1;fill-rule:evenodd;stroke:#ffd652;stroke-width:1;stroke-linecap:butt;stroke-linejoin:miter;stroke-miterlimit:4;stroke-dasharray:none;stroke-opacity:1" />
          <path
             transform="translate(19.64287,406.7193)"
             id="path13115"
             d="M 203.25,57.25 L 208.75,58"
             style="opacity:1;fill:none;fill-opacity:1;fill-rule:evenodd;stroke:#ffd652;stroke-width:1;stroke-linecap:butt;stroke-linejoin:miter;stroke-miterlimit:4;stroke-dasharray:none;stroke-opacity:1" />
          <path
             transform="translate(19.64287,406.7193)"
             id="path13117"
             d="M 203,61.25 L 208.25,60.5"
             style="opacity:1;fill:none;fill-opacity:1;fill-rule:evenodd;stroke:#ffd652;stroke-width:1;stroke-linecap:butt;stroke-linejoin:miter;stroke-miterlimit:4;stroke-dasharray:none;stroke-opacity:1" />
        </g>
        <path
           id="path13136"
           style="fill:#fcc600;fill-opacity:1;fill-rule:evenodd;stroke:none;stroke-width:1;stroke-linecap:butt;stroke-linejoin:miter;stroke-miterlimit:4;stroke-opacity:1"
           d="M 178.80733,514.35096 C 178.93977,464.48589 205.40556,424.18072 237.88277,424.38405 C 270.35996,424.58738 296.6108,465.22261 296.47838,515.08767 C 296.34593,564.95274 269.88014,605.25792 237.40293,605.05458 C 204.93884,604.85133 178.6954,564.25328 178.80719,514.40821 M 197.61169,515.69808 C 197.70124,478.98112 215.59587,449.30335 237.55507,449.45307 C 259.51427,449.60279 277.26356,479.52358 277.17402,516.24055 C 277.08447,552.95751 259.18984,582.63528 237.23064,582.48555 C 215.2803,582.3359 197.53601,552.44248 197.6116,515.74024" />
        <path
           style="font-size:10px;font-style:normal;font-variant:normal;font-weight:normal;font-stretch:normal;text-align:start;line-height:125%;writing-mode:lr-tb;text-anchor:start;fill:#000000;fill-opacity:1;fill-rule:evenodd;stroke:none;stroke-width:1;stroke-linecap:butt;stroke-linejoin:miter;stroke-miterlimit:4;stroke-opacity:1;font-family:Sans"
           d="M 189.22639,502.5255 L 191.96428,502.61195 L 192.00342,501.37233 C 192.01791,500.91358 191.91035,500.55519 191.68075,500.29716 C 191.45115,500.03914 191.11673,499.90319 190.67749,499.88932 C 190.24152,499.87555 189.90082,499.99018 189.65539,500.23321 C 189.40997,500.47624 189.28002,500.82713 189.26553,501.28588 L 189.22639,502.5255 M 188.38511,503.48575 L 188.45538,501.2603 C 188.48118,500.44365 188.6861,499.83296 189.07015,499.4282 C 189.45106,499.0201 189.99778,498.8273 190.71031,498.84979 C 191.42936,498.8725 191.96608,499.09952 192.32048,499.53083 C 192.67499,499.9589 192.83935,500.58126 192.81356,501.39791 L 192.77442,502.63753 L 195.70265,502.72998 L 195.67152,503.71582 L 188.38511,503.48575 M 192.83352,493.91884 C 192.92488,493.715 193.09664,493.52536 193.34879,493.34991 C 193.60125,493.17124 193.94121,493.00089 194.36866,492.83888 L 196.4468,492.03137 L 196.3463,493.08616 L 194.39616,493.8372 C 193.88723,494.03069 193.54257,494.23328 193.36217,494.44499 C 193.18208,494.65346 193.07351,494.95213 193.03646,495.34099 L 192.93457,496.41036 L 196.00174,496.7026 L 195.90818,497.68448 L 188.65101,496.99302 L 188.8622,494.7765 C 188.94125,493.94693 189.17359,493.34451 189.55922,492.96923 C 189.94486,492.59397 190.48766,492.43968 191.18761,492.50636 C 191.64453,492.5499 192.01348,492.69296 192.29447,492.93555 C 192.57578,493.1749 192.75546,493.50266 192.83352,493.91884 M 189.55146,496.08802 L 192.12768,496.33348 L 192.24531,495.09884 C 192.2904,494.62573 192.2158,494.25892 192.02153,493.99843 C 191.82433,493.7344 191.51348,493.58216 191.08896,493.54171 C 190.66446,493.50127 190.33369,493.59238 190.09665,493.81503 C 189.85669,494.03415 189.71417,494.38027 189.66909,494.85338 L 189.55146,496.08802 M 190.59556,486.73472 C 190.47493,487.44064 190.64209,488.04712 191.09702,488.55418 C 191.55252,489.05803 192.23429,489.38754 193.14235,489.54272 C 194.0472,489.69735 194.79811,489.61267 195.39507,489.28867 C 195.99258,488.96147 196.35165,488.44492 196.47228,487.739 C 196.59292,487.03309 196.42522,486.42982 195.96918,485.92917 C 195.51369,485.42533 194.83352,485.09609 193.92866,484.94145 C 193.02061,484.78628 192.2681,484.87069 191.67113,485.19468 C 191.07473,485.51547 190.7162,486.02882 190.59556,486.73472 M 189.80622,486.59983 C 189.97841,485.59231 190.45456,484.84478 191.23467,484.35723 C 192.01159,483.86916 192.96798,483.72217 194.10386,483.91628 C 195.23653,484.10985 196.08983,484.56609 196.66378,485.28502 C 197.23452,486.00341 197.4338,486.86637 197.26162,487.87389 C 197.0889,488.88463 196.6138,489.63565 195.83634,490.12694 C 195.05943,490.61502 194.10304,490.76201 192.96716,490.5679 C 191.83128,490.37379 190.97798,489.91754 190.40723,489.19915 C 189.83384,488.47701 189.63351,487.61057 189.80622,486.59983 M 198.4667,481.3731 L 190.71754,482.29039 L 190.96932,481.29135 L 197.48533,480.55173 L 192.09934,476.80753 L 192.34992,475.81323 L 198.73996,480.28884 L 198.4667,481.3731 M 192.82017,474.42622 L 193.11358,473.48455 L 200.07359,475.65317 L 199.78018,476.59485 L 192.82017,474.42622 M 193.83637,471.17143 L 194.3104,469.93078 L 201.16105,469.08794 L 195.46409,466.91126 L 195.80567,466.01726 L 202.61557,468.61918 L 202.14154,469.85983 L 195.29088,470.70266 L 200.98784,472.87935 L 200.64627,473.77335 L 193.83637,471.17143 M 199.79964,458.94006 L 200.73158,459.40176 C 200.30709,459.562 199.94247,459.77734 199.63775,460.04777 C 199.33448,460.3153 199.08891,460.63866 198.90104,461.01784 C 198.53111,461.76457 198.47685,462.44971 198.73826,463.07328 C 198.99677,463.69541 199.55771,464.22034 200.4211,464.64808 C 201.28158,465.07438 202.03906,465.20263 202.69354,465.03281 C 203.3451,464.86155 203.85585,464.40256 204.22579,463.65583 C 204.41365,463.27665 204.52212,462.88537 204.55122,462.48201 C 204.58175,462.07574 204.53217,461.6552 204.40246,461.22039 L 205.32565,461.67776 C 205.38249,462.091 205.37743,462.49718 205.31047,462.8963 C 205.24496,463.29252 205.11683,463.68314 204.92608,464.06816 C 204.4362,465.05698 203.74847,465.68622 202.86288,465.95588 C 201.97439,466.22409 201.00656,466.09881 199.9594,465.58002 C 198.90933,465.0598 198.22329,464.36572 197.90129,463.4978 C 197.57637,462.62844 197.65886,461.69935 198.14873,460.71052 C 198.34238,460.31967 198.57696,459.97816 198.85248,459.68598 C 199.12654,459.38946 199.44226,459.14082 199.79964,458.94006 M 200.35032,456.91958 L 200.85065,456.06957 L 207.13312,459.76757 L 206.63279,460.61758 L 200.35032,456.91958 M 204.35141,452.44911 L 206.55388,455.62731 L 208.09281,453.43239 L 204.35141,452.44911 M 203.23625,452.34705 L 203.87817,451.43151 L 211.44221,453.34173 L 210.85355,454.18132 L 208.94108,453.65144 L 207.05456,456.34211 L 208.20457,457.95945 L 207.6075,458.81103 L 203.23625,452.34705 M 209.0132,445.14256 L 209.6947,444.42954 L 214.96473,449.46655 L 214.28323,450.17957 L 209.0132,445.14256 M 211.66588,442.39822 L 212.69036,441.55303 L 219.06482,444.20031 L 215.18377,439.49598 L 215.922,438.88694 L 220.56124,444.5103 L 219.53675,445.35549 L 213.16229,442.7082 L 217.04334,447.41254 L 216.30511,448.02158 L 211.66588,442.39822 M 223.84681,442.50154 L 217.91251,437.43449 L 218.81698,436.94112 L 223.78366,441.22335 L 222.87635,434.72683 L 223.77653,434.23581 L 224.82843,441.96609 L 223.84681,442.50154 M 226.19874,433.32792 L 230.61278,432.00029 L 230.85186,432.79519 L 227.38236,433.83873 L 228.00398,435.90547 L 231.32854,434.90553 L 231.56762,435.70043 L 228.24307,436.70037 L 229.00392,439.23003 L 232.5576,438.16117 L 232.79668,438.95607 L 228.29848,440.30902 L 226.19874,433.32792 M 234.03866,431.35377 L 235.36499,431.28475 L 238.90999,437.20715 L 238.59304,431.11676 L 239.54878,431.06702 L 239.92765,438.34721 L 238.60132,438.41623 L 235.05631,432.49383 L 235.37327,438.58422 L 234.41753,438.63396 L 234.03866,431.35377 M 248.6088,433.04289 L 248.39912,434.06157 C 248.13624,433.69174 247.83531,433.39383 247.49631,433.16784 C 247.16049,432.94252 246.78534,432.7872 246.37085,432.70188 C 245.55463,432.53388 244.87819,432.65553 244.34154,433.06684 C 243.80554,433.47498 243.44041,434.15092 243.24615,435.09467 C 243.05255,436.03524 243.12103,436.80044 243.45162,437.39027 C 243.78285,437.97691 244.35658,438.35423 245.1728,438.52224 C 245.58729,438.60756 245.99328,438.61303 246.3908,438.53865 C 246.79149,438.46492 247.18561,438.31008 247.57318,438.07413 L 247.36547,439.08325 C 246.98024,439.24324 246.58611,439.34158 246.18307,439.37827 C 245.78322,439.4156 245.37286,439.39096 244.952,439.30433 C 243.87114,439.08185 243.08777,438.57662 242.60189,437.78866 C 242.11667,436.9975 241.99186,436.02961 242.22747,434.88499 C 242.46373,433.73718 242.96065,432.89727 243.71824,432.36525 C 244.47647,431.83005 245.39602,431.67369 246.47688,431.89616 C 246.90411,431.98411 247.29403,432.12419 247.64664,432.31641 C 248.00308,432.50611 248.3238,432.74827 248.6088,433.04289 M 251.3092,433.47792 L 252.22855,433.83518 L 249.58796,440.63018 L 248.66861,440.27292 L 251.3092,433.47792 M 254.00418,438.82225 L 252.67911,441.14128 L 254.05272,441.92615 C 254.51341,442.18938 254.90809,442.2893 255.23675,442.2259 C 255.56985,442.16129 255.84863,441.93255 256.07312,441.53969 C 256.29921,441.144 256.3539,440.78909 256.23721,440.47497 C 256.12495,440.15964 255.83848,439.87036 255.37779,439.60712 L 254.00418,438.82225 M 255.49155,436.21917 L 254.40145,438.12697 L 255.66908,438.85127 C 256.08737,439.09029 256.44268,439.19021 256.73501,439.15103 C 257.03176,439.11065 257.2722,438.92935 257.45631,438.60715 C 257.63879,438.28777 257.67209,437.99 257.55621,437.71383 C 257.44314,437.43928 257.17746,437.18249 256.75917,436.94348 L 255.49155,436.21917 M 255.03728,435.02608 L 257.22489,436.27605 C 257.87777,436.64911 258.30334,437.07224 258.50161,437.54543 C 258.69986,438.01863 258.65607,438.50537 258.37023,439.00563 C 258.14897,439.39284 257.8825,439.64924 257.57081,439.77481 C 257.2591,439.90039 256.91187,439.89132 256.52911,439.74759 C 256.89855,440.07866 257.1168,440.45456 257.18384,440.87527 C 257.25531,441.29477 257.16831,441.71933 256.92285,442.14894 C 256.59985,442.71421 256.15815,443.04106 255.59774,443.1295 C 255.03732,443.21794 254.4024,443.05948 253.69299,442.65413 L 251.4206,441.35571 L 255.03728,435.02608 M 261.8577,439.31007 L 262.62208,439.93342 L 258.53948,444.93976 L 261.29051,447.18318 L 260.76591,447.82648 L 257.2505,444.95971 L 261.8577,439.31007 M 266.80328,443.58294 L 269.9579,446.9437 L 269.35268,447.5118 L 266.87309,444.87019 L 265.29952,446.34724 L 267.67551,448.87849 L 267.07028,449.44659 L 264.69429,446.91534 L 262.76826,448.72323 L 265.308,451.42893 L 264.70278,451.99703 L 261.48801,448.57218 L 266.80328,443.58294 M 273.64288,453.15424 L 268.86648,456.2076 L 269.50818,457.21142 C 270.04995,458.05891 270.63818,458.55603 271.27288,458.70278 C 271.90932,458.85226 272.6417,458.66226 273.46999,458.13277 C 274.29279,457.60678 274.76858,457.02446 274.89735,456.38581 C 275.0306,455.74814 274.82634,455.00556 274.28458,454.15807 L 273.64288,453.15424 M 273.79456,451.88664 L 274.88599,453.59397 C 275.6469,454.7843 275.95711,455.81651 275.81661,456.69063 C 275.67884,457.56298 275.08336,458.33579 274.03017,459.00906 C 272.97148,459.68582 272.0151,459.90312 271.161,459.66097 C 270.3069,459.4188 269.50114,458.70529 268.74373,457.52045 L 267.6523,455.81313 L 273.79456,451.88664 M 278.18867,459.11809 L 280.24956,463.24109 L 279.50707,463.61222 L 277.88718,460.37147 L 275.95671,461.33642 L 277.50892,464.44177 L 276.76643,464.81291 L 275.21422,461.70756 L 272.85136,462.88863 L 274.51055,466.208 L 273.76806,466.57913 L 271.66788,462.37752 L 278.18867,459.11809 M 283.7227,472.80399 L 282.8155,473.1238 C 282.85989,472.71121 282.86834,472.33374 282.84085,471.99138 C 282.81334,471.64902 282.74819,471.33201 282.64538,471.04035 C 282.46681,470.5338 282.23058,470.177 281.9367,469.96996 C 281.64389,469.76599 281.31636,469.72786 280.9541,469.85556 C 280.65016,469.9627 280.45184,470.13444 280.35912,470.37076 C 280.27055,470.60908 280.26851,470.99982 280.35299,471.543 L 280.43592,472.1454 C 280.54849,472.88576 280.49536,473.47917 280.27653,473.92564 C 280.06184,474.37408 279.67513,474.69678 279.11638,474.89376 C 278.45018,475.1286 277.86616,475.08251 277.36431,474.7555 C 276.86354,474.43155 276.4611,473.83824 276.15699,472.97557 C 276.04227,472.65014 275.95682,472.29024 275.90063,471.89586 C 275.84553,471.50455 275.82085,471.08698 275.82662,470.64315 L 276.78447,470.30549 C 276.70575,470.75778 276.67652,471.184 276.69678,471.58414 C 276.71703,471.98428 276.78884,472.35935 276.91222,472.70933 C 277.09944,473.24045 277.34831,473.6135 277.6588,473.8285 C 277.96929,474.04348 278.31795,474.0828 278.70478,473.94644 C 279.04248,473.82739 279.2697,473.62994 279.38646,473.35408 C 279.50429,473.08128 279.52746,472.69172 279.45597,472.18539 L 279.36681,471.58 C 279.26038,470.83747 279.29987,470.25923 279.48529,469.84526 C 279.6707,469.43129 280.0259,469.13177 280.55088,468.94671 C 281.15874,468.73243 281.71288,468.77696 282.2133,469.08032 C 282.7148,469.38675 283.09812,469.91605 283.36328,470.66821 C 283.4769,470.99056 283.56354,471.32934 283.62318,471.68453 C 283.6828,472.03973 283.71598,472.41288 283.7227,472.80399 M 284.45773,477.94426 L 280.60731,477.58916 L 281.29992,480.1788 L 284.45773,477.94426 M 285.25259,477.15546 L 285.5415,478.23566 L 279.21683,482.80319 L 278.9519,481.81262 L 280.58694,480.68792 L 279.73789,477.51336 L 277.7597,477.35504 L 277.49098,476.35031 L 285.25259,477.15546 M 286.59229,482.51173 L 286.83524,483.81744 L 281.4308,488.11092 L 287.42653,486.99533 L 287.60159,487.93621 L 280.43456,489.26974 L 280.19161,487.96402 L 285.59605,483.67055 L 279.60032,484.78614 L 279.42526,483.84526 L 286.59229,482.51173 M 287.81299,489.35416 L 288.53999,495.47815 L 287.7157,495.57601 L 287.41063,493.00616 L 280.99571,493.7677 L 280.87886,492.7834 L 287.29378,492.02186 L 286.9887,489.45202 L 287.81299,489.35416 M 287.73302,498.58325 L 284.03361,497.458 L 284.18906,500.13415 L 287.73302,498.58325 M 288.67078,497.9712 L 288.73563,499.08748 L 281.61898,502.28388 L 281.55951,501.26022 L 283.38797,500.48882 L 283.1974,497.20822 L 281.29192,496.65373 L 281.23161,495.61544 L 288.67078,497.9712 M 288.8907,506.77234 L 288.75161,510.95949 L 287.92199,510.93193 L 288.02834,507.73057 L 285.88108,507.65924 L 285.78512,510.54827 L 284.95549,510.52071 L 285.05146,507.63168 L 281.57194,507.5161 L 281.60468,506.53031 L 288.8907,506.77234 M 288.62413,512.95876 L 288.19968,517.54855 L 287.37313,517.47211 L 287.70676,513.86446 L 285.55772,513.66572 L 285.23803,517.12265 L 284.41148,517.04621 L 284.73117,513.58928 L 282.10079,513.34603 L 281.75907,517.0412 L 280.93252,516.96476 L 281.36507,512.28746 L 288.62413,512.95876"
           id="text15081" />
        <path
           style="fill:none;fill-opacity:0.55251142;fill-rule:evenodd;stroke:none;stroke-width:1;stroke-linecap:butt;stroke-linejoin:miter;stroke-miterlimit:4;stroke-opacity:1"
           d="M 195.68434,504.69808 C 195.78105,467.98112 215.1043,438.30335 238.81662,438.45307 C 262.52895,438.60279 281.69527,468.52358 281.59857,505.24055 C 281.50188,541.95751 262.17862,571.63528 238.46629,571.48555 C 214.76354,571.3359 195.60262,541.44248 195.68425,504.74024"
           id="path16058" />
        <g
           id="g18998">
          <rect
             y="494.31876"
             x="234.60333"
             height="72.832001"
             width="2.5784271"
             id="rect17054"
             style="opacity:1;fill:#6b635a;fill-opacity:1;fill-rule:evenodd;stroke:none;stroke-width:1;stroke-linecap:butt;stroke-linejoin:miter;stroke-miterlimit:4;stroke-dasharray:none;stroke-opacity:1" />
          <path
             transform="translate(19.64287,406.7193)"
             id="path17056"
             d="M 215,87.25 L 217.75,87.25 L 222.25,79.75 L 216.25,63.75 L 211,79.5 L 215,87.25 z "
             style="opacity:1;fill:#c6c6c6;fill-opacity:0.63926942;fill-rule:evenodd;stroke:#505050;stroke-width:1;stroke-linecap:butt;stroke-linejoin:miter;stroke-miterlimit:4;stroke-dasharray:none;stroke-opacity:1" />
          <path
             transform="translate(19.64287,406.7193)"
             id="path18996"
             d="M 216.25,72.75 L 217.25,84.75"
             style="opacity:1;fill:#c6c6c6;fill-opacity:0.63926942;fill-rule:evenodd;stroke:#505050;stroke-width:1;stroke-linecap:butt;stroke-linejoin:miter;stroke-miterlimit:4;stroke-dasharray:none;stroke-opacity:1" />
        </g>
        <g
           id="g21011"
           transform="translate(0.3535534,0.3535533)">
          <rect
             style="fill:#c6c6c6;fill-opacity:1;fill-rule:evenodd;stroke:#505050;stroke-width:0.68109614;stroke-linecap:butt;stroke-linejoin:miter;stroke-miterlimit:4;stroke-dasharray:none;stroke-opacity:1"
             id="rect19040"
             width="1.5332226"
             height="50.376255"
             x="162.45381"
             y="525.80585"
             transform="matrix(-0.7588415,0.6512754,0.658588,0.7525037,0,0)" />
          <path
             sodipodi:type="star"
             style="fill:#c6c6c6;fill-opacity:1;fill-rule:evenodd;stroke:#505050;stroke-width:1;stroke-linecap:butt;stroke-linejoin:miter;stroke-miterlimit:4;stroke-dasharray:none;stroke-opacity:1"
             id="path19042"
             sodipodi:sides="3"
             sodipodi:cx="193.75"
             sodipodi:cy="129"
             sodipodi:r1="5.7554321"
             sodipodi:r2="2.8777161"
             sodipodi:arg1="2.1708465"
             sodipodi:arg2="3.2180441"
             inkscape:flatsided="true"
             inkscape:rounded="0"
             inkscape:randomized="0"
             d="M 190.5,133.75 L 191.26138,123.81042 L 199.48862,129.43958 L 190.5,133.75 z "
             transform="matrix(-1.0278566,0.1960788,0.1868299,1.0787404,432.99395,365.62288)" />
          <path
             style="fill:#c6c6c6;fill-opacity:1;fill-rule:evenodd;stroke:#505050;stroke-width:1;stroke-linecap:butt;stroke-linejoin:miter;stroke-miterlimit:4;stroke-dasharray:none;stroke-opacity:1"
             d="M 224.64457,494.92641 L 223.14457,501.17641 L 221.39457,502.42641 L 214.64457,502.17641 L 206.89457,491.17641 L 214.14457,490.42641 L 214.89457,483.92641 L 224.64457,494.92641 z "
             id="path19044"
             sodipodi:nodetypes="cccccccc" />
          <path
             style="fill:#c6c6c6;fill-opacity:0.63926942;fill-rule:evenodd;stroke:#505050;stroke-width:1;stroke-linecap:butt;stroke-linejoin:miter;stroke-miterlimit:4;stroke-dasharray:none;stroke-opacity:1"
             d="M 221.0671,499.71045 L 213.37731,499.88723"
             id="path19046" />
          <path
             style="fill:#c6c6c6;fill-opacity:0.63926942;fill-rule:evenodd;stroke:#505050;stroke-width:1;stroke-linecap:butt;stroke-linejoin:miter;stroke-miterlimit:4;stroke-dasharray:none;stroke-opacity:1"
             d="M 222.74648,493.61165 L 221.24388,499.62206"
             id="path19048" />
          <path
             style="fill:#c6c6c6;fill-opacity:0.63926942;fill-rule:evenodd;stroke:#505050;stroke-width:1;stroke-linecap:butt;stroke-linejoin:miter;stroke-miterlimit:4;stroke-dasharray:none;stroke-opacity:1"
             d="M 220.00644,490.87162 L 219.82966,496.97041"
             id="path19050" />
          <path
             style="fill:#c6c6c6;fill-opacity:0.63926942;fill-rule:evenodd;stroke:#505050;stroke-width:1;stroke-linecap:butt;stroke-linejoin:miter;stroke-miterlimit:4;stroke-dasharray:none;stroke-opacity:1"
             d="M 219.29933,497.94268 L 212.84698,498.03107"
             id="path19052" />
          <path
             style="fill:#c6c6c6;fill-opacity:0.63926942;fill-rule:evenodd;stroke:#505050;stroke-width:1;stroke-linecap:butt;stroke-linejoin:miter;stroke-miterlimit:4;stroke-dasharray:none;stroke-opacity:1"
             d="M 218.06189,488.7503 L 217.88512,495.73298"
             id="path19054" />
          <path
             style="fill:#c6c6c6;fill-opacity:0.63926942;fill-rule:evenodd;stroke:#505050;stroke-width:1;stroke-linecap:butt;stroke-linejoin:miter;stroke-miterlimit:4;stroke-dasharray:none;stroke-opacity:1"
             d="M 216.82446,495.20264 L 210.28372,495.46781"
             id="path19056" />
          <path
             style="fill:#c6c6c6;fill-opacity:0.63926942;fill-rule:evenodd;stroke:#505050;stroke-width:1;stroke-linecap:butt;stroke-linejoin:miter;stroke-miterlimit:4;stroke-dasharray:none;stroke-opacity:1"
             d="M 216.20574,486.36381 L 215.94057,492.81616"
             id="path19058" />
          <path
             style="fill:#c6c6c6;fill-opacity:1;fill-rule:evenodd;stroke:#505050;stroke-width:1;stroke-linecap:butt;stroke-linejoin:miter;stroke-miterlimit:4;stroke-dasharray:none;stroke-opacity:1"
             d="M 215.05669,492.81616 L 208.78112,493.08132"
             id="path19060" />
        </g>
        <g
           transform="matrix(-1,0,0,1,472.28743,-0.3535535)"
           id="g21024">
          <rect
             transform="matrix(-0.7588415,0.6512754,0.658588,0.7525037,0,0)"
             y="525.80585"
             x="162.45381"
             height="50.376255"
             width="1.5332226"
             id="rect21026"
             style="fill:#c6c6c6;fill-opacity:1;fill-rule:evenodd;stroke:#505050;stroke-width:0.68109614;stroke-linecap:butt;stroke-linejoin:miter;stroke-miterlimit:4;stroke-dasharray:none;stroke-opacity:1" />
          <path
             transform="matrix(-1.0278566,0.1960788,0.1868299,1.0787404,432.99395,365.62288)"
             d="M 190.5,133.75 L 191.26138,123.81042 L 199.48862,129.43958 L 190.5,133.75 z "
             inkscape:randomized="0"
             inkscape:rounded="0"
             inkscape:flatsided="true"
             sodipodi:arg2="3.2180441"
             sodipodi:arg1="2.1708465"
             sodipodi:r2="2.8777161"
             sodipodi:r1="5.7554321"
             sodipodi:cy="129"
             sodipodi:cx="193.75"
             sodipodi:sides="3"
             id="path21028"
             style="fill:#c6c6c6;fill-opacity:1;fill-rule:evenodd;stroke:#505050;stroke-width:1;stroke-linecap:butt;stroke-linejoin:miter;stroke-miterlimit:4;stroke-dasharray:none;stroke-opacity:1"
             sodipodi:type="star" />
          <path
             sodipodi:nodetypes="cccccccc"
             id="path21030"
             d="M 224.64457,494.92641 L 223.14457,501.17641 L 221.39457,502.42641 L 214.64457,502.17641 L 206.89457,491.17641 L 214.14457,490.42641 L 214.89457,483.92641 L 224.64457,494.92641 z "
             style="fill:#c6c6c6;fill-opacity:1;fill-rule:evenodd;stroke:#505050;stroke-width:1;stroke-linecap:butt;stroke-linejoin:miter;stroke-miterlimit:4;stroke-dasharray:none;stroke-opacity:1" />
          <path
             id="path21032"
             d="M 221.0671,499.71045 L 213.37731,499.88723"
             style="fill:#c6c6c6;fill-opacity:0.63926942;fill-rule:evenodd;stroke:#505050;stroke-width:1;stroke-linecap:butt;stroke-linejoin:miter;stroke-miterlimit:4;stroke-dasharray:none;stroke-opacity:1" />
          <path
             id="path21034"
             d="M 222.74648,493.61165 L 221.24388,499.62206"
             style="fill:#c6c6c6;fill-opacity:0.63926942;fill-rule:evenodd;stroke:#505050;stroke-width:1;stroke-linecap:butt;stroke-linejoin:miter;stroke-miterlimit:4;stroke-dasharray:none;stroke-opacity:1" />
          <path
             id="path21036"
             d="M 220.00644,490.87162 L 219.82966,496.97041"
             style="fill:#c6c6c6;fill-opacity:0.63926942;fill-rule:evenodd;stroke:#505050;stroke-width:1;stroke-linecap:butt;stroke-linejoin:miter;stroke-miterlimit:4;stroke-dasharray:none;stroke-opacity:1" />
          <path
             id="path21038"
             d="M 219.29933,497.94268 L 212.84698,498.03107"
             style="fill:#c6c6c6;fill-opacity:0.63926942;fill-rule:evenodd;stroke:#505050;stroke-width:1;stroke-linecap:butt;stroke-linejoin:miter;stroke-miterlimit:4;stroke-dasharray:none;stroke-opacity:1" />
          <path
             id="path21040"
             d="M 218.06189,488.7503 L 217.88512,495.73298"
             style="fill:#c6c6c6;fill-opacity:0.63926942;fill-rule:evenodd;stroke:#505050;stroke-width:1;stroke-linecap:butt;stroke-linejoin:miter;stroke-miterlimit:4;stroke-dasharray:none;stroke-opacity:1" />
          <path
             id="path21042"
             d="M 216.82446,495.20264 L 210.28372,495.46781"
             style="fill:#c6c6c6;fill-opacity:0.63926942;fill-rule:evenodd;stroke:#505050;stroke-width:1;stroke-linecap:butt;stroke-linejoin:miter;stroke-miterlimit:4;stroke-dasharray:none;stroke-opacity:1" />
          <path
             id="path21044"
             d="M 216.20574,486.36381 L 215.94057,492.81616"
             style="fill:#c6c6c6;fill-opacity:0.63926942;fill-rule:evenodd;stroke:#505050;stroke-width:1;stroke-linecap:butt;stroke-linejoin:miter;stroke-miterlimit:4;stroke-dasharray:none;stroke-opacity:1" />
          <path
             id="path21046"
             d="M 215.05669,492.81616 L 208.78112,493.08132"
             style="fill:#c6c6c6;fill-opacity:1;fill-rule:evenodd;stroke:#505050;stroke-width:1;stroke-linecap:butt;stroke-linejoin:miter;stroke-miterlimit:4;stroke-dasharray:none;stroke-opacity:1" />
        </g>
      </g>
    </g>
  </g>
</svg>
