<?xml version="1.0" encoding="UTF-8" standalone="no"?>
<svg
   xmlns:dc="http://purl.org/dc/elements/1.1/"
   xmlns:cc="http://creativecommons.org/ns#"
   xmlns:rdf="http://www.w3.org/1999/02/22-rdf-syntax-ns#"
   xmlns:svg="http://www.w3.org/2000/svg"
   xmlns="http://www.w3.org/2000/svg"
   xmlns:sodipodi="http://sodipodi.sourceforge.net/DTD/sodipodi-0.dtd"
   xmlns:inkscape="http://www.inkscape.org/namespaces/inkscape"
   height="500"
   width="750"
   version="1.1"
   id="svg1201"
   sodipodi:docname="Flag_Ceuta.svg"
   inkscape:version="1.0 (4035a4fb49, 2020-05-01)">
  <metadata
     id="metadata1207">
    <rdf:RDF>
      <cc:Work
         rdf:about="">
        <dc:format>image/svg+xml</dc:format>
        <dc:type
           rdf:resource="http://purl.org/dc/dcmitype/StillImage" />
      </cc:Work>
    </rdf:RDF>
  </metadata>
  <defs
     id="defs1205" />
  <sodipodi:namedview
     inkscape:document-rotation="0"
     pagecolor="#ffffff"
     bordercolor="#666666"
     borderopacity="1"
     objecttolerance="10"
     gridtolerance="10"
     guidetolerance="10"
     inkscape:pageopacity="0"
     inkscape:pageshadow="2"
     inkscape:window-width="1920"
     inkscape:window-height="1018"
     id="namedview1203"
     showgrid="false"
     inkscape:zoom="1.4295786"
     inkscape:cx="454.25459"
     inkscape:cy="256.53925"
     inkscape:window-x="-8"
     inkscape:window-y="-8"
     inkscape:window-maximized="1"
     inkscape:current-layer="svg1201" />
  <g
     id="g381">
    <g
       id="g361">
      <path
         d="M 0,0 v 500 h 750 v -500 Z"
         fill="#ffffff"
         id="path359" />
      <path
         style="stroke-width:125"
         d="M 0,0 H 375 V 500 H 750 Z M 750,0 V 250 H 0 v 250 z"
         id="path357" />
    </g>
    <g
       transform="matrix(-0.03245111,0,0,-0.03245111,471.27518,386.73023)"
       id="g12">
      <path
         id="path18"
         style="fill:#ffcc00;fill-opacity:1;stroke:#231f20;stroke-width:37.513;stroke-linecap:round;stroke-linejoin:round;stroke-miterlimit:3.86369;stroke-dasharray:none;stroke-opacity:1"
         d="m 5196.38,6444.61 c -253.34,-477.84 -970.87,-484.39 -1169.76,26.73 -293.29,-339.15 -838.87,-267.13 -1059.84,109.85 -221.01,-377.03 -766.6,-448.96 -1059.85,-109.85 -198.89,-511.12 -916.414,-504.57 -1169.758,-26.73 17.797,-10.29 38.66,-20.58 64.043,-31.68 0,0 76.933,-19.07 165.789,8.57 267.046,-286.17 809.676,-149.07 807.296,271.56 49.04,34.54 76.49,95.41 65.38,158.4 1.82,0.43 3.65,0.81 5.49,1.12 10.96,-62.15 56.29,-109.45 112.94,-125.86 148.31,-445.52 835.23,-362.29 913.6,90.72 60.13,27.24 95.07,65.35 95.07,65.35 0,0 34.93,-38.11 95.06,-65.35 78.37,-453.01 765.29,-536.24 913.6,-90.72 56.65,16.41 101.98,63.71 112.91,125.71 2.11,1.23 3.96,0.91 5.79,0.54 -11.37,-64.5 16.07,-125.37 65.11,-159.91 -2.38,-420.63 540.25,-557.73 807.3,-271.56 88.85,-27.64 165.79,-8.57 165.79,-8.57 25.38,11.1 46.24,21.39 64.04,31.68 z" />
      <path
         id="path20"
         style="fill:#ffffff;stroke:#231f20;stroke-width:37.513;stroke-linecap:butt;stroke-linejoin:miter;stroke-miterlimit:3.86369;stroke-dasharray:none;stroke-opacity:1"
         d="m 1951.04,7155.58 c -15.31,86.86 -98.13,144.85 -184.99,129.53 -86.85,-15.31 -144.84,-98.14 -129.51,-185 15.31,-86.85 98.13,-144.84 184.98,-129.53 86.85,15.32 144.84,98.14 129.52,185 z" />
      <path
         id="path24"
         style="fill:#ffffff;fill-opacity:1;stroke:#231f20;stroke-width:37.513;stroke-linecap:butt;stroke-linejoin:miter;stroke-miterlimit:3.86369;stroke-dasharray:none;stroke-opacity:1"
         d="m 1839.68,6851.46 c -15.32,86.85 -98.13,144.85 -184.98,129.53 -86.86,-15.32 -144.84,-98.15 -129.53,-185 15.32,-86.86 98.14,-144.85 184.99,-129.53 86.85,15.32 144.84,98.14 129.52,185 z" />
      <path
         id="path26"
         style="fill:#ffffff;fill-opacity:1;stroke:#231f20;stroke-width:37.513;stroke-linecap:butt;stroke-linejoin:miter;stroke-miterlimit:3.86369;stroke-dasharray:none;stroke-opacity:1"
         d="m 2159.71,6907.9 c -15.32,86.85 -98.14,144.85 -184.99,129.53 -86.85,-15.32 -144.84,-98.14 -129.52,-185 15.32,-86.86 98.14,-144.85 184.98,-129.53 86.86,15.31 144.84,98.14 129.53,185 z" />
      <path
         id="path30"
         style="fill:#ffffff;fill-opacity:1;stroke:#231f20;stroke-width:37.513;stroke-linecap:butt;stroke-linejoin:miter;stroke-miterlimit:3.86369;stroke-dasharray:none;stroke-opacity:1"
         d="m 4093.87,6851.46 c 15.32,86.85 98.14,144.85 184.99,129.53 86.85,-15.32 144.84,-98.15 129.52,-185 -15.32,-86.86 -98.13,-144.85 -184.99,-129.53 -86.85,15.32 -144.84,98.14 -129.52,185 z" />
      <path
         id="path32"
         style="fill:#ffffff;fill-opacity:1;stroke:#231f20;stroke-width:37.513;stroke-linecap:butt;stroke-linejoin:miter;stroke-miterlimit:3.86369;stroke-dasharray:none;stroke-opacity:1"
         d="m 3773.85,6907.9 c 15.31,86.85 98.13,144.85 184.98,129.53 86.85,-15.32 144.84,-98.14 129.52,-185 -15.31,-86.86 -98.13,-144.85 -184.98,-129.53 -86.85,15.31 -144.84,98.14 -129.52,185 z" />
      <path
         id="path34"
         style="fill:#ffffff;fill-opacity:1;stroke:#231f20;stroke-width:37.513;stroke-linecap:butt;stroke-linejoin:miter;stroke-miterlimit:3.86369;stroke-dasharray:none;stroke-opacity:1"
         d="m 3982.51,7155.58 c 15.32,86.86 98.14,144.85 184.99,129.53 86.85,-15.31 144.84,-98.14 129.52,-185 -15.32,-86.85 -98.14,-144.84 -184.99,-129.53 -86.85,15.32 -144.83,98.14 -129.52,185 z" />
      <path
         id="path36"
         style="fill:#ffcc00;fill-opacity:1;stroke:#231f20;stroke-width:37.513;stroke-linecap:round;stroke-linejoin:round;stroke-miterlimit:3.86369;stroke-dasharray:none;stroke-opacity:1"
         d="m 3294.21,7467.39 c 0,0 -173.89,-71.35 -190.25,-166.03 -34.69,35.88 -83.33,58.19 -137.18,58.19 -53.85,0 -102.49,-22.31 -137.19,-58.19 -16.36,94.68 -190.25,166.03 -190.25,166.03 12.3,49.19 73.79,48.77 73.79,48.77 -46.11,43.04 -18.45,126.05 -18.45,126.05 86.09,36.9 159.87,-6.14 159.87,-6.14 0,79.93 113.75,172.17 112.23,172.17 -1.53,0 112.22,-92.24 112.22,-172.17 0,0 73.79,43.04 159.87,6.14 0,0 27.67,-83.01 -18.45,-126.05 0,0 61.49,0.42 73.79,-48.77 z" />
      <path
         id="path38"
         style="fill:#ffcc00;fill-opacity:1;stroke:#231f20;stroke-width:37.513;stroke-linecap:butt;stroke-linejoin:round;stroke-miterlimit:3.86369;stroke-dasharray:none;stroke-opacity:1"
         d="m 2714.34,7383.43 c 65.06,-35.37 110.19,-77.82 114.96,-82.38 -33.03,-34.3 -53.34,-80.94 -53.34,-132.32 0,-105.39 85.43,-190.82 190.82,-190.82 105.38,0 190.81,85.43 190.81,190.82 0,51.38 -20.31,98.02 -53.34,132.32 4.77,4.56 49.9,47.02 114.96,82.38 68.84,37.41 136.48,0.1 136.48,0.1 0,0 3.08,-5.73 -18.44,-70.3 0,0 113.75,-27.67 159.86,-92.23 46.12,-64.57 64.56,-64.57 64.56,-66.11 0,-1.53 -18.44,-1.53 -64.56,-66.1 -46.11,-64.57 -159.86,-92.24 -159.86,-92.24 21.52,-64.57 18.44,-95.31 18.44,-95.31 0,0 -67.64,-12.29 -136.48,25.12 -68.84,37.42 -115.37,82.78 -115.37,82.78 98.14,-115.59 85.84,-218.59 85.84,-218.59 -135.81,-2.76 -222.9,92.24 -222.9,92.24 0,0 -87.1,-95 -222.91,-92.24 0,0 -12.3,103 85.84,218.59 0,0 -46.53,-45.36 -115.37,-82.78 -68.85,-37.41 -136.48,-25.12 -136.48,-25.12 0,0 -3.07,30.74 18.44,95.31 0,0 -113.75,27.67 -159.86,92.24 -46.12,64.57 -64.56,64.57 -64.56,66.1 0,1.54 18.44,1.54 64.56,66.11 46.11,64.56 159.86,92.23 159.86,92.23 -21.51,64.57 -18.44,70.3 -18.44,70.3 0,0 67.63,37.31 136.48,-0.1 z" />
      <path
         id="path40"
         style="fill:#231f20;fill-opacity:1;stroke:none"
         d="m 3034.8,6990.39 c 11.27,-25.4 25.86,-53.67 44.71,-83.98 0,0 -31.73,24.49 -63.22,77.98 6.3,1.7 12.48,3.7 18.51,6 z m 92.74,75.52 c 23.7,-14.81 47.61,-28.53 67.15,-37.22 0,0 -33.99,10.2 -74.96,25.94 2.73,3.66 5.34,7.42 7.81,11.28 z m 29.87,94.68 237.14,-9.17 -238.76,-9.01 c 0.82,5.97 1.37,12.04 1.62,18.18 z m -5.55,54.72 c 25.37,8.13 48.46,18.27 63.87,30.79 0,0 -22.73,-19.68 -61.86,-39.71 -0.6,3 -1.27,5.97 -2.01,8.92 z m -137.44,138.24 c 14.55,46.89 35.24,96.95 64.56,141.52 0,0 -27.71,-67.47 -49.94,-145.91 -4.79,1.65 -9.66,3.12 -14.62,4.39 z m -56.6,5.79 8.96,318.07 8.95,-318.07 c -2.96,0.14 -5.95,0.21 -8.95,0.21 -3.01,0 -5.99,-0.07 -8.96,-0.21 z m -53.31,-10.18 c -22.23,78.44 -49.94,145.91 -49.94,145.91 29.32,-44.57 50.01,-94.63 64.56,-141.52 -4.95,-1.27 -9.83,-2.74 -14.62,-4.39 z m -124.83,-142.77 c -39.13,20.03 -61.86,39.71 -61.86,39.71 15.41,-12.52 38.5,-22.66 63.88,-30.79 -0.75,-2.95 -1.42,-5.92 -2.02,-8.92 z m -1.91,-63.98 -238.77,9.01 237.14,9.17 c 0.25,-6.14 0.8,-12.21 1.63,-18.18 z m 36.05,-87.78 c -40.96,-15.74 -74.96,-25.94 -74.96,-25.94 19.54,8.69 43.45,22.41 67.14,37.22 2.48,-3.86 5.09,-7.62 7.82,-11.28 z m 103.45,-70.24 c -31.5,-53.49 -63.23,-77.98 -63.23,-77.98 18.85,30.31 33.44,58.58 44.71,83.98 6.04,-2.3 12.21,-4.3 18.52,-6" />
      <path
         id="path42"
         style="fill:none;stroke:#231f20;stroke-width:11.136;stroke-linecap:round;stroke-linejoin:round;stroke-miterlimit:3.86369;stroke-dasharray:none;stroke-opacity:1"
         d="m 3034.8,6990.39 c 11.27,-25.4 25.86,-53.67 44.71,-83.98 0,0 -31.73,24.49 -63.22,77.98 6.3,1.7 12.48,3.7 18.51,6 z" />
      <path
         id="path44"
         style="fill:none;stroke:#231f20;stroke-width:11.136;stroke-linecap:round;stroke-linejoin:round;stroke-miterlimit:3.86369;stroke-dasharray:none;stroke-opacity:1"
         d="m 3127.54,7065.91 c 23.7,-14.81 47.61,-28.53 67.15,-37.22 0,0 -33.99,10.2 -74.96,25.94 2.73,3.66 5.34,7.42 7.81,11.28 z" />
      <path
         id="path46"
         style="fill:none;stroke:#231f20;stroke-width:11.136;stroke-linecap:round;stroke-linejoin:round;stroke-miterlimit:3.86369;stroke-dasharray:none;stroke-opacity:1"
         d="m 3157.41,7160.59 237.14,-9.17 -238.76,-9.01 c 0.82,5.97 1.37,12.04 1.62,18.18 z" />
      <path
         id="path48"
         style="fill:none;stroke:#231f20;stroke-width:11.136;stroke-linecap:round;stroke-linejoin:round;stroke-miterlimit:3.86369;stroke-dasharray:none;stroke-opacity:1"
         d="m 3151.86,7215.31 c 25.37,8.13 48.46,18.27 63.87,30.79 0,0 -22.73,-19.68 -61.86,-39.71 -0.6,3 -1.27,5.97 -2.01,8.92 z" />
      <path
         id="path50"
         style="fill:none;stroke:#231f20;stroke-width:11.136;stroke-linecap:round;stroke-linejoin:round;stroke-miterlimit:3.86369;stroke-dasharray:none;stroke-opacity:1"
         d="m 3014.42,7353.55 c 14.55,46.89 35.24,96.95 64.56,141.52 0,0 -27.71,-67.47 -49.94,-145.91 -4.79,1.65 -9.66,3.12 -14.62,4.39 z" />
      <path
         id="path52"
         style="fill:none;stroke:#231f20;stroke-width:11.136;stroke-linecap:round;stroke-linejoin:round;stroke-miterlimit:3.86369;stroke-dasharray:none;stroke-opacity:1"
         d="m 2957.82,7359.34 8.96,318.07 8.95,-318.07 c -2.96,0.14 -5.95,0.21 -8.95,0.21 -3.01,0 -5.99,-0.07 -8.96,-0.21 z" />
      <path
         id="path54"
         style="fill:none;stroke:#231f20;stroke-width:11.136;stroke-linecap:round;stroke-linejoin:round;stroke-miterlimit:3.86369;stroke-dasharray:none;stroke-opacity:1"
         d="m 2904.51,7349.16 c -22.23,78.44 -49.94,145.91 -49.94,145.91 29.32,-44.57 50.01,-94.63 64.56,-141.52 -4.95,-1.27 -9.83,-2.74 -14.62,-4.39 z" />
      <path
         id="path56"
         style="fill:none;stroke:#231f20;stroke-width:11.136;stroke-linecap:round;stroke-linejoin:round;stroke-miterlimit:3.86369;stroke-dasharray:none;stroke-opacity:1"
         d="m 2779.68,7206.39 c -39.13,20.03 -61.86,39.71 -61.86,39.71 15.41,-12.52 38.5,-22.66 63.88,-30.79 -0.75,-2.95 -1.42,-5.92 -2.02,-8.92 z" />
      <path
         id="path58"
         style="fill:none;stroke:#231f20;stroke-width:11.136;stroke-linecap:round;stroke-linejoin:round;stroke-miterlimit:3.86369;stroke-dasharray:none;stroke-opacity:1"
         d="m 2777.77,7142.41 -238.77,9.01 237.14,9.17 c 0.25,-6.14 0.8,-12.21 1.63,-18.18 z" />
      <path
         id="path60"
         style="fill:none;stroke:#231f20;stroke-width:11.136;stroke-linecap:round;stroke-linejoin:round;stroke-miterlimit:3.86369;stroke-dasharray:none;stroke-opacity:1"
         d="m 2813.82,7054.63 c -40.96,-15.74 -74.96,-25.94 -74.96,-25.94 19.54,8.69 43.45,22.41 67.14,37.22 2.48,-3.86 5.09,-7.62 7.82,-11.28 z" />
      <path
         id="path62"
         style="fill:none;stroke:#231f20;stroke-width:11.136;stroke-linecap:round;stroke-linejoin:round;stroke-miterlimit:3.86369;stroke-dasharray:none;stroke-opacity:1"
         d="m 2917.27,6984.39 c -31.5,-53.49 -63.23,-77.98 -63.23,-77.98 18.85,30.31 33.44,58.58 44.71,83.98 6.04,-2.3 12.21,-4.3 18.52,-6 z" />
      <path
         id="path64"
         style="fill:#ffcc00;fill-opacity:1;stroke:#231f20;stroke-width:22.271;stroke-linecap:butt;stroke-linejoin:miter;stroke-miterlimit:3.86369;stroke-dasharray:none;stroke-opacity:1"
         d="m 2775.96,7168.73 c 0,105.39 85.43,190.82 190.82,190.82 105.38,0 190.81,-85.43 190.81,-190.82 0,-105.39 -85.43,-190.82 -190.81,-190.82 -105.39,0 -190.82,85.43 -190.82,190.82 z" />
      <path
         id="path66"
         style="fill:#ffffff;fill-opacity:1;stroke:#231f20;stroke-width:10;stroke-linecap:butt;stroke-linejoin:miter;stroke-miterlimit:3.86369;stroke-dasharray:none;stroke-opacity:1"
         d="m 2830.63,7168.73 c 0,75.2 60.95,136.15 136.15,136.15 75.19,0 136.15,-60.95 136.15,-136.15 0,-75.19 -60.96,-136.15 -136.15,-136.15 -75.2,0 -136.15,60.96 -136.15,136.15 z" />
      <path
         id="path68"
         style="fill:#ffcc00;fill-opacity:1;stroke:#231f20;stroke-width:32.435;stroke-linecap:butt;stroke-linejoin:miter;stroke-miterlimit:3.86369;stroke-dasharray:none;stroke-opacity:1"
         d="m 4756.85,5791.17 c -25.06,-115.93 -68.98,-314.06 -92,-417.66 -76.83,31.2 -670.26,258.99 -1703.64,258.99 -1084.14,0 -1673.3,-250.72 -1700.1,-262.12 l -90.05,419.33 c 5.26,1.2 10.64,2.87 16.12,5.07 499.81,199.09 1258.05,283.17 1779.6,283.17 536.2,0 982.54,-71.25 1294.82,-142.54 308.58,-70.45 484.77,-140.63 484.77,-140.63 3.54,-1.42 7.03,-2.62 10.48,-3.61 z" />
      <path
         id="path70"
         style="fill:#ffcc00;fill-opacity:1;stroke:#231f20;stroke-width:44.543;stroke-linecap:butt;stroke-linejoin:miter;stroke-miterlimit:3.86369;stroke-dasharray:none;stroke-opacity:1"
         d="m 1121.01,5960.21 c 6.34,2.54 741.83,284.78 1845.77,284.78 1103.93,0 1839.42,-282.24 1845.76,-284.78 110.29,-44.11 44.12,-209.55 -66.17,-165.43 0,0 -176.19,70.18 -484.77,140.63 -312.28,71.29 -758.62,142.54 -1294.82,142.54 -521.55,0 -1279.79,-84.08 -1779.6,-283.17 -110.29,-44.12 -176.46,121.32 -66.17,165.43 z" />
      <path
         id="path72"
         style="fill:none;stroke:#231f20;stroke-width:20;stroke-linecap:butt;stroke-linejoin:miter;stroke-miterlimit:3.86369;stroke-dasharray:none;stroke-opacity:1"
         d="m 2680.05,5851.28 c 0,77.32 59.82,140 133.61,140 h 292.77 c 73.8,0 133.62,-62.68 133.62,-140 v 0 c 0,-77.32 -59.82,-140 -133.62,-140 h -292.77 c -73.79,0 -133.61,62.68 -133.61,140 z" />
      <path
         id="path74"
         style="fill:#ff0000;fill-opacity:1;stroke:#231f20;stroke-width:10;stroke-linecap:butt;stroke-linejoin:miter;stroke-miterlimit:3.86369;stroke-dasharray:none;stroke-opacity:1"
         d="m 2729.54,5851.28 c 0,51.23 46.44,92.76 103.73,92.76 h 253.56 c 57.29,0 103.73,-41.53 103.73,-92.76 v 0 c 0,-51.23 -46.44,-92.76 -103.73,-92.76 h -253.56 c -57.29,0 -103.73,41.53 -103.73,92.76 z" />
      <path
         id="path76"
         style="fill:#ffcc00;fill-opacity:1;stroke:#231f20;stroke-width:44.543;stroke-linecap:butt;stroke-linejoin:miter;stroke-miterlimit:3.86369;stroke-dasharray:none;stroke-opacity:1"
         d="m 1260.21,5370 c 6.34,2.54 597.06,262.5 1701,262.5 1103.93,0 1705.79,-259.96 1712.13,-262.5 110.29,-44.12 44.12,-209.55 -66.17,-165.43 0,0 -42.56,25.64 -351.13,96.09 -312.29,71.29 -758.63,153.67 -1294.83,153.67 -521.55,0 -1135.01,-50.67 -1634.83,-249.76 -110.29,-44.12 -176.46,121.31 -66.17,165.43 z" />
      <path
         id="path78"
         style="fill:#ff0000;fill-opacity:1;stroke:#231f20;stroke-width:30;stroke-linecap:butt;stroke-linejoin:miter;stroke-miterlimit:3.86369;stroke-dasharray:none;stroke-opacity:1"
         d="m 4785.19,5690.75 c 36.02,-24.3 58.56,-71.74 54.41,-123.82 -5.2,-65.25 -50.47,-115.29 -104.56,-119.29 z" />
      <path
         id="path80"
         style="fill:#ffcc00;fill-opacity:1;stroke:#231f20;stroke-width:30.28;stroke-linecap:butt;stroke-linejoin:miter;stroke-miterlimit:3.86369;stroke-dasharray:none;stroke-opacity:1"
         d="m 4747.32,5756.57 24.53,-6.34 v 0 c 12.46,-3.71 19.65,-20.24 16.06,-36.93 l -58.49,-271.99 c -3.59,-16.69 -16.6,-27.21 -29.06,-23.51 v 0 c -6.23,1.86 -23.8,5.54 -23.8,5.54 z" />
      <path
         id="path82"
         style="fill:#ff0000;fill-opacity:1;stroke:#231f20;stroke-width:30;stroke-linecap:butt;stroke-linejoin:miter;stroke-miterlimit:3.86369;stroke-dasharray:none;stroke-opacity:1"
         d="m 1141.66,5690.75 50.16,-243.11 c -54.09,4 -99.37,54.04 -104.57,119.29 -4.15,52.08 18.38,99.52 54.41,123.82 z" />
      <path
         id="path84"
         style="fill:#ffcc00;fill-opacity:1;stroke:#231f20;stroke-width:30.28;stroke-linecap:butt;stroke-linejoin:miter;stroke-miterlimit:3.86369;stroke-dasharray:none;stroke-opacity:1"
         d="m 1179.54,5756.57 -24.54,-6.34 v 0 c -12.46,-3.71 -19.64,-20.24 -16.05,-36.93 l 58.48,-271.99 c 3.59,-16.69 16.6,-27.21 29.06,-23.51 v 0 c 6.23,1.86 23.8,5.54 23.8,5.54 z" />
      <path
         id="path86"
         style="fill:none;stroke:#231f20;stroke-width:20;stroke-linecap:butt;stroke-linejoin:miter;stroke-miterlimit:3.86369;stroke-dasharray:none;stroke-opacity:1"
         d="m 1285.05,5657.35 c 0,77.32 62.68,140 140,140 77.32,0 140,-62.68 140,-140 0,-77.32 -62.68,-140 -140,-140 -77.32,0 -140,62.68 -140,140 z" />
      <path
         id="path88"
         style="fill:#ffffff;fill-opacity:1;stroke:#231f20;stroke-width:10;stroke-linecap:butt;stroke-linejoin:miter;stroke-miterlimit:3.86369;stroke-dasharray:none;stroke-opacity:1"
         d="m 1324.66,5657.34 c 0,55.45 44.94,100.4 100.39,100.4 55.44,0 100.39,-44.95 100.39,-100.4 0,-55.44 -44.95,-100.39 -100.39,-100.39 -55.45,0 -100.39,44.95 -100.39,100.39 z" />
      <path
         id="path90"
         style="fill:none;stroke:#231f20;stroke-width:20;stroke-linecap:butt;stroke-linejoin:miter;stroke-miterlimit:3.86369;stroke-dasharray:none;stroke-opacity:1"
         d="m 2308.66,5847.35 c 0,77.32 62.68,140 140,140 77.32,0 140,-62.68 140,-140 0,-77.32 -62.68,-140 -140,-140 -77.32,0 -140,62.68 -140,140 z" />
      <path
         id="path92"
         style="fill:#ffffff;fill-opacity:1;stroke:#231f20;stroke-width:10;stroke-linecap:butt;stroke-linejoin:miter;stroke-miterlimit:3.86369;stroke-dasharray:none;stroke-opacity:1"
         d="m 2348.27,5847.34 c 0,55.45 44.94,100.4 100.39,100.4 55.45,0 100.39,-44.95 100.39,-100.4 0,-55.44 -44.94,-100.39 -100.39,-100.39 -55.45,0 -100.39,44.95 -100.39,100.39 z" />
      <path
         id="path94"
         style="fill:none;stroke:#231f20;stroke-width:20;stroke-linecap:butt;stroke-linejoin:miter;stroke-miterlimit:3.86369;stroke-dasharray:none;stroke-opacity:1"
         d="m 3331.44,5847.35 c 0,77.32 62.67,140 140,140 77.32,0 140,-62.68 140,-140 0,-77.32 -62.68,-140 -140,-140 -77.33,0 -140,62.68 -140,140 z" />
      <path
         id="path96"
         style="fill:#ffffff;fill-opacity:1;stroke:#231f20;stroke-width:10;stroke-linecap:butt;stroke-linejoin:miter;stroke-miterlimit:3.86369;stroke-dasharray:none;stroke-opacity:1"
         d="m 3371.04,5847.34 c 0,55.45 44.95,100.4 100.39,100.4 55.45,0 100.4,-44.95 100.4,-100.4 0,-55.44 -44.95,-100.39 -100.4,-100.39 -55.44,0 -100.39,44.95 -100.39,100.39 z" />
      <path
         id="path98"
         style="fill:none;stroke:#231f20;stroke-width:20;stroke-linecap:butt;stroke-linejoin:miter;stroke-miterlimit:3.86369;stroke-dasharray:none;stroke-opacity:1"
         d="m 4355.05,5657.35 c 0,77.32 62.68,140 140,140 77.32,0 140,-62.68 140,-140 0,-77.32 -62.68,-140 -140,-140 -77.32,0 -140,62.68 -140,140 z" />
      <path
         id="path100"
         style="fill:#ffffff;fill-opacity:1;stroke:#231f20;stroke-width:10;stroke-linecap:butt;stroke-linejoin:miter;stroke-miterlimit:3.86369;stroke-dasharray:none;stroke-opacity:1"
         d="m 4394.66,5657.34 c 0,55.45 44.94,100.4 100.39,100.4 55.44,0 100.39,-44.95 100.39,-100.4 0,-55.44 -44.95,-100.39 -100.39,-100.39 -55.45,0 -100.39,44.95 -100.39,100.39 z" />
      <path
         id="path102"
         style="fill:#ffcc00;fill-opacity:1;stroke:#231f20;stroke-width:39.013;stroke-linecap:butt;stroke-linejoin:round;stroke-miterlimit:3.86369;stroke-dasharray:none;stroke-opacity:1"
         d="m 801.215,6412.93 c -105.039,45.92 -132.613,78.07 -186.445,153 l -134.579,263.63 c -79.894,137.27 -14.632,304.56 -170.679,471.36 -0.496,25.08 22.519,36.31 86.906,24.21 -1.176,-0.51 126.469,-49.5 160.773,-125.22 0,0 38.653,65.65 121.133,59.74 0,0 57.043,-69.29 39.813,-125.61 0,0 47.086,12.13 77.715,-30.31 0,0 -134.188,-117.85 -105.497,-213.12 0,0 46.559,58.65 83.801,117.31 37.242,58.66 105.957,55.12 105.957,55.12 0,0 4.5,-13.38 15.547,-81.79 0,0 99.942,12.15 163.35,-33.45 63.41,-45.6 77.69,-39.38 78.35,-40.84 0.66,-1.45 -13.62,-7.67 -21.61,-84.38 -8,-76.7 -84.19,-141.27 -84.19,-141.27 44.37,-53.9 55.18,-84.05 55.18,-84.05 0,0 -47.08,-34.46 -116.443,-22.24 -69.359,12.23 -144.844,19.49 -144.844,19.49 125.578,-76.37 180.257,-158.07 180.257,-158.07 -103.956,-48.43 -204.495,-23.51 -204.495,-23.51 z" />
      <path
         id="path104"
         style="fill:#231f20;fill-opacity:1;stroke:none"
         d="m 534.117,6715.61 c -11.652,53.55 -32.828,168.33 -25.929,268.87 0,0 19.14,-186.92 63.742,-279.07 0,0 101.828,58.31 122.758,112.75 0,0 -28.153,-80.93 -104.032,-124.97 l 261.043,99.23 -247.019,-121.55 c 0,0 104.133,-34.83 157.531,-39.47 0,0 -116.328,-6.85 -168.387,16.55 0,0 37.856,-72.51 136.207,-152.15 0,0 -62.718,20.16 -127.449,91.28 l -68.465,128.53" />
      <path
         id="path106"
         style="fill:none;stroke:#231f20;stroke-width:11.581;stroke-linecap:round;stroke-linejoin:round;stroke-miterlimit:3.86369;stroke-dasharray:none;stroke-opacity:1"
         d="m 534.117,6715.61 c -11.652,53.55 -32.828,168.33 -25.929,268.87 0,0 19.14,-186.92 63.742,-279.07 0,0 101.828,58.31 122.758,112.75 0,0 -28.153,-80.93 -104.032,-124.97 l 261.043,99.23 -247.019,-121.55 c 0,0 104.133,-34.83 157.531,-39.47 0,0 -116.328,-6.85 -168.387,16.55 0,0 37.856,-72.51 136.207,-152.15 0,0 -62.718,20.16 -127.449,91.28 z" />
      <path
         id="path108"
         style="fill:#ffffff;fill-opacity:1;stroke:#231f20;stroke-width:30;stroke-linecap:butt;stroke-linejoin:miter;stroke-miterlimit:3.86369;stroke-dasharray:none;stroke-opacity:1"
         d="m 427.91,6609.34 c -24.543,58.53 -9.539,120.64 32.988,147.12 l 118.668,-224.39 c -2.015,-0.97 -4.082,-1.86 -6.203,-2.68 -53.215,-20.51 -118.336,15.28 -145.453,79.95 z" />
      <path
         id="path110"
         style="fill:#ffcc00;fill-opacity:1;stroke:#231f20;stroke-width:30;stroke-linecap:butt;stroke-linejoin:miter;stroke-miterlimit:3.86369;stroke-dasharray:none;stroke-opacity:1"
         d="m 484.125,6809.45 -21.969,-12.09 v 0 c -9.633,-5.69 -12.121,-20.36 -5.558,-32.77 l 130.664,-247.07 c 6.562,-12.41 19.687,-17.85 29.32,-12.16 v 0 l 21.625,14.85 z" />
      <path
         id="path112"
         style="fill:#ffcc00;fill-opacity:1;stroke:#231f20;stroke-width:39.013;stroke-linecap:butt;stroke-linejoin:round;stroke-miterlimit:3.86369;stroke-dasharray:none;stroke-opacity:1"
         d="m 5132.34,6412.93 c 105.04,45.92 132.61,78.07 186.44,153 l 134.58,263.63 c 79.9,137.27 14.63,304.56 170.68,471.36 0.5,25.08 -22.52,36.31 -86.91,24.21 1.18,-0.51 -126.47,-49.5 -160.77,-125.22 0,0 -38.65,65.65 -121.13,59.74 0,0 -57.05,-69.29 -39.82,-125.61 0,0 -47.08,12.13 -77.71,-30.31 0,0 134.19,-117.85 105.5,-213.12 0,0 -46.56,58.65 -83.81,117.31 -37.24,58.66 -105.95,55.12 -105.95,55.12 0,0 -4.5,-13.38 -15.55,-81.79 0,0 -99.94,12.15 -163.35,-33.45 -63.41,-45.6 -77.69,-39.38 -78.35,-40.84 -0.66,-1.45 13.62,-7.67 21.61,-84.38 8,-76.7 84.19,-141.27 84.19,-141.27 -44.36,-53.9 -55.18,-84.05 -55.18,-84.05 0,0 47.09,-34.46 116.44,-22.24 69.36,12.23 144.85,19.49 144.85,19.49 -125.58,-76.37 -180.26,-158.07 -180.26,-158.07 103.96,-48.43 204.5,-23.51 204.5,-23.51 z" />
      <path
         id="path114"
         style="fill:#231f20;fill-opacity:1;stroke:none"
         d="m 5399.44,6715.61 c 11.65,53.55 32.83,168.33 25.93,268.87 0,0 -19.15,-186.92 -63.74,-279.07 0,0 -101.83,58.31 -122.76,112.75 0,0 28.15,-80.93 104.02,-124.97 l -261.03,99.23 247.01,-121.55 c 0,0 -104.13,-34.83 -157.53,-39.47 0,0 116.33,-6.85 168.39,16.55 0,0 -37.86,-72.51 -136.21,-152.15 0,0 62.72,20.16 127.45,91.28 l 68.47,128.53" />
      <path
         id="path116"
         style="fill:none;stroke:#231f20;stroke-width:11.581;stroke-linecap:round;stroke-linejoin:round;stroke-miterlimit:3.86369;stroke-dasharray:none;stroke-opacity:1"
         d="m 5399.44,6715.61 c 11.65,53.55 32.83,168.33 25.93,268.87 0,0 -19.15,-186.92 -63.74,-279.07 0,0 -101.83,58.31 -122.76,112.75 0,0 28.15,-80.93 104.02,-124.97 l -261.03,99.23 247.01,-121.55 c 0,0 -104.13,-34.83 -157.53,-39.47 0,0 116.33,-6.85 168.39,16.55 0,0 -37.86,-72.51 -136.21,-152.15 0,0 62.72,20.16 127.45,91.28 z" />
      <path
         id="path118"
         style="fill:#ffffff;fill-opacity:1;stroke:#231f20;stroke-width:30;stroke-linecap:butt;stroke-linejoin:miter;stroke-miterlimit:3.86369;stroke-dasharray:none;stroke-opacity:1"
         d="m 5505.64,6609.34 c 24.54,58.53 9.54,120.64 -32.99,147.12 l -118.67,-224.39 c 2.02,-0.97 4.09,-1.86 6.21,-2.68 53.21,-20.51 118.33,15.28 145.45,79.95 z" />
      <path
         id="path120"
         style="fill:#ffcc00;fill-opacity:1;stroke:#231f20;stroke-width:30;stroke-linecap:butt;stroke-linejoin:miter;stroke-miterlimit:3.86369;stroke-dasharray:none;stroke-opacity:1"
         d="m 5449.43,6809.45 21.96,-12.09 v 0 c 9.64,-5.69 12.13,-20.36 5.56,-32.77 l -130.66,-247.07 c -6.56,-12.41 -19.69,-17.85 -29.32,-12.16 v 0 l -21.63,14.85 z" />
      <path
         id="path122"
         style="fill:#0044ad;fill-opacity:1;stroke:#231f20;stroke-width:11.286;stroke-linecap:butt;stroke-linejoin:miter;stroke-miterlimit:3.86369;stroke-dasharray:none;stroke-opacity:1"
         d="m 1952.35,5865.7 c -19.42,4.81 -48.33,-1 -64.59,-12.97 L 1744.3,5747.06 c -16.25,-11.97 -13.69,-25.58 5.72,-30.39 l 171.34,-42.44 c 19.41,-4.81 48.33,0.99 64.59,12.97 l 143.45,105.66 c 16.26,11.98 13.7,25.58 -5.71,30.39 z" />
      <path
         id="path124"
         style="fill:none;stroke:#231f20;stroke-width:20;stroke-linecap:butt;stroke-linejoin:miter;stroke-miterlimit:3.86369;stroke-dasharray:none;stroke-opacity:1"
         d="m 1958.23,5902.05 c -26.78,6.63 -66.68,-1.38 -89.1,-17.9 L 1671.2,5738.36 c -22.43,-16.52 -18.9,-35.29 7.89,-41.92 l 236.38,-58.56 c 26.79,-6.64 66.69,1.37 89.11,17.89 l 197.93,145.79 c 22.43,16.52 18.9,35.29 -7.88,41.92 z" />
      <path
         id="path126"
         style="fill:#0044ad;fill-opacity:1;stroke:#231f20;stroke-width:11.286;stroke-linecap:butt;stroke-linejoin:miter;stroke-miterlimit:3.86369;stroke-dasharray:none;stroke-opacity:1"
         d="m 3967.75,5865.7 c 19.41,4.81 48.33,-1 64.58,-12.97 l 143.46,-105.67 c 16.26,-11.97 13.7,-25.58 -5.72,-30.39 l -171.33,-42.44 c -19.42,-4.81 -48.33,0.99 -64.59,12.97 l -143.46,105.66 c -16.26,11.98 -13.69,25.58 5.72,30.39 z" />
      <path
         id="path128"
         style="fill:none;stroke:#231f20;stroke-width:20;stroke-linecap:butt;stroke-linejoin:miter;stroke-miterlimit:3.86369;stroke-dasharray:none;stroke-opacity:1"
         d="m 3961.86,5902.05 c 26.79,6.63 66.68,-1.38 89.11,-17.9 l 197.93,-145.79 c 22.43,-16.52 18.9,-35.29 -7.89,-41.92 l -236.39,-58.56 c -26.78,-6.64 -66.68,1.37 -89.11,17.89 l -197.93,145.79 c -22.42,16.52 -18.89,35.29 7.89,41.92 z" />
      <path
         id="path130"
         style="fill:#ff0000"
         d="M 1110.73,2456 V 5042.54 H 4822.82 V 2456.86 c 0,-1026 -830.96,-1857.012 -1856.04,-1857.012 -1025.08,0 -1856.05,831.012 -1856.05,1856.152 z" />
      <path
         id="path132"
         style="fill:#ffffff"
         d="M 1724.39,2488.69 V 4401.84 H 4209.16 V 2489.27 c 0,-686.75 -556.23,-1242.98 -1242.38,-1242.98 -686.16,0 -1242.39,556.23 -1242.39,1242.4 z" />
      <path
         id="path134"
         style="fill:#0044ad;stroke:#231f20;stroke-width:10;stroke-linecap:round;stroke-linejoin:round;stroke-miterlimit:3.86369;stroke-dasharray:none;stroke-opacity:1"
         d="m 2686.63,3660.99 v 459.55 h 553.87 v -459.42 c 0,-153.08 -123.99,-277.07 -276.94,-277.07 -152.95,0 -276.93,123.99 -276.93,276.94 z" />
      <path
         id="path136"
         style="fill:#ffffff;fill-opacity:1;stroke:#231f20;stroke-width:10;stroke-linecap:butt;stroke-linejoin:miter;stroke-miterlimit:3.86369;stroke-dasharray:none;stroke-opacity:1"
         d="m 2887.24,3780.13 c 0,42.16 34.17,76.33 76.32,76.33 42.15,0 76.32,-34.17 76.32,-76.33 0,-42.15 -34.17,-76.32 -76.32,-76.32 -42.15,0 -76.32,34.17 -76.32,76.32 z" />
      <path
         id="path138"
         style="fill:#ffffff;fill-opacity:1;stroke:#231f20;stroke-width:10;stroke-linecap:butt;stroke-linejoin:miter;stroke-miterlimit:3.86369;stroke-dasharray:none;stroke-opacity:1"
         d="m 2757.18,3983.48 c 0,42.15 34.17,76.32 76.32,76.32 42.15,0 76.32,-34.17 76.32,-76.32 0,-42.15 -34.17,-76.32 -76.32,-76.32 -42.15,0 -76.32,34.17 -76.32,76.32 z" />
      <path
         id="path140"
         style="fill:#ffffff;fill-opacity:1;stroke:#231f20;stroke-width:10;stroke-linecap:butt;stroke-linejoin:miter;stroke-miterlimit:3.86369;stroke-dasharray:none;stroke-opacity:1"
         d="m 3017.3,3983.48 c 0,42.15 34.17,76.32 76.32,76.32 42.15,0 76.32,-34.17 76.32,-76.32 0,-42.15 -34.17,-76.32 -76.32,-76.32 -42.15,0 -76.32,34.17 -76.32,76.32 z" />
      <path
         id="path142"
         style="fill:#ffffff;fill-opacity:1;stroke:#231f20;stroke-width:10;stroke-linecap:butt;stroke-linejoin:miter;stroke-miterlimit:3.86369;stroke-dasharray:none;stroke-opacity:1"
         d="m 2757.18,3576.79 c 0,42.15 34.17,76.32 76.32,76.32 42.15,0 76.32,-34.17 76.32,-76.32 0,-42.15 -34.17,-76.33 -76.32,-76.33 -42.15,0 -76.32,34.18 -76.32,76.33 z" />
      <path
         id="path144"
         style="fill:#ffffff;fill-opacity:1;stroke:#231f20;stroke-width:10;stroke-linecap:butt;stroke-linejoin:miter;stroke-miterlimit:3.86369;stroke-dasharray:none;stroke-opacity:1"
         d="m 3017.3,3576.79 c 0,42.15 34.17,76.32 76.32,76.32 42.15,0 76.32,-34.17 76.32,-76.32 0,-42.15 -34.17,-76.33 -76.32,-76.33 -42.15,0 -76.32,34.18 -76.32,76.33 z" />
      <path
         id="path166"
         style="fill:#0044ad;stroke:#231f20;stroke-width:10;stroke-linecap:round;stroke-linejoin:round;stroke-miterlimit:3.86369;stroke-dasharray:none;stroke-opacity:1"
         d="m 2686.63,2730.99 v 459.55 h 553.87 v -459.42 c 0,-153.08 -123.99,-277.07 -276.94,-277.07 -152.95,0 -276.93,123.99 -276.93,276.94 z" />
      <path
         id="path178"
         style="fill:#ffffff;fill-opacity:1;stroke:#231f20;stroke-width:10;stroke-linecap:butt;stroke-linejoin:miter;stroke-miterlimit:3.86369;stroke-dasharray:none;stroke-opacity:1"
         d="m 2887.24,2850.13 c 0,42.16 34.17,76.33 76.32,76.33 42.15,0 76.32,-34.17 76.32,-76.33 0,-42.15 -34.17,-76.32 -76.32,-76.32 -42.15,0 -76.32,34.17 -76.32,76.32 z" />
      <path
         id="path180"
         style="fill:#ffffff;fill-opacity:1;stroke:#231f20;stroke-width:10;stroke-linecap:butt;stroke-linejoin:miter;stroke-miterlimit:3.86369;stroke-dasharray:none;stroke-opacity:1"
         d="m 2757.18,3053.48 c 0,42.15 34.17,76.32 76.32,76.32 42.15,0 76.32,-34.17 76.32,-76.32 0,-42.15 -34.17,-76.32 -76.32,-76.32 -42.15,0 -76.32,34.17 -76.32,76.32 z" />
      <path
         id="path182"
         style="fill:#ffffff;fill-opacity:1;stroke:#231f20;stroke-width:10;stroke-linecap:butt;stroke-linejoin:miter;stroke-miterlimit:3.86369;stroke-dasharray:none;stroke-opacity:1"
         d="m 3017.3,3053.48 c 0,42.15 34.17,76.32 76.32,76.32 42.15,0 76.32,-34.17 76.32,-76.32 0,-42.15 -34.17,-76.32 -76.32,-76.32 -42.15,0 -76.32,34.17 -76.32,76.32 z" />
      <path
         id="path184"
         style="fill:#ffffff;fill-opacity:1;stroke:#231f20;stroke-width:10;stroke-linecap:butt;stroke-linejoin:miter;stroke-miterlimit:3.86369;stroke-dasharray:none;stroke-opacity:1"
         d="m 2757.18,2646.79 c 0,42.15 34.17,76.32 76.32,76.32 42.15,0 76.32,-34.17 76.32,-76.32 0,-42.15 -34.17,-76.33 -76.32,-76.33 -42.15,0 -76.32,34.18 -76.32,76.33 z" />
      <path
         id="path186"
         style="fill:#ffffff;fill-opacity:1;stroke:#231f20;stroke-width:10;stroke-linecap:butt;stroke-linejoin:miter;stroke-miterlimit:3.86369;stroke-dasharray:none;stroke-opacity:1"
         d="m 3017.3,2646.79 c 0,42.15 34.17,76.32 76.32,76.32 42.15,0 76.32,-34.17 76.32,-76.32 0,-42.15 -34.17,-76.33 -76.32,-76.33 -42.15,0 -76.32,34.18 -76.32,76.33 z" />
      <path
         id="path198"
         style="fill:#0044ad;stroke:#231f20;stroke-width:10;stroke-linecap:round;stroke-linejoin:round;stroke-miterlimit:3.86369;stroke-dasharray:none;stroke-opacity:1"
         d="m 2689.84,1800.99 v 459.55 h 553.87 v -459.42 c 0,-153.08 -123.98,-277.07 -276.93,-277.07 -152.95,0 -276.94,123.99 -276.94,276.94 z" />
      <path
         id="path200"
         style="fill:#ffffff;fill-opacity:1;stroke:#231f20;stroke-width:10;stroke-linecap:butt;stroke-linejoin:miter;stroke-miterlimit:3.86369;stroke-dasharray:none;stroke-opacity:1"
         d="m 2890.46,1920.13 c 0,42.16 34.17,76.33 76.32,76.33 42.15,0 76.31,-34.17 76.31,-76.33 0,-42.15 -34.16,-76.32 -76.31,-76.32 -42.15,0 -76.32,34.17 -76.32,76.32 z" />
      <path
         id="path202"
         style="fill:#ffffff;fill-opacity:1;stroke:#231f20;stroke-width:10;stroke-linecap:butt;stroke-linejoin:miter;stroke-miterlimit:3.86369;stroke-dasharray:none;stroke-opacity:1"
         d="m 2760.4,2123.48 c 0,42.15 34.17,76.32 76.31,76.32 42.15,0 76.32,-34.17 76.32,-76.32 0,-42.15 -34.17,-76.32 -76.32,-76.32 -42.14,0 -76.31,34.17 -76.31,76.32 z" />
      <path
         id="path204"
         style="fill:#ffffff;fill-opacity:1;stroke:#231f20;stroke-width:10;stroke-linecap:butt;stroke-linejoin:miter;stroke-miterlimit:3.86369;stroke-dasharray:none;stroke-opacity:1"
         d="m 3020.52,2123.48 c 0,42.15 34.17,76.32 76.32,76.32 42.14,0 76.31,-34.17 76.31,-76.32 0,-42.15 -34.17,-76.32 -76.31,-76.32 -42.15,0 -76.32,34.17 -76.32,76.32 z" />
      <path
         id="path206"
         style="fill:#ffffff;fill-opacity:1;stroke:#231f20;stroke-width:10;stroke-linecap:butt;stroke-linejoin:miter;stroke-miterlimit:3.86369;stroke-dasharray:none;stroke-opacity:1"
         d="m 2760.4,1716.79 c 0,42.15 34.17,76.32 76.31,76.32 42.15,0 76.32,-34.17 76.32,-76.32 0,-42.15 -34.17,-76.33 -76.32,-76.33 -42.14,0 -76.31,34.18 -76.31,76.33 z" />
      <path
         id="path208"
         style="fill:#ffffff;fill-opacity:1;stroke:#231f20;stroke-width:10;stroke-linecap:butt;stroke-linejoin:miter;stroke-miterlimit:3.86369;stroke-dasharray:none;stroke-opacity:1"
         d="m 3020.52,1716.79 c 0,42.15 34.17,76.32 76.32,76.32 42.14,0 76.31,-34.17 76.31,-76.32 0,-42.15 -34.17,-76.33 -76.31,-76.33 -42.15,0 -76.32,34.18 -76.32,76.33 z" />
      <path
         id="path230"
         style="fill:#0044ad;stroke:#231f20;stroke-width:10;stroke-linecap:round;stroke-linejoin:round;stroke-miterlimit:3.86369;stroke-dasharray:none;stroke-opacity:1"
         d="m 1946.63,2730.99 v 459.55 h 553.87 v -459.42 c 0,-153.08 -123.99,-277.07 -276.94,-277.07 -152.95,0 -276.93,123.99 -276.93,276.94 z" />
      <path
         id="path232"
         style="fill:#ffffff;fill-opacity:1;stroke:#231f20;stroke-width:10;stroke-linecap:butt;stroke-linejoin:miter;stroke-miterlimit:3.86369;stroke-dasharray:none;stroke-opacity:1"
         d="m 2147.24,2850.13 c 0,42.16 34.17,76.33 76.32,76.33 42.15,0 76.32,-34.17 76.32,-76.33 0,-42.15 -34.17,-76.32 -76.32,-76.32 -42.15,0 -76.32,34.17 -76.32,76.32 z" />
      <path
         id="path234"
         style="fill:#ffffff;fill-opacity:1;stroke:#231f20;stroke-width:10;stroke-linecap:butt;stroke-linejoin:miter;stroke-miterlimit:3.86369;stroke-dasharray:none;stroke-opacity:1"
         d="m 2017.18,3053.48 c 0,42.15 34.17,76.32 76.32,76.32 42.15,0 76.32,-34.17 76.32,-76.32 0,-42.15 -34.17,-76.32 -76.32,-76.32 -42.15,0 -76.32,34.17 -76.32,76.32 z" />
      <path
         id="path236"
         style="fill:#ffffff;fill-opacity:1;stroke:#231f20;stroke-width:10;stroke-linecap:butt;stroke-linejoin:miter;stroke-miterlimit:3.86369;stroke-dasharray:none;stroke-opacity:1"
         d="m 2277.3,3053.48 c 0,42.15 34.17,76.32 76.32,76.32 42.15,0 76.32,-34.17 76.32,-76.32 0,-42.15 -34.17,-76.32 -76.32,-76.32 -42.15,0 -76.32,34.17 -76.32,76.32 z" />
      <path
         id="path238"
         style="fill:#ffffff;fill-opacity:1;stroke:#231f20;stroke-width:10;stroke-linecap:butt;stroke-linejoin:miter;stroke-miterlimit:3.86369;stroke-dasharray:none;stroke-opacity:1"
         d="m 2017.18,2646.79 c 0,42.15 34.17,76.32 76.32,76.32 42.15,0 76.32,-34.17 76.32,-76.32 0,-42.15 -34.17,-76.33 -76.32,-76.33 -42.15,0 -76.32,34.18 -76.32,76.33 z" />
      <path
         id="path240"
         style="fill:#ffffff;fill-opacity:1;stroke:#231f20;stroke-width:10;stroke-linecap:butt;stroke-linejoin:miter;stroke-miterlimit:3.86369;stroke-dasharray:none;stroke-opacity:1"
         d="m 2277.3,2646.79 c 0,42.15 34.17,76.32 76.32,76.32 42.15,0 76.32,-34.17 76.32,-76.32 0,-42.15 -34.17,-76.33 -76.32,-76.33 -42.15,0 -76.32,34.18 -76.32,76.33 z" />
      <path
         id="path262"
         style="fill:#0044ad;fill-opacity:1;stroke:#231f20;stroke-width:10;stroke-linecap:round;stroke-linejoin:round;stroke-miterlimit:3.86369;stroke-dasharray:none;stroke-opacity:1"
         d="m 3426.63,2730.99 v 459.55 h 553.87 v -459.42 c 0,-153.08 -123.99,-277.07 -276.94,-277.07 -152.95,0 -276.93,123.99 -276.93,276.94 z" />
      <path
         id="path264"
         style="fill:#ffffff;fill-opacity:1;stroke:#231f20;stroke-width:10;stroke-linecap:butt;stroke-linejoin:miter;stroke-miterlimit:3.86369;stroke-dasharray:none;stroke-opacity:1"
         d="m 3627.24,2850.13 c 0,42.16 34.17,76.33 76.32,76.33 42.15,0 76.32,-34.17 76.32,-76.33 0,-42.15 -34.17,-76.32 -76.32,-76.32 -42.15,0 -76.32,34.17 -76.32,76.32 z" />
      <path
         id="path266"
         style="fill:#ffffff;fill-opacity:1;stroke:#231f20;stroke-width:10;stroke-linecap:butt;stroke-linejoin:miter;stroke-miterlimit:3.86369;stroke-dasharray:none;stroke-opacity:1"
         d="m 3497.18,3053.48 c 0,42.15 34.17,76.32 76.32,76.32 42.15,0 76.32,-34.17 76.32,-76.32 0,-42.15 -34.17,-76.32 -76.32,-76.32 -42.15,0 -76.32,34.17 -76.32,76.32 z" />
      <path
         id="path268"
         style="fill:#ffffff;fill-opacity:1;stroke:#231f20;stroke-width:10;stroke-linecap:butt;stroke-linejoin:miter;stroke-miterlimit:3.86369;stroke-dasharray:none;stroke-opacity:1"
         d="m 3757.3,3053.48 c 0,42.15 34.17,76.32 76.32,76.32 42.15,0 76.32,-34.17 76.32,-76.32 0,-42.15 -34.17,-76.32 -76.32,-76.32 -42.15,0 -76.32,34.17 -76.32,76.32 z" />
      <path
         id="path270"
         style="fill:#ffffff;fill-opacity:1;stroke:#231f20;stroke-width:10;stroke-linecap:butt;stroke-linejoin:miter;stroke-miterlimit:3.86369;stroke-dasharray:none;stroke-opacity:1"
         d="m 3497.18,2646.79 c 0,42.15 34.17,76.32 76.32,76.32 42.15,0 76.32,-34.17 76.32,-76.32 0,-42.15 -34.17,-76.33 -76.32,-76.33 -42.15,0 -76.32,34.18 -76.32,76.33 z" />
      <path
         id="path272"
         style="fill:#ffffff;fill-opacity:1;stroke:#231f20;stroke-width:10;stroke-linecap:butt;stroke-linejoin:miter;stroke-miterlimit:3.86369;stroke-dasharray:none;stroke-opacity:1"
         d="m 3757.3,2646.79 c 0,42.15 34.17,76.32 76.32,76.32 42.15,0 76.32,-34.17 76.32,-76.32 0,-42.15 -34.17,-76.33 -76.32,-76.33 -42.15,0 -76.32,34.18 -76.32,76.33 z" />
      <path
         id="path294"
         style="fill:#ffcc00;fill-opacity:1;stroke:#231f20;stroke-width:10;stroke-linecap:round;stroke-linejoin:round;stroke-miterlimit:3.86369;stroke-dasharray:none;stroke-opacity:1"
         d="m 1621.96,4884.92 v -100.63 h -21.55 v -41.38 h -51.16 v 41.38 h -16.92 v 100.63 z" />
      <path
         id="path296"
         style="fill:#ffcc00;fill-opacity:1;stroke:#231f20;stroke-width:10;stroke-linecap:round;stroke-linejoin:round;stroke-miterlimit:3.86369;stroke-dasharray:none;stroke-opacity:1"
         d="m 1302.33,4884.92 v -100.63 h -16.92 v -41.38 h -50.76 v 41.38 h -21.95 v 100.63 z" />
      <path
         id="path298"
         style="fill:#ffcc00;fill-opacity:1;stroke:#231f20;stroke-width:10;stroke-linecap:round;stroke-linejoin:round;stroke-miterlimit:3.86369;stroke-dasharray:none;stroke-opacity:1"
         d="m 1193.24,4495.03 19.46,141.87 v 61.7 h 409.26 v -61.7 l 19.46,-141.87 z" />
      <path
         id="path300"
         style="fill:#231f20;fill-opacity:1;stroke:none"
         d="m 1460.74,4493.86 h -86.82 c 0,0 0,88.05 0,88.67 0,23.97 19.44,43.41 43.41,43.41 23.97,0 43.41,-19.44 43.41,-43.41 0,-0.62 0,-88.67 0,-88.67" />
      <path
         id="path302"
         style="fill:#ffcc00;fill-opacity:1;stroke:#231f20;stroke-width:10;stroke-linecap:round;stroke-linejoin:round;stroke-miterlimit:3.86369;stroke-dasharray:none;stroke-opacity:1"
         d="m 1462.33,4924.92 v -182.01 h -18.08 v 41.38 h -53.84 v -41.38 h -18.08 v 182.01 z" />
      <path
         id="path304"
         style="fill:#231f20;fill-opacity:1;stroke:none"
         d="m 1436.67,4852.28 h -38.68 c 0,0 0,39.23 0,39.5 0,10.68 8.66,19.34 19.34,19.34 10.68,0 19.34,-8.66 19.34,-19.34 0,-0.27 0,-39.5 0,-39.5" />
      <path
         id="path306"
         style="fill:#231f20;fill-opacity:1;stroke:none"
         d="m 1305.68,4607.1 h -45.62 c 0,0 0,46.26 0,46.59 0,12.6 10.21,22.81 22.81,22.81 12.59,0 22.81,-10.21 22.81,-22.81 0,-0.33 0,-46.59 0,-46.59" />
      <path
         id="path308"
         style="fill:#231f20;fill-opacity:1;stroke:none"
         d="m 1528.99,4607.1 h 45.61 c 0,0 0,46.26 0,46.59 0,12.6 -10.21,22.81 -22.81,22.81 -12.59,0 -22.8,-10.21 -22.8,-22.81 0,-0.33 0,-46.59 0,-46.59" />
      <path
         id="path310"
         style="fill:#ffcc00;fill-opacity:1;stroke:#231f20;stroke-width:10;stroke-linecap:round;stroke-linejoin:round;stroke-miterlimit:3.86369;stroke-dasharray:none;stroke-opacity:1"
         d="m 1406.61,4959.81 h 22.07 v -11.42 h 22.89 v 11.42 h 22.16 v -34.89 h -112.8 v 34.89 h 22.79 v -11.42 h 22.89 z" />
      <path
         id="path312"
         style="fill:#231f20;fill-opacity:1;stroke:none"
         d="m 1596.67,4812.28 h -38.68 c 0,0 0,39.23 0,39.5 0,10.68 8.66,19.34 19.34,19.34 10.68,0 19.34,-8.66 19.34,-19.34 0,-0.27 0,-39.5 0,-39.5" />
      <path
         id="path314"
         style="fill:#ffcc00;fill-opacity:1;stroke:#231f20;stroke-width:10;stroke-linecap:round;stroke-linejoin:round;stroke-miterlimit:3.86369;stroke-dasharray:none;stroke-opacity:1"
         d="m 1566.61,4919.81 h 22.07 v -11.42 h 22.89 v 11.42 h 22.16 v -34.89 h -112.8 v 34.89 h 22.79 v -11.42 h 22.89 z" />
      <path
         id="path316"
         style="fill:#231f20;fill-opacity:1;stroke:none"
         d="m 1276.67,4812.28 h -38.68 c 0,0 0,39.23 0,39.5 0,10.68 8.66,19.34 19.34,19.34 10.68,0 19.34,-8.66 19.34,-19.34 0,-0.27 0,-39.5 0,-39.5" />
      <path
         id="path318"
         style="fill:#ffcc00;fill-opacity:1;stroke:#231f20;stroke-width:10;stroke-linecap:round;stroke-linejoin:round;stroke-miterlimit:3.86369;stroke-dasharray:none;stroke-opacity:1"
         d="m 1246.61,4919.81 h 22.07 v -11.42 h 22.89 v 11.42 h 22.16 v -34.89 h -112.8 v 34.89 h 22.79 v -11.42 h 22.89 z" />
      <path
         id="path320"
         style="fill:#ffcc00;fill-opacity:1;stroke:#231f20;stroke-width:10;stroke-linecap:round;stroke-linejoin:round;stroke-miterlimit:3.86369;stroke-dasharray:none;stroke-opacity:1"
         d="m 1600.41,4784.29 h 55.69 v -85.7 h -477.54 v 85.7 h 1.85 54.24 v -41.38 h 50.76 v 41.38 h 53.84 v -41.38 h 51.16 v 41.38 h 53.84 v -41.38 h 51.16 v 41.38 h 53.84 v -41.38 h 51.16 z" />
      <path
         id="path322"
         style="fill:#ffcc00;fill-opacity:1;stroke:#231f20;stroke-width:10;stroke-linecap:round;stroke-linejoin:round;stroke-miterlimit:3.86369;stroke-dasharray:none;stroke-opacity:1"
         d="m 1178.56,4495.03 h 477.54 v -26.44 h -477.54 z" />
      <path
         id="path324"
         style="fill:#ffcc00;fill-opacity:1;stroke:#231f20;stroke-width:10;stroke-linecap:round;stroke-linejoin:round;stroke-miterlimit:3.86369;stroke-dasharray:none;stroke-opacity:1"
         d="m 1621.96,3284.92 v -100.63 h -21.55 v -41.38 h -51.16 v 41.38 h -16.92 v 100.63 z" />
      <path
         id="path326"
         style="fill:#ffcc00;fill-opacity:1;stroke:#231f20;stroke-width:10;stroke-linecap:round;stroke-linejoin:round;stroke-miterlimit:3.86369;stroke-dasharray:none;stroke-opacity:1"
         d="m 1302.33,3284.92 v -100.63 h -16.92 v -41.38 h -50.76 v 41.38 h -21.95 v 100.63 z" />
      <path
         id="path328"
         style="fill:#ffcc00;fill-opacity:1;stroke:#231f20;stroke-width:10;stroke-linecap:round;stroke-linejoin:round;stroke-miterlimit:3.86369;stroke-dasharray:none;stroke-opacity:1"
         d="m 1193.24,2895.03 19.46,141.87 v 61.7 h 409.26 v -61.7 l 19.46,-141.87 z" />
      <path
         id="path330"
         style="fill:#231f20;fill-opacity:1;stroke:none"
         d="m 1460.74,2893.86 h -86.82 c 0,0 0,88.05 0,88.67 0,23.97 19.44,43.41 43.41,43.41 23.97,0 43.41,-19.44 43.41,-43.41 0,-0.62 0,-88.67 0,-88.67" />
      <path
         id="path332"
         style="fill:#ffcc00;fill-opacity:1;stroke:#231f20;stroke-width:10;stroke-linecap:round;stroke-linejoin:round;stroke-miterlimit:3.86369;stroke-dasharray:none;stroke-opacity:1"
         d="m 1462.33,3324.92 v -182.01 h -18.08 v 41.38 h -53.84 v -41.38 h -18.08 v 182.01 z" />
      <path
         id="path334"
         style="fill:#231f20;fill-opacity:1;stroke:none"
         d="m 1436.67,3252.28 h -38.68 c 0,0 0,39.23 0,39.5 0,10.68 8.66,19.34 19.34,19.34 10.68,0 19.34,-8.66 19.34,-19.34 0,-0.27 0,-39.5 0,-39.5" />
      <path
         id="path336"
         style="fill:#231f20;fill-opacity:1;stroke:none"
         d="m 1305.68,3007.1 h -45.62 c 0,0 0,46.26 0,46.59 0,12.6 10.21,22.81 22.81,22.81 12.59,0 22.81,-10.21 22.81,-22.81 0,-0.33 0,-46.59 0,-46.59" />
      <path
         id="path338"
         style="fill:#231f20;fill-opacity:1;stroke:none"
         d="m 1528.99,3007.1 h 45.61 c 0,0 0,46.26 0,46.59 0,12.6 -10.21,22.81 -22.81,22.81 -12.59,0 -22.8,-10.21 -22.8,-22.81 0,-0.33 0,-46.59 0,-46.59" />
      <path
         id="path340"
         style="fill:#ffcc00;fill-opacity:1;stroke:#231f20;stroke-width:10;stroke-linecap:round;stroke-linejoin:round;stroke-miterlimit:3.86369;stroke-dasharray:none;stroke-opacity:1"
         d="m 1406.61,3359.81 h 22.07 v -11.42 h 22.89 v 11.42 h 22.16 v -34.89 h -112.8 v 34.89 h 22.79 v -11.42 h 22.89 z" />
      <path
         id="path342"
         style="fill:#231f20;fill-opacity:1;stroke:none"
         d="m 1596.67,3212.28 h -38.68 c 0,0 0,39.23 0,39.5 0,10.68 8.66,19.34 19.34,19.34 10.68,0 19.34,-8.66 19.34,-19.34 0,-0.27 0,-39.5 0,-39.5" />
      <path
         id="path344"
         style="fill:#ffcc00;fill-opacity:1;stroke:#231f20;stroke-width:10;stroke-linecap:round;stroke-linejoin:round;stroke-miterlimit:3.86369;stroke-dasharray:none;stroke-opacity:1"
         d="m 1566.61,3319.81 h 22.07 v -11.42 h 22.89 v 11.42 h 22.16 v -34.89 h -112.8 v 34.89 h 22.79 v -11.42 h 22.89 z" />
      <path
         id="path346"
         style="fill:#231f20;fill-opacity:1;stroke:none"
         d="m 1276.67,3212.28 h -38.68 c 0,0 0,39.23 0,39.5 0,10.68 8.66,19.34 19.34,19.34 10.68,0 19.34,-8.66 19.34,-19.34 0,-0.27 0,-39.5 0,-39.5" />
      <path
         id="path348"
         style="fill:#ffcc00;fill-opacity:1;stroke:#231f20;stroke-width:10;stroke-linecap:round;stroke-linejoin:round;stroke-miterlimit:3.86369;stroke-dasharray:none;stroke-opacity:1"
         d="m 1246.61,3319.81 h 22.07 v -11.42 h 22.89 v 11.42 h 22.16 v -34.89 h -112.8 v 34.89 h 22.79 v -11.42 h 22.89 z" />
      <path
         id="path350"
         style="fill:#ffcc00;fill-opacity:1;stroke:#231f20;stroke-width:10;stroke-linecap:round;stroke-linejoin:round;stroke-miterlimit:3.86369;stroke-dasharray:none;stroke-opacity:1"
         d="m 1600.41,3184.29 h 55.69 v -85.7 h -477.54 v 85.7 h 1.85 54.24 v -41.38 h 50.76 v 41.38 h 53.84 v -41.38 h 51.16 v 41.38 h 53.84 v -41.38 h 51.16 v 41.38 h 53.84 v -41.38 h 51.16 z" />
      <path
         id="path352"
         style="fill:#ffcc00;fill-opacity:1;stroke:#231f20;stroke-width:10;stroke-linecap:round;stroke-linejoin:round;stroke-miterlimit:3.86369;stroke-dasharray:none;stroke-opacity:1"
         d="m 1178.56,2895.03 h 477.54 v -26.44 h -477.54 z" />
      <path
         id="path354"
         style="fill:#ffcc00;fill-opacity:1;stroke:#231f20;stroke-width:10;stroke-linecap:round;stroke-linejoin:round;stroke-miterlimit:3.86369;stroke-dasharray:none;stroke-opacity:1"
         d="m 1699.83,2014.27 50.32,-87.16 -17.06,-9.84 -1.6,-0.93 20.69,-35.83 -44.31,-25.58 -20.69,35.83 -14.65,-8.46 -50.32,87.15 z" />
      <path
         id="path356"
         style="fill:#ffcc00;fill-opacity:1;stroke:#231f20;stroke-width:10;stroke-linecap:round;stroke-linejoin:round;stroke-miterlimit:3.86369;stroke-dasharray:none;stroke-opacity:1"
         d="m 1423.03,1854.45 50.31,-87.15 -14.65,-8.46 20.69,-35.83 -43.96,-25.38 -20.69,35.83 -19.01,-10.98 -50.31,87.16 z" />
      <path
         id="path358"
         style="fill:#ffcc00;fill-opacity:1;stroke:#231f20;stroke-width:10;stroke-linecap:round;stroke-linejoin:round;stroke-miterlimit:3.86369;stroke-dasharray:none;stroke-opacity:1"
         d="m 1523.49,1462.25 -54.07,132.59 -30.85,53.44 354.42,204.62 30.85,-53.43 87.8,-113.13 z" />
      <path
         id="path360"
         style="fill:#231f20;fill-opacity:1;stroke:none"
         d="m 1755.75,1594.98 -75.2,-43.41 c 0,0 -44.02,76.26 -44.33,76.8 -11.99,20.76 -4.88,47.31 15.89,59.3 20.76,11.99 47.31,4.87 59.3,-15.89 0.31,-0.54 44.34,-76.8 44.34,-76.8" />
      <path
         id="path362"
         style="fill:#ffcc00;fill-opacity:1;stroke:#231f20;stroke-width:10;stroke-linecap:round;stroke-linejoin:round;stroke-miterlimit:3.86369;stroke-dasharray:none;stroke-opacity:1"
         d="m 1541.59,1969.09 91,-157.62 -15.66,-9.04 -20.68,35.83 -46.62,-26.92 20.68,-35.83 -15.66,-9.04 -91,157.62 z" />
      <path
         id="path364"
         style="fill:#231f20;fill-opacity:1;stroke:none"
         d="m 1555.69,1893.36 -33.5,-19.34 c 0,0 -19.61,33.97 -19.75,34.21 -5.34,9.25 -2.17,21.07 7.08,26.41 9.25,5.34 21.07,2.18 26.42,-7.08 0.13,-0.24 19.75,-34.2 19.75,-34.2" />
      <path
         id="path366"
         style="fill:#231f20;fill-opacity:1;stroke:none"
         d="m 1564.83,1615.52 -39.5,-22.81 c 0,0 -23.13,40.07 -23.3,40.35 -6.3,10.91 -2.56,24.86 8.35,31.16 10.91,6.3 24.86,2.56 31.16,-8.35 0.16,-0.28 23.29,-40.35 23.29,-40.35" />
      <path
         id="path368"
         style="fill:#231f20;fill-opacity:1;stroke:none"
         d="m 1758.23,1727.18 39.5,22.81 c 0,0 -23.13,40.06 -23.29,40.35 -6.3,10.91 -20.25,14.64 -31.16,8.34 -10.91,-6.29 -14.65,-20.24 -8.35,-31.15 0.16,-0.28 23.3,-40.35 23.3,-40.35" />
      <path
         id="path370"
         style="fill:#ffcc00;fill-opacity:1;stroke:#231f20;stroke-width:10;stroke-linecap:round;stroke-linejoin:round;stroke-miterlimit:3.86369;stroke-dasharray:none;stroke-opacity:1"
         d="m 1475.89,1971.45 19.11,11.03 5.71,-9.89 19.83,11.45 -5.72,9.89 19.2,11.08 17.44,-30.22 -97.68,-56.4 -17.45,30.22 19.74,11.39 5.71,-9.89 19.82,11.44 z" />
      <path
         id="path372"
         style="fill:#231f20;fill-opacity:1;stroke:none"
         d="m 1714.25,1938.71 -33.49,-19.33 c 0,0 -19.62,33.97 -19.76,34.2 -5.34,9.26 -2.17,21.08 7.08,26.42 9.25,5.34 21.08,2.17 26.42,-7.08 0.14,-0.24 19.75,-34.21 19.75,-34.21" />
      <path
         id="path374"
         style="fill:#ffcc00;fill-opacity:1;stroke:#231f20;stroke-width:10;stroke-linecap:round;stroke-linejoin:round;stroke-miterlimit:3.86369;stroke-dasharray:none;stroke-opacity:1"
         d="m 1634.45,2016.8 19.12,11.04 5.71,-9.89 19.82,11.44 -5.71,9.9 19.2,11.08 17.44,-30.22 -97.69,-56.4 -17.45,30.22 19.74,11.39 5.71,-9.89 19.82,11.44 z" />
      <path
         id="path376"
         style="fill:#231f20;fill-opacity:1;stroke:none"
         d="m 1437.13,1778.71 -33.5,-19.33 c 0,0 -19.62,33.97 -19.75,34.2 -5.34,9.26 -2.18,21.08 7.07,26.42 9.25,5.34 21.08,2.17 26.42,-7.08 0.14,-0.24 19.76,-34.21 19.76,-34.21" />
      <path
         id="path378"
         style="fill:#ffcc00;fill-opacity:1;stroke:#231f20;stroke-width:10;stroke-linecap:round;stroke-linejoin:round;stroke-miterlimit:3.86369;stroke-dasharray:none;stroke-opacity:1"
         d="m 1357.32,1856.8 19.12,11.04 5.71,-9.89 19.82,11.44 -5.71,9.9 19.2,11.08 17.44,-30.22 -97.69,-56.4 -17.44,30.22 19.73,11.39 5.71,-9.89 19.83,11.44 z" />
      <path
         id="path380"
         style="fill:#ffcc00;fill-opacity:1;stroke:#231f20;stroke-width:10;stroke-linecap:round;stroke-linejoin:round;stroke-miterlimit:3.86369;stroke-dasharray:none;stroke-opacity:1"
         d="m 1731.49,1916.34 1.6,0.93 45.02,25.99 1.61,0.92 42.84,-74.21 -413.56,-238.76 -42.84,74.2 1.6,0.93 46.97,27.12 20.69,-35.83 43.96,25.38 -20.69,35.83 46.63,26.92 20.68,-35.83 44.31,25.58 -20.68,35.83 46.62,26.92 20.68,-35.83 44.32,25.58 -20.69,35.83 46.62,26.92 20.69,-35.83 44.31,25.58 z" />
      <path
         id="path382"
         style="fill:#ffcc00;fill-opacity:1;stroke:#231f20;stroke-width:10;stroke-linecap:round;stroke-linejoin:round;stroke-miterlimit:3.86369;stroke-dasharray:none;stroke-opacity:1"
         d="m 1510.79,1454.91 413.55,238.77 13.22,-22.89 L 1524,1432.02 Z" />
      <path
         id="path384"
         style="fill:#ffcc00;fill-opacity:1;stroke:#231f20;stroke-width:10;stroke-linecap:round;stroke-linejoin:round;stroke-miterlimit:3.86369;stroke-dasharray:none;stroke-opacity:1"
         d="m 4311.59,4884.92 v -100.63 h 21.55 v -41.38 h 51.16 v 41.38 h 16.92 v 100.63 z" />
      <path
         id="path386"
         style="fill:#ffcc00;fill-opacity:1;stroke:#231f20;stroke-width:10;stroke-linecap:round;stroke-linejoin:round;stroke-miterlimit:3.86369;stroke-dasharray:none;stroke-opacity:1"
         d="m 4631.22,4884.92 v -100.63 h 16.92 v -41.38 h 50.76 v 41.38 h 21.95 v 100.63 z" />
      <path
         id="path388"
         style="fill:#ffcc00;fill-opacity:1;stroke:#231f20;stroke-width:10;stroke-linecap:round;stroke-linejoin:round;stroke-miterlimit:3.86369;stroke-dasharray:none;stroke-opacity:1"
         d="m 4740.31,4495.03 -19.46,141.87 v 61.7 h -409.26 v -61.7 l -19.46,-141.87 z" />
      <path
         id="path390"
         style="fill:#231f20;fill-opacity:1;stroke:none"
         d="m 4472.81,4493.86 h 86.82 c 0,0 0,88.05 0,88.67 0,23.97 -19.43,43.41 -43.41,43.41 -23.97,0 -43.41,-19.44 -43.41,-43.41 0,-0.62 0,-88.67 0,-88.67" />
      <path
         id="path392"
         style="fill:#ffcc00;fill-opacity:1;stroke:#231f20;stroke-width:10;stroke-linecap:round;stroke-linejoin:round;stroke-miterlimit:3.86369;stroke-dasharray:none;stroke-opacity:1"
         d="m 4471.22,4924.92 v -182.01 h 18.08 v 41.38 h 53.84 v -41.38 h 18.08 v 182.01 z" />
      <path
         id="path394"
         style="fill:#231f20;fill-opacity:1;stroke:none"
         d="m 4496.88,4852.28 h 38.68 c 0,0 0,39.23 0,39.5 0,10.68 -8.66,19.34 -19.34,19.34 -10.68,0 -19.34,-8.66 -19.34,-19.34 0,-0.27 0,-39.5 0,-39.5" />
      <path
         id="path396"
         style="fill:#231f20;fill-opacity:1;stroke:none"
         d="m 4627.88,4607.1 h 45.61 c 0,0 0,46.26 0,46.59 0,12.6 -10.21,22.81 -22.81,22.81 -12.59,0 -22.8,-10.21 -22.8,-22.81 0,-0.33 0,-46.59 0,-46.59" />
      <path
         id="path398"
         style="fill:#231f20;fill-opacity:1;stroke:none"
         d="m 4404.57,4607.1 h -45.62 c 0,0 0,46.26 0,46.59 0,12.6 10.21,22.81 22.81,22.81 12.6,0 22.81,-10.21 22.81,-22.81 0,-0.33 0,-46.59 0,-46.59" />
      <path
         id="path400"
         style="fill:#ffcc00;fill-opacity:1;stroke:#231f20;stroke-width:10;stroke-linecap:round;stroke-linejoin:round;stroke-miterlimit:3.86369;stroke-dasharray:none;stroke-opacity:1"
         d="m 4526.95,4959.81 h -22.08 v -11.42 h -22.89 v 11.42 h -22.16 v -34.89 h 112.8 v 34.89 h -22.79 v -11.42 h -22.88 z" />
      <path
         id="path402"
         style="fill:#231f20;fill-opacity:1;stroke:none"
         d="m 4336.88,4812.28 h 38.68 c 0,0 0,39.23 0,39.5 0,10.68 -8.66,19.34 -19.34,19.34 -10.68,0 -19.34,-8.66 -19.34,-19.34 0,-0.27 0,-39.5 0,-39.5" />
      <path
         id="path404"
         style="fill:#ffcc00;fill-opacity:1;stroke:#231f20;stroke-width:10;stroke-linecap:round;stroke-linejoin:round;stroke-miterlimit:3.86369;stroke-dasharray:none;stroke-opacity:1"
         d="m 4366.95,4919.81 h -22.08 v -11.42 h -22.89 v 11.42 h -22.16 v -34.89 h 112.8 v 34.89 h -22.79 v -11.42 h -22.88 z" />
      <path
         id="path406"
         style="fill:#231f20;fill-opacity:1;stroke:none"
         d="m 4656.88,4812.28 h 38.68 c 0,0 0,39.23 0,39.5 0,10.68 -8.66,19.34 -19.34,19.34 -10.68,0 -19.34,-8.66 -19.34,-19.34 0,-0.27 0,-39.5 0,-39.5" />
      <path
         id="path408"
         style="fill:#ffcc00;fill-opacity:1;stroke:#231f20;stroke-width:10;stroke-linecap:round;stroke-linejoin:round;stroke-miterlimit:3.86369;stroke-dasharray:none;stroke-opacity:1"
         d="m 4686.95,4919.81 h -22.08 v -11.42 h -22.89 v 11.42 h -22.16 v -34.89 h 112.8 v 34.89 h -22.79 v -11.42 h -22.88 z" />
      <path
         id="path410"
         style="fill:#ffcc00;fill-opacity:1;stroke:#231f20;stroke-width:10;stroke-linecap:round;stroke-linejoin:round;stroke-miterlimit:3.86369;stroke-dasharray:none;stroke-opacity:1"
         d="m 4333.14,4784.29 h -55.69 v -85.7 h 477.54 v 85.7 h -1.85 -54.24 v -41.38 h -50.76 v 41.38 h -53.84 v -41.38 h -51.16 v 41.38 h -53.84 v -41.38 h -51.16 v 41.38 h -53.84 v -41.38 h -51.16 z" />
      <path
         id="path412"
         style="fill:#ffcc00;fill-opacity:1;stroke:#231f20;stroke-width:10;stroke-linecap:round;stroke-linejoin:round;stroke-miterlimit:3.86369;stroke-dasharray:none;stroke-opacity:1"
         d="m 4754.99,4495.03 h -477.54 v -26.44 h 477.54 z" />
      <path
         id="path414"
         style="fill:#ffcc00;fill-opacity:1;stroke:#231f20;stroke-width:10;stroke-linecap:round;stroke-linejoin:round;stroke-miterlimit:3.86369;stroke-dasharray:none;stroke-opacity:1"
         d="m 4311.59,3284.92 v -100.63 h 21.55 v -41.38 h 51.16 v 41.38 h 16.92 v 100.63 z" />
      <path
         id="path416"
         style="fill:#ffcc00;fill-opacity:1;stroke:#231f20;stroke-width:10;stroke-linecap:round;stroke-linejoin:round;stroke-miterlimit:3.86369;stroke-dasharray:none;stroke-opacity:1"
         d="m 4631.22,3284.92 v -100.63 h 16.92 v -41.38 h 50.76 v 41.38 h 21.95 v 100.63 z" />
      <path
         id="path418"
         style="fill:#ffcc00;fill-opacity:1;stroke:#231f20;stroke-width:10;stroke-linecap:round;stroke-linejoin:round;stroke-miterlimit:3.86369;stroke-dasharray:none;stroke-opacity:1"
         d="m 4740.31,2895.03 -19.46,141.87 v 61.7 h -409.26 v -61.7 l -19.46,-141.87 z" />
      <path
         id="path420"
         style="fill:#231f20;fill-opacity:1;stroke:none"
         d="m 4472.81,2893.86 h 86.82 c 0,0 0,88.05 0,88.67 0,23.97 -19.43,43.41 -43.41,43.41 -23.97,0 -43.41,-19.44 -43.41,-43.41 0,-0.62 0,-88.67 0,-88.67" />
      <path
         id="path422"
         style="fill:#ffcc00;fill-opacity:1;stroke:#231f20;stroke-width:10;stroke-linecap:round;stroke-linejoin:round;stroke-miterlimit:3.86369;stroke-dasharray:none;stroke-opacity:1"
         d="m 4471.22,3324.92 v -182.01 h 18.08 v 41.38 h 53.84 v -41.38 h 18.08 v 182.01 z" />
      <path
         id="path424"
         style="fill:#231f20;fill-opacity:1;stroke:none"
         d="m 4496.88,3252.28 h 38.68 c 0,0 0,39.23 0,39.5 0,10.68 -8.66,19.34 -19.34,19.34 -10.68,0 -19.34,-8.66 -19.34,-19.34 0,-0.27 0,-39.5 0,-39.5" />
      <path
         id="path426"
         style="fill:#231f20;fill-opacity:1;stroke:none"
         d="m 4627.88,3007.1 h 45.61 c 0,0 0,46.26 0,46.59 0,12.6 -10.21,22.81 -22.81,22.81 -12.59,0 -22.8,-10.21 -22.8,-22.81 0,-0.33 0,-46.59 0,-46.59" />
      <path
         id="path428"
         style="fill:#231f20;fill-opacity:1;stroke:none"
         d="m 4404.57,3007.1 h -45.62 c 0,0 0,46.26 0,46.59 0,12.6 10.21,22.81 22.81,22.81 12.6,0 22.81,-10.21 22.81,-22.81 0,-0.33 0,-46.59 0,-46.59" />
      <path
         id="path430"
         style="fill:#ffcc00;fill-opacity:1;stroke:#231f20;stroke-width:10;stroke-linecap:round;stroke-linejoin:round;stroke-miterlimit:3.86369;stroke-dasharray:none;stroke-opacity:1"
         d="m 4526.95,3359.81 h -22.08 v -11.42 h -22.89 v 11.42 h -22.16 v -34.89 h 112.8 v 34.89 h -22.79 v -11.42 h -22.88 z" />
      <path
         id="path432"
         style="fill:#231f20;fill-opacity:1;stroke:none"
         d="m 4336.88,3212.28 h 38.68 c 0,0 0,39.23 0,39.5 0,10.68 -8.66,19.34 -19.34,19.34 -10.68,0 -19.34,-8.66 -19.34,-19.34 0,-0.27 0,-39.5 0,-39.5" />
      <path
         id="path434"
         style="fill:#ffcc00;fill-opacity:1;stroke:#231f20;stroke-width:10;stroke-linecap:round;stroke-linejoin:round;stroke-miterlimit:3.86369;stroke-dasharray:none;stroke-opacity:1"
         d="m 4366.95,3319.81 h -22.08 v -11.42 h -22.89 v 11.42 h -22.16 v -34.89 h 112.8 v 34.89 h -22.79 v -11.42 h -22.88 z" />
      <path
         id="path436"
         style="fill:#231f20;fill-opacity:1;stroke:none"
         d="m 4656.88,3212.28 h 38.68 c 0,0 0,39.23 0,39.5 0,10.68 -8.66,19.34 -19.34,19.34 -10.68,0 -19.34,-8.66 -19.34,-19.34 0,-0.27 0,-39.5 0,-39.5" />
      <path
         id="path438"
         style="fill:#ffcc00;fill-opacity:1;stroke:#231f20;stroke-width:10;stroke-linecap:round;stroke-linejoin:round;stroke-miterlimit:3.86369;stroke-dasharray:none;stroke-opacity:1"
         d="m 4686.95,3319.81 h -22.08 v -11.42 h -22.89 v 11.42 h -22.16 v -34.89 h 112.8 v 34.89 h -22.79 v -11.42 h -22.88 z" />
      <path
         id="path440"
         style="fill:#ffcc00;fill-opacity:1;stroke:#231f20;stroke-width:10;stroke-linecap:round;stroke-linejoin:round;stroke-miterlimit:3.86369;stroke-dasharray:none;stroke-opacity:1"
         d="m 4333.14,3184.29 h -55.69 v -85.7 h 477.54 v 85.7 h -1.85 -54.24 v -41.38 h -50.76 v 41.38 h -53.84 v -41.38 h -51.16 v 41.38 h -53.84 v -41.38 h -51.16 v 41.38 h -53.84 v -41.38 h -51.16 z" />
      <path
         id="path442"
         style="fill:#ffcc00;fill-opacity:1;stroke:#231f20;stroke-width:10;stroke-linecap:round;stroke-linejoin:round;stroke-miterlimit:3.86369;stroke-dasharray:none;stroke-opacity:1"
         d="m 4754.99,2895.03 h -477.54 v -26.44 h 477.54 z" />
      <path
         id="path444"
         style="fill:#ffcc00;fill-opacity:1;stroke:#231f20;stroke-width:10;stroke-linecap:round;stroke-linejoin:round;stroke-miterlimit:3.86369;stroke-dasharray:none;stroke-opacity:1"
         d="m 4233.72,2014.27 -50.32,-87.16 17.06,-9.84 1.6,-0.93 -20.69,-35.83 44.31,-25.58 20.69,35.83 14.65,-8.46 50.32,87.15 z" />
      <path
         id="path446"
         style="fill:#ffcc00;fill-opacity:1;stroke:#231f20;stroke-width:10;stroke-linecap:round;stroke-linejoin:round;stroke-miterlimit:3.86369;stroke-dasharray:none;stroke-opacity:1"
         d="m 4510.52,1854.45 -50.31,-87.15 14.65,-8.46 -20.69,-35.83 43.96,-25.38 20.69,35.83 19.01,-10.98 50.31,87.16 z" />
      <path
         id="path448"
         style="fill:#ffcc00;fill-opacity:1;stroke:#231f20;stroke-width:10;stroke-linecap:round;stroke-linejoin:round;stroke-miterlimit:3.86369;stroke-dasharray:none;stroke-opacity:1"
         d="m 4410.05,1462.25 54.08,132.59 30.85,53.44 -354.43,204.62 -30.84,-53.43 -87.8,-113.13 z" />
      <path
         id="path450"
         style="fill:#231f20;fill-opacity:1;stroke:none"
         d="m 4177.8,1594.98 75.19,-43.41 c 0,0 44.03,76.26 44.34,76.8 11.99,20.76 4.87,47.31 -15.89,59.3 -20.76,11.99 -47.31,4.87 -59.3,-15.89 -0.31,-0.54 -44.34,-76.8 -44.34,-76.8" />
      <path
         id="path452"
         style="fill:#ffcc00;fill-opacity:1;stroke:#231f20;stroke-width:10;stroke-linecap:round;stroke-linejoin:round;stroke-miterlimit:3.86369;stroke-dasharray:none;stroke-opacity:1"
         d="m 4391.96,1969.09 -91,-157.62 15.66,-9.04 20.68,35.83 46.63,-26.92 -20.69,-35.83 15.66,-9.04 91,157.62 z" />
      <path
         id="path454"
         style="fill:#231f20;fill-opacity:1;stroke:none"
         d="m 4377.86,1893.36 33.5,-19.34 c 0,0 19.61,33.97 19.75,34.21 5.34,9.25 2.17,21.07 -7.08,26.41 -9.25,5.34 -21.08,2.18 -26.42,-7.08 -0.13,-0.24 -19.75,-34.2 -19.75,-34.2" />
      <path
         id="path456"
         style="fill:#231f20;fill-opacity:1;stroke:none"
         d="m 4368.72,1615.52 39.5,-22.81 c 0,0 23.14,40.07 23.3,40.35 6.3,10.91 2.56,24.86 -8.35,31.16 -10.91,6.3 -24.86,2.56 -31.16,-8.35 -0.16,-0.28 -23.29,-40.35 -23.29,-40.35" />
      <path
         id="path458"
         style="fill:#231f20;fill-opacity:1;stroke:none"
         d="m 4175.32,1727.18 -39.5,22.81 c 0,0 23.13,40.06 23.29,40.35 6.3,10.91 20.25,14.64 31.16,8.34 10.91,-6.29 14.65,-20.24 8.35,-31.15 -0.17,-0.28 -23.3,-40.35 -23.3,-40.35" />
      <path
         id="path460"
         style="fill:#ffcc00;fill-opacity:1;stroke:#231f20;stroke-width:10;stroke-linecap:round;stroke-linejoin:round;stroke-miterlimit:3.86369;stroke-dasharray:none;stroke-opacity:1"
         d="m 4457.66,1971.45 -19.11,11.03 -5.71,-9.89 -19.82,11.45 5.71,9.89 -19.2,11.08 -17.44,-30.22 97.68,-56.4 17.45,30.22 -19.74,11.39 -5.71,-9.89 -19.82,11.44 z" />
      <path
         id="path462"
         style="fill:#231f20;fill-opacity:1;stroke:none"
         d="m 4219.3,1938.71 33.49,-19.33 c 0,0 19.62,33.97 19.75,34.2 5.35,9.26 2.18,21.08 -7.07,26.42 -9.25,5.34 -21.08,2.17 -26.42,-7.08 -0.14,-0.24 -19.75,-34.21 -19.75,-34.21" />
      <path
         id="path464"
         style="fill:#ffcc00;fill-opacity:1;stroke:#231f20;stroke-width:10;stroke-linecap:round;stroke-linejoin:round;stroke-miterlimit:3.86369;stroke-dasharray:none;stroke-opacity:1"
         d="m 4299.1,2016.8 -19.12,11.04 -5.71,-9.89 -19.82,11.44 5.71,9.9 -19.2,11.08 -17.44,-30.22 97.69,-56.4 17.45,30.22 -19.74,11.39 -5.72,-9.89 -19.81,11.44 z" />
      <path
         id="path466"
         style="fill:#231f20;fill-opacity:1;stroke:none"
         d="m 4496.43,1778.71 33.49,-19.33 c 0,0 19.62,33.97 19.75,34.2 5.35,9.26 2.18,21.08 -7.07,26.42 -9.25,5.34 -21.08,2.17 -26.42,-7.08 -0.14,-0.24 -19.75,-34.21 -19.75,-34.21" />
      <path
         id="path468"
         style="fill:#ffcc00;fill-opacity:1;stroke:#231f20;stroke-width:10;stroke-linecap:round;stroke-linejoin:round;stroke-miterlimit:3.86369;stroke-dasharray:none;stroke-opacity:1"
         d="m 4576.23,1856.8 -19.12,11.04 -5.71,-9.89 -19.82,11.44 5.71,9.9 -19.2,11.08 -17.44,-30.22 97.69,-56.4 17.45,30.22 -19.74,11.39 -5.72,-9.89 -19.81,11.44 z" />
      <path
         id="path470"
         style="fill:#ffcc00;fill-opacity:1;stroke:#231f20;stroke-width:10;stroke-linecap:round;stroke-linejoin:round;stroke-miterlimit:3.86369;stroke-dasharray:none;stroke-opacity:1"
         d="m 4202.06,1916.34 -1.6,0.93 -45.03,25.99 -1.6,0.92 -42.84,-74.21 413.56,-238.76 42.84,74.2 -1.6,0.93 -46.97,27.12 -20.69,-35.83 -43.96,25.38 20.69,35.83 -46.63,26.92 -20.68,-35.83 -44.31,25.58 20.69,35.83 -46.63,26.92 -20.69,-35.83 -44.31,25.58 20.69,35.83 -46.62,26.92 -20.69,-35.83 -44.31,25.58 z" />
      <path
         id="path472"
         style="fill:#ffcc00;fill-opacity:1;stroke:#231f20;stroke-width:10;stroke-linecap:round;stroke-linejoin:round;stroke-miterlimit:3.86369;stroke-dasharray:none;stroke-opacity:1"
         d="m 4422.76,1454.91 -413.55,238.77 -13.22,-22.89 413.56,-238.77 z" />
      <path
         id="path474"
         style="fill:#ffcc00;fill-opacity:1;stroke:#231f20;stroke-width:10;stroke-linecap:round;stroke-linejoin:round;stroke-miterlimit:3.86369;stroke-dasharray:none;stroke-opacity:1"
         d="m 2762.15,1104.92 v -100.63 h 21.55 v -41.376 h 51.16 v 41.376 h 16.92 v 100.63 z" />
      <path
         id="path476"
         style="fill:#ffcc00;fill-opacity:1;stroke:#231f20;stroke-width:10;stroke-linecap:round;stroke-linejoin:round;stroke-miterlimit:3.86369;stroke-dasharray:none;stroke-opacity:1"
         d="m 3081.78,1104.92 v -100.63 h 16.92 v -41.376 h 50.76 v 41.376 h 21.94 v 100.63 z" />
      <path
         id="path478"
         style="fill:#ffcc00;fill-opacity:1;stroke:#231f20;stroke-width:10;stroke-linecap:round;stroke-linejoin:round;stroke-miterlimit:3.86369;stroke-dasharray:none;stroke-opacity:1"
         d="m 3190.87,715.031 -19.47,141.867 v 61.696 h -409.25 v -61.696 l -19.47,-141.867 z" />
      <path
         id="path480"
         style="fill:#231f20;fill-opacity:1;stroke:none"
         d="m 2923.37,713.855 h 86.82 c 0,0 0,88.055 0,88.672 0,23.977 -19.44,43.414 -43.41,43.414 -23.98,0 -43.41,-19.437 -43.41,-43.414 0,-0.617 0,-88.672 0,-88.672" />
      <path
         id="path482"
         style="fill:#ffcc00;fill-opacity:1;stroke:#231f20;stroke-width:10;stroke-linecap:round;stroke-linejoin:round;stroke-miterlimit:3.86369;stroke-dasharray:none;stroke-opacity:1"
         d="M 2921.78,1144.92 V 962.914 h 18.08 v 41.376 h 53.84 v -41.376 h 18.08 v 182.006 z" />
      <path
         id="path484"
         style="fill:#231f20;fill-opacity:1;stroke:none"
         d="m 2947.44,1072.28 h 38.68 c 0,0 0,39.23 0,39.5 0,10.68 -8.66,19.34 -19.34,19.34 -10.69,0 -19.34,-8.66 -19.34,-19.34 0,-0.27 0,-39.5 0,-39.5" />
      <path
         id="path486"
         style="fill:#231f20;fill-opacity:1;stroke:none"
         d="m 3078.43,827.098 h 45.62 c 0,0 0,46.265 0,46.59 0,12.597 -10.21,22.812 -22.81,22.812 -12.6,0 -22.81,-10.215 -22.81,-22.812 0,-0.325 0,-46.59 0,-46.59" />
      <path
         id="path488"
         style="fill:#231f20;fill-opacity:1;stroke:none"
         d="m 2855.12,827.098 h -45.62 c 0,0 0,46.265 0,46.59 0,12.597 10.21,22.812 22.81,22.812 12.6,0 22.81,-10.215 22.81,-22.812 0,-0.325 0,-46.59 0,-46.59" />
      <path
         id="path490"
         style="fill:#ffcc00;fill-opacity:1;stroke:#231f20;stroke-width:10;stroke-linecap:round;stroke-linejoin:round;stroke-miterlimit:3.86369;stroke-dasharray:none;stroke-opacity:1"
         d="m 2977.5,1179.81 h -22.07 v -11.42 h -22.89 v 11.42 h -22.16 v -34.89 h 112.8 v 34.89 h -22.8 v -11.42 h -22.88 z" />
      <path
         id="path492"
         style="fill:#231f20;fill-opacity:1;stroke:none"
         d="m 2787.44,1032.28 h 38.68 c 0,0 0,39.23 0,39.5 0,10.68 -8.66,19.34 -19.34,19.34 -10.69,0 -19.34,-8.66 -19.34,-19.34 0,-0.27 0,-39.5 0,-39.5" />
      <path
         id="path494"
         style="fill:#ffcc00;fill-opacity:1;stroke:#231f20;stroke-width:10;stroke-linecap:round;stroke-linejoin:round;stroke-miterlimit:3.86369;stroke-dasharray:none;stroke-opacity:1"
         d="m 2817.5,1139.81 h -22.07 v -11.42 h -22.89 v 11.42 h -22.16 v -34.89 h 112.8 v 34.89 h -22.8 v -11.42 h -22.88 z" />
      <path
         id="path496"
         style="fill:#231f20;fill-opacity:1;stroke:none"
         d="m 3107.44,1032.28 h 38.68 c 0,0 0,39.23 0,39.5 0,10.68 -8.66,19.34 -19.34,19.34 -10.69,0 -19.34,-8.66 -19.34,-19.34 0,-0.27 0,-39.5 0,-39.5" />
      <path
         id="path498"
         style="fill:#ffcc00;fill-opacity:1;stroke:#231f20;stroke-width:10;stroke-linecap:round;stroke-linejoin:round;stroke-miterlimit:3.86369;stroke-dasharray:none;stroke-opacity:1"
         d="m 3137.5,1139.81 h -22.07 v -11.42 h -22.89 v 11.42 h -22.16 v -34.89 h 112.8 v 34.89 h -22.8 v -11.42 h -22.88 z" />
      <path
         id="path500"
         style="fill:#ffcc00;fill-opacity:1;stroke:#231f20;stroke-width:10;stroke-linecap:round;stroke-linejoin:round;stroke-miterlimit:3.86369;stroke-dasharray:none;stroke-opacity:1"
         d="m 2783.7,1004.29 h -55.69 v -85.696 h 477.53 v 85.696 h -1.84 -54.24 v -41.38 h -50.76 v 41.38 h -53.84 v -41.38 h -51.16 v 41.38 h -53.84 v -41.38 h -51.16 v 41.38 h -53.84 v -41.38 h -51.16 z" />
      <path
         id="path502"
         style="fill:#ffcc00;fill-opacity:1;stroke:#231f20;stroke-width:10;stroke-linecap:round;stroke-linejoin:round;stroke-miterlimit:3.86369;stroke-dasharray:none;stroke-opacity:1"
         d="m 3205.54,715.027 h -477.53 v -26.433 h 477.53 z" />
    </g>
  </g>
</svg>
