<?xml version="1.0" encoding="utf-8"?>
<!-- Generator: Adobe Illustrator 24.1.1, SVG Export Plug-In . SVG Version: 6.00 Build 0)  -->
<svg version="1.1"
	 id="svg1901" inkscape:version="0.44.1" sodipodi:docbase="C:\Documents and Settings\Greg\Mes documents" sodipodi:docname="Flag_of_Alsace.svg" sodipodi:version="0.32" xmlns:cc="http://web.resource.org/cc/" xmlns:dc="http://purl.org/dc/elements/1.1/" xmlns:inkscape="http://www.inkscape.org/namespaces/inkscape" xmlns:rdf="http://www.w3.org/1999/02/22-rdf-syntax-ns#" xmlns:sodipodi="http://sodipodi.sourceforge.net/DTD/sodipodi-0.dtd" xmlns:svg="http://www.w3.org/2000/svg"
	 xmlns="http://www.w3.org/2000/svg" xmlns:xlink="http://www.w3.org/1999/xlink" x="0px" y="0px" viewBox="0 0 738.6 492.4"
	 style="enable-background:new 0 0 738.6 492.4;" xml:space="preserve">
<style type="text/css">
	.st0{fill:#FFFFFF;}
	.st1{fill:#ED2939;}
	.st2{fill:#FFD203;}
</style>
<sodipodi:namedview  bordercolor="#666666" borderopacity="1.0" gridtolerance="10.0" guidetolerance="10.0" id="base" inkscape:current-layer="g4348" inkscape:cx="369.28571" inkscape:cy="246.19048" inkscape:pageopacity="0.0" inkscape:pageshadow="2" inkscape:window-height="779" inkscape:window-width="1280" inkscape:window-x="-4" inkscape:window-y="-4" inkscape:zoom="0.76566731" objecttolerance="10.0" pagecolor="#ffffff">
	</sodipodi:namedview>
<g>
	<rect id="rect4367" class="st0" width="738.6" height="492.4"/>
	<g>
		<path class="st1" d="M8.5,196.2L8.5,196.2c-1.7-0.3-3.2-0.9-4.6-1.7l-0.5-0.3c-1.4-0.8-2.5-1.7-3.4-2.7v9.2c1.4-1.4,3.4-2.6,6-3.8
			L8.5,196.2z"/>
		<path class="st1" d="M517.8,468.5c0.6-19.3-28-19-32.6-9.5l0,0.1l0.1,0c4.5-3.8,9-4.5,13.2-2c3.3,1.9,4.9,5.2,4.6,9.7
			c-0.2,1.4-0.7,2.7-1.3,3.7c-2.3,4.1-6.1,5.6-11.2,4.6c-1.3-0.5-2.4-0.9-3.2-1.5l-0.2-0.1c-1.5-0.9-2.8-1.9-3.9-3.2l-0.1,0l0,0.1
			c0.8,2.1,1,3.9,0.8,5.4c-0.1,2.5-0.5,4.5-1.3,5.9l-0.2,0.4c-2,3.5-5.4,5.1-10.3,4.7c-1.4-0.4-2.5-0.8-3.2-1.2l11.9,6.9h42.6
			c-0.7-1.6-1.1-3.4-0.9-5.4c0.3-1.4,0.7-2.6,1.3-3.7c2.1-3.6,5.5-5.2,10.2-4.9c0.8,0.2,1.9,0.6,3.2,1.2c4.2,2.4,5.8,6.6,4.8,12.4
			l0,0.1l0-0.1C548.1,483.3,534.1,458.4,517.8,468.5z"/>
		<path class="st1" d="M51.1,199c0.6-19.2-28-18.9-32.6-9.4l0,0.1l0.1,0c4.5-3.8,9-4.5,13.2-2c3.3,1.9,4.9,5.2,4.6,9.7
			c-0.2,1.4-0.7,2.7-1.3,3.7c-2.4,4.1-6.1,5.6-11.2,4.6c-1.3-0.5-2.4-0.9-3.2-1.5l-0.2-0.1c-1.5-0.9-2.8-1.9-3.9-3.2l-0.1,0l0,0.1
			c0.8,2.1,1,3.9,0.8,5.4c-0.1,2.5-0.5,4.5-1.3,5.9l-0.2,0.4c-2,3.5-5.4,5.1-10.3,4.7c-1.4-0.4-2.5-0.8-3.1-1.2l0,0
			c-0.9-0.5-1.6-1.1-2.3-1.8v278h480.8l-65.7-37.9l-4.3-2.5c0,0,0.1,0,0.1,0.1l-0.3-0.2c-3.6-2.2-5.2-5.7-4.7-10.6
			c0.3-1,0.7-2.1,1.2-3.1c1.2-2,3.6-3.9,7.3-5.4l2.5-0.7l-0.1,0c-1.6-0.3-3.1-0.8-4.6-1.7l-0.5-0.3c-4.2-2.4-6.1-5.9-5.7-10.4
			c0.3-1.4,0.7-2.6,1.3-3.6c2.1-3.6,5.5-5.2,10.2-4.9c0.8,0.2,1.9,0.6,3.2,1.2c4.2,2.4,5.8,6.6,4.8,12.4l0,0.1l0-0.1
			c5.9-8.7-8.1-33.7-24.5-23.6c0.5-19.3-28.1-19-32.7-9.5l0,0.1l0.1,0c4.5-3.8,9-4.5,13.2-2c3.3,1.9,4.9,5.2,4.6,9.7
			c-0.2,1.4-0.7,2.7-1.3,3.7c-2.3,4.1-6.1,5.6-11.2,4.6c-1.3-0.5-2.4-0.9-3.2-1.5l-0.2-0.1c-1.5-0.9-2.8-1.9-3.9-3.2l-0.1,0l0,0.1
			c0.8,2.1,1,3.9,0.8,5.4c-0.1,2.5-0.5,4.5-1.3,5.9l-0.2,0.4c-2,3.5-5.4,5.1-10.3,4.7c-1.1-0.3-2-0.6-2.7-0.9l-0.9-0.5
			c-3.5-2.2-5-5.7-4.5-10.5c0.3-1,0.7-2.1,1.2-3.1c1.2-2,3.6-3.9,7.3-5.4l2.5-0.7l-0.1,0c-1.6-0.3-3.1-0.8-4.6-1.7l-0.5-0.3
			c-4.2-2.4-6.1-5.9-5.7-10.4c0.3-1.4,0.7-2.6,1.3-3.6c2.1-3.6,5.5-5.2,10.2-4.9c0.8,0.2,1.9,0.6,3.2,1.2c4.2,2.4,5.8,6.6,4.8,12.4
			l0,0.1l0-0.1c5.9-8.7-8.1-33.7-24.5-23.6c0.5-19.3-28.1-19-32.7-9.5l0,0.1l0.1,0c4.5-3.8,9-4.5,13.2-2c3.3,1.9,4.9,5.2,4.6,9.7
			c-0.2,1.4-0.7,2.7-1.3,3.7c-2.4,4.1-6.1,5.6-11.2,4.6c-1.3-0.5-2.4-0.9-3.2-1.5l-0.2-0.1c-1.5-0.9-2.8-1.9-3.9-3.2l-0.1,0l0,0.1
			c0.8,2.1,1,3.9,0.8,5.4c-0.1,2.5-0.5,4.5-1.3,5.9l-0.2,0.4c-2,3.5-5.4,5.1-10.3,4.7c-1-0.3-1.8-0.5-2.5-0.8l-1.3-0.8
			c-3.3-2.2-4.7-5.6-4.2-10.3c0.3-1,0.7-2.1,1.2-3.1c1.2-2,3.6-3.9,7.3-5.4l2.5-0.7l-0.1,0c-1.6-0.3-3.1-0.8-4.6-1.7l-0.5-0.3
			c-4.2-2.4-6.1-5.9-5.7-10.4c0.3-1.4,0.7-2.6,1.3-3.6c2.1-3.6,5.5-5.2,10.2-4.9c0.8,0.2,1.9,0.6,3.2,1.2c4.2,2.4,5.8,6.6,4.8,12.4
			l0,0.1l0-0.1c5.9-8.7-8.1-33.7-24.4-23.6c0.6-19.3-28-19-32.6-9.5l0,0.1l0.1,0c4.5-3.8,9-4.5,13.2-2c3.3,1.9,4.9,5.2,4.6,9.7
			c-0.2,1.4-0.7,2.7-1.3,3.7c-2.4,4.1-6.1,5.6-11.2,4.6c-1.3-0.5-2.4-0.9-3.2-1.5l-0.2-0.1c-1.5-0.9-2.8-1.9-3.9-3.2l-0.1,0l0,0.1
			c0.8,2.1,1,3.9,0.8,5.4c-0.1,2.5-0.5,4.5-1.3,5.9l-0.2,0.4c-2,3.5-5.4,5.1-10.3,4.7c-1.4-0.4-2.5-0.8-3.2-1.2l29.1,16.9
			l-55.8-32.2l26.7,15.4c-3.7-2.2-5.3-5.7-4.8-10.7c0.3-1,0.7-2.1,1.2-3.1c1.2-2,3.6-3.9,7.3-5.4l2.5-0.7l-0.1,0
			c-1.6-0.3-3.1-0.8-4.6-1.7l-0.5-0.3c-4.2-2.4-6.1-5.9-5.7-10.4c0.3-1.4,0.7-2.6,1.3-3.6c2.1-3.6,5.5-5.2,10.2-4.9
			c0.8,0.2,1.9,0.6,3.2,1.2c4.2,2.4,5.8,6.6,4.8,12.4l0,0.1l0-0.1c5.9-8.7-8.1-33.7-24.4-23.5c0.6-19.2-28-18.8-32.6-9.4l0,0.1
			l0.1,0c4.5-3.8,9-4.5,13.2-2c3.3,1.9,4.9,5.2,4.6,9.7c-0.2,1.4-0.7,2.7-1.3,3.7c-2.4,4.1-6.1,5.6-11.2,4.6
			c-1.3-0.5-2.4-0.9-3.2-1.5l-0.2-0.1c-1.5-0.9-2.8-1.9-3.9-3.2l-0.1,0l0,0.1c0.8,2.1,1,3.9,0.8,5.4c-0.1,2.5-0.5,4.5-1.3,5.9
			l-0.2,0.4c-2,3.5-5.4,5.1-10.3,4.7c-1-0.3-1.8-0.5-2.4-0.8l-1.5-0.9c-3.2-2.2-4.6-5.6-4.1-10.2c0.3-1,0.7-2.1,1.2-3.1
			c1.2-2,3.6-3.9,7.3-5.4l2.5-0.7l-0.1,0c-1.6-0.3-3.1-0.8-4.6-1.7l-0.5-0.3c-4.2-2.4-6.1-5.9-5.7-10.4c0.3-1.4,0.7-2.6,1.3-3.7
			c2.1-3.6,5.5-5.2,10.2-4.9c0.8,0.2,1.9,0.6,3.2,1.2c4.2,2.4,5.8,6.6,4.8,12.4l0,0.1l0-0.1c5.9-8.7-8.1-33.7-24.5-23.6
			c0.6-19.3-28-19-32.6-9.5l0,0.1l0.1,0c4.5-3.8,9-4.5,13.2-2c3.3,1.9,4.9,5.2,4.6,9.7c-0.2,1.4-0.7,2.7-1.3,3.7
			c-2.4,4.1-6.1,5.6-11.2,4.6c-1.3-0.5-2.4-0.9-3.2-1.5l-0.2-0.1c-1.5-0.9-2.8-1.9-3.9-3.2l-0.1,0l0,0.1c0.8,2.1,1,3.9,0.8,5.4
			c-0.1,2.5-0.5,4.5-1.3,5.9l-0.2,0.4c-2,3.5-5.4,5.1-10.3,4.7c-1.4-0.4-2.5-0.8-3.2-1.2l5.2,3L3.3,216.7l57.3,33
			c-3.7-2.2-5.3-5.7-4.8-10.7c0.3-1,0.7-2.1,1.2-3.1c1.2-2,3.6-3.9,7.3-5.4l2.5-0.7l-0.1,0c-1.6-0.3-3.1-0.8-4.6-1.7l-0.5-0.3
			c-4.2-2.4-6.1-5.9-5.7-10.3c0.3-1.4,0.7-2.6,1.3-3.7c2.1-3.6,5.5-5.2,10.2-4.9c0.8,0.2,1.9,0.6,3.2,1.2c4.2,2.4,5.8,6.6,4.8,12.4
			l0,0.1l0-0.1C81.4,213.8,67.4,188.9,51.1,199z"/>
		<path class="st1" d="M0,162.3v16.5c2.1-2.5,5.1-3.7,9.1-3.5c0.8,0.2,1.9,0.6,3.2,1.2c4.2,2.4,5.8,6.6,4.8,12.4l0,0.1l0-0.1
			C22.1,181.6,13.1,163,0,162.3z"/>
		<path class="st1" d="M469,485.5c-3.7-2.2-5.3-5.7-4.8-10.7c0.3-1,0.7-2.1,1.2-3.1c1.2-2,3.6-3.9,7.3-5.4l2.5-0.7l-0.1,0
			c-1.6-0.3-3.1-0.8-4.6-1.7l-0.5-0.3c-4.2-2.4-6.1-5.9-5.7-10.4c0.3-1.4,0.7-2.6,1.3-3.6c2.1-3.6,5.5-5.2,10.2-4.9
			c0.8,0.2,1.9,0.6,3.2,1.2c4.2,2.4,5.8,6.6,4.8,12.4l0,0.1l0-0.1c5.9-8.7-8.1-33.7-24.4-23.5c0.6-19.2-28-18.8-32.6-9.4l0,0.1
			l0.1,0c4.5-3.8,9-4.5,13.2-2c3.3,1.9,4.9,5.2,4.6,9.7c-0.2,1.4-0.7,2.7-1.3,3.7c-2.3,4.1-6.1,5.6-11.2,4.6
			c-1.3-0.5-2.4-0.9-3.2-1.5l-0.2-0.1c-1.5-0.9-2.8-1.9-3.9-3.2l-0.1,0l0,0.1c0.8,2.1,1,3.9,0.8,5.4c-0.1,2.5-0.5,4.5-1.3,5.9
			l-0.2,0.4c-2,3.5-5.4,5.1-10.3,4.7c-1.4-0.4-2.4-0.7-3-1.1l4.2,2.4L469,485.5z"/>
		<path class="st1" d="M133.8,256.4L133.8,256.4c6-8.8-8-33.7-24.4-23.7c0.6-19.3-28-19-32.6-9.5l0,0.1l0.1,0c4.5-3.8,9-4.5,13.2-2
			c3.3,1.9,4.9,5.2,4.6,9.7c-0.2,1.4-0.7,2.7-1.3,3.7c-2.4,4.1-6.1,5.6-11.2,4.6c-1.3-0.5-2.4-0.9-3.2-1.5l-0.2-0.1
			c-1.5-0.9-2.8-1.9-3.9-3.2l-0.1,0l0,0.1c0.8,2.1,1,3.9,0.8,5.4c-0.1,2.5-0.5,4.5-1.3,5.9l-0.2,0.4c-2,3.5-5.4,5.1-10.3,4.7
			c-1.4-0.4-2.5-0.8-3.2-1.2l58.3,33.8c-3.7-2.2-5.3-5.7-4.8-10.7c0.3-1,0.7-2.1,1.2-3.1c1.2-2,3.6-3.9,7.3-5.4l2.5-0.7l-0.1,0
			c-1.6-0.3-3.1-0.8-4.6-1.7l-0.5-0.3c-4.2-2.4-6.1-5.9-5.7-10.4c0.3-1.4,0.7-2.6,1.3-3.6c2.1-3.6,5.5-5.2,10.2-4.9
			c0.8,0.2,1.9,0.6,3.2,1.2c4.2,2.4,5.8,6.6,4.8,12.4L133.8,256.4z"/>
		<path class="st1" d="M601.5,242.9L601.5,242.9c-6,8.8,8,33.7,24.4,23.7c-0.6,19.3,28,19,32.6,9.5l0-0.1l-0.1,0
			c-4.5,3.8-9,4.5-13.2,2c-3.3-1.9-4.9-5.2-4.6-9.7c0.2-1.4,0.7-2.7,1.3-3.7c2.3-4.1,6.1-5.6,11.2-4.6c1.3,0.5,2.4,0.9,3.2,1.5
			l0.2,0.1c1.5,0.9,2.8,1.9,3.9,3.2l0.1,0l0-0.1c-0.8-2.1-1-3.9-0.8-5.4c0.1-2.5,0.5-4.5,1.3-5.9l0.2-0.4c2-3.5,5.4-5.1,10.3-4.7
			c1.4,0.4,2.5,0.8,3.2,1.2l-58.3-33.8c3.7,2.2,5.3,5.7,4.8,10.7c-0.3,1-0.7,2.1-1.2,3.1c-1.2,2-3.6,3.9-7.3,5.4l-2.5,0.7l0.1,0
			c1.6,0.3,3.1,0.8,4.6,1.7l0.5,0.3c4.2,2.4,6.1,5.9,5.7,10.3c-0.3,1.4-0.7,2.6-1.3,3.7c-2.1,3.6-5.5,5.2-10.2,4.9
			c-0.8-0.2-1.9-0.6-3.2-1.2c-4.2-2.4-5.8-6.6-4.8-12.4L601.5,242.9z"/>
		<path class="st1" d="M319.2,44.2l5.3,3.1c0,0-0.1-0.1-0.2-0.1l0.3,0.2c3.7,2.2,5.3,5.7,4.7,10.7c-0.3,1-0.7,2.1-1.2,3.1
			c-1.2,2-3.6,3.9-7.3,5.4l-2.5,0.7l0.1,0c1.6,0.3,3.1,0.8,4.6,1.7l0.5,0.3c4.2,2.4,6.1,5.9,5.7,10.3c-0.3,1.4-0.7,2.6-1.3,3.7
			c-2.1,3.6-5.5,5.2-10.2,4.9c-0.8-0.2-1.9-0.6-3.2-1.2c-4.2-2.4-5.8-6.6-4.8-12.4l0-0.1l0,0.1c-5.9,8.7,8.1,33.7,24.5,23.6
			c-0.5,19.3,28.1,19,32.7,9.5l0-0.1l-0.1,0c-4.5,3.8-9,4.5-13.2,2c-3.3-1.9-4.9-5.2-4.6-9.7c0.3-1.4,0.7-2.7,1.3-3.7
			c2.4-4.1,6.1-5.6,11.2-4.6c1.3,0.5,2.4,0.9,3.2,1.5l0.2,0.1c1.5,0.9,2.8,1.9,3.9,3.2l0.1,0l0-0.1c-0.8-2.1-1-3.9-0.8-5.4
			c0.1-2.5,0.5-4.5,1.3-5.9l0.2-0.4c2-3.5,5.4-5.1,10.3-4.7c1.1,0.3,2,0.6,2.7,0.9l0.9,0.5c3.5,2.2,5,5.7,4.5,10.5
			c-0.3,1-0.7,2.1-1.2,3.1c-1.2,2-3.6,3.9-7.3,5.4l-2.5,0.7l0.1,0c1.6,0.3,3.1,0.8,4.6,1.7l0.5,0.3c4.2,2.4,6.1,5.9,5.7,10.3
			c-0.3,1.4-0.7,2.6-1.3,3.7c-2.1,3.6-5.5,5.2-10.2,4.9c-0.8-0.2-1.9-0.6-3.2-1.2c-4.2-2.4-5.8-6.6-4.8-12.4l0-0.1l0,0.1
			c-5.9,8.7,8.1,33.7,24.5,23.6c-0.5,19.3,28.1,19,32.7,9.5l0-0.1l-0.1,0c-4.5,3.8-9,4.5-13.2,2c-3.3-1.9-4.9-5.2-4.6-9.7
			c0.3-1.4,0.7-2.7,1.3-3.7c2.4-4.1,6.1-5.6,11.2-4.6c1.3,0.5,2.4,0.9,3.3,1.5l0.2,0.1c1.5,0.9,2.8,1.9,3.9,3.2l0.1,0l0-0.1
			c-0.8-2.1-1-3.9-0.8-5.4c0.1-2.5,0.5-4.5,1.3-5.9l0.2-0.4c2-3.5,5.4-5.1,10.3-4.7c1,0.3,1.8,0.6,2.5,0.8l1.3,0.8
			c3.3,2.2,4.7,5.6,4.2,10.3c-0.3,1-0.7,2.1-1.2,3.1c-1.2,2-3.6,3.9-7.3,5.4l-2.5,0.7l0.1,0c1.6,0.3,3.1,0.8,4.6,1.7l0.5,0.3
			c4.2,2.4,6.1,5.9,5.7,10.4c-0.3,1.4-0.7,2.6-1.3,3.7c-2.1,3.6-5.5,5.2-10.2,4.9c-0.8-0.2-1.9-0.6-3.2-1.2
			c-4.2-2.4-5.8-6.6-4.8-12.4l0-0.1l0,0.1c-5.9,8.7,8.1,33.7,24.4,23.6c-0.6,19.3,28,19,32.6,9.5l0-0.1l-0.1,0
			c-4.5,3.8-9,4.5-13.2,2c-3.3-1.9-4.9-5.2-4.6-9.7c0.3-1.4,0.7-2.7,1.3-3.7c2.4-4.1,6.1-5.6,11.2-4.6c1.3,0.5,2.4,0.9,3.3,1.5
			l0.2,0.1c1.5,0.9,2.8,1.9,3.9,3.2l0.1,0l0-0.1c-0.8-2.1-1-3.9-0.8-5.4c0.1-2.5,0.5-4.5,1.3-5.9l0.2-0.4c2-3.5,5.4-5.1,10.3-4.7
			c1.4,0.4,2.5,0.8,3.2,1.2l-29.3-17l56.3,32.5l-27-15.5c3.7,2.2,5.3,5.7,4.8,10.7c-0.3,1-0.7,2.1-1.2,3.1c-1.2,2-3.6,3.9-7.3,5.4
			l-2.5,0.7l0.1,0c1.6,0.3,3.1,0.8,4.6,1.7l0.5,0.3c4.2,2.4,6.1,5.9,5.7,10.4c-0.3,1.4-0.7,2.6-1.3,3.7c-2.1,3.6-5.5,5.2-10.2,4.9
			c-0.8-0.2-1.9-0.6-3.2-1.2c-4.2-2.4-5.8-6.6-4.8-12.4l0-0.1l0,0.1c-5.9,8.7,8.1,33.7,24.4,23.5c-0.6,19.2,28,18.8,32.6,9.4l0-0.1
			l-0.1,0c-4.5,3.8-9,4.5-13.2,2c-3.3-1.9-4.9-5.2-4.6-9.7c0.3-1.4,0.7-2.7,1.3-3.7c2.4-4.1,6.1-5.6,11.2-4.6
			c1.3,0.5,2.4,0.9,3.3,1.5l0.2,0.1c1.5,0.9,2.8,1.9,3.9,3.2l0.1,0l0-0.1c-0.8-2.1-1-3.9-0.8-5.4c0.1-2.5,0.5-4.5,1.3-5.9l0.2-0.4
			c2-3.5,5.4-5.1,10.3-4.7c1,0.3,1.8,0.5,2.4,0.8l1.5,0.9c3.2,2.2,4.6,5.6,4.1,10.2c-0.3,1-0.7,2.1-1.2,3.1c-1.2,2-3.6,3.9-7.3,5.4
			l-2.5,0.7l0.1,0c1.6,0.3,3.1,0.8,4.6,1.7l0.5,0.3c4.2,2.4,6.1,5.9,5.7,10.4c-0.3,1.4-0.7,2.6-1.3,3.7c-2.1,3.6-5.5,5.2-10.2,4.9
			c-0.8-0.2-1.9-0.6-3.2-1.2c-4.2-2.4-5.8-6.6-4.8-12.4l0-0.1l0,0.1c-5.9,8.7,8.1,33.7,24.5,23.6c-0.6,19.3,28,19,32.6,9.5l0-0.1
			l-0.1,0c-4.5,3.8-9,4.5-13.2,2c-3.3-1.9-4.9-5.2-4.6-9.7c0.2-1.4,0.7-2.7,1.3-3.7c2.4-4.1,6.1-5.6,11.2-4.6
			c1.3,0.5,2.4,0.9,3.2,1.5l0.2,0.1c1.5,0.9,2.8,1.9,3.9,3.2l0.1,0l0-0.1c-0.8-2.1-1-3.9-0.8-5.4c0.1-2.5,0.5-4.5,1.3-5.9l0.2-0.4
			c2-3.5,5.4-5.1,10.3-4.7c1.4,0.4,2.5,0.8,3.2,1.2l-5.5-3.2L732.8,283l-58.1-33.4c3.7,2.2,5.3,5.7,4.8,10.7c-0.3,1-0.7,2.1-1.2,3.1
			c-1.2,2-3.6,3.9-7.3,5.4l-2.5,0.7l0.1,0c1.6,0.3,3.1,0.8,4.6,1.7l0.5,0.3c4.2,2.4,6.1,5.9,5.7,10.4c-0.3,1.4-0.7,2.6-1.3,3.6
			c-2.1,3.6-5.5,5.2-10.2,4.9c-0.8-0.2-1.9-0.6-3.2-1.2c-4.2-2.4-5.8-6.6-4.8-12.4l0-0.1l0,0.1c-5.9,8.7,8.1,33.7,24.5,23.5
			c-0.6,19.2,28,18.9,32.6,9.4l0-0.1l-0.1,0c-4.5,3.8-9,4.5-13.2,2c-3.3-1.9-4.9-5.2-4.6-9.7c0.3-1.4,0.7-2.7,1.3-3.7
			c2.3-4.1,6.1-5.6,11.2-4.6c1.3,0.5,2.4,0.9,3.2,1.5l0.2,0.1c1.5,0.9,2.8,1.9,3.9,3.2l0.1,0l0-0.1c-0.8-2.1-1-3.9-0.8-5.4
			c0.1-2.5,0.5-4.5,1.3-5.9l0.2-0.4c2-3.5,5.4-5.1,10.3-4.7c1.4,0.4,2.5,0.8,3.2,1.2l0,0c3.7,2.2,5.3,5.7,4.8,10.7
			c-0.3,1-0.7,2.1-1.2,3.1c-1.2,2-3.6,3.9-7.3,5.4l-2.5,0.7l0.1,0c1.6,0.3,3.1,0.8,4.6,1.7l0.5,0.3c4.2,2.4,6.1,5.9,5.7,10.4
			c-0.3,1.4-0.7,2.6-1.3,3.7c-2.1,3.6-5.5,5.2-10.2,4.9c-0.8-0.2-1.9-0.6-3.2-1.2c-4.2-2.4-5.8-6.6-4.8-12.4l0-0.1l0,0.1
			c-5.3,7.9,5.6,29.1,20.4,26.5V0h-496L319.2,44.2z"/>
		<path class="st1" d="M217.6,30.8c-0.6,19.3,28,19,32.6,9.5l0-0.1l-0.1,0c-4.5,3.8-9,4.5-13.2,2c-3.3-1.9-4.9-5.2-4.6-9.7
			c0.3-1.4,0.7-2.7,1.3-3.7c2.4-4.1,6.1-5.6,11.2-4.6c1.3,0.5,2.4,0.9,3.2,1.5l0.2,0.1c1.5,0.9,2.8,1.9,3.9,3.2l0.1,0l0-0.1
			c-0.8-2.1-1-3.9-0.8-5.4c0.1-2.5,0.5-4.5,1.3-5.9l0.2-0.4c2-3.5,5.4-5.1,10.3-4.7c1.4,0.4,2.5,0.8,3.2,1.2L242.5,0h-40.6
			c1.6,0.3,3.1,0.8,4.6,1.7l0.5,0.3c4.2,2.4,6.1,5.9,5.7,10.3c-0.3,1.4-0.7,2.6-1.3,3.7c-2.1,3.6-5.5,5.2-10.2,4.9
			c-0.8-0.2-1.9-0.6-3.2-1.2c-4.2-2.4-5.8-6.6-4.8-12.4l0-0.1l0,0.1C187.2,16,201.2,40.9,217.6,30.8z"/>
		<path class="st1" d="M159.3,0c2.4,16.3,28.2,15.5,32.5,6.5l0-0.1l-0.1,0c-4.5,3.8-9,4.5-13.2,2c-3-1.7-4.6-4.6-4.6-8.5H159.3z"/>
		<polygon class="st1" points="738.6,376.1 87.1,0 62.3,0 61.5,1.4 738.6,392.3 		"/>
		<path class="st1" d="M266.3,13.8c3.7,2.2,5.3,5.7,4.8,10.7c-0.3,1-0.7,2.1-1.2,3.1c-1.2,2-3.6,3.9-7.3,5.4l-2.5,0.7l0.1,0
			c1.6,0.3,3.1,0.8,4.6,1.7l0.5,0.3c4.2,2.4,6.1,5.9,5.7,10.3c-0.3,1.4-0.7,2.6-1.3,3.7c-2.1,3.6-5.5,5.2-10.2,4.9
			c-0.8-0.2-1.9-0.6-3.2-1.2c-4.2-2.4-5.8-6.6-4.8-12.4l0-0.1l0,0.1c-5.9,8.7,8.1,33.7,24.4,23.5c-0.6,19.2,28,18.8,32.6,9.4l0-0.1
			l-0.1,0c-4.5,3.8-9,4.5-13.2,2c-3.3-1.9-4.9-5.2-4.6-9.7c0.3-1.4,0.7-2.7,1.3-3.7c2.4-4.1,6.1-5.6,11.2-4.6
			c1.3,0.5,2.4,0.9,3.2,1.5l0.2,0.1c1.5,0.9,2.8,1.9,3.9,3.2l0.1,0l0-0.1c-0.8-2.1-1-3.9-0.8-5.4c0.1-2.5,0.5-4.5,1.3-5.9l0.2-0.4
			c2-3.5,5.4-5.1,10.3-4.7c1.3,0.4,2.3,0.7,3,1.1l-5.1-3L266.3,13.8z"/>
		<polygon class="st1" points="0,108.8 0,125 636.3,492.4 664.3,492.4 		"/>
		<path class="st1" d="M543.7,492.4h0.4c4.3-3.4,8.6-3.9,12.6-1.6c0.8,0.4,1.4,1,2,1.6H573C565.6,483.6,547.7,485.2,543.7,492.4z"/>
	</g>
	<path id="path4365" sodipodi:nodetypes="cccccccccccscscccccccccccccccccsccccccccc" class="st2" d="M69.2,344.6
		c0.5,0.3,1.3,0.6,2.4,0.9c3.6,0.3,6.2-0.9,7.7-3.6l0.2-0.3c0.6-1.1,0.9-2.5,1-4.4c0.1-1.1-0.1-2.5-0.6-4l0-0.1l0.1,0
		c0.8,1,1.8,1.8,2.9,2.4l0.2,0.1c0.7,0.4,1.5,0.8,2.4,1.1c3.9,0.8,6.7-0.4,8.4-3.4c0.4-0.8,0.8-1.7,0.9-2.8c0.2-3.4-1-5.8-3.5-7.3
		c-3.2-1.9-6.5-1.3-9.9,1.5l-0.1,0c11.2-15.2,25.8,1.4,22.9,6.7c7.8-5.3,15.1-0.5,14.9,7c-2.5,8-9.2,6.8-15.2,4.7
		c8.2,8,17.5,28.6,16.2,36.9l14.6-56.6l-79.4-46.7l-40.7,42.5c6.5-5.3,27.7-8.8,38.8-5.6c-4.8-4.2-9.1-9.3-3.5-15.5
		c6.3-3.8,14.2,0,13.5,9.4c3-5.1,24.8-0.8,17.2,16.6l-0.1,0.2l-0.1,0c0.8-4.4-0.5-7.4-3.6-9.3c-1-0.5-1.8-0.8-2.4-0.9
		c-3.5-0.2-6.1,1-7.6,3.7c-0.5,0.8-0.8,1.7-1,2.7c-0.3,3.4,1.2,6,4.3,7.8l0.4,0.2c1.1,0.6,2.2,1,3.4,1.2l0.1,0l-1.9,0.5
		c-2.8,1.2-4.6,2.5-5.5,4.1c-0.4,0.8-0.7,1.5-0.9,2.3C65.2,340.3,66.4,343,69.2,344.6"/>
	<path id="path1887" sodipodi:nodetypes="cccccccccccscscccccccccccccccccsccccccccc" class="st2" d="M117.4,455.1
		c0.5,0.3,1.3,0.6,2.4,0.9c3.6,0.3,6.2-0.9,7.7-3.6l0.2-0.3c0.6-1.1,0.9-2.5,1-4.4c0.1-1.1-0.1-2.5-0.6-4l0-0.1l0.1,0
		c0.8,1,1.8,1.8,2.9,2.4l0.2,0.1c0.7,0.4,1.5,0.8,2.4,1.1c3.9,0.8,6.7-0.4,8.4-3.4c0.4-0.8,0.8-1.7,0.9-2.8c0.2-3.4-1-5.8-3.5-7.3
		c-3.2-1.9-6.5-1.3-9.9,1.5l-0.1,0c11.2-15.2,25.8,1.4,22.9,6.7c7.8-5.3,15.1-0.5,14.9,7c-2.5,8-9.2,6.8-15.2,4.7
		c8.2,8,17.5,28.6,16.2,36.9l14.6-56.6l-79.4-46.7l-40.7,42.5c6.5-5.3,27.7-8.8,38.8-5.6c-4.8-4.2-9.1-9.3-3.5-15.5
		c6.3-3.8,14.2,0,13.5,9.4c3-5.1,24.8-0.8,17.2,16.6l-0.1,0.2l-0.1,0c0.7-4.4-0.5-7.4-3.6-9.3c-1-0.5-1.8-0.8-2.4-0.9
		c-3.5-0.2-6.1,1-7.6,3.7c-0.5,0.8-0.8,1.7-1,2.7c-0.3,3.4,1.2,6,4.3,7.8l0.4,0.2c1.1,0.6,2.2,1,3.4,1.2l0.1,0l-1.9,0.5
		c-2.8,1.2-4.6,2.5-5.5,4.1c-0.4,0.8-0.7,1.5-0.9,2.3C113.4,450.8,114.6,453.5,117.4,455.1"/>
	<path id="path1889" sodipodi:nodetypes="cccccccccccscscccccccccccccccccsccccccccc" class="st2" d="M235,440.7
		c0.5,0.3,1.3,0.6,2.4,0.9c3.6,0.3,6.2-0.9,7.7-3.6l0.2-0.3c0.6-1.1,0.9-2.5,1-4.4c0.1-1.1-0.1-2.5-0.6-4l0-0.1l0.1,0
		c0.8,1,1.8,1.8,2.9,2.4l0.2,0.1c0.7,0.4,1.5,0.8,2.4,1.1c3.9,0.8,6.7-0.4,8.4-3.4c0.4-0.8,0.8-1.7,0.9-2.8c0.2-3.4-1-5.8-3.5-7.3
		c-3.2-1.9-6.5-1.3-9.9,1.5l-0.1,0c11.2-15.2,25.8,1.4,22.9,6.7c7.8-5.3,15.1-0.5,14.9,7c-2.5,8-9.2,6.8-15.2,4.7
		c8.2,8,17.5,28.6,16.2,36.9l14.6-56.6l-79.4-46.7l-40.7,42.5c6.5-5.3,27.7-8.8,38.8-5.6c-4.8-4.2-9.1-9.3-3.5-15.5
		c6.4-3.8,14.2,0,13.5,9.4c3-5.1,24.8-0.8,17.2,16.6l-0.1,0.2l-0.1,0c0.8-4.4-0.5-7.4-3.6-9.3c-1-0.5-1.8-0.8-2.4-0.9
		c-3.5-0.2-6.1,1-7.6,3.7c-0.5,0.8-0.8,1.7-1,2.7c-0.3,3.4,1.2,6,4.3,7.8l0.4,0.2c1.1,0.6,2.2,1,3.4,1.2l0.1,0l-1.9,0.5
		c-2.8,1.2-4.6,2.5-5.5,4.1c-0.4,0.8-0.7,1.5-0.9,2.3C231,436.4,232.2,439.1,235,440.7"/>
	<path id="path1891" sodipodi:nodetypes="cccccccccccscscccccccccccccccccsccccccccc" class="st2" d="M499.7,59.4
		c-0.5-0.3-1.3-0.6-2.4-0.9c-3.6-0.2-6.2,1-7.7,3.6l-0.2,0.3c-0.6,1.1-0.9,2.5-1,4.4c-0.1,1.1,0.1,2.5,0.7,4l0,0.1l-0.1,0
		c-0.8-1-1.8-1.7-2.9-2.4l-0.2-0.1c-0.7-0.4-1.5-0.7-2.4-1.1c-3.9-0.7-6.7,0.4-8.4,3.5c-0.4,0.8-0.7,1.7-0.9,2.8
		c-0.2,3.4,1,5.8,3.5,7.2c3.2,1.8,6.5,1.3,9.9-1.6l0.1,0c-11,15.3-25.8-1.3-22.9-6.5c-7.8,5.4-15.1,0.6-14.9-6.9
		c2.5-8,9.1-6.8,15.1-4.8c-8.3-8-17.7-28.4-16.4-36.8l-14.2,56.7l79.8,46.2l40.4-42.8c-6.5,5.3-27.7,9-38.8,5.9
		c4.8,4.1,9.2,9.3,3.6,15.5c-6.3,3.9-14.2,0.1-13.6-9.3c-3,5.2-24.8,0.9-17.4-16.4l0.1-0.2l0.1,0c-0.7,4.4,0.5,7.4,3.7,9.3
		c1,0.5,1.8,0.7,2.4,0.9c3.5,0.2,6.1-1.1,7.6-3.8c0.4-0.8,0.8-1.7,1-2.7c0.2-3.4-1.2-5.9-4.3-7.7l-0.4-0.2c-1.1-0.6-2.2-1-3.4-1.2
		l-0.1,0l1.9-0.5c2.8-1.2,4.6-2.6,5.5-4.1c0.4-0.8,0.7-1.5,0.9-2.3C503.7,63.6,502.5,61,499.7,59.4"/>
	<path id="path1893" sodipodi:nodetypes="cccccccccccscscccccccccccccccccsccccccccc" class="st2" d="M619,43.7
		c-0.5-0.3-1.3-0.6-2.4-0.9c-3.6-0.2-6.2,1-7.7,3.6l-0.2,0.3c-0.6,1.1-0.9,2.5-1,4.4c-0.1,1.1,0.1,2.5,0.7,4l0,0.1l-0.1,0
		c-0.8-1-1.8-1.7-2.9-2.4l-0.2-0.1c-0.7-0.4-1.5-0.7-2.4-1.1c-3.9-0.7-6.7,0.4-8.4,3.5c-0.4,0.8-0.7,1.7-0.9,2.8
		c-0.2,3.4,1,5.8,3.5,7.2c3.2,1.8,6.5,1.3,9.9-1.6l0.1,0c-11,15.3-25.8-1.3-22.9-6.5c-7.8,5.4-15.1,0.6-14.9-6.9
		c2.5-8,9.1-6.8,15.1-4.8c-8.3-8-17.7-28.4-16.4-36.8l-14.2,56.7l79.8,46.2l40.4-42.8c-6.5,5.3-27.7,9-38.8,5.9
		c4.8,4.1,9.2,9.3,3.6,15.5c-6.3,3.9-14.2,0.1-13.6-9.3c-3,5.2-24.8,0.9-17.4-16.4l0.1-0.2l0.1,0c-0.7,4.4,0.5,7.4,3.7,9.3
		c1,0.5,1.8,0.7,2.4,0.9c3.5,0.2,6.1-1.1,7.6-3.8c0.4-0.8,0.8-1.7,1-2.7c0.2-3.4-1.2-6-4.3-7.7l-0.4-0.2c-1.1-0.6-2.2-1-3.4-1.2
		l-0.1,0l1.9-0.5c2.8-1.2,4.6-2.6,5.5-4.1c0.4-0.8,0.7-1.5,0.9-2.3C623,48,621.8,45.3,619,43.7"/>
	<path id="path1895" sodipodi:nodetypes="cccccccccccscscccccccccccccccccsccccccccc" class="st2" d="M666.7,153.4
		c-0.5-0.3-1.3-0.6-2.4-0.9c-3.6-0.2-6.2,1-7.7,3.6l-0.2,0.3c-0.6,1.1-0.9,2.5-1,4.4c-0.1,1.1,0.1,2.5,0.7,4l0,0.1l-0.1,0
		c-0.8-1-1.8-1.7-2.9-2.4l-0.2-0.1c-0.7-0.4-1.5-0.7-2.4-1.1c-3.9-0.7-6.7,0.4-8.4,3.5c-0.4,0.8-0.7,1.7-0.9,2.8
		c-0.2,3.4,1,5.8,3.5,7.2c3.2,1.8,6.5,1.3,9.9-1.6l0.1,0c-11,15.3-25.8-1.3-22.9-6.5c-7.8,5.4-15,0.6-14.9-6.9
		c2.5-8,9.1-6.8,15.1-4.8c-8.3-8-17.7-28.4-16.4-36.8l-14.2,56.7l79.8,46.2l40.4-42.8c-6.5,5.3-27.7,9-38.8,5.9
		c4.8,4.1,9.2,9.3,3.6,15.5c-6.3,3.9-14.2,0.1-13.6-9.3c-3,5.2-24.8,0.9-17.3-16.4l0.1-0.2l0.1,0c-0.7,4.4,0.5,7.4,3.7,9.2
		c1,0.5,1.8,0.7,2.4,0.9c3.5,0.2,6.1-1.1,7.6-3.8c0.4-0.8,0.8-1.7,1-2.7c0.2-3.4-1.2-5.9-4.3-7.7l-0.4-0.2c-1.1-0.6-2.2-1-3.4-1.2
		l-0.1,0l1.9-0.5c2.8-1.2,4.6-2.6,5.5-4.1c0.4-0.8,0.7-1.5,0.9-2.3C670.8,157.7,669.5,155,666.7,153.4"/>
</g>
</svg>
