<?xml version="1.0" encoding="utf-8"?>
<!-- Generator: Adobe Illustrator 15.0.2, SVG Export Plug-In . SVG Version: 6.00 Build 0)  -->
<!DOCTYPE svg PUBLIC "-//W3C//DTD SVG 1.1//EN" "http://www.w3.org/Graphics/SVG/1.1/DTD/svg11.dtd">
<svg version="1.1" id="Layer_1" xmlns="http://www.w3.org/2000/svg" xmlns:xlink="http://www.w3.org/1999/xlink" x="0px" y="0px"
	 width="1417.321px" height="885.829px" viewBox="0 0 1417.321 885.829" enable-background="new 0 0 1417.321 885.829"
	 xml:space="preserve">
<rect fill="#FFFFFF" width="1417.321" height="885.829"/>
<g>
	<g>
		<polygon fill="#F2CB27" stroke="#7A5722" stroke-width="0.5" stroke-miterlimit="10" points="896.411,328.465 858.036,328.465 
			857.286,312.164 858.411,291.414 880.411,294.289 891.161,313.164 		"/>
		<path fill="#F2CB27" stroke="#7A5722" stroke-width="0.5" stroke-miterlimit="10" d="M887.661,285.039c0,0,22.5-0.5,22.5,23.75
			s-17.75,19.25-17.75,19.25s-12.5,1.5-15.25-18.5h-12.25l-2.5-15.125l13-9.376L887.661,285.039z"/>
		
			<radialGradient id="SVGID_1_" cx="557.4688" cy="315.6768" r="44.441" gradientTransform="matrix(-1 0 0 1 1455.4219 0)" gradientUnits="userSpaceOnUse">
			<stop  offset="0.3859" style="stop-color:#B07E09;stop-opacity:0"/>
			<stop  offset="1" style="stop-color:#B07E09"/>
		</radialGradient>
		<path fill="url(#SVGID_1_)" d="M887.661,284.963c0,0,22.5-0.5,22.5,23.75s-17.75,19.25-17.75,19.25s-12.5,1.5-15.25-18.5h-12.25
			l-2.5-15.125l13-9.376L887.661,284.963z"/>
		<polygon fill="#F2CB27" stroke="#7A5722" stroke-width="0.5" stroke-miterlimit="10" points="831.393,248.835 796.911,248.861 
			789.161,229.789 798.161,216.539 820.296,217.789 831.393,239.539 		"/>
		<path fill="#F2CB27" stroke="#7A5722" stroke-width="0.5" stroke-miterlimit="10" d="M831.661,199.039c0,0,16.5,0.25,17.25,27.25
			s-20,22.25-20,22.25s-10.5-4-15.25-20.25l-14.764-0.001l-7.236-7.749l13.625-21.5H831.661z"/>
		
			<radialGradient id="SVGID_2_" cx="618.626" cy="230.8755" r="42.6067" gradientTransform="matrix(-1 0 0 1 1455.4219 0)" gradientUnits="userSpaceOnUse">
			<stop  offset="0.3859" style="stop-color:#B07E09;stop-opacity:0"/>
			<stop  offset="1" style="stop-color:#B07E09"/>
		</radialGradient>
		<path fill="url(#SVGID_2_)" d="M831.661,198.963c0,0,16.5,0.25,17.25,27.25s-20,22.25-20,22.25s-10.5-4-15.25-20.25l-14.764-0.001
			l-7.236-7.749l13.625-21.5H831.661z"/>
		<polygon fill="#F2CB27" stroke="#7A5722" stroke-width="0.5" stroke-miterlimit="10" points="520.911,328.465 559.286,328.465 
			560.036,312.164 558.911,291.414 536.911,294.289 526.161,313.164 		"/>
		<polygon fill="#F2CB27" stroke="#7A5722" stroke-width="0.5" stroke-miterlimit="10" points="585.929,248.835 620.411,248.861 
			628.161,229.789 619.161,216.539 597.026,217.789 585.929,239.539 		"/>
		<path fill="#F2CB27" stroke="#7A5722" stroke-width="0.5" stroke-miterlimit="10" d="M529.661,285.039c0,0-22.5-0.5-22.5,23.75
			s17.75,19.25,17.75,19.25s12.5,1.5,15.25-18.5h12.25l2.5-15.125l-13-9.376L529.661,285.039z"/>
		<path fill="#F2CB27" stroke="#7A5722" stroke-width="0.5" stroke-miterlimit="10" d="M585.661,199.039c0,0-16.5,0.25-17.25,27.25
			s20,22.25,20,22.25s10.5-4,15.25-20.25l14.764-0.001l7.236-7.749l-13.625-21.5H585.661z"/>
		<radialGradient id="SVGID_3_" cx="519.3687" cy="315.752" r="44.4412" gradientUnits="userSpaceOnUse">
			<stop  offset="0.3859" style="stop-color:#B07E09;stop-opacity:0"/>
			<stop  offset="1" style="stop-color:#B07E09"/>
		</radialGradient>
		<path fill="url(#SVGID_3_)" d="M529.661,285.039c0,0-22.5-0.5-22.5,23.75s17.75,19.25,17.75,19.25s12.5,1.5,15.25-18.5h12.25
			l2.5-15.125l-13-9.376L529.661,285.039z"/>
		<radialGradient id="SVGID_4_" cx="580.5254" cy="230.9507" r="42.6072" gradientUnits="userSpaceOnUse">
			<stop  offset="0.3859" style="stop-color:#B07E09;stop-opacity:0"/>
			<stop  offset="1" style="stop-color:#B07E09"/>
		</radialGradient>
		<path fill="url(#SVGID_4_)" d="M585.661,199.039c0,0-16.5,0.25-17.25,27.25s20,22.25,20,22.25s10.5-4,15.25-20.25l14.764-0.001
			l7.236-7.749l-13.625-21.5H585.661z"/>
		<path fill="none" d="M529.661,285.039c0,0-22.5-0.5-22.5,23.75s17.75,19.25,17.75,19.25s12.5,1.5,15.25-18.5h12.25l2.5-15.125
			l-13-9.376L529.661,285.039z"/>
		<path fill="#F2CB27" stroke="#7A5722" stroke-width="0.5" stroke-miterlimit="10" d="M811.661,251.039c0,0-16-18.339-9.25-36.125
			c4.883-12.866,17.739-15.448,24.669-15.875H710.161h-1.5h-1.5H590.243c6.929,0.427,19.785,3.009,24.668,15.875
			c6.75,17.786-9.25,36.125-9.25,36.125s-18.5,23.5-76,34c0,0,16.75,1.375,21,15v220.499c-0.5,36.834,42.834,77.834,87.167,87.834
			c21.532,4.855,38.11,0.668,43.833,4.166c20.448,12.5,27,12.5,27,12.5s6.552,0,27-12.5c5.723-3.498,22.301,0.689,43.833-4.166
			c44.333-10,87.667-51,87.167-87.834V300.039c4.25-13.625,21-15,21-15C830.161,274.539,811.661,251.039,811.661,251.039z"/>
		<path fill="#F2CB27" stroke="#7A5722" stroke-width="0.5" stroke-miterlimit="10" d="M585.661,199.039h4.582
			C587.483,198.869,585.661,199.039,585.661,199.039z"/>
		<path fill="#F2CB27" stroke="#7A5722" stroke-width="0.5" stroke-miterlimit="10" d="M827.08,199.039h4.581
			C831.661,199.039,829.839,198.869,827.08,199.039z"/>
		<path fill="#F2CB27" stroke="#7A5722" stroke-width="0.5" stroke-miterlimit="10" d="M585.661,199.039h4.582
			C587.483,198.868,585.661,199.039,585.661,199.039z"/>
		<path fill="#F2CB27" stroke="#7A5722" stroke-width="0.5" stroke-miterlimit="10" d="M827.08,199.039h4.581
			C831.661,199.039,829.839,198.868,827.08,199.039z"/>
		<radialGradient id="SVGID_5_" cx="710.6611" cy="441.0386" r="492.2547" gradientUnits="userSpaceOnUse">
			<stop  offset="0.3859" style="stop-color:#FFFFFF;stop-opacity:0"/>
			<stop  offset="1" style="stop-color:#FFFFFF"/>
		</radialGradient>
		<path fill="url(#SVGID_5_)" stroke="#7A5722" stroke-width="0.5" stroke-miterlimit="10" d="M811.661,251.039
			c0,0-16-18.339-9.25-36.125c4.883-12.866,17.739-15.448,24.669-15.875H710.161h-1.5h-1.5H590.243
			c6.929,0.427,19.785,3.009,24.668,15.875c6.75,17.786-9.25,36.125-9.25,36.125s-18.5,23.5-76,34c0,0,16.75,1.375,21,15v220.5
			c-0.5,36.833,42.834,77.833,87.167,87.833c21.532,4.856,38.11,0.669,43.833,4.167c20.448,12.5,27,12.5,27,12.5s6.552,0,27-12.5
			c5.723-3.498,22.301,0.689,43.833-4.167c44.333-10,87.667-51,87.167-87.833v-220.5c4.25-13.625,21-15,21-15
			C830.161,274.539,811.661,251.039,811.661,251.039z"/>
	</g>
	<g>
		<path fill="#AA962E" stroke="#27391E" stroke-width="0.75" stroke-miterlimit="10" d="M668.161,718.039l11-13.91
			c0,0-382-92.09-219.619-455.268C459.542,248.861,245.161,546.316,668.161,718.039z"/>
		<path fill="#67923D" stroke="#27391E" stroke-miterlimit="10" d="M448.546,265.289c0,0-38.298-77.772,99.063-97.499
			C547.609,167.79,526.895,251.733,448.546,265.289z"/>
		<g>
			<path fill="#27391E" d="M449.296,265.153c4.886-10.667,11.245-20.609,18.163-30.079c6.959-9.457,14.715-18.32,23.047-26.594
				c8.39-8.214,17.372-15.835,26.929-22.653c4.783-3.403,9.69-6.626,14.719-9.647c5.043-2.996,10.188-5.819,15.455-8.39
				c-10.337,5.521-20.293,11.734-29.723,18.66c-9.431,6.923-18.377,14.504-26.679,22.742c-8.357,8.182-16.069,17.017-23.134,26.341
				c-3.537,4.659-6.892,9.458-10.042,14.391C454.869,254.847,451.887,259.897,449.296,265.153z"/>
		</g>
		<g>
			<path fill="#27391E" d="M468.197,195.522c-0.355,3.939-0.771,7.871-1.163,11.806l-1.271,11.792l-1.356,11.782
				c-0.466,3.926-0.89,7.857-1.395,11.778l-0.524-0.544c6.807-0.516,13.607-1.105,20.418-1.562
				c6.809-0.488,13.62-0.949,20.438-1.321c-6.787,0.75-13.582,1.413-20.378,2.048c-6.794,0.666-13.599,1.2-20.398,1.807
				l-0.591,0.053l0.067-0.596c0.44-3.929,0.962-7.848,1.44-11.772l1.478-11.768l1.563-11.757
				C467.079,203.352,467.607,199.433,468.197,195.522z"/>
		</g>
		<g>
			<path fill="#27391E" d="M485.897,184.853c-0.62,5.729-1.321,11.446-2.053,17.16c-0.693,5.719-1.528,11.417-2.285,17.127
				l-0.479-0.551c3.417-0.031,6.833,0.005,10.25,0.017l10.249,0.059c6.833,0.092,13.666,0.183,20.499,0.408
				c-6.833,0.225-13.666,0.316-20.499,0.408l-10.249,0.059c-3.417,0.012-6.833,0.048-10.25,0.017l-0.561-0.005l0.081-0.546
				c0.849-5.697,1.62-11.405,2.532-17.092C484.007,196.219,484.911,190.53,485.897,184.853z"/>
		</g>
		<g>
			<path fill="#27391E" d="M509.179,175.983c-0.453,3.284-0.946,6.561-1.49,9.828c-0.516,3.272-1.081,6.536-1.672,9.794
				l-0.452-0.543c2.594-0.008,5.188-0.063,7.782-0.026l7.782,0.056l7.781,0.152c2.594,0.065,5.188,0.154,7.782,0.277
				c-2.594,0.124-5.188,0.212-7.782,0.277l-7.781,0.152l-7.782,0.056c-2.594,0.037-5.188-0.018-7.782-0.026l-0.554-0.001
				l0.102-0.542c0.614-3.254,1.252-6.504,1.941-9.745C507.716,182.449,508.427,179.212,509.179,175.983z"/>
		</g>
		<path fill="#67923D" stroke="#27391E" stroke-miterlimit="10" d="M419.545,349.748c0,0-19.569-72.791,87.931-93.791
			c0,0-10.958,32.875-31.315,53.667c-3.459,3.534-29.421,15.333-29.421,15.333S430.615,331.538,419.545,349.748z"/>
		<g>
			<path fill="#27391E" d="M507.476,255.957c-4.008,3.599-8.012,7.199-11.973,10.847c-3.98,3.626-7.94,7.275-11.867,10.958
				c-7.861,7.358-15.674,14.766-23.28,22.383c-7.655,7.566-15.126,15.319-22.253,23.377c-3.561,4.03-7.02,8.154-10.239,12.459
				c-3.201,4.303-6.3,8.761-8.319,13.766c0.879-2.549,2.127-4.959,3.494-7.283c1.37-2.326,2.868-4.572,4.43-6.772
				c3.151-4.381,6.554-8.573,10.054-12.675c7.026-8.186,14.52-15.95,22.129-23.581c7.675-7.568,15.487-14.995,23.465-22.238
				C491.099,269.961,499.186,262.837,507.476,255.957z"/>
		</g>
		<g>
			<path fill="#27391E" d="M480.564,304.77c-4.366,0.319-8.735,0.54-13.104,0.738c-4.369,0.215-8.741,0.319-13.111,0.484
				l-0.452,0.017l-0.052-0.452l-0.804-6.973c-0.255-2.326-0.546-4.647-0.772-6.976l-0.696-6.986
				c-0.195-2.333-0.424-4.662-0.587-6.999c0.395,2.309,0.724,4.626,1.087,6.938l0.979,6.952c0.332,2.316,0.6,4.641,0.903,6.961
				l0.871,6.964l-0.503-0.434c4.373-0.078,8.744-0.217,13.118-0.245C471.813,304.716,476.187,304.694,480.564,304.77z"/>
		</g>
		<g>
			<path fill="#27391E" d="M476.238,264.671c0.201,3.242,0.299,6.484,0.377,9.726c0.093,3.242,0.107,6.484,0.12,9.726l-0.57-0.493
				c3.342-0.489,6.687-0.964,10.042-1.37l5.034-0.6c1.683-0.162,3.361-0.36,5.049-0.491c-1.654,0.361-3.318,0.655-4.977,0.985
				l-4.993,0.877c-3.33,0.579-6.669,1.088-10.011,1.583l-0.573,0.084l0.002-0.577c0.013-3.242,0.027-6.484,0.12-9.726
				C475.939,271.155,476.037,267.913,476.238,264.671z"/>
		</g>
		<g>
			<path fill="#27391E" d="M430.369,297.651c0.866,1.944,1.704,3.899,2.51,5.866c0.796,1.971,1.621,3.931,2.393,5.911
				c1.566,3.951,3.056,7.931,4.52,11.921l-0.439-0.304c2.463,0.022,4.927,0.083,7.39,0.157c2.463,0.057,4.927,0.17,7.39,0.312
				c-2.463,0.142-4.927,0.255-7.39,0.312c-2.463,0.074-4.927,0.135-7.39,0.157l-0.32,0.003l-0.119-0.307
				c-1.531-3.964-3.036-7.938-4.464-11.942c-0.725-1.997-1.397-4.014-2.099-6.021C431.66,301.706,431.001,299.684,430.369,297.651z"
				/>
		</g>
		<path fill="#67923D" stroke="#27391E" stroke-miterlimit="10" d="M410.383,439.186c0,0-36.44-70.5,71.03-124
			C481.413,315.186,494.883,389.186,410.383,439.186z"/>
		<g>
			<path fill="#27391E" d="M481.413,315.186c-3.928,4.554-7.736,9.208-11.444,13.938c-3.727,4.715-7.366,9.5-10.903,14.356
				c-7.08,9.708-13.856,19.642-20.073,29.92c-6.278,10.237-12.014,20.813-16.971,31.749c-2.481,5.466-4.741,11.035-6.704,16.711
				c-1.993,5.665-3.65,11.45-4.935,17.326c2.156-11.848,6.128-23.314,10.936-34.349c4.829-11.042,10.592-21.652,16.82-31.957
				c6.305-10.262,13.086-20.227,20.311-29.855C465.69,333.41,473.263,324.037,481.413,315.186z"/>
		</g>
		<g>
			<path fill="#27391E" d="M452.877,331.886c0.765,2.317,1.501,4.641,2.183,6.98c0.7,2.334,1.384,4.672,2.033,7.02l-0.53-0.343
				c4.058-0.699,8.119-1.373,12.194-1.965c2.036-0.308,4.081-0.561,6.12-0.843c2.042-0.271,4.089-0.51,6.141-0.719
				c-2.011,0.456-4.028,0.883-6.049,1.276c-2.023,0.382-4.042,0.795-6.069,1.153c-4.051,0.738-8.116,1.395-12.185,2.026
				l-0.426,0.066l-0.105-0.409c-0.604-2.359-1.174-4.728-1.728-7.101C453.883,336.659,453.366,334.276,452.877,331.886z"/>
		</g>
		<g>
			<path fill="#27391E" d="M439.936,342.01c0.408,1.822,0.771,3.651,1.152,5.478c0.385,1.826,0.716,3.661,1.076,5.491
				c0.347,1.833,0.722,3.66,1.039,5.497l0.984,5.507l-0.38-0.384c2.528,0.432,5.054,0.874,7.573,1.359l7.562,1.417
				c5.031,1.003,10.062,2.004,15.067,3.147c-5.09-0.677-10.154-1.496-15.218-2.313l-7.581-1.313
				c-2.529-0.425-5.051-0.892-7.57-1.371l-0.328-0.062l-0.053-0.322l-0.909-5.52c-0.315-1.837-0.571-3.686-0.855-5.528
				c-0.271-1.846-0.571-3.686-0.817-5.535C440.427,345.709,440.158,343.864,439.936,342.01z"/>
		</g>
		<g>
			<path fill="#27391E" d="M459.417,395.606c-5.526,0.175-11.051,0.204-16.575,0.243l-8.286-0.038
				c-2.762-0.001-5.524-0.033-8.285-0.091l-0.275-0.006l-0.131-0.232c-2.009-3.564-4.048-7.112-5.996-10.711
				c-0.979-1.797-1.982-3.58-2.94-5.389c-0.959-1.809-1.936-3.606-2.871-5.429c1.101,1.727,2.161,3.478,3.238,5.218
				c1.078,1.74,2.111,3.506,3.169,5.258c2.125,3.498,4.158,7.048,6.222,10.582l-0.405-0.238c2.762,0.002,5.524,0.03,8.285,0.089
				l8.285,0.142C448.374,395.162,453.896,395.311,459.417,395.606z"/>
		</g>
		<path fill="#67923D" stroke="#27391E" stroke-miterlimit="10" d="M438.424,546.306c0,0-107.93,3.732-92.042-134.306
			c0,0,26.453,22.827,36.547,28.795C393.026,446.765,425.494,446.231,438.424,546.306z"/>
		<g>
			<path fill="#27391E" d="M346.383,412c2.687,6.298,5.61,12.49,8.63,18.631c3,6.15,6.121,12.241,9.367,18.264
				c6.485,12.047,13.373,23.881,20.875,35.319c7.44,11.474,15.486,22.561,24.25,33.058c4.379,5.251,8.96,10.335,13.774,15.192
				c4.792,4.879,9.826,9.528,15.146,13.841c-5.421-4.184-10.572-8.72-15.491-13.494c-4.896-4.797-9.554-9.838-14.017-15.042
				c-8.913-10.427-16.978-21.552-24.5-33.01c-7.449-11.51-14.364-23.361-20.714-35.506C357.364,437.107,351.483,424.713,346.383,412
				z"/>
		</g>
		<g>
			<path fill="#27391E" d="M378.827,436.539c-1.055,4.354-2.211,8.678-3.385,12.998c-0.568,2.165-1.198,4.313-1.804,6.466
				l-1.832,6.458l-0.145,0.512l-0.5-0.183l-6.478-2.363c-2.155-0.799-4.325-1.558-6.469-2.39l-6.444-2.457
				c-2.135-0.854-4.283-1.675-6.408-2.559c2.203,0.667,4.383,1.396,6.575,2.091l6.539,2.193c2.184,0.718,4.342,1.509,6.515,2.26
				l6.505,2.288l-0.645,0.329l1.917-6.434c0.644-2.143,1.264-4.293,1.945-6.426C376.039,445.05,377.382,440.78,378.827,436.539z"/>
		</g>
		<g>
			<path fill="#27391E" d="M359.16,501.707c6.266-0.191,12.532-0.292,18.797-0.366c6.266-0.103,12.532-0.077,18.798-0.122
				l-0.453,0.305c1.304-3.294,2.683-6.557,4.021-9.837l4.055-9.822l4.133-9.791c1.408-3.251,2.792-6.512,4.234-9.75
				c-1.223,3.326-2.504,6.629-3.761,9.942l-3.862,9.901l-3.94,9.869c-1.327,3.284-2.614,6.585-3.975,9.855l-0.128,0.307
				l-0.325-0.002c-6.266-0.045-12.532-0.02-18.798-0.122C371.691,501.998,365.425,501.897,359.16,501.707z"/>
		</g>
		<g>
			<path fill="#27391E" d="M381.999,527.805c6.066-0.23,12.132-0.319,18.197-0.416l9.099-0.055c3.033-0.021,6.065-0.038,9.099-0.008
				l-0.438,0.286c1.947-4.334,3.843-8.691,5.852-12.998c1.975-4.322,3.982-8.63,6.056-12.908c-1.749,4.421-3.565,8.813-5.414,13.19
				c-1.814,4.393-3.742,8.735-5.618,13.101l-0.122,0.283l-0.316,0.003c-3.033,0.03-6.066,0.014-9.099-0.008l-9.099-0.055
				C394.131,528.125,388.065,528.036,381.999,527.805z"/>
		</g>
		<path fill="#67923D" stroke="#27391E" stroke-miterlimit="10" d="M454.494,550.039c0,0-103.333-52.667,9.333-150
			c0,0-1.334,19.334,3.333,28.667s23.5,46.333-7,82.667C460.161,511.373,440.494,531.372,454.494,550.039z"/>
		<g>
			<path fill="#27391E" d="M463.828,400.039c-2.534,6.007-4.824,12.112-6.996,18.254c-2.191,6.136-4.243,12.32-6.127,18.554
				c-3.771,12.463-7.014,25.101-9.171,37.936c-2.197,12.806-3.406,25.863-2.347,38.825c0.543,6.465,1.716,12.907,3.91,19.023
				c2.153,6.113,5.42,11.902,9.947,16.612c-4.644-4.595-8.082-10.333-10.406-16.443c-2.309-6.134-3.576-12.616-4.217-19.123
				c-0.65-6.516-0.595-13.08-0.188-19.602c0.42-6.525,1.233-13.019,2.317-19.46c2.248-12.873,5.488-25.552,9.424-37.994
				C453.924,424.183,458.487,411.937,463.828,400.039z"/>
		</g>
		<g>
			<path fill="#27391E" d="M465.947,425.669c-1.229,1.002-2.493,1.952-3.741,2.926l-3.804,2.836
				c-2.546,1.877-5.124,3.708-7.719,5.514l-0.437,0.304l-0.271-0.455c-1.442-2.423-2.882-4.849-4.254-7.315
				c-1.389-2.455-2.758-4.923-4.046-7.44c1.62,2.317,3.16,4.682,4.678,7.06c1.536,2.368,3.004,4.776,4.47,7.185l-0.708-0.15
				c2.588-1.817,5.192-3.609,7.83-5.356l3.97-2.599C463.258,427.34,464.584,426.479,465.947,425.669z"/>
		</g>
		<g>
			<path fill="#27391E" d="M474.719,448.154c-5.009,2.05-10.064,3.972-15.119,5.896l-7.61,2.808
				c-2.538,0.933-5.071,1.878-7.625,2.768l-0.343,0.119l-0.208-0.285c-2.583-3.548-5.222-7.054-7.752-10.641
				c-2.561-3.564-5.096-7.148-7.568-10.779c2.764,3.414,5.464,6.875,8.139,10.354c2.706,3.457,5.302,6.995,7.955,10.491l-0.55-0.166
				c2.533-0.947,5.085-1.839,7.634-2.742l7.649-2.701C464.439,451.528,469.556,449.776,474.719,448.154z"/>
		</g>
		<g>
			<path fill="#27391E" d="M477.978,471.706c-3.192,1.559-6.41,3.061-9.617,4.586l-9.661,4.486l-9.696,4.411
				c-3.238,1.457-6.458,2.952-9.71,4.376l-0.362,0.159l-0.229-0.313c-3.676-5.018-7.409-9.994-11.039-15.046
				c-3.653-5.036-7.285-10.087-10.843-15.192c3.866,4.877,7.659,9.808,11.431,14.755c3.794,4.93,7.487,9.937,11.235,14.901
				l-0.592-0.154c3.229-1.479,6.489-2.885,9.731-4.331l9.747-4.296l9.78-4.221C471.426,474.45,474.689,473.05,477.978,471.706z"/>
		</g>
		<path fill="none" stroke="#27391E" stroke-miterlimit="10" d="M492.661,648.039"/>
		<path fill="#67923D" stroke="#27391E" stroke-miterlimit="10" d="M611.661,683.539c0,0,6-43-3-58.5s-37-41-37-41s-32-30-36-34
			C535.661,550.039,505.661,658.039,611.661,683.539z"/>
		<g>
			<path fill="#27391E" d="M535.661,550.039c2.346,6.008,4.829,11.96,7.372,17.885c2.521,5.934,5.109,11.838,7.781,17.704
				c5.336,11.733,10.896,23.368,16.922,34.76c5.964,11.42,12.369,22.617,19.455,33.374c3.543,5.376,7.28,10.629,11.314,15.649
				c4.014,5.03,8.322,9.854,13.156,14.128c-9.871-8.357-17.845-18.704-25.109-29.35c-7.241-10.702-13.656-21.933-19.7-33.338
				c-5.963-11.451-11.545-23.097-16.737-34.911c-2.589-5.911-5.104-11.853-7.531-17.831
				C540.188,562.119,537.854,556.104,535.661,550.039z"/>
		</g>
		<g>
			<path fill="#27391E" d="M575.404,587.532c-1.969,4.063-4.026,8.08-6.102,12.086c-2.062,4.014-4.22,7.975-6.326,11.965
				l-0.161,0.305l-0.343-0.051l-7.15-1.049c-2.381-0.362-4.768-0.689-7.146-1.08l-7.135-1.156c-2.373-0.422-4.751-0.811-7.12-1.265
				c2.401,0.223,4.793,0.512,7.19,0.767l7.175,0.874c2.392,0.286,4.776,0.636,7.164,0.95l7.16,0.982l-0.503,0.254
				c2.182-3.949,4.31-7.927,6.536-11.852C570.855,595.33,573.086,591.407,575.404,587.532z"/>
		</g>
		<g>
			<path fill="#27391E" d="M562.51,575.449c-1.318,2.973-2.704,5.911-4.119,8.834c-1.396,2.933-2.842,5.841-4.311,8.736
				l-0.216,0.427l-0.435-0.21c-3.66-1.771-7.293-3.597-10.914-5.447c-3.606-1.88-7.216-3.754-10.763-5.754
				c3.75,1.587,7.438,3.301,11.13,5.008c3.677,1.736,7.341,3.499,10.979,5.314l-0.651,0.217c1.486-2.887,2.996-5.762,4.555-8.611
				C559.303,581.103,560.873,578.258,562.51,575.449z"/>
		</g>
		<g>
			<path fill="#27391E" d="M594.395,606.781c-1.352,2.666-2.761,5.3-4.139,7.951l-4.233,7.899c-1.398,2.64-2.866,5.241-4.295,7.864
				l-4.32,7.851l-0.164,0.299l-0.337-0.047l-8.568-1.188c-2.855-0.401-5.714-0.776-8.565-1.216
				c-5.706-0.84-11.409-1.698-17.099-2.662c5.743,0.561,11.472,1.226,17.199,1.91c2.866,0.322,5.723,0.709,8.584,1.07l8.58,1.099
				l-0.5,0.251l4.391-7.811c1.474-2.599,2.911-5.217,4.416-7.798l4.478-7.763C591.349,611.922,592.843,609.335,594.395,606.781z"/>
		</g>
		<g>
			<path fill="#27391E" d="M608.661,625.039c-1.072,3.337-2.176,6.662-3.304,9.979l-3.424,9.936l-3.514,9.903
				c-1.155,3.307-2.399,6.582-3.594,9.875l-0.112,0.308l-0.324-0.006l-6.464-0.107l-6.464-0.177
				c-4.309-0.108-8.618-0.269-12.926-0.466c4.312-0.1,8.623-0.162,12.934-0.173l6.466-0.03l6.465,0.039l-0.435,0.302
				c1.183-3.297,2.317-6.611,3.539-9.895l3.619-9.865l3.709-9.833C606.082,631.555,607.355,628.292,608.661,625.039z"/>
		</g>
		<path fill="#67923D" stroke="#27391E" stroke-miterlimit="10" d="M482.661,486.039c0,0-55.219,94.486,31.259,144.403
			C513.919,630.442,552.661,570.039,482.661,486.039z"/>
		<g>
			<path fill="#27391E" d="M482.661,486.039c0.456,6.194,0.979,12.381,1.595,18.559c0.589,6.181,1.244,12.354,1.982,18.518
				c1.468,12.326,3.146,24.629,5.317,36.847c2.104,12.227,4.661,24.382,8.012,36.323c1.675,5.968,3.583,11.876,5.88,17.635
				c2.283,5.757,4.965,11.389,8.472,16.521c-3.695-5.006-6.483-10.624-8.925-16.336c-2.398-5.743-4.395-11.646-6.166-17.607
				c-3.515-11.938-6.072-24.129-8.256-36.364c-2.093-12.256-3.788-24.575-5.095-36.934
				C484.184,510.842,483.167,498.452,482.661,486.039z"/>
		</g>
		<g>
			<path fill="#27391E" d="M470.828,514.755c2.723,2.021,5.38,4.121,8.025,6.236c2.654,2.104,5.258,4.268,7.861,6.432l-0.625-0.011
				c2.795-2.173,5.6-4.334,8.447-6.44l4.277-3.151c1.449-1.021,2.876-2.069,4.344-3.065c-1.326,1.179-2.692,2.305-4.037,3.46
				l-4.104,3.373c-2.74,2.244-5.523,4.433-8.315,6.609l-0.318,0.248l-0.307-0.26c-2.586-2.185-5.171-4.371-7.705-6.617
				C475.825,519.334,473.293,517.084,470.828,514.755z"/>
		</g>
		<g>
			<path fill="#27391E" d="M466.105,537.327c2.09,1.451,4.14,2.955,6.211,4.432l6.146,4.517c2.058,1.494,4.067,3.051,6.103,4.573
				l6.086,4.596l-0.535-0.044l6.52-3.41c2.176-1.133,4.339-2.288,6.533-3.386c4.37-2.23,8.748-4.445,13.176-6.565
				c-4.237,2.479-8.524,4.866-12.82,7.235c-2.139,1.202-4.308,2.348-6.464,3.515l-6.478,3.49l-0.282,0.151l-0.253-0.195
				l-6.037-4.661c-2.005-1.563-4.036-3.092-6.019-4.683l-5.977-4.739C470.046,540.542,468.056,538.96,466.105,537.327z"/>
		</g>
		<g>
			<path fill="#27391E" d="M524.612,570.039c-4.682,2.532-9.411,4.966-14.148,7.385c-2.36,1.228-4.75,2.393-7.127,3.586
				l-7.139,3.562l-0.22,0.109l-0.22-0.109l-7.17-3.561c-2.386-1.195-4.789-2.355-7.159-3.584l-7.128-3.646
				c-2.36-1.248-4.735-2.466-7.082-3.741c2.446,1.071,4.864,2.201,7.297,3.301l7.251,3.396c2.423,1.119,4.813,2.306,7.221,3.458
				l7.208,3.481h-0.439l7.179-3.48c2.396-1.153,4.777-2.337,7.19-3.456C514.934,574.461,519.749,572.202,524.612,570.039z"/>
		</g>
		<path fill="#67923D" stroke="#27391E" stroke-miterlimit="10" d="M410.958,448.878c0,0,76.61-53.114-42.215-143.379
			C368.743,305.499,344.384,395.226,410.958,448.878z"/>
		<g>
			<path fill="#27391E" d="M368.743,305.499c4.817,11.527,9.293,23.194,13.601,34.922c4.301,11.731,8.34,23.559,12.167,35.456
				c3.742,11.923,7.284,23.917,10.245,36.065c2.904,12.145,5.494,24.446,6.203,36.936c-0.539-6.224-1.533-12.393-2.762-18.509
				c-1.205-6.122-2.63-12.199-4.187-18.241c-3.109-12.085-6.638-24.063-10.451-35.949c-3.743-11.909-7.792-23.721-11.935-35.5
				c-2.067-5.891-4.186-11.765-6.341-17.625C373.153,317.184,370.958,311.338,368.743,305.499z"/>
		</g>
		<g>
			<path fill="#27391E" d="M368.743,385.352c5.824,3.396,11.591,6.885,17.348,10.388c2.89,1.734,5.741,3.529,8.611,5.296
				l8.597,5.318l-0.63,0.083l6.927-7.368c2.316-2.45,4.604-4.925,6.946-7.35l6.997-7.303c2.359-2.409,4.693-4.842,7.074-7.231
				c-2.215,2.543-4.478,5.042-6.715,7.565l-6.793,7.494c-2.254,2.507-4.563,4.963-6.843,7.446l-6.863,7.428l-0.28,0.304l-0.35-0.221
				l-8.549-5.395c-2.846-1.805-5.709-3.581-8.535-5.417C380.013,392.751,374.349,389.098,368.743,385.352z"/>
		</g>
		<g>
			<path fill="#27391E" d="M364.682,333.991c2.849,0.642,5.667,1.383,8.48,2.143c2.817,0.746,5.612,1.567,8.406,2.39l-0.583,0.246
				c1.408-2.675,2.827-5.345,4.308-7.981l2.23-3.951c0.777-1.299,1.523-2.615,2.327-3.9c-0.6,1.392-1.259,2.753-1.885,4.131
				l-1.982,4.081c-1.327,2.718-2.716,5.403-4.117,8.082l-0.191,0.365l-0.393-0.12c-2.787-0.847-5.573-1.696-8.337-2.62
				C370.177,335.948,367.415,335.019,364.682,333.991z"/>
		</g>
		<g>
			<path fill="#27391E" d="M365.316,361.759c4.578,1.346,9.125,2.785,13.664,4.245c4.545,1.443,9.054,2.993,13.582,4.484
				l-0.558,0.179l4.521-6.218c1.518-2.065,3.007-4.15,4.548-6.199l4.61-6.154c1.566-2.03,3.106-4.079,4.699-6.09
				c-1.403,2.147-2.86,4.256-4.291,6.384l-4.379,6.32c-1.456,2.11-2.963,4.183-4.441,6.275l-4.468,6.256l-0.214,0.299l-0.345-0.121
				c-4.5-1.574-9.021-3.089-13.505-4.711C374.25,365.105,369.768,363.479,365.316,361.759z"/>
		</g>
		<path fill="#67923D" stroke="#27391E" stroke-miterlimit="10" d="M417.099,343.878c0,0-86.879-54.902,10.198-137.689
			c0,0-2.006,18.731,1.517,28.03C432.336,243.519,468.285,262.17,417.099,343.878z"/>
		<g>
			<path fill="#27391E" d="M427.297,206.188c-3.933,4.387-6.697,9.669-8.732,15.146c-2.062,5.484-3.451,11.202-4.465,16.969
				c-2.006,11.552-2.662,23.308-2.652,35.035c-0.047,11.735,0.623,23.468,1.637,35.165c0.503,5.85,1.121,11.691,1.839,17.521
				c0.69,5.833,1.499,11.653,2.421,17.457c-2.241-11.542-3.83-23.206-5.027-34.906c-1.174-11.704-1.838-23.466-1.869-35.239
				c0.074-11.763,0.716-23.576,2.898-35.171c1.112-5.784,2.592-11.52,4.764-17.007C420.309,215.708,423.193,210.426,427.297,206.188
				z"/>
		</g>
		<g>
			<path fill="#27391E" d="M390.527,249.23c3.536,3.294,7.017,6.642,10.475,10.013c3.484,3.345,6.876,6.781,10.313,10.173
				l-0.69,0.01c2.023-2.202,4.083-4.371,6.141-6.541l6.173-6.51c4.158-4.3,8.312-8.604,12.567-12.813
				c-3.921,4.522-7.944,8.949-11.963,13.379l-6.092,6.586c-2.031,2.196-4.058,4.394-6.126,6.555l-0.346,0.362l-0.344-0.352
				c-3.379-3.45-6.802-6.855-10.134-10.352C397.142,256.271,393.807,252.778,390.527,249.23z"/>
		</g>
		<g>
			<path fill="#27391E" d="M381.425,279.988c5.415,5.419,10.761,10.904,16.089,16.405c5.344,5.486,10.603,11.054,15.908,16.577
				l-0.741,0.033l7.836-9.838l7.863-9.816l7.926-9.767c2.669-3.234,5.315-6.487,8.011-9.699c-2.512,3.358-5.075,6.677-7.614,10.014
				l-7.7,9.946l-7.763,9.896l-7.789,9.875l-0.353,0.447l-0.389-0.414c-5.241-5.584-10.53-11.123-15.733-16.744
				C391.759,291.298,386.557,285.676,381.425,279.988z"/>
		</g>
		<path fill="#67923D" stroke="#27391E" stroke-miterlimit="10" d="M544.251,637.024c0,0-28.091-57.485-58.591-69.485
			s-47.236-11-47.236-11s-24.264-1-51.764-14.5C386.661,542.039,379.842,662.009,544.251,637.024z"/>
		<g>
			<path fill="#27391E" d="M386.661,542.039c5.334,5.616,10.892,11.014,16.543,16.305c5.638,5.306,11.393,10.486,17.271,15.52
				c11.752,10.069,23.925,19.663,36.721,28.357c12.753,8.74,26.131,16.631,40.278,22.877c7.071,3.115,14.346,5.795,21.823,7.765
				c7.462,2.003,15.144,3.294,22.892,3.484c-7.751-0.027-15.481-1.157-23.014-3.011c-7.533-1.879-14.87-4.49-22.008-7.532
				c-14.276-6.128-27.703-14.059-40.535-22.758c-12.786-8.789-24.995-18.394-36.66-28.604
				C408.321,564.218,397.121,553.469,386.661,542.039z"/>
		</g>
		<g>
			<path fill="#27391E" d="M423.668,554.511c0.094,1.883,0.142,3.766,0.208,5.648c0.071,1.883,0.086,3.766,0.131,5.648
				c0.031,1.883,0.093,3.766,0.093,5.648l0.038,5.648l0.003,0.466l-0.474,0.005c-2.605,0.022-5.211,0.037-7.816,0.006l-7.816-0.053
				c-5.21-0.094-10.421-0.187-15.632-0.424c5.21-0.237,10.421-0.33,15.632-0.424l7.816-0.053c2.605-0.031,5.21-0.017,7.816,0.006
				l-0.47,0.471l0.038-5.648c0-1.883,0.062-3.766,0.093-5.648c0.045-1.883,0.06-3.766,0.131-5.648
				C423.526,558.277,423.574,556.394,423.668,554.511z"/>
		</g>
		<g>
			<path fill="#27391E" d="M409.438,606.087c3.479-0.8,6.978-1.49,10.478-2.166c3.499-0.686,7.011-1.295,10.523-1.902
				c3.516-0.586,7.032-1.168,10.562-1.675l5.294-0.757c1.771-0.216,3.536-0.466,5.312-0.652c-1.738,0.41-3.487,0.756-5.23,1.136
				l-5.248,1.031c-3.499,0.686-7.011,1.295-10.523,1.901c-3.516,0.584-7.032,1.168-10.562,1.674
				C416.517,605.194,412.986,605.695,409.438,606.087z"/>
		</g>
		<g>
			<path fill="#27391E" d="M447.398,557.089c0.491,3.424,0.873,6.856,1.239,10.291c0.377,3.433,0.675,6.872,0.974,10.313
				c0.274,3.441,0.547,6.883,0.742,10.331l0.29,5.173c0.061,1.728,0.155,3.452,0.185,5.182c-0.256-1.711-0.447-3.428-0.673-5.141
				l-0.567-5.149c-0.376-3.434-0.675-6.873-0.972-10.313c-0.273-3.441-0.546-6.883-0.741-10.332
				C447.668,563.996,447.479,560.547,447.398,557.089z"/>
		</g>
		<g>
			<path fill="#27391E" d="M444.202,630.442c6.269-2.232,12.56-4.394,18.862-6.522c6.291-2.164,12.621-4.208,18.933-6.308
				l-0.328,0.403c0.416-4.148,0.879-8.292,1.345-12.435l1.391-12.431c0.987-8.28,1.967-16.562,3.087-24.828
				c-0.662,8.315-1.465,16.616-2.26,24.917l-1.282,12.442c-0.425,4.147-0.853,8.295-1.328,12.437l-0.036,0.312l-0.292,0.093
				c-6.336,2.025-12.654,4.106-19.011,6.067C456.938,626.585,450.582,628.549,444.202,630.442z"/>
		</g>
		<path fill="#67923D" stroke="#27391E" stroke-miterlimit="10" d="M627.161,692.039c0,0-27.823-8.151-37.333,0
			c-6.994,5.995-20.511,9.204-31.849,10.903c-10.411,1.561-26.801,2.373-39.557-2.743c-16.401-6.578-40.97-22.483-67.595-60.827
			c0,0,96.334-8.666,129,3.334S627.161,692.039,627.161,692.039z"/>
		<g>
			<path fill="#27391E" d="M450.827,639.372l176.333,52.667l-22.179-6.112l-22.126-6.302c-14.739-4.241-29.441-8.608-44.145-12.971
				c-14.681-4.439-29.364-8.867-44.013-13.412l-21.959-6.858L450.827,639.372z"/>
		</g>
		<g>
			<path fill="#27391E" d="M477.19,671.375c4.144-2.874,8.363-5.628,12.578-8.389l6.37-4.065c2.123-1.356,4.246-2.712,6.395-4.025
				l-0.112,0.713c-2.519-3.065-5.083-6.094-7.55-9.201c-2.496-3.085-4.966-6.192-7.378-9.347c2.686,2.926,5.315,5.898,7.917,8.894
				c2.631,2.972,5.166,6.024,7.745,9.039l0.354,0.413l-0.466,0.3c-2.117,1.365-4.26,2.689-6.404,4.012l-6.429,3.972
				C485.893,666.288,481.579,668.891,477.19,671.375z"/>
		</g>
		<g>
			<path fill="#27391E" d="M502.789,692.148c6.446-4.353,12.965-8.592,19.482-12.831l9.819-6.293
				c3.277-2.092,6.541-4.203,9.841-6.258l-0.125,0.701c-3.882-5.166-7.826-10.284-11.656-15.489
				c-3.861-5.182-7.698-10.382-11.47-15.632c4.065,5.026,8.065,10.102,12.041,15.196c4.007,5.07,7.899,10.229,11.854,15.338
				l0.32,0.415l-0.446,0.288c-3.267,2.107-6.569,4.157-9.859,6.229l-9.882,6.193C516.091,684.09,509.476,688.176,502.789,692.148z"
				/>
		</g>
		<g>
			<path fill="#27391E" d="M538.994,704.071l10.002-6.662l10.06-6.574c3.345-2.203,6.731-4.343,10.096-6.515l10.11-6.493
				l-0.157,0.683l-6.179-10.128c-2.053-3.38-4.135-6.742-6.156-10.142c-4.077-6.778-8.139-13.564-12.108-20.409
				c4.32,6.628,8.547,13.313,12.76,20.008c2.124,3.337,4.187,6.711,6.278,10.066l6.255,10.081l0.26,0.419l-0.417,0.264
				l-10.158,6.419c-3.391,2.132-6.762,4.296-10.172,6.396l-10.209,6.338L538.994,704.071z"/>
		</g>
	</g>
	<g>
		<path fill="#AA962E" stroke="#27391E" stroke-width="0.75" stroke-miterlimit="10" d="M749.161,718.039l-11-13.91
			c0,0,382-92.09,219.619-455.268C957.779,248.861,1172.161,546.316,749.161,718.039z"/>
		<path fill="#67923D" stroke="#27391E" stroke-miterlimit="10" d="M968.775,265.289c0,0,38.298-77.772-99.063-97.499
			C869.712,167.79,890.427,251.733,968.775,265.289z"/>
		<g>
			<path fill="#27391E" d="M968.025,265.153c-2.591-5.256-5.573-10.306-8.734-15.23c-3.15-4.933-6.506-9.732-10.043-14.391
				c-7.065-9.324-14.776-18.159-23.134-26.341c-8.302-8.237-17.249-15.819-26.679-22.742c-9.431-6.925-19.387-13.138-29.724-18.66
				c5.268,2.571,10.412,5.394,15.455,8.39c5.028,3.021,9.937,6.244,14.72,9.647c9.558,6.818,18.538,14.439,26.929,22.653
				c8.332,8.274,16.088,17.138,23.047,26.594C956.78,244.543,963.14,254.486,968.025,265.153z"/>
		</g>
		<g>
			<path fill="#27391E" d="M949.124,195.522c0.59,3.911,1.119,7.829,1.672,11.744l1.563,11.757l1.478,11.768
				c0.479,3.924,1,7.843,1.44,11.772l0.067,0.596l-0.591-0.053c-6.799-0.606-13.604-1.141-20.398-1.807
				c-6.797-0.635-13.591-1.297-20.378-2.048c6.818,0.373,13.629,0.833,20.438,1.321c6.811,0.457,13.611,1.046,20.418,1.562
				l-0.523,0.544c-0.505-3.921-0.929-7.852-1.395-11.778l-1.357-11.782l-1.271-11.792
				C949.896,203.393,949.479,199.461,949.124,195.522z"/>
		</g>
		<g>
			<path fill="#27391E" d="M931.424,184.853c0.986,5.677,1.891,11.366,2.765,17.06c0.913,5.688,1.684,11.396,2.532,17.092
				l0.081,0.546l-0.561,0.005c-3.416,0.031-6.833-0.005-10.249-0.017l-10.249-0.059c-6.833-0.092-13.665-0.183-20.498-0.408
				c6.833-0.225,13.665-0.316,20.498-0.408l10.249-0.059c3.416-0.012,6.833-0.048,10.249-0.017l-0.479,0.551
				c-0.757-5.709-1.592-11.408-2.285-17.127C932.745,196.299,932.043,190.582,931.424,184.853z"/>
		</g>
		<g>
			<path fill="#27391E" d="M908.144,175.983c0.752,3.229,1.463,6.465,2.124,9.711c0.688,3.24,1.327,6.49,1.941,9.745l0.102,0.542
				l-0.554,0.001c-2.594,0.008-5.188,0.063-7.782,0.026l-7.781-0.056l-7.781-0.152c-2.595-0.065-5.188-0.154-7.782-0.277
				c2.594-0.124,5.188-0.212,7.782-0.277l7.781-0.152l7.781-0.056c2.595-0.037,5.188,0.018,7.782,0.026l-0.452,0.543
				c-0.59-3.259-1.156-6.522-1.672-9.794C909.09,182.544,908.597,179.268,908.144,175.983z"/>
		</g>
		<path fill="#67923D" stroke="#27391E" stroke-miterlimit="10" d="M997.776,349.748c0,0,19.569-72.791-87.931-93.791
			c0,0,10.958,32.875,31.314,53.667c3.46,3.534,29.422,15.333,29.422,15.333S986.707,331.538,997.776,349.748z"/>
		<g>
			<path fill="#27391E" d="M909.846,255.957c8.291,6.88,16.377,14.004,24.359,21.242c7.979,7.243,15.79,14.669,23.465,22.238
				c7.609,7.631,15.104,15.396,22.129,23.581c3.5,4.102,6.903,8.293,10.055,12.675c1.561,2.2,3.06,4.447,4.429,6.772
				c1.367,2.323,2.615,4.733,3.494,7.283c-2.019-5.005-5.118-9.463-8.319-13.766c-3.219-4.306-6.678-8.43-10.238-12.46
				c-7.127-8.059-14.598-15.811-22.253-23.377c-7.605-7.617-15.419-15.025-23.28-22.383c-3.927-3.682-7.886-7.331-11.866-10.958
				C917.858,263.156,913.854,259.556,909.846,255.957z"/>
		</g>
		<g>
			<path fill="#27391E" d="M936.758,304.77c4.377-0.076,8.751-0.054,13.125-0.009c4.374,0.028,8.744,0.167,13.117,0.245
				l-0.504,0.434l0.871-6.964c0.303-2.32,0.571-4.645,0.902-6.961l0.979-6.952c0.362-2.313,0.691-4.629,1.087-6.938
				c-0.163,2.337-0.393,4.666-0.588,6.999l-0.695,6.986c-0.227,2.329-0.518,4.65-0.772,6.976l-0.804,6.973l-0.053,0.452
				l-0.451-0.017c-4.37-0.165-8.742-0.269-13.111-0.484C945.492,305.31,941.124,305.089,936.758,304.77z"/>
		</g>
		<g>
			<path fill="#27391E" d="M941.083,264.671c0.201,3.242,0.299,6.484,0.377,9.726c0.094,3.242,0.107,6.484,0.121,9.726l0.002,0.577
				l-0.572-0.084c-3.342-0.496-6.682-1.005-10.011-1.583l-4.993-0.877c-1.658-0.33-3.322-0.625-4.977-0.985
				c1.688,0.131,3.366,0.33,5.05,0.491l5.033,0.6c3.355,0.406,6.699,0.881,10.042,1.37l-0.57,0.493
				c0.014-3.242,0.027-6.484,0.121-9.726C940.784,271.155,940.882,267.913,941.083,264.671z"/>
		</g>
		<g>
			<path fill="#27391E" d="M986.952,297.651c-0.632,2.033-1.291,4.055-1.981,6.065c-0.701,2.006-1.374,4.023-2.1,6.021
				c-1.428,4.003-2.933,7.978-4.464,11.942l-0.118,0.307l-0.32-0.003c-2.464-0.022-4.927-0.083-7.391-0.157
				c-2.463-0.057-4.926-0.17-7.39-0.312c2.464-0.142,4.927-0.255,7.39-0.312c2.464-0.074,4.927-0.135,7.391-0.157l-0.438,0.304
				c1.463-3.99,2.953-7.97,4.52-11.921c0.771-1.98,1.597-3.94,2.392-5.911C985.248,301.551,986.087,299.596,986.952,297.651z"/>
		</g>
		<path fill="#67923D" stroke="#27391E" stroke-miterlimit="10" d="M1006.938,439.186c0,0,36.44-70.5-71.029-124
			C935.909,315.186,922.438,389.186,1006.938,439.186z"/>
		<g>
			<path fill="#27391E" d="M935.909,315.186c8.149,8.852,15.723,18.225,22.963,27.839c7.225,9.628,14.006,19.594,20.311,29.855
				c6.228,10.305,11.991,20.915,16.82,31.957c4.808,11.035,8.78,22.501,10.936,34.349c-1.284-5.876-2.941-11.661-4.935-17.326
				c-1.963-5.676-4.223-11.245-6.704-16.711c-4.957-10.937-10.692-21.512-16.97-31.749c-6.217-10.278-12.994-20.211-20.074-29.92
				c-3.537-4.857-7.176-9.641-10.902-14.356C943.646,324.393,939.837,319.74,935.909,315.186z"/>
		</g>
		<g>
			<path fill="#27391E" d="M964.444,331.886c-0.488,2.39-1.006,4.773-1.578,7.141c-0.554,2.373-1.124,4.742-1.729,7.101
				l-0.104,0.409l-0.426-0.066c-4.068-0.631-8.134-1.288-12.185-2.026c-2.027-0.357-4.046-0.771-6.069-1.153
				c-2.022-0.394-4.038-0.82-6.05-1.276c2.052,0.209,4.099,0.448,6.141,0.719c2.04,0.283,4.085,0.536,6.12,0.843
				c4.075,0.592,8.138,1.266,12.195,1.965l-0.53,0.343c0.648-2.348,1.333-4.686,2.032-7.02
				C962.943,336.527,963.68,334.203,964.444,331.886z"/>
		</g>
		<g>
			<path fill="#27391E" d="M977.386,342.01c-0.223,1.854-0.491,3.699-0.741,5.548c-0.246,1.85-0.547,3.689-0.817,5.535
				c-0.283,1.843-0.539,3.691-0.854,5.528l-0.909,5.52l-0.053,0.322l-0.328,0.062c-2.52,0.479-5.041,0.946-7.57,1.371l-7.581,1.313
				c-5.064,0.817-10.128,1.636-15.218,2.313c5.006-1.144,10.037-2.144,15.067-3.147l7.563-1.417
				c2.519-0.485,5.045-0.928,7.572-1.359l-0.38,0.384l0.983-5.507c0.316-1.837,0.691-3.665,1.039-5.497
				c0.36-1.83,0.69-3.665,1.076-5.491C976.615,345.662,976.978,343.832,977.386,342.01z"/>
		</g>
		<g>
			<path fill="#27391E" d="M957.904,395.606c5.521-0.295,11.044-0.444,16.566-0.603l8.284-0.142
				c2.762-0.059,5.523-0.087,8.286-0.089l-0.405,0.238c2.063-3.533,4.097-7.083,6.221-10.582c1.058-1.752,2.092-3.518,3.169-5.258
				s2.137-3.491,3.238-5.218c-0.935,1.822-1.912,3.62-2.871,5.429c-0.958,1.809-1.961,3.592-2.939,5.389
				c-1.949,3.599-3.987,7.146-5.996,10.711l-0.131,0.232l-0.275,0.006c-2.762,0.058-5.523,0.09-8.285,0.091l-8.286,0.038
				C968.955,395.81,963.431,395.781,957.904,395.606z"/>
		</g>
		<path fill="#67923D" stroke="#27391E" stroke-miterlimit="10" d="M978.897,546.306c0,0,107.93,3.732,92.041-134.306
			c0,0-26.452,22.827-36.547,28.795C1024.296,446.765,991.827,446.231,978.897,546.306z"/>
		<g>
			<path fill="#27391E" d="M1070.938,412c-5.1,12.712-10.98,25.107-17.32,37.254c-6.35,12.145-13.265,23.996-20.714,35.506
				c-7.522,11.458-15.587,22.583-24.5,33.01c-4.463,5.204-9.119,10.245-14.017,15.042c-4.918,4.774-10.069,9.311-15.49,13.494
				c5.319-4.313,10.354-8.962,15.146-13.841c4.814-4.857,9.396-9.941,13.774-15.192c8.765-10.497,16.811-21.584,24.251-33.058
				c7.502-11.438,14.389-23.271,20.874-35.319c3.245-6.023,6.365-12.114,9.366-18.264
				C1065.328,424.491,1068.252,418.298,1070.938,412z"/>
		</g>
		<g>
			<path fill="#27391E" d="M1038.494,436.539c1.444,4.241,2.788,8.511,4.113,12.786c0.682,2.132,1.302,4.283,1.945,6.426
				l1.918,6.434l-0.645-0.329l6.505-2.288c2.172-0.751,4.33-1.542,6.515-2.26l6.538-2.193c2.192-0.695,4.373-1.424,6.575-2.091
				c-2.125,0.883-4.272,1.704-6.408,2.559l-6.443,2.457c-2.144,0.832-4.313,1.591-6.469,2.39l-6.478,2.363l-0.5,0.183l-0.146-0.512
				l-1.832-6.458c-0.605-2.154-1.235-4.301-1.804-6.466C1040.705,445.217,1039.549,440.893,1038.494,436.539z"/>
		</g>
		<g>
			<path fill="#27391E" d="M1058.162,501.707c-6.266,0.191-12.532,0.292-18.798,0.366c-6.266,0.103-12.532,0.077-18.798,0.122
				l-0.324,0.002l-0.128-0.307c-1.361-3.271-2.647-6.571-3.976-9.855l-3.939-9.869l-3.863-9.901
				c-1.257-3.313-2.537-6.616-3.761-9.942c1.441,3.238,2.826,6.499,4.234,9.75l4.133,9.791l4.056,9.822
				c1.338,3.28,2.717,6.543,4.021,9.837l-0.452-0.305c6.266,0.045,12.532,0.02,18.798,0.122
				C1045.63,501.415,1051.896,501.516,1058.162,501.707z"/>
		</g>
		<g>
			<path fill="#27391E" d="M1035.322,527.805c-6.065,0.23-12.132,0.319-18.197,0.416l-9.099,0.055
				c-3.033,0.021-6.065,0.038-9.099,0.008l-0.316-0.003l-0.122-0.283c-1.876-4.365-3.804-8.708-5.618-13.101
				c-1.848-4.378-3.664-8.77-5.413-13.19c2.074,4.278,4.081,8.586,6.057,12.908c2.009,4.307,3.904,8.664,5.851,12.998l-0.438-0.286
				c3.033-0.03,6.065-0.014,9.099,0.008l9.099,0.055C1023.19,527.486,1029.257,527.575,1035.322,527.805z"/>
		</g>
		<path fill="#67923D" stroke="#27391E" stroke-miterlimit="10" d="M962.827,550.039c0,0,103.333-52.667-9.333-150
			c0,0,1.334,19.334-3.333,28.667s-23.5,46.333,7,82.667C957.161,511.373,976.827,531.372,962.827,550.039z"/>
		<g>
			<path fill="#27391E" d="M953.494,400.039c5.34,11.898,9.903,24.144,13.855,36.582c3.936,12.442,7.175,25.121,9.423,37.994
				c1.085,6.442,1.897,12.935,2.317,19.46c0.406,6.521,0.462,13.086-0.188,19.602c-0.641,6.507-1.908,12.989-4.217,19.123
				c-2.324,6.11-5.763,11.849-10.406,16.443c4.527-4.711,7.794-10.499,9.947-16.612c2.193-6.116,3.366-12.559,3.91-19.023
				c1.059-12.961-0.15-26.019-2.348-38.825c-2.157-12.834-5.4-25.472-9.17-37.936c-1.885-6.234-3.937-12.418-6.128-18.554
				C958.318,412.151,956.028,406.046,953.494,400.039z"/>
		</g>
		<g>
			<path fill="#27391E" d="M951.374,425.669c1.363,0.81,2.689,1.671,4.032,2.509l3.97,2.599c2.638,1.747,5.242,3.539,7.829,5.356
				l-0.707,0.15c1.466-2.409,2.934-4.817,4.47-7.185c1.519-2.377,3.059-4.743,4.679-7.06c-1.288,2.517-2.656,4.985-4.046,7.44
				c-1.372,2.466-2.813,4.892-4.255,7.315l-0.271,0.455l-0.437-0.304c-2.596-1.807-5.174-3.637-7.719-5.514l-3.805-2.836
				C953.867,427.621,952.603,426.671,951.374,425.669z"/>
		</g>
		<g>
			<path fill="#27391E" d="M942.603,448.154c5.163,1.623,10.28,3.375,15.397,5.123l7.649,2.701c2.548,0.903,5.101,1.795,7.633,2.742
				l-0.55,0.166c2.652-3.496,5.249-7.034,7.954-10.491c2.676-3.479,5.376-6.94,8.14-10.354c-2.472,3.631-5.007,7.214-7.567,10.779
				c-2.53,3.587-5.17,7.093-7.753,10.641l-0.208,0.285l-0.343-0.119c-2.553-0.889-5.087-1.834-7.624-2.768l-7.61-2.808
				C952.667,452.125,947.611,450.204,942.603,448.154z"/>
		</g>
		<g>
			<path fill="#27391E" d="M939.344,471.706c3.288,1.344,6.552,2.744,9.825,4.121l9.78,4.221l9.747,4.296
				c3.242,1.446,6.503,2.852,9.73,4.331l-0.591,0.154c3.748-4.964,7.44-9.971,11.234-14.901c3.772-4.947,7.565-9.878,11.432-14.755
				c-3.559,5.105-7.19,10.157-10.843,15.192c-3.631,5.052-7.363,10.028-11.04,15.046l-0.229,0.313l-0.363-0.159
				c-3.252-1.424-6.473-2.92-9.71-4.376l-9.695-4.411l-9.662-4.486C945.754,474.767,942.536,473.265,939.344,471.706z"/>
		</g>
		<path fill="none" stroke="#27391E" stroke-miterlimit="10" d="M924.661,648.039"/>
		<path fill="#67923D" stroke="#27391E" stroke-miterlimit="10" d="M805.661,683.539c0,0-6-43,3-58.5s37-41,37-41s32-30,36-34
			C881.661,550.039,911.661,658.039,805.661,683.539z"/>
		<g>
			<path fill="#27391E" d="M881.661,550.039c-2.194,6.065-4.528,12.08-6.923,18.07c-2.427,5.979-4.941,11.92-7.531,17.831
				c-5.191,11.814-10.773,23.46-16.736,34.911c-6.045,11.405-12.459,22.636-19.7,33.338c-7.265,10.646-15.239,20.992-25.109,29.35
				c4.835-4.274,9.143-9.098,13.156-14.128c4.034-5.021,7.771-10.273,11.313-15.649c7.086-10.757,13.491-21.954,19.455-33.374
				c6.026-11.392,11.586-23.026,16.923-34.76c2.671-5.866,5.26-11.771,7.78-17.704C876.832,561.999,879.315,556.046,881.661,550.039
				z"/>
		</g>
		<g>
			<path fill="#27391E" d="M841.918,587.532c2.318,3.875,4.549,7.798,6.76,11.73c2.227,3.925,4.354,7.902,6.537,11.852l-0.504-0.254
				l7.159-0.982c2.389-0.314,4.772-0.664,7.164-0.95l7.175-0.874c2.397-0.255,4.789-0.544,7.19-0.767
				c-2.368,0.454-4.746,0.843-7.119,1.265l-7.135,1.156c-2.378,0.391-4.765,0.718-7.146,1.08l-7.15,1.049l-0.343,0.051l-0.161-0.305
				c-2.105-3.99-4.264-7.951-6.325-11.965C845.944,595.612,843.888,591.595,841.918,587.532z"/>
		</g>
		<g>
			<path fill="#27391E" d="M854.812,575.449c1.637,2.81,3.207,5.654,4.747,8.514c1.559,2.85,3.068,5.725,4.555,8.611l-0.651-0.217
				c3.638-1.815,7.303-3.578,10.979-5.314c3.691-1.707,7.379-3.421,11.13-5.008c-3.548,2-7.157,3.874-10.764,5.754
				c-3.621,1.851-7.254,3.676-10.914,5.447l-0.435,0.21l-0.217-0.427c-1.47-2.896-2.914-5.804-4.312-8.736
				C857.516,581.36,856.13,578.421,854.812,575.449z"/>
		</g>
		<g>
			<path fill="#27391E" d="M822.927,606.781c1.552,2.555,3.047,5.142,4.572,7.711l4.478,7.763c1.505,2.581,2.941,5.199,4.416,7.798
				l4.391,7.811l-0.5-0.251l8.58-1.099c2.861-0.361,5.718-0.748,8.584-1.07c5.727-0.685,11.456-1.35,17.199-1.91
				c-5.689,0.964-11.393,1.822-17.099,2.662c-2.851,0.439-5.709,0.814-8.564,1.216l-8.569,1.188l-0.336,0.047l-0.164-0.299
				l-4.32-7.851c-1.429-2.623-2.896-5.225-4.295-7.864l-4.233-7.899C825.688,612.081,824.278,609.447,822.927,606.781z"/>
		</g>
		<g>
			<path fill="#27391E" d="M808.661,625.039c1.306,3.253,2.579,6.517,3.828,9.79l3.71,9.833l3.619,9.865
				c1.222,3.283,2.355,6.598,3.538,9.895l-0.435-0.302l6.465-0.039l6.466,0.03c4.311,0.011,8.622,0.073,12.934,0.173
				c-4.309,0.197-8.617,0.357-12.926,0.466l-6.464,0.177l-6.465,0.107l-0.323,0.006l-0.111-0.308
				c-1.195-3.293-2.438-6.568-3.595-9.875l-3.514-9.903l-3.423-9.936C810.838,631.701,809.733,628.375,808.661,625.039z"/>
		</g>
		<path fill="#67923D" stroke="#27391E" stroke-miterlimit="10" d="M934.661,486.039c0,0,55.219,94.486-31.259,144.403
			C903.402,630.442,864.661,570.039,934.661,486.039z"/>
		<g>
			<path fill="#27391E" d="M934.661,486.039c-0.506,12.413-1.523,24.803-2.816,37.162c-1.307,12.358-3.002,24.678-5.095,36.934
				c-2.185,12.235-4.741,24.427-8.256,36.364c-1.771,5.962-3.769,11.864-6.166,17.607c-2.443,5.712-5.23,11.33-8.926,16.336
				c3.507-5.133,6.189-10.765,8.472-16.521c2.297-5.759,4.205-11.667,5.881-17.635c3.35-11.941,5.908-24.097,8.012-36.323
				c2.17-12.218,3.849-24.521,5.317-36.847c0.738-6.163,1.393-12.337,1.981-18.518C933.682,498.42,934.205,492.233,934.661,486.039z
				"/>
		</g>
		<g>
			<path fill="#27391E" d="M946.493,514.755c-2.465,2.329-4.996,4.579-7.541,6.813c-2.534,2.246-5.119,4.433-7.705,6.617
				l-0.307,0.26l-0.318-0.248c-2.792-2.177-5.575-4.365-8.315-6.609l-4.104-3.373c-1.345-1.155-2.712-2.281-4.037-3.46
				c1.468,0.996,2.896,2.045,4.345,3.065l4.276,3.151c2.848,2.106,5.652,4.268,8.447,6.44l-0.625,0.011
				c2.603-2.164,5.206-4.328,7.86-6.432C941.113,518.876,943.77,516.777,946.493,514.755z"/>
		</g>
		<g>
			<path fill="#27391E" d="M951.217,537.327c-1.951,1.634-3.941,3.216-5.911,4.825l-5.976,4.739c-1.984,1.591-4.015,3.12-6.02,4.683
				l-6.037,4.661l-0.254,0.195l-0.281-0.151l-6.478-3.49c-2.157-1.167-4.326-2.313-6.465-3.515
				c-4.295-2.369-8.582-4.756-12.819-7.235c4.428,2.12,8.806,4.335,13.176,6.565c2.193,1.098,4.357,2.253,6.533,3.386l6.52,3.41
				l-0.535,0.044l6.086-4.596c2.036-1.522,4.046-3.079,6.104-4.573l6.146-4.517C947.077,540.282,949.127,538.778,951.217,537.327z"
				/>
		</g>
		<g>
			<path fill="#27391E" d="M892.71,570.039c4.863,2.163,9.678,4.423,14.485,6.699c2.413,1.119,4.795,2.303,7.19,3.456l7.179,3.48
				h-0.44l7.209-3.481c2.407-1.152,4.798-2.339,7.221-3.458l7.251-3.396c2.434-1.1,4.852-2.229,7.298-3.301
				c-2.347,1.275-4.722,2.493-7.082,3.741l-7.128,3.646c-2.37,1.229-4.772,2.389-7.159,3.584l-7.17,3.561l-0.221,0.109l-0.22-0.109
				l-7.139-3.562c-2.376-1.193-4.767-2.358-7.126-3.586C902.121,575.004,897.392,572.571,892.71,570.039z"/>
		</g>
		<path fill="#67923D" stroke="#27391E" stroke-miterlimit="10" d="M1006.363,448.878c0,0-76.609-53.114,42.216-143.379
			C1048.579,305.499,1072.938,395.226,1006.363,448.878z"/>
		<g>
			<path fill="#27391E" d="M1048.579,305.499c-2.215,5.84-4.41,11.686-6.539,17.556c-2.155,5.86-4.274,11.734-6.342,17.625
				c-4.143,11.778-8.192,23.59-11.935,35.5c-3.813,11.886-7.342,23.864-10.451,35.949c-1.557,6.042-2.981,12.119-4.187,18.241
				c-1.229,6.116-2.225,12.285-2.763,18.509c0.709-12.49,3.3-24.792,6.203-36.936c2.961-12.147,6.503-24.143,10.245-36.065
				c3.826-11.897,7.865-23.725,12.167-35.456C1039.285,328.692,1043.763,317.025,1048.579,305.499z"/>
		</g>
		<g>
			<path fill="#27391E" d="M1048.579,385.352c-5.605,3.746-11.27,7.399-16.942,11.038c-2.826,1.836-5.689,3.612-8.535,5.417
				l-8.549,5.395l-0.35,0.221l-0.28-0.304l-6.862-7.428c-2.281-2.482-4.59-4.938-6.844-7.446l-6.793-7.494
				c-2.237-2.522-4.5-5.021-6.716-7.565c2.381,2.389,4.715,4.822,7.074,7.231l6.997,7.303c2.343,2.425,4.631,4.9,6.946,7.35
				l6.928,7.368l-0.63-0.083l8.597-5.318c2.869-1.767,5.722-3.562,8.61-5.296C1036.988,392.237,1042.755,388.748,1048.579,385.352z"
				/>
		</g>
		<g>
			<path fill="#27391E" d="M1052.64,333.991c-2.732,1.028-5.495,1.957-8.264,2.867c-2.764,0.924-5.55,1.772-8.337,2.62l-0.393,0.12
				l-0.191-0.365c-1.4-2.679-2.789-5.364-4.116-8.082l-1.981-4.081c-0.627-1.378-1.286-2.739-1.886-4.131
				c0.805,1.285,1.55,2.601,2.327,3.9l2.23,3.951c1.481,2.636,2.9,5.306,4.309,7.981l-0.584-0.246
				c2.794-0.822,5.589-1.644,8.406-2.39C1046.973,335.374,1049.791,334.633,1052.64,333.991z"/>
		</g>
		<g>
			<path fill="#27391E" d="M1052.005,361.759c-4.451,1.72-8.934,3.346-13.424,4.951c-4.483,1.622-9.004,3.137-13.505,4.711
				l-0.345,0.121l-0.214-0.299l-4.468-6.256c-1.479-2.093-2.985-4.166-4.441-6.275l-4.38-6.32c-1.43-2.128-2.887-4.237-4.29-6.384
				c1.593,2.011,3.133,4.06,4.699,6.09l4.61,6.154c1.541,2.048,3.03,4.133,4.548,6.199l4.521,6.218l-0.558-0.179
				c4.528-1.491,9.037-3.041,13.582-4.484C1042.881,364.544,1047.427,363.105,1052.005,361.759z"/>
		</g>
		<path fill="#67923D" stroke="#27391E" stroke-miterlimit="10" d="M1000.223,343.878c0,0,86.879-54.902-10.198-137.689
			c0,0,2.007,18.731-1.517,28.03C984.985,243.519,949.037,262.17,1000.223,343.878z"/>
		<g>
			<path fill="#27391E" d="M990.024,206.188c4.104,4.237,6.987,9.519,9.187,14.971c2.172,5.487,3.651,11.223,4.764,17.007
				c2.182,11.595,2.824,23.408,2.898,35.171c-0.031,11.773-0.695,23.535-1.87,35.239c-1.196,11.7-2.785,23.364-5.026,34.906
				c0.923-5.804,1.73-11.624,2.422-17.457c0.718-5.83,1.336-11.671,1.839-17.521c1.014-11.697,1.684-23.43,1.637-35.165
				c0.01-11.727-0.646-23.483-2.652-35.035c-1.015-5.767-2.403-11.485-4.465-16.969
				C996.722,215.857,993.957,210.575,990.024,206.188z"/>
		</g>
		<g>
			<path fill="#27391E" d="M1026.795,249.23c-3.28,3.548-6.615,7.042-9.974,10.512c-3.332,3.497-6.755,6.902-10.135,10.352
				l-0.344,0.352l-0.347-0.362c-2.066-2.162-4.095-4.36-6.125-6.555l-6.093-6.586c-4.019-4.431-8.042-8.857-11.963-13.379
				c4.256,4.209,8.409,8.513,12.567,12.813l6.174,6.51c2.058,2.17,4.118,4.338,6.141,6.541l-0.69-0.01
				c3.437-3.392,6.829-6.828,10.313-10.173C1019.778,255.872,1023.26,252.524,1026.795,249.23z"/>
		</g>
		<g>
			<path fill="#27391E" d="M1035.896,279.988c-5.132,5.688-10.334,11.31-15.552,16.915c-5.203,5.621-10.492,11.16-15.733,16.744
				l-0.389,0.414l-0.353-0.447l-7.789-9.875l-7.763-9.896l-7.7-9.946c-2.539-3.337-5.102-6.655-7.614-10.014
				c2.696,3.212,5.342,6.465,8.011,9.699l7.926,9.767l7.863,9.816l7.836,9.838l-0.741-0.033
				c5.306-5.523,10.564-11.091,15.908-16.577C1025.136,290.892,1030.481,285.407,1035.896,279.988z"/>
		</g>
		<path fill="#67923D" stroke="#27391E" stroke-miterlimit="10" d="M873.07,637.024c0,0,28.091-57.485,58.591-69.485
			s47.236-11,47.236-11s24.264-1,51.764-14.5C1030.661,542.039,1037.479,662.009,873.07,637.024z"/>
		<g>
			<path fill="#27391E" d="M1030.661,542.039c-10.461,11.431-21.661,22.18-33.313,32.402
				c-11.664,10.211-23.873,19.815-36.659,28.604c-12.832,8.699-26.26,16.63-40.535,22.758c-7.138,3.042-14.475,5.653-22.008,7.532
				c-7.532,1.854-15.263,2.983-23.014,3.011c7.749-0.19,15.43-1.481,22.892-3.484c7.478-1.97,14.753-4.649,21.824-7.765
				c14.147-6.246,27.524-14.137,40.277-22.877c12.797-8.694,24.97-18.288,36.722-28.357c5.879-5.033,11.634-10.214,17.271-15.52
				C1019.77,553.052,1025.327,547.655,1030.661,542.039z"/>
		</g>
		<g>
			<path fill="#27391E" d="M993.653,554.511c0.094,1.883,0.142,3.766,0.208,5.648c0.07,1.883,0.085,3.766,0.131,5.648
				c0.031,1.883,0.093,3.766,0.094,5.648l0.038,5.648l-0.471-0.471c2.605-0.022,5.211-0.037,7.816-0.006l7.816,0.053
				c5.21,0.094,10.421,0.187,15.632,0.424c-5.211,0.237-10.422,0.33-15.632,0.424l-7.816,0.053
				c-2.605,0.031-5.211,0.017-7.816-0.006l-0.474-0.005l0.003-0.466l0.038-5.648c0.001-1.883,0.063-3.766,0.094-5.648
				c0.046-1.883,0.061-3.766,0.131-5.648C993.512,558.277,993.56,556.394,993.653,554.511z"/>
		</g>
		<g>
			<path fill="#27391E" d="M1007.884,606.087c-3.549-0.393-7.079-0.894-10.606-1.41c-3.529-0.506-7.045-1.09-10.562-1.674
				c-3.513-0.606-7.024-1.216-10.523-1.901l-5.247-1.031c-1.743-0.38-3.492-0.726-5.23-1.136c1.776,0.187,3.541,0.437,5.313,0.652
				l5.294,0.757c3.529,0.507,7.046,1.089,10.562,1.675c3.512,0.607,7.024,1.217,10.522,1.902
				C1000.906,604.597,1004.404,605.288,1007.884,606.087z"/>
		</g>
		<g>
			<path fill="#27391E" d="M969.923,557.089c-0.08,3.458-0.27,6.906-0.476,10.354c-0.194,3.449-0.468,6.891-0.741,10.332
				c-0.297,3.44-0.596,6.88-0.972,10.313l-0.567,5.149c-0.226,1.713-0.417,3.43-0.673,5.141c0.03-1.729,0.124-3.454,0.185-5.182
				l0.289-5.173c0.195-3.448,0.468-6.89,0.743-10.331c0.298-3.44,0.597-6.88,0.974-10.313
				C969.05,563.946,969.432,560.513,969.923,557.089z"/>
		</g>
		<g>
			<path fill="#27391E" d="M973.119,630.442c-6.379-1.893-12.735-3.856-19.081-5.853c-6.356-1.961-12.675-4.042-19.011-6.067
				l-0.292-0.093l-0.036-0.312c-0.475-4.142-0.902-8.289-1.328-12.437l-1.282-12.442c-0.795-8.301-1.598-16.602-2.26-24.917
				c1.12,8.267,2.1,16.548,3.087,24.828l1.391,12.431c0.466,4.143,0.93,8.286,1.346,12.435l-0.328-0.403
				c6.312,2.1,12.642,4.144,18.933,6.308C960.559,626.048,966.851,628.209,973.119,630.442z"/>
		</g>
		<path fill="#67923D" stroke="#27391E" stroke-miterlimit="10" d="M790.161,692.039c0,0,27.822-8.151,37.333,0
			c6.994,5.995,20.511,9.204,31.849,10.903c10.411,1.561,26.801,2.373,39.557-2.743c16.402-6.578,40.97-22.483,67.595-60.827
			c0,0-96.333-8.666-129,3.334S790.161,692.039,790.161,692.039z"/>
		<g>
			<path fill="#27391E" d="M966.494,639.372l-21.911,7.012l-21.96,6.858c-14.647,4.545-29.331,8.973-44.012,13.412
				c-14.704,4.362-29.406,8.73-44.146,12.971l-22.126,6.302l-22.179,6.112L966.494,639.372z"/>
		</g>
		<g>
			<path fill="#27391E" d="M940.131,671.375c-4.389-2.484-8.702-5.088-13.02-7.686l-6.429-3.972
				c-2.144-1.322-4.287-2.646-6.404-4.012l-0.466-0.3l0.354-0.413c2.58-3.015,5.114-6.067,7.745-9.039
				c2.604-2.995,5.232-5.968,7.918-8.894c-2.413,3.154-4.883,6.262-7.378,9.347c-2.468,3.108-5.031,6.136-7.551,9.201l-0.112-0.713
				c2.149,1.313,4.272,2.669,6.395,4.025l6.37,4.065C931.769,665.748,935.987,668.501,940.131,671.375z"/>
		</g>
		<g>
			<path fill="#27391E" d="M914.533,692.148c-6.688-3.972-13.303-8.058-19.919-12.143l-9.882-6.193
				c-3.29-2.071-6.593-4.121-9.859-6.229l-0.446-0.288l0.32-0.415c3.955-5.109,7.848-10.268,11.854-15.338
				c3.976-5.095,7.976-10.17,12.041-15.196c-3.771,5.25-7.608,10.45-11.47,15.632c-3.83,5.205-7.774,10.323-11.656,15.489
				l-0.126-0.701c3.301,2.055,6.564,4.166,9.842,6.258l9.818,6.293C901.568,683.556,908.087,687.795,914.533,692.148z"/>
		</g>
		<g>
			<path fill="#27391E" d="M878.328,704.071l-10.266-6.249l-10.21-6.338c-3.41-2.101-6.781-4.265-10.172-6.396l-10.158-6.419
				l-0.417-0.264l0.26-0.419l6.256-10.081c2.092-3.355,4.154-6.729,6.278-10.066c4.213-6.694,8.439-13.38,12.76-20.008
				c-3.969,6.845-8.031,13.631-12.108,20.409c-2.021,3.399-4.103,6.762-6.156,10.142l-6.178,10.128l-0.157-0.683l10.11,6.493
				c3.365,2.172,6.751,4.312,10.097,6.515l10.059,6.574L878.328,704.071z"/>
		</g>
	</g>
	<polygon fill="#82A53C" stroke="#507E3A" stroke-width="0.5" stroke-miterlimit="10" points="711.155,476.23 711.155,473.577 
		713.985,473.577 715.223,470.039 718.229,471.454 723.537,476.23 725.305,480.652 721.06,480.652 718.229,477.646 714.161,476.584 
			"/>
	<g>
		<path fill="#42469C" d="M708.661,422.039h-126v68.334c0,0-0.247,69.666,82.291,73.399c12.51,0.565,29.987,12.462,38.196,19.942
			c4.014,3.657,3.264,4.241,5.514,4.658c2.25-0.417,1.5-1.001,5.514-4.658c8.209-7.48,25.686-19.377,38.196-19.942
			c82.538-3.733,82.291-73.399,82.291-73.399v-68.334H708.661z"/>
		<g>
			<path d="M598.659,400.551c0,0.254-0.24,0.453-0.719,0.595c-0.546,0.165-1.153,0.678-1.819,1.539
				c-1.31,1.707-2.126,2.778-2.448,3.212c-0.756,1.033-1.419,2.018-1.988,2.954v3.976c0,0.532,0.101,0.895,0.303,1.089
				c0.165,0.15,0.546,0.296,1.146,0.438c0.449,0.097,0.647,0.281,0.595,0.55c-0.03,0.172-0.12,0.266-0.27,0.281
				c-0.015,0.007-0.168-0.004-0.46-0.034c-1.49-0.127-2.954-0.135-4.391-0.022c-0.449,0.083-0.696-0.007-0.741-0.27
				c-0.045-0.247,0.086-0.408,0.393-0.483c0.614-0.165,1.013-0.365,1.196-0.601c0.183-0.236,0.275-0.657,0.275-1.264v-3.066
				c-1.018-1.992-2.707-4.376-5.065-7.154c-0.606-0.711-1.22-1.13-1.842-1.258c-0.367-0.075-0.55-0.184-0.55-0.326
				c0-0.344,0.161-0.498,0.483-0.46c1.355,0.165,3.006,0.097,4.953-0.202c0.27-0.045,0.438-0.06,0.505-0.045
				c0.12,0.038,0.18,0.165,0.18,0.382c0,0.165-0.191,0.318-0.573,0.46c-0.651,0.247-0.977,0.513-0.977,0.797
				c0,0.142,0.079,0.322,0.236,0.539c0.951,1.273,2.194,3.1,3.729,5.48c0.09,0.135,0.161,0.202,0.213,0.202
				c0.06,0,0.135-0.067,0.225-0.202c0.33-0.494,0.893-1.303,1.69-2.426c0.797-1.123,1.391-1.98,1.78-2.572
				c0.195-0.285,0.292-0.532,0.292-0.741c0-0.397-0.341-0.708-1.022-0.932c-0.367-0.127-0.535-0.303-0.505-0.528
				c0.03-0.262,0.281-0.363,0.752-0.303c1.475,0.18,2.789,0.195,3.942,0.045C598.498,400.166,598.659,400.282,598.659,400.551z"/>
			<path d="M616.942,407.638c0,2.164-0.801,3.998-2.403,5.503c-1.572,1.482-3.463,2.224-5.671,2.224
				c-2.321,0-4.249-0.696-5.784-2.089c-1.572-1.438-2.358-3.294-2.358-5.57c0-2.201,0.797-4.05,2.392-5.548
				c1.572-1.467,3.489-2.201,5.75-2.201c2.306,0,4.223,0.715,5.75,2.145C616.167,403.554,616.942,405.399,616.942,407.638z
				 M614.662,408.02c0-2.179-0.595-3.901-1.786-5.166c-1.146-1.213-2.658-1.819-4.537-1.819c-1.557,0-2.836,0.575-3.835,1.724
				c-1,1.149-1.5,2.645-1.5,4.487c0,2.208,0.58,3.946,1.741,5.211c1.13,1.228,2.666,1.842,4.604,1.842
				c1.565,0,2.841-0.577,3.83-1.729S614.662,409.899,614.662,408.02z"/>
			<path d="M636.741,404.37c0,1.422-0.58,2.545-1.741,3.369c-1.108,0.771-2.549,1.157-4.324,1.157c-0.142,0-0.38-0.011-0.713-0.034
				c-0.333-0.022-0.518-0.034-0.556-0.034c-0.075,0-0.112,0.116-0.112,0.348v4.021c0,0.352,0.073,0.58,0.219,0.685
				c0.146,0.105,0.541,0.213,1.185,0.326c0.412,0.075,0.618,0.221,0.618,0.438c0,0.187-0.034,0.303-0.101,0.348
				s-0.254,0.06-0.562,0.045c-1.355-0.06-2.834-0.03-4.436,0.09c-0.322,0.022-0.483-0.108-0.483-0.393
				c0-0.195,0.161-0.307,0.483-0.337c0.734-0.075,1.101-0.476,1.101-1.202v-10.759c0-0.711-0.416-1.149-1.247-1.314
				c-0.412-0.083-0.618-0.213-0.618-0.393c0-0.232,0.056-0.371,0.168-0.416c0.075-0.03,0.247-0.022,0.517,0.022
				c0.344,0.067,0.842,0.101,1.494,0.101c0.33,0,0.923-0.017,1.78-0.05c0.857-0.034,1.548-0.051,2.072-0.051
				c1.602,0,2.868,0.337,3.796,1.011C636.254,402.052,636.741,403.06,636.741,404.37z M634.563,404.617
				c0-1.31-0.307-2.228-0.921-2.751c-0.577-0.494-1.55-0.741-2.92-0.741c-0.562,0-0.939,0.077-1.134,0.23
				c-0.195,0.153-0.292,0.484-0.292,0.994v5.379c0,0.209,0.498,0.314,1.494,0.314c1.161,0,2.08-0.296,2.757-0.887
				C634.224,406.563,634.563,405.717,634.563,404.617z"/>
			<path d="M655.406,407.638c0,2.164-0.801,3.998-2.403,5.503c-1.572,1.482-3.463,2.224-5.671,2.224
				c-2.321,0-4.249-0.696-5.784-2.089c-1.572-1.438-2.358-3.294-2.358-5.57c0-2.201,0.797-4.05,2.392-5.548
				c1.572-1.467,3.489-2.201,5.75-2.201c2.306,0,4.223,0.715,5.75,2.145C654.631,403.554,655.406,405.399,655.406,407.638z
				 M653.126,408.02c0-2.179-0.595-3.901-1.786-5.166c-1.146-1.213-2.658-1.819-4.537-1.819c-1.557,0-2.835,0.575-3.835,1.724
				c-0.999,1.149-1.499,2.645-1.499,4.487c0,2.208,0.58,3.946,1.741,5.211c1.13,1.228,2.666,1.842,4.604,1.842
				c1.565,0,2.841-0.577,3.83-1.729S653.126,409.899,653.126,408.02z"/>
			<path d="M675.329,400.484c0,0.187-0.202,0.341-0.606,0.46c-0.898,0.254-1.348,0.775-1.348,1.561v8.075
				c0,1.7,0.022,3.07,0.067,4.11c0.015,0.397-0.079,0.622-0.281,0.674c-0.337,0.083-0.622-0.094-0.854-0.528
				c-0.375-0.711-1.842-2.463-4.402-5.256c-2.141-2.329-4.215-4.503-6.222-6.525c-0.067-0.067-0.135-0.086-0.202-0.056
				c-0.075,0.038-0.112,0.124-0.112,0.258v9.209c0,0.988,0.498,1.576,1.494,1.763c0.412,0.083,0.618,0.229,0.618,0.438
				c0,0.285-0.232,0.416-0.696,0.393c-1.782-0.075-3.167-0.075-4.155,0c-0.322,0.022-0.483-0.108-0.483-0.393
				c0-0.157,0.161-0.27,0.483-0.337c0.577-0.135,0.962-0.318,1.157-0.55s0.292-0.625,0.292-1.179v-9.939c0-0.434-0.09-0.768-0.27-1
				c-0.172-0.209-0.505-0.427-1-0.651c-0.367-0.172-0.543-0.348-0.528-0.528c0.022-0.202,0.191-0.281,0.505-0.236
				c0.973,0.135,1.815,0.165,2.527,0.09c0.367-0.038,0.696,0.101,0.988,0.416l9.411,10.029c0.127,0.142,0.213,0.213,0.258,0.213
				c0.06,0,0.09-0.101,0.09-0.303v-8.12c0-0.951-0.498-1.512-1.494-1.685c-0.352-0.06-0.528-0.165-0.528-0.314
				c0-0.314,0.161-0.453,0.483-0.416c1.228,0.135,2.598,0.12,4.11-0.045c0.262-0.03,0.431-0.034,0.505-0.011
				C675.266,400.14,675.329,400.267,675.329,400.484z"/>
			<path d="M693.477,407.379c0,2.605-0.86,4.582-2.582,5.93c-1.61,1.243-3.849,1.864-6.716,1.864c-0.24,0-0.782-0.022-1.628-0.067
				s-1.498-0.067-1.954-0.067c-0.614,0-1.295,0.03-2.044,0.09c-0.322,0.03-0.483-0.101-0.483-0.393c0-0.195,0.161-0.307,0.483-0.337
				c0.734-0.075,1.101-0.476,1.101-1.202v-10.759c0-0.404-0.083-0.678-0.247-0.82c-0.135-0.112-0.431-0.217-0.887-0.314
				c-0.382-0.075-0.614-0.139-0.696-0.191s-0.131-0.165-0.146-0.337c-0.022-0.18,0.056-0.296,0.236-0.348
				c0.038-0.007,0.202-0.022,0.494-0.045c1.61-0.105,3.744-0.157,6.401-0.157c2.583,0,4.661,0.622,6.233,1.864
				C692.666,403.377,693.477,405.141,693.477,407.379z M691.13,407.683c0-4.342-2.231-6.514-6.693-6.514h-1.572
				c-0.824,0.075-1.235,0.303-1.235,0.685v10.422c0,0.734,0.195,1.224,0.584,1.471s1.168,0.371,2.336,0.371
				C688.937,414.118,691.13,411.973,691.13,407.683z"/>
			<path d="M709.649,415.061c0.008,0.172-0.138,0.258-0.438,0.258c-2.688,0-5.226-2.302-7.614-6.907
				c-0.921,0.045-1.411,0.067-1.472,0.067v4.717c0,0.352,0.087,0.586,0.259,0.702c0.172,0.116,0.554,0.219,1.146,0.309
				c0.412,0.067,0.617,0.213,0.617,0.438c0,0.187-0.033,0.303-0.101,0.348s-0.255,0.06-0.562,0.045
				c-1.355-0.06-2.834-0.03-4.436,0.09c-0.322,0.022-0.483-0.108-0.483-0.393c0-0.195,0.161-0.307,0.483-0.337
				c0.733-0.075,1.1-0.476,1.1-1.202v-10.759c0-0.711-0.415-1.149-1.246-1.314c-0.412-0.083-0.617-0.213-0.617-0.393
				c0-0.277,0.138-0.416,0.415-0.416c0.082,0,0.172,0.007,0.27,0.022c0.307,0.045,0.774,0.067,1.403,0.067
				c0.21,0,0.738-0.011,1.584-0.034s1.632-0.034,2.358-0.034c1.497,0,2.681,0.281,3.549,0.842c0.974,0.622,1.46,1.539,1.46,2.751
				c0,2.074-1.198,3.444-3.594,4.11c0.764,1.737,1.662,3.227,2.695,4.47c1.056,1.273,2.007,1.977,2.853,2.111
				C709.511,414.661,709.634,414.807,709.649,415.061z M705.135,404.201c0-1.108-0.285-1.898-0.854-2.37
				c-0.569-0.472-1.479-0.708-2.729-0.708c-0.562,0-0.939,0.077-1.134,0.23c-0.195,0.153-0.293,0.484-0.293,0.994v5.29
				c1.813-0.06,3.115-0.378,3.908-0.955C704.768,406.151,705.135,405.324,705.135,404.201z"/>
			<path d="M722.844,412.231c-0.209,0.891-0.348,1.79-0.415,2.695c-0.008,0.142-0.235,0.202-0.685,0.18
				c-1.168-0.06-2.658-0.09-4.471-0.09c-1.991,0-3.705,0.038-5.143,0.112c-0.322,0.015-0.483-0.116-0.483-0.393
				c0-0.195,0.161-0.307,0.483-0.337c0.449-0.052,0.737-0.139,0.864-0.258c0.157-0.15,0.235-0.464,0.235-0.943v-10.343
				c0-0.696-0.063-1.136-0.19-1.319c-0.127-0.184-0.479-0.365-1.056-0.545c-0.307-0.097-0.419-0.281-0.337-0.55
				c0.037-0.142,0.098-0.221,0.18-0.236c0.075-0.022,0.273-0.007,0.595,0.045c0.479,0.075,1.73,0.112,3.752,0.112
				c2.014,0,3.747-0.045,5.199-0.135c0.486-0.03,0.73,0.004,0.73,0.101c0,0.038-0.008,0.075-0.023,0.112
				c-0.156,0.734-0.225,1.576-0.201,2.527c0.007,0.232-0.102,0.348-0.326,0.348c-0.21,0-0.355-0.101-0.438-0.303
				c-0.21-0.524-0.394-0.88-0.551-1.067c-0.239-0.285-0.584-0.464-1.033-0.539c-0.359-0.067-1.625-0.101-3.796-0.101
				c-0.247,0-0.404,0.041-0.472,0.124c-0.037,0.045-0.057,0.157-0.057,0.337v4.694c0,0.187,0.109,0.281,0.326,0.281
				c0.688-0.015,1.677-0.063,2.965-0.146c0.225-0.022,0.39-0.131,0.494-0.326c0.082-0.15,0.168-0.46,0.258-0.932
				c0.068-0.322,0.244-0.438,0.528-0.348c0.255,0.045,0.363,0.161,0.325,0.348c-0.209,1.018-0.276,2.343-0.201,3.976
				c0.007,0.18-0.116,0.288-0.371,0.326c-0.225,0.03-0.355-0.094-0.393-0.371c-0.075-0.577-0.171-0.957-0.287-1.14
				c-0.116-0.183-0.335-0.293-0.656-0.331c-0.614-0.075-1.543-0.112-2.785-0.112c-0.135,0-0.203,0.052-0.203,0.157v4.896
				c0,0.696,0.404,1.123,1.213,1.28c0.203,0.038,0.902,0.056,2.101,0.056c1.864,0,3.028-0.651,3.493-1.954
				c0.111-0.307,0.295-0.408,0.55-0.303C722.803,411.875,722.897,412.014,722.844,412.231z M719.824,395.374
				c0,0.142-0.082,0.341-0.247,0.595c-0.891,1.085-1.85,2.074-2.875,2.965c-0.157,0.135-0.359,0.127-0.606-0.022
				c-0.172-0.105-0.217-0.209-0.135-0.314c0.441-0.591,0.85-1.34,1.224-2.246c0.353-0.846,0.573-1.318,0.663-1.415
				c0.202-0.217,0.386-0.326,0.55-0.326c0.3,0,0.618,0.097,0.955,0.292C719.667,395.089,719.824,395.247,719.824,395.374z"/>
			<path d="M750.776,414.668c0,0.187-0.039,0.303-0.118,0.348c-0.078,0.045-0.278,0.06-0.601,0.045
				c-1.954-0.083-3.471-0.083-4.549,0c-0.336,0.022-0.505-0.108-0.505-0.393c0-0.157,0.169-0.27,0.505-0.337
				c0.667-0.15,1.067-0.273,1.202-0.371c0.165-0.127,0.239-0.412,0.225-0.854l-0.394-9.591c-0.007-0.195-0.06-0.292-0.156-0.292
				c-0.075,0-0.146,0.067-0.214,0.202c-1.333,2.68-2.269,4.586-2.808,5.716c-1.086,2.253-1.854,3.964-2.303,5.132
				c-0.201,0.546-0.307,0.827-0.314,0.842c-0.074,0.135-0.183,0.225-0.325,0.27c-0.075,0.022-0.139,0.034-0.19,0.034
				c-0.15,0-0.285-0.221-0.404-0.663c-0.473-1.692-2.097-5.447-4.875-11.264c-0.082-0.172-0.172-0.258-0.27-0.258
				c-0.119,0-0.183,0.116-0.19,0.348c-0.104,2.224-0.229,5.185-0.37,8.883c-0.045,0.988,0.452,1.576,1.493,1.763
				c0.412,0.075,0.618,0.221,0.618,0.438c0,0.187-0.04,0.303-0.118,0.348c-0.079,0.045-0.275,0.06-0.59,0.045
				c-1.722-0.067-3.059-0.067-4.009,0c-0.338,0.022-0.506-0.108-0.506-0.393c0-0.157,0.168-0.27,0.506-0.337
				c0.599-0.127,0.991-0.326,1.179-0.595c0.149-0.209,0.232-0.588,0.247-1.134l0.393-9.939c0.016-0.434-0.07-0.768-0.258-1
				c-0.165-0.202-0.498-0.419-1-0.651c-0.359-0.165-0.527-0.341-0.505-0.528c0.015-0.202,0.176-0.281,0.483-0.236
				c1.145,0.165,2.148,0.195,3.01,0.09c0.329-0.038,0.554-0.03,0.674,0.022c0.119,0.052,0.225,0.184,0.314,0.393l4.694,10.748
				c0.061,0.15,0.113,0.225,0.158,0.225s0.111-0.101,0.201-0.303c0.3-0.644,1.974-4.114,5.021-10.411
				c0.188-0.382,0.423-0.573,0.708-0.573c0.695,0,1.669-0.101,2.92-0.303c0.284-0.045,0.46-0.06,0.527-0.045
				c0.127,0.038,0.191,0.176,0.191,0.416c0,0.18-0.199,0.333-0.596,0.46c-0.936,0.292-1.396,0.644-1.381,1.056l0.415,10.927
				c0.015,0.434,0.124,0.741,0.325,0.921c0.165,0.157,0.469,0.277,0.91,0.359C750.566,414.313,750.776,414.458,750.776,414.668z"/>
			<path d="M759.535,400.506c0,0.187-0.202,0.341-0.606,0.46c-0.906,0.27-1.359,0.622-1.359,1.056v10.927
				c0,0.704,0.416,1.13,1.247,1.28c0.412,0.075,0.618,0.221,0.618,0.438c0,0.187-0.036,0.303-0.107,0.348s-0.264,0.06-0.578,0.045
				c-1.977-0.083-3.504-0.083-4.582,0c-0.277,0.022-0.438-0.03-0.482-0.157c-0.016-0.052-0.023-0.131-0.023-0.236
				c0-0.15,0.169-0.262,0.506-0.337c0.629-0.142,0.992-0.243,1.09-0.303c0.239-0.15,0.359-0.457,0.359-0.921V402.09
				c0-0.622-0.42-1.003-1.258-1.146c-0.353-0.06-0.528-0.168-0.528-0.326c0-0.217,0.028-0.35,0.084-0.399
				c0.057-0.048,0.189-0.062,0.399-0.039c1.459,0.157,2.968,0.142,4.525-0.045c0.292-0.038,0.464-0.049,0.517-0.034
				C759.476,400.14,759.535,400.274,759.535,400.506z"/>
			<path d="M783.659,414.814c-0.045,0.202-0.094,0.322-0.146,0.359c-0.045,0.03-0.149,0.022-0.314-0.022
				c-1.07-0.195-2.636-0.217-4.694-0.067c-0.39,0.03-0.603-0.045-0.64-0.225c-0.038-0.209,0.086-0.371,0.37-0.483
				c0.809-0.33,1.213-0.636,1.213-0.921c0-0.112-0.045-0.273-0.135-0.483c-0.554-1.325-1.015-2.392-1.382-3.201
				c-0.531,0.03-1.467,0.045-2.807,0.045c-1.108,0-2.052-0.03-2.83-0.09c-0.263,0.644-0.629,1.542-1.102,2.695
				c-0.104,0.262-0.156,0.498-0.156,0.708c0,0.419,0.228,0.726,0.685,0.921c0.704,0.299,1.048,0.528,1.033,0.685
				c-0.015,0.254-0.251,0.355-0.708,0.303c-1.407-0.15-2.71-0.105-3.908,0.135c-0.314,0.067-0.49-0.045-0.527-0.337
				c-0.03-0.195,0.213-0.404,0.73-0.629c0.554-0.232,1.021-0.768,1.403-1.606c1.46-3.167,2.403-5.249,2.83-6.244
				c1.033-2.388,1.763-4.339,2.19-5.851c0.06-0.232,0.355-0.449,0.887-0.651c0.127-0.045,0.288,0.172,0.482,0.651
				c1.617,3.893,3.43,8.056,5.436,12.488c0.322,0.704,0.865,1.172,1.629,1.404C783.543,414.496,783.696,414.634,783.659,414.814z
				 M777.561,408.896c-0.494-1.123-1.266-2.864-2.313-5.222c-0.06-0.127-0.127-0.191-0.202-0.191s-0.139,0.063-0.19,0.191
				l-2.146,5.177c0.801,0.06,1.699,0.09,2.695,0.09C776.019,408.94,776.737,408.925,777.561,408.896z"/>
			<path d="M799.167,415.061c0.008,0.172-0.138,0.258-0.438,0.258c-2.688,0-5.226-2.302-7.614-6.907
				c-0.921,0.045-1.411,0.067-1.472,0.067v4.717c0,0.352,0.087,0.586,0.259,0.702c0.172,0.116,0.554,0.219,1.146,0.309
				c0.412,0.067,0.617,0.213,0.617,0.438c0,0.187-0.033,0.303-0.101,0.348s-0.255,0.06-0.562,0.045
				c-1.355-0.06-2.834-0.03-4.436,0.09c-0.322,0.022-0.483-0.108-0.483-0.393c0-0.195,0.161-0.307,0.483-0.337
				c0.733-0.075,1.1-0.476,1.1-1.202v-10.759c0-0.711-0.415-1.149-1.246-1.314c-0.412-0.083-0.617-0.213-0.617-0.393
				c0-0.277,0.138-0.416,0.415-0.416c0.082,0,0.172,0.007,0.27,0.022c0.307,0.045,0.774,0.067,1.403,0.067
				c0.21,0,0.738-0.011,1.584-0.034s1.632-0.034,2.358-0.034c1.497,0,2.681,0.281,3.549,0.842c0.974,0.622,1.46,1.539,1.46,2.751
				c0,2.074-1.198,3.444-3.594,4.11c0.764,1.737,1.662,3.227,2.695,4.47c1.056,1.273,2.007,1.977,2.853,2.111
				C799.029,414.661,799.152,414.807,799.167,415.061z M794.653,404.201c0-1.108-0.285-1.898-0.854-2.37
				c-0.569-0.472-1.479-0.708-2.729-0.708c-0.562,0-0.939,0.077-1.134,0.23c-0.195,0.153-0.293,0.484-0.293,0.994v5.29
				c1.813-0.06,3.115-0.378,3.908-0.955C794.286,406.151,794.653,405.324,794.653,404.201z"/>
			<path d="M815.126,411.377c-0.097,0.996-0.258,1.801-0.482,2.415c-0.149,0.397-0.727,0.752-1.729,1.067
				c-1.093,0.337-2.351,0.505-3.773,0.505c-2.351,0-4.309-0.7-5.874-2.1c-1.587-1.422-2.381-3.246-2.381-5.469
				c0-2.269,0.82-4.155,2.46-5.66c1.58-1.453,3.489-2.179,5.728-2.179c1.587,0,2.92,0.191,3.998,0.573
				c0.958,0.337,1.456,0.651,1.494,0.943c0.082,0.569,0.123,1.494,0.123,2.774c0,0.209-0.191,0.333-0.572,0.371
				c-0.293,0.03-0.473-0.06-0.539-0.27c-0.397-1.28-0.927-2.167-1.59-2.662c-0.662-0.494-1.656-0.741-2.981-0.741
				c-1.662,0-3.018,0.55-4.065,1.651c-1.138,1.198-1.707,2.837-1.707,4.919c0,2.066,0.599,3.736,1.797,5.009
				c1.168,1.25,2.662,1.875,4.48,1.875c1.184,0,2.115-0.254,2.797-0.764c0.651-0.487,1.183-1.284,1.595-2.392
				c0.12-0.322,0.39-0.438,0.809-0.348C815.011,410.962,815.149,411.123,815.126,411.377z"/>
			<path d="M834.286,407.638c0,2.164-0.802,3.998-2.404,5.503c-1.572,1.482-3.462,2.224-5.671,2.224
				c-2.321,0-4.249-0.696-5.784-2.089c-1.572-1.438-2.357-3.294-2.357-5.57c0-2.201,0.797-4.05,2.392-5.548
				c1.572-1.467,3.489-2.201,5.75-2.201c2.306,0,4.223,0.715,5.75,2.145C833.511,403.554,834.286,405.399,834.286,407.638z
				 M832.006,408.02c0-2.179-0.595-3.901-1.786-5.166c-1.145-1.213-2.657-1.819-4.537-1.819c-1.557,0-2.835,0.575-3.835,1.724
				c-0.999,1.149-1.499,2.645-1.499,4.487c0,2.208,0.58,3.946,1.74,5.211c1.131,1.228,2.666,1.842,4.605,1.842
				c1.564,0,2.841-0.577,3.829-1.729S832.006,409.899,832.006,408.02z"/>
		</g>
		<radialGradient id="SVGID_6_" cx="708.6611" cy="517.0063" r="54.8617" gradientUnits="userSpaceOnUse">
			<stop  offset="0" style="stop-color:#0E2A4B;stop-opacity:0.4"/>
			<stop  offset="1" style="stop-color:#0E2A4B"/>
		</radialGradient>
		<ellipse fill="url(#SVGID_6_)" cx="708.661" cy="517.006" rx="56.693" ry="52.967"/>
		<polyline fill="#82A53C" stroke="#507E3A" stroke-width="0.5" stroke-miterlimit="10" points="679.314,480.83 687.451,475.7 
			691.343,475.7 691.343,473.577 695.411,476.23 697.357,479.769 704.786,480.83 703.547,484.897 704.786,487.021 709.032,487.021 
			710.8,489.497 713.1,488.259 711.155,482.599 717.522,483.306 717.522,486.137 720.883,489.497 716.461,493.742 716.637,500.995 
			714.161,506.125 718.053,511.078 716.461,511.078 713.1,508.424 708.854,507.716 703.902,512.669 704.61,517.091 708.5,518.153 
			709.563,514.968 712.922,516.03 712.747,518.153 711.995,519.612 715.045,519.612 716.77,522.132 716.77,524.388 718.097,525.051 
			720.219,525.051 720.219,526.51 726.456,527.307 729.108,530.092 732.956,537.522 736.007,538.849 736.007,540.838 
			733.62,542.431 722.209,550.524 719.822,550.524 718.627,555.432 716.504,561.402 716.504,566.178 713.586,561.8 713.985,555.698 
			715.709,552.249 714.382,547.074 713.454,540.971 709.872,538.849 709.872,534.869 715.709,529.96 717.036,528.5 717.567,526.378 
			715.178,525.051 714.78,523.858 713.055,522.928 711.862,523.459 710.403,523.061 707.708,522.132 706.29,520.939 
			703.902,519.877 699.656,517.357 697.003,513.244 694.748,510.989 692.492,510.193 693.819,513.775 694.35,515.5 693.687,515.632 
			692.359,513.376 690.104,510.723 688.247,508.601 686.522,504.886 688.247,502.233 689.176,499.58 687.716,496.661 
			688.379,491.089 689.839,489.364 689.043,485.649 686.92,482.731 683.736,482.067 679.314,482.731 679.314,481.271 		"/>
		<path fill="#E2206F" d="M768.161,230.311h-59.5h-59.5c0,76.833-66.5,68.5-66.5,68.5v90.5h126h126v-90.5
			C834.661,298.811,768.161,307.144,768.161,230.311z"/>
		<g>
			<defs>
				<path id="SVGID_7_" d="M768.161,230.311h-59.5h-59.5c0,76.833-66.5,68.5-66.5,68.5v90.5h126h126v-90.5
					C834.661,298.811,768.161,307.144,768.161,230.311z"/>
			</defs>
			<clipPath id="SVGID_8_">
				<use xlink:href="#SVGID_7_"  overflow="visible"/>
			</clipPath>
			<g clip-path="url(#SVGID_8_)">
				<ellipse fill="#FFFFFF" cx="708.661" cy="389.31" rx="123.307" ry="121.452"/>
				<ellipse fill="#FBD707" cx="708.661" cy="389.31" rx="120.473" ry="118.66"/>
				<ellipse fill="#F05B7B" cx="708.661" cy="389.31" rx="114.094" ry="112.377"/>
				<ellipse fill="#5F69B1" cx="708.661" cy="389.31" rx="111.26" ry="109.586"/>
				<ellipse fill="#659ED5" cx="708.661" cy="389.31" rx="109.133" ry="107.492"/>
				<ellipse fill="#5F69B1" cx="708.661" cy="389.31" rx="106.299" ry="104.7"/>
				<ellipse fill="#E2206F" cx="708.661" cy="389.31" rx="96.377" ry="94.928"/>
			</g>
		</g>
		<g>
			<path fill="#AA962E" stroke="#706127" stroke-width="0.15" stroke-miterlimit="10" d="M717.5,451.339c0,0,4.095-4.068,7.56-4.62
				c0,0-4.26,1.392-7.064,4.909L717.5,451.339z"/>
			<polygon stroke="#000000" stroke-width="0.15" stroke-miterlimit="10" points="698.358,457.732 698.151,458.072 698.584,458.073 
							"/>
			<polygon stroke="#000000" stroke-width="0.15" stroke-miterlimit="10" points="699.58,458.547 700.003,458.45 699.79,458.868 			
				"/>
			<polygon stroke="#000000" stroke-width="0.25" stroke-miterlimit="10" points="698.165,455.805 697.877,455.595 697.958,456.008 
							"/>
			<path fill="#FFDD00" stroke="#6C5924" stroke-width="0.15" stroke-miterlimit="10" d="M698.888,456.37
				c0,0-0.597-0.023-0.854-0.204c-0.258-0.181,0.22-0.36,0.22-0.36c0.636,0.201,2.247,0.116,2.247,0.116
				c0.317,0.002,0.688-2.625,0.688-2.625s1.356,0.22,1.353,0.697c0,0-0.689,2.214-1.845,2.287l-0.595,2.105
				c0,0-0.479,0.369-0.583-0.004l0.483-1.005l-1.165,0.662c0,0-0.616,0.098-0.455-0.499l0.897-0.367l0.144-0.78L698.888,456.37z"/>
			<path fill="#FFFFFF" stroke="#8E8E8E" stroke-width="0.15" stroke-miterlimit="10" d="M705.819,446.247
				c0,0,8.531-15.015,33.89-16.537c0,0-13.862,14.556-21.972,19.563C709.625,454.279,705.819,446.247,705.819,446.247z"/>
			<g>
				<path fill="#8E8E8E" d="M737.818,430.891c-3.251,2.773-6.583,5.446-9.864,8.182l-9.958,8.066
					c1.589-1.428,3.224-2.804,4.869-4.167l4.932-4.092C731.134,436.213,734.432,433.497,737.818,430.891z"/>
			</g>
			<path fill="#FFFFFF" stroke="#8E8E8E" stroke-width="0.15" stroke-miterlimit="10" d="M716.634,445.25
				c0,0-1.786-0.341-3.099,1.286c0,0-3.778,1.506-11.129-0.454c-3.543-0.945-5.802-0.149-7.646,0.402c0,0-4.351,1.181-5.848-1.969
				c0,0-5.591,0-8.741,3.544c0,0-0.236,0.775,0,1.214c0,0,5.404-1.467,11.524,2.198c0,0,6.51,10.29,21.63,0
				c0,0,3.308-1.732,5.106-2.009c0,0,0.138,0.268,0.332-0.734C719.076,447.139,718.972,445.617,716.634,445.25z"/>
			<path fill="#FFFFFF" stroke="#8E8E8E" stroke-width="0.15" stroke-miterlimit="10" d="M677.613,429.276
				c0,0,5.538,12.876,27.833,21.386l0.006-0.002c1.456,0.483,3.914-0.728,3.914-0.728l1.507-0.588
				C710.873,449.344,700.502,432.216,677.613,429.276z"/>
			<g>
				<path fill="#8E8E8E" d="M679.228,430.26c2.856,0.524,5.625,1.463,8.295,2.604c2.67,1.145,5.244,2.519,7.682,4.104
					c2.423,1.608,4.702,3.43,6.803,5.437c2.105,2.004,4.01,4.214,5.687,6.582c-3.509-4.617-7.76-8.668-12.627-11.81
					c-2.41-1.601-4.959-2.994-7.61-4.161C684.8,431.871,682.062,430.879,679.228,430.26z"/>
			</g>
			<path fill="#FFDD00" stroke="#6C5924" stroke-width="0.15" stroke-miterlimit="10" d="M718.433,449.461
				c0,0-0.041-0.7,0.395-0.949l1.39,0.871L718.433,449.461z"/>
			<ellipse stroke="#FFFFFF" stroke-width="0.25" stroke-miterlimit="10" cx="716.366" cy="447.621" rx="0.493" ry="0.48"/>
			<polygon stroke="#000000" stroke-width="0.15" stroke-miterlimit="10" points="695.559,457.878 695.265,458.144 695.679,458.27 
							"/>
			<polygon stroke="#000000" stroke-width="0.15" stroke-miterlimit="10" points="696.497,459.008 696.931,459.038 696.606,459.376 
							"/>
			<polygon stroke="#000000" stroke-width="0.15" stroke-miterlimit="10" points="695.926,455.977 695.711,455.692 695.67,456.112 
							"/>
			<path fill="#FFDD00" stroke="#6C5924" stroke-width="0.15" stroke-miterlimit="10" d="M696.458,456.725
				c0,0-0.564-0.192-0.759-0.44c-0.195-0.247,0.314-0.282,0.314-0.282c0.551,0.374,2.118,0.754,2.118,0.754
				c0.305,0.093,1.412-2.318,1.412-2.318s1.236,0.6,1.097,1.056c0,0-1.296,1.923-2.423,1.663l-1.173,1.847
				c0,0-0.564,0.216-0.558-0.171l0.751-0.825l-1.305,0.302c0,0-0.619-0.083-0.293-0.608l0.965-0.095l0.36-0.707L696.458,456.725z"/>
			<path fill="none" stroke="#000000" stroke-miterlimit="10" d="M718.655,450.279"/>
			<path fill="#67923D" stroke="#3C5125" stroke-width="0.1" stroke-miterlimit="10" d="M720.511,449.2c0,0-0.215,0.768,1.183,0.492
				c1.397-0.275-1.103-0.492-1.103-0.492"/>
			<path fill="#67923D" stroke="#3C5125" stroke-width="0.1" stroke-miterlimit="10" d="M720.713,448.712
				c0,0-0.692-0.545-0.122-1.092C721.163,447.074,720.713,448.712,720.713,448.712z"/>
			<path fill="#67923D" stroke="#3C5125" stroke-width="0.1" stroke-miterlimit="10" d="M721.489,448.513c0,0,0.658,0.592,1.485,0
				C723.8,447.92,721.489,448.513,721.489,448.513z"/>
			<path fill="#67923D" stroke="#3C5125" stroke-width="0.1" stroke-miterlimit="10" d="M721.812,447.88
				c0,0-0.492-0.472,0.196-0.984C722.698,446.385,721.812,447.88,721.812,447.88z"/>
			<path fill="#67923D" stroke="#3C5125" stroke-width="0.1" stroke-miterlimit="10" d="M723.033,447.335
				c0,0-0.372-0.557,0.119-0.773C723.643,446.345,723.033,447.335,723.033,447.335z"/>
			<path fill="#67923D" stroke="#3C5125" stroke-width="0.1" stroke-miterlimit="10" d="M723.81,447.23c0,0,0.443,0.386,0.837,0.105
				S723.81,447.23,723.81,447.23z"/>
		</g>
	</g>
</g>
</svg>
