<?xml version="1.0" encoding="UTF-8"?>
<svg xmlns="http://www.w3.org/2000/svg" xmlns:xlink="http://www.w3.org/1999/xlink" width="1200" height="800">
<defs>
<linearGradient id="lg" x1="133.8" y1="343.12" x2="416.2" y2="343.12" gradientUnits="userSpaceOnUse" gradientTransform="matrix(0.79509935,0,0,1.2851131,-358.6497,59.126546)">
<stop stop-color="#efb508" offset="0.8"/>
<stop stop-color="#b48906" offset="1"/>
</linearGradient>
</defs>
<rect width="1200" height="800" fill="#212c59"/>
<g id="c" stroke="#000" stroke-width="0.887" transform="translate(473.713783,-22.1330087)">
<g fill="#ff0" stroke-width="2.217">
<path d="m-329.25,171.96c18.533,34.433,36.559,69.148,54.618,103.85h268.62c20.075-34.34,35.453-69.35,55.269-103.85l-68.589,57.651-6.3509-92.163-72.823,84.711-37.682-94.908-41.492,94.908-66.472-84.711-12.702,92.163z"/>
<path d="m-140.4,302.53c-48.324,0.15227-91.696,9.942-122.22,25.137,2.5365-1.9449-1.2129-19.374-4.3659-32.512-3.8136-15.891-9.4115-18.236-9.4115-18.236,33.751-16.114,83.914-27.48,136.2-27.588,52.31,0.10827,102.73,11.106,136.49,27.219,0,0-6.6757,3.5267-10.487,19.42-3.1523,13.135-5.7172,29.752-3.1767,31.697-30.525-15.195-74.708-24.985-123.03-25.137" stroke-width="1.994"/>
<path d="m-140.11,253.21c-52.291,0.13307-99.273,10.189-133.02,26.328-2.2503,1.0903-4.6301-0.33598-5.3592-3.7759-0.72925-3.4478,0.48213-7.4018,2.7325-8.5169,33.896-16.804,82.09-27.355,135.66-27.532,53.585,0.15787,101.96,10.728,135.86,27.532,2.2503,1.1151,3.4613,5.0691,2.7324,8.5169-0.73314,3.4399-3.1125,4.8662-5.3594,3.7759-33.749-16.14-80.931-26.2-133.24-26.33"/>
<path d="m-139.97,366.02c-47.751-0.11386-90.527-9.2507-121.05-24.11-2.2347-1.0972-3.403-4.4039-3.2735-7.8257-0.0392-3.3273,1.1134-6.3432,3.2735-7.3952,30.525-14.84,73.301-23.977,121.05-24.092,47.743,0.11494,90.488,9.252,121.02,24.092,2.1603,1.052,3.2932,4.0679,3.2541,7.3952,0.11733,3.4218-1.0352,6.7285-3.2541,7.8257-30.529,14.859-73.273,23.996-121.02,24.11"/>
<path d="m-140.1,355.89c-43.093-0.0875-82.043-8.1288-111.69-20.511,29.65-12.401,68.6-19.979,111.69-20.112,43.086,0.13307,82.244,7.7108,111.89,20.112-29.65,12.382-68.808,20.423-111.89,20.511" stroke-width="2.217" fill="url(#lg)"/>
</g>
<g fill="#eac102">
<path d="m-140.02,293.18c-11.17,0-20.182-6.802-20.182-15.184,0-8.3816,9.0118-15.211,20.182-15.211,11.181,0,20.222,6.8009,20.222,15.211,0,8.3816-9.0412,15.184-20.222,15.184"/>
<path d="m-11.264,288.19c-0.38088-0.1984-0.67872-0.49838-1.0687-0.68326-10.722-5.0612-20.561-2.583-22.014,5.4626-1.4475,8.0107,5.9733,18.527,16.623,23.614,0.53642-1.0598,1.1154-1.9314,1.6149-3.0521,0.75128-1.6867,1.46-3.4004,2.062-5.1807,0.60269-1.7803,1.0903-3.6,1.4663-5.422,0.35299-1.7115,0.63549-3.4692,0.84477-5.1807,0.20987-1.7115,0.35296-3.3689,0.44715-5.0195,0.09413-1.6427,0.016-3.016,0.024-4.538z"/>
<path d="m-269.26,288.19c0.38101-0.1984,0.67866-0.49838,1.0684-0.68326,10.723-5.0612,20.561-2.583,22.014,5.4626,1.4476,8.0107-5.9729,18.527-16.623,23.614-0.5364-1.0598-1.1156-1.9314-1.6151-3.0521-0.75106-1.6867-1.4598-3.4004-2.0623-5.1807-0.60247-1.7803-1.0903-3.6-1.466-5.422-0.3529-1.7115-0.63522-3.4692-0.84477-5.1807-0.2096-1.7115-0.35269-3.3689-0.44728-5.0195-0.0941-1.6427-0.016-3.016-0.024-4.538z"/>
</g>
<g fill="#0000b3">
<path d="m-140.01,288.41c-8.2975,0-14.991-4.6666-14.991-10.419,0-5.7512,6.6932-10.438,14.991-10.438,8.3038,0,15.019,4.6677,15.019,10.438,0,5.7524-6.7154,10.419-15.019,10.419"/>
<path d="m-11.091,293.37c-0.70525-0.41603-1.3114-0.93129-2.062-1.2853-7.9641-3.759-15.203-2.308-16.2,3.2133-0.99752,5.5201,4.6081,13.067,12.572,16.826,0.48133,0.22666,0.9173,0.2528,1.3916,0.442,0.63477-0.76782,1.2967-1.4229,1.8632-2.3294,0.52456-0.83774,1.0129-1.7431,1.4167-2.6913,0.40389-0.94707,0.71989-1.964,0.94381-3.0115,0.22747-1.0598,0.3732-2.1963,0.44712-3.3734,0.07467-1.1771,0.0928-2.3925,0.0504-3.6147-0.0504-1.4364-0.26427-2.7837-0.42275-4.1762z"/>
<path d="m-269.43,293.37c0.70546-0.41603,1.3119-0.93129,2.0623-1.2853,7.9642-3.759,15.203-2.308,16.2,3.2133,0.99762,5.5201-4.6083,13.067-12.573,16.826-0.48082,0.22666-0.91693,0.2528-1.3914,0.442-0.63509-0.76782-1.2969-1.4229-1.8635-2.3294-0.52421-0.83774-1.0124-1.7431-1.4163-2.6913-0.40397-0.94707-0.71989-1.964-0.94424-3.0115-0.22693-1.0598-0.37277-2.1963-0.4472-3.3734-0.0744-1.1771-0.0923-2.3925-0.0499-3.6147,0.0501-1.4364,0.26426-2.7837,0.42245-4.1762z"/>
</g>
</g>
<use xlink:href="#c" x="532.56585"/>
<use xlink:href="#c" x="266.28285" y="363.70972"/>
</svg>
