<?xml version="1.0" encoding="UTF-8" standalone="no"?>
<svg xmlns="http://www.w3.org/2000/svg" width="471" height="314" version="1.0">
<rect fill="#d84b24" width="471" height="314" x="0" y="0"/>
<circle fill="#fff" cx="189.252" cy="138.89" r="95"/>
<circle fill="#d84b24" cx="188.214" cy="138.65" r="63.024"/>
<g style="fill:#fff;stroke:#fff;stroke-width:1">
	<path d="M 64.347,202.984 C 78.089,203.324 90.718,196.122 97.581,183.892 101.588,194.263 107.598,202.159 114.905,210.055 105.702,219.962 95.791,229.018 80.610,230.561 L 64.347,202.984 z"/>
	<path d="M 279.661,185.66 C 274.215,194.899 268.245,203.876 260.922,212.177 C 271.883,222.901 281.664,228.676 295.571,232.683 303.84,222.567 310.045,212.864 313.602,203.691 301.158,204.395 287.885,198.631 279.661,185.66 z"/>
	<path d="M 159.099,16.308 L 203.647,17.015 C 192.434,29.404 202.257,42.228 210.364,47.067 L 170.413,53.785 C 162.415,43.414 158.664,28.8 159.099,16.308 z"/>
	<path style="fill:#d84b24;stroke:#d84b24;" d="M 153.819,38.792 158.274,10.317 C 157.753,22.048 161.169,48.792 176.97,62.239 186.737,70.551 196.601,76.451 205.768,78.533 L 181.019,76.059 C 174.859,72.111 157.859,54.591 153.819,38.792 z"/>
</g>
</svg>