<?xml version="1.0" encoding="UTF-8" standalone="no"?>
<svg xmlns="http://www.w3.org/2000/svg" width="510" height="340" version="1.0">
<rect fill="#fff" width="510" height="340"/>
<path
	style="fill:red;stroke:red;"
	d="M 131.60488,274.46635 C 142.42013,275.6889 177.0499,258.73024 180.69856,225.95251 L 180.81731,195.54819 C 174.09389,195.90065 135.68041,169.99543 136.49686,126.22647 136.47895,80.859903 174.18994,50.855827 203.29319,50.591296 L 203.41946,35.565277 H 228.54702 L 228.67328,50.970102 C 237.95775,51.494995 250.15561,57.488475 255.18979,63.091933 261.4043,56.668616 273.29452,52.665241 282.33764,50.591295 L 282.21137,35.565276 308.47534,35.439008 308.98041,49.707413 C 348.33368,56.048262 373.66262,89.001089 373.12509,122.05959 372.07238,165.76407 346.78025,187.14788 330.57242,197.06341 L 331.49844,225.19506 C 331.07416,254.35386 364.83017,274.738 379.81736,274.46636 L 379.81736,296.68971 C 334.35576,294.95386 306.75371,264.16855 306.5813,225.60023 L 305.82368,106.52849 330.57242,106.40222 330.95123,164.8648 C 342.00179,159.9309 354.58496,131.81476 348.75517,113.72583 334.61753,73.749724 304.06091,75.075463 295.9747,75.340033 287.76222,75.604603 282.16928,76.402014 275.26657,79.885719 282.58151,90.384553 288.15379,100.23112 289.69698,117.64422 L 289.66125,272.44605 C 289.60988,283.81027 277.99446,302.53678 256.3262,302.37182 234.53168,302.20686 221.62193,281.91973 221.60221,271.68843 L 221.60222,117.38763 C 221.47831,109.82734 228.24772,87.566203 236.24943,79.506913 222.64133,74.960344 212.7443,73.542673 196.97975,76.728994 178.6404,80.057191 162.06592,106.97178 161.37186,120.03929 160.28454,139.31786 167.86329,156.76984 181.82745,166.75884 L 180.56477,106.52849 205.56604,106.40222 204.86524,219.54614 C 205.91478,253.57622 186.69085,277.89952 174.75638,283.93653 162.51952,290.12651 154.04373,296.61765 131.55968,296.5455 L 131.60488,274.46635 z"/>
<path
	style="fill:#fff;stroke:#fff;"
	d="M 255.56859,97.563389 C 251.96006,102.95207 247.2639,108.52654 245.97214,120.7969 L 245.59334,268.78424 C 245.79166,273.75496 251.18175,277.30548 255.72962,277.18164 259.69109,277.07377 265.54646,274.10276 265.67012,268.53171 L 264.9125,120.67063 C 264.35707,112.55766 259.79276,103.11074 255.56859,97.563389 z"/>
</svg>