<!--Flag of the State of Malacca-->
<!--Illustration by Ahmad Ali Karim (ahmadalikarim.com)-->
<!--(c) 2020, Ahmad Ali Karim.-->

<!--Bendera Negeri Melaka-->
<!--Ilustrasi oleh Ahmad Ali Karim (ahmadalikarim.com)-->
<!--(c) 2020, Ahmad Ali Karim.-->

<!--Generated by BRoman Vector Illustration Systems v.1.6-->

<svg
   xmlns:dc="http://purl.org/dc/elements/1.1/"
   xmlns:cc="http://creativecommons.org/ns#"
   xmlns:rdf="http://www.w3.org/1999/02/22-rdf-syntax-ns#"
   xmlns:svg="http://www.w3.org/2000/svg"
   xmlns="http://www.w3.org/2000/svg"
   viewBox="0 0 1511.84 755.84003"
   height="755.84003"
   width="1511.84"
   xml:space="preserve"
   id="svg2"
   version="1.1"><metadata
     id="metadata8"><rdf:RDF><cc:Work
         rdf:about=""><dc:format>image/svg+xml</dc:format><dc:type
           rdf:resource="http://purl.org/dc/dcmitype/StillImage" /></cc:Work></rdf:RDF></metadata><defs
     id="defs6"><clipPath
       id="clipPath18"
       clipPathUnits="userSpaceOnUse"><path
         style="clip-rule:evenodd"
         id="path16"
         d="M 0,1.8311e-4 H 1133.88 V 566.88018 H 0 Z" /></clipPath><clipPath
       id="clipPath32"
       clipPathUnits="userSpaceOnUse"><path
         style="clip-rule:evenodd"
         id="path30"
         d="M -3.0518e-5,566.88 H 1133.88 V 2.4414e-4 L 0,1.8311e-4" /></clipPath><clipPath
       id="clipPath42"
       clipPathUnits="userSpaceOnUse"><path
         style="clip-rule:evenodd"
         id="path40"
         d="M 0,1.8311e-4 H 1133.88 V 566.88018 H 0 Z" /></clipPath></defs><g
     transform="matrix(1.3333333,0,0,-1.3333333,0,755.84)"
     id="g10"><g
       id="g12"><g
         clip-path="url(#clipPath18)"
         id="g14"><path
           id="path20"
           style="fill:#ffffff;fill-opacity:1;fill-rule:evenodd;stroke:none"
           d="M 0,6.1035e-5 H 1133.88 V 566.88006 H 0 Z" /></g></g><path
       id="path22"
       style="fill:#002b7f;fill-opacity:1;fill-rule:evenodd;stroke:none"
       d="M 0,283.44 H 503.88 V 566.88 H 0 Z" /><path
       id="path24"
       style="fill:#fcd116;fill-opacity:1;fill-rule:evenodd;stroke:none"
       d="m 251.99,539.28 c 3.94,0 7.83,-0.2 11.67,-0.59 l 8.02,-1.22 -3.33,-0.51 c -52.05,-10.64 -91.2,-56.65 -91.2,-111.8 0,-55.15 39.15,-101.16 91.2,-111.8 l 3.33,-0.51 -8.02,-1.22 c -3.84,-0.39 -7.73,-0.59 -11.67,-0.59 -63.09,0 -114.23,51.09 -114.23,114.12 0,63.03 51.14,114.12 114.23,114.12 z" /><g
       id="g26"><g
         clip-path="url(#clipPath32)"
         id="g28"><path
           id="path34"
           style="fill:#fcd116;fill-opacity:1;fill-rule:evenodd;stroke:none"
           d="m 230.61,466.69 51.67,-14.29 30.26,47.25 1.68,-56.09 51.67,-14.29 -50.64,-20.37 1.67,-56.09 -32.96,43.5 -50.64,-20.37 30.26,47.26 z" /></g></g><g
       id="g36"><g
         clip-path="url(#clipPath42)"
         id="g38"><path
           id="path44"
           style="fill:#c30000;fill-opacity:1;fill-rule:evenodd;stroke:none"
           d="m 503.88,283.44 h 630 v 283.44 h -630 z" /></g></g></g></svg>