<?xml version="1.0" encoding="UTF-8"?>
<svg xmlns="http://www.w3.org/2000/svg" width="900" height="450" viewBox="0 0 672 336">
<rect width="672" height="336" fill="#003573"/>
<rect width="672" height="224" fill="#fff"/>
<rect width="672" height="112" fill="#dc221f"/>
<path d="m 386.20214,97.530638 6.2835,42.986322 24.31193,-35.99812 -13.0368,41.45947 37.5249,-21.9042 -29.71455,31.7112 43.3386,-3.46477 -40.51988,15.67942 40.51988,15.67943 -43.3386,-3.4647 29.71455,31.7112 -37.5249,-21.9042 13.0368,41.4594 -24.31193,-35.99805 -6.2835,42.98625 -6.2835,-42.98625 -24.31192,35.99805 13.0368,-41.4594 -37.5249,21.9042 29.71455,-31.7112 -43.33868,3.4647 40.51988,-15.67943 -40.51988,-15.67942 43.33868,3.46477 -29.71455,-31.7112 37.5249,21.9042 -13.0368,-41.45947 24.31192,35.99812 z m -35.2347,1.761749 a 75.167295,75.167295 0 1 0 0,137.415223 84.563205,84.563205 0 1 1 0,-137.415223 z" fill="#ffcc00"/>
</svg>