<!--Flag of the State of Terengganu Darul Iman (Abode of Faith)-->
<!--Illustration by Ahmad Ali Karim (ahmadalikarim.com)-->
<!--(c) 2020, Ahmad Ali Karim.-->

<!--Bendera Negeri Terengganu Darul Iman-->
<!--Ilustrasi oleh Ahmad Ali Karim (ahmadalikarim.com)-->
<!--(c) 2020, Ahmad Ali Karim.-->

<!--Generated by BRoman Vector Illustration Systems v.1.6-->

<svg
   xmlns:dc="http://purl.org/dc/elements/1.1/"
   xmlns:cc="http://creativecommons.org/ns#"
   xmlns:rdf="http://www.w3.org/1999/02/22-rdf-syntax-ns#"
   xmlns:svg="http://www.w3.org/2000/svg"
   xmlns="http://www.w3.org/2000/svg"
   viewBox="0 0 1511.84 755.84003"
   height="755.84003"
   width="1511.84"
   xml:space="preserve"
   id="svg2"
   version="1.1"><metadata
     id="metadata8"><rdf:RDF><cc:Work
         rdf:about=""><dc:format>image/svg+xml</dc:format><dc:type
           rdf:resource="http://purl.org/dc/dcmitype/StillImage" /></cc:Work></rdf:RDF></metadata><defs
     id="defs6"><clipPath
       id="clipPath18"
       clipPathUnits="userSpaceOnUse"><path
         style="clip-rule:evenodd"
         id="path16"
         d="M 0,1.8311e-4 H 1133.88 V 566.88018 H 0 Z" /></clipPath><clipPath
       id="clipPath30"
       clipPathUnits="userSpaceOnUse"><path
         style="clip-rule:evenodd"
         id="path28"
         d="M -1.2207e-4,566.88 H 1133.88 V 3.0518e-4 L 0,2.4414e-4" /></clipPath></defs><g
     transform="matrix(1.3333333,0,0,-1.3333333,0,755.84)"
     id="g10"><g
       id="g12"><g
         clip-path="url(#clipPath18)"
         id="g14"><path
           id="path20"
           style="fill:#000000;fill-opacity:1;fill-rule:evenodd;stroke:none"
           d="M 0,6.1035e-5 H 1133.88 V 566.88006 H 0 Z" /></g></g><path
       id="path22"
       style="fill:#ffffff;fill-opacity:1;fill-rule:evenodd;stroke:none"
       d="m 662.16,378.91 v -72.93 l 69.48,-22.54 -69.48,-22.54 v -72.93 l -42.95,59 -69.48,-22.53 42.94,59 -42.94,59 69.48,-22.53 z m -107.37,57.17 c 10.53,0 20.81,-1.07 30.74,-3.1 l 2.23,-0.57 -12.35,-1.89 c -68.37,-14 -119.8,-74.53 -119.8,-147.08 0,-72.55 51.43,-133.08 119.8,-147.08 l 12.35,-1.89 -2.23,-0.57 c -9.93,-2.03 -20.21,-3.1 -30.74,-3.1 -84.25,0 -152.55,68.34 -152.55,152.64 0,84.3 68.3,152.64 152.55,152.64 z" /><g
       id="g24"><g
         clip-path="url(#clipPath30)"
         id="g26"><path
           id="path32"
           style="fill:#ffffff;fill-opacity:1;fill-rule:evenodd;stroke:none"
           d="M 94.033,472.85 V 94.034 H 1039.85 V 472.85 Z M 0.062256,566.88 H 1133.88 v 0 V 472.85 94.034 6.1035e-5 H 1039.85 94.033 0.062134 -1.2207e-4 V 566.88 Z" /></g></g></g></svg>