<?xml version="1.0" encoding="UTF-8" ?>
<!DOCTYPE svg PUBLIC "-//W3C//DTD SVG 1.1//EN" "http://www.w3.org/Graphics/SVG/1.1/DTD/svg11.dtd">
<svg width="959pt" height="603pt" viewBox="0 0 959 603" version="1.1" xmlns="http://www.w3.org/2000/svg">
<path fill="#d80100" d=" M 0.00 0.00 L 959.00 0.00 L 959.00 229.17 C 639.33 229.15 319.67 229.17 0.00 229.16 L 0.00 0.00 Z" />
<path fill="#fefefe" d=" M 0.00 229.16 C 319.67 229.17 639.33 229.15 959.00 229.17 L 959.00 370.97 C 639.33 370.96 319.67 370.96 0.00 370.97 L 0.00 229.16 Z" />
<path fill="#060606" d=" M 287.39 271.19 C 291.76 270.84 296.16 271.06 300.54 270.95 C 299.95 272.31 299.34 273.65 298.76 275.02 C 303.48 286.19 308.58 297.20 313.50 308.28 C 318.22 297.72 322.97 287.17 327.57 276.55 C 328.77 274.64 327.19 272.71 326.50 270.96 C 330.88 271.06 335.27 270.83 339.65 271.22 C 335.10 275.09 333.80 281.01 331.09 286.07 C 327.12 295.17 322.83 304.13 318.75 313.18 C 319.45 314.42 320.19 315.64 320.89 316.88 C 315.77 317.10 310.65 317.08 305.53 316.87 C 306.20 315.64 306.95 314.45 307.70 313.28 C 302.65 301.14 297.03 289.25 291.78 277.19 C 290.90 274.79 288.87 273.18 287.39 271.19 Z" />
<path fill="#060606" d=" M 470.51 271.10 C 481.00 270.88 491.50 271.05 501.99 271.00 C 506.43 271.46 511.45 273.25 513.58 277.51 C 516.35 282.18 515.33 288.66 511.33 292.31 C 509.01 294.44 505.87 295.31 502.87 295.93 C 495.25 296.11 487.62 295.94 480.00 296.00 C 480.04 301.61 479.92 307.22 480.06 312.83 C 480.65 314.30 481.74 315.50 482.50 316.90 C 478.51 317.09 474.52 317.04 470.53 316.88 C 471.48 314.99 473.38 313.36 473.01 311.05 C 472.99 299.68 473.01 288.31 472.99 276.94 C 473.34 274.63 471.44 273.00 470.51 271.10 Z" />
<path fill="#fefefe" d=" M 480.00 276.00 C 487.93 276.46 496.10 274.92 503.84 277.11 C 509.42 278.89 509.37 288.09 503.83 289.89 C 496.10 292.08 487.92 290.54 480.00 291.00 C 480.00 286.00 480.00 281.00 480.00 276.00 Z" />
<path fill="#060606" d=" M 47.83 278.95 C 49.49 278.07 51.03 276.97 52.92 276.64 C 53.06 279.87 53.06 283.12 52.93 286.36 C 51.05 286.01 49.47 284.97 47.82 284.08 C 40.55 283.87 33.28 284.09 26.01 283.99 C 26.01 287.65 26.00 291.30 26.03 294.96 C 30.63 294.96 35.24 295.09 39.83 294.95 C 41.49 294.07 43.03 292.97 44.92 292.64 C 45.06 295.87 45.06 299.12 44.93 302.35 C 43.05 302.01 41.47 300.97 39.82 300.08 C 35.22 299.87 30.61 300.08 26.01 299.99 C 26.05 304.27 25.91 308.55 26.05 312.83 C 26.60 314.30 27.75 315.46 28.50 316.83 C 24.51 317.09 20.52 317.06 16.53 316.87 C 17.48 314.98 19.41 313.36 19.01 311.05 C 18.97 302.04 19.03 293.03 18.98 284.02 C 19.04 282.06 17.26 280.76 16.47 279.11 C 26.92 278.81 37.38 279.15 47.83 278.95 Z" />
<path fill="#060606" d=" M 134.83 278.94 C 136.49 278.07 138.03 276.98 139.92 276.64 C 140.06 279.88 140.08 283.13 139.92 286.37 C 138.04 286.01 136.49 284.92 134.83 284.06 C 127.89 283.90 120.95 284.07 114.01 283.99 C 114.01 287.65 114.00 291.30 114.03 294.96 C 118.30 294.95 122.57 295.10 126.83 294.94 C 128.49 294.07 130.03 292.97 131.92 292.64 C 132.06 295.88 132.08 299.13 131.92 302.37 C 130.04 302.01 128.49 300.92 126.83 300.06 C 122.56 299.90 118.28 300.07 114.01 299.99 C 114.00 303.99 114.00 307.99 114.00 312.00 C 120.95 311.96 127.90 312.08 134.85 311.95 C 136.50 311.07 138.04 309.99 139.92 309.64 C 140.06 312.88 140.07 316.12 139.93 319.36 C 138.07 318.96 136.50 317.92 134.84 317.07 C 124.74 316.83 114.63 317.21 104.53 316.87 C 105.48 314.98 107.41 313.36 107.01 311.05 C 106.97 302.04 107.03 293.04 106.98 284.03 C 107.04 282.07 105.26 280.76 104.48 279.11 C 114.59 278.80 124.72 279.16 134.83 278.94 Z" />
<path fill="#060606" d=" M 190.16 276.54 C 191.99 276.99 193.51 278.08 195.17 278.93 C 205.28 279.31 215.44 278.51 225.52 279.35 C 217.80 290.44 209.35 301.03 201.35 311.93 C 207.50 311.99 213.67 312.09 219.82 311.94 C 221.48 311.07 223.03 309.97 224.93 309.64 C 225.06 312.87 225.04 316.12 224.90 319.36 C 223.01 319.02 221.48 317.91 219.82 317.06 C 209.72 316.83 199.61 317.21 189.51 316.87 C 191.25 313.31 193.91 310.34 196.21 307.15 C 201.87 299.40 207.84 291.87 213.44 284.07 C 207.35 283.98 201.25 283.93 195.16 284.06 C 193.50 284.93 191.95 286.01 190.10 286.45 C 189.93 283.15 189.93 279.84 190.16 276.54 Z" />
<path fill="#060606" d=" M 734.83 278.94 C 736.48 278.07 738.03 276.98 739.92 276.64 C 740.05 279.88 740.07 283.13 739.92 286.37 C 738.03 286.01 736.49 284.93 734.84 284.06 C 727.90 283.90 720.95 284.07 714.01 283.99 C 714.00 287.65 714.00 291.30 714.03 294.96 C 718.30 294.95 722.56 295.10 726.83 294.94 C 728.48 294.07 730.03 292.98 731.92 292.64 C 732.05 295.88 732.07 299.13 731.92 302.37 C 730.03 302.01 728.48 300.92 726.83 300.06 C 722.56 299.90 718.28 300.07 714.01 299.99 C 713.99 303.99 713.99 307.99 714.00 312.00 C 720.95 311.96 727.90 312.08 734.85 311.95 C 736.49 311.07 738.04 309.99 739.92 309.64 C 740.05 312.88 740.07 316.12 739.93 319.36 C 738.07 318.96 736.49 317.92 734.84 317.07 C 724.74 316.83 714.63 317.21 704.53 316.87 C 705.48 314.98 707.40 313.36 707.01 311.04 C 706.97 302.04 707.03 293.04 706.98 284.04 C 707.04 282.07 705.25 280.76 704.47 279.11 C 714.58 278.80 724.71 279.16 734.83 278.94 Z" />
<path fill="#060606" d=" M 582.31 278.27 C 588.86 277.58 596.00 277.37 601.73 281.19 C 611.32 286.29 614.06 300.15 607.95 308.89 C 604.90 314.24 598.88 317.17 592.98 317.98 C 588.16 317.95 583.08 318.70 578.60 316.47 C 572.78 314.33 568.10 309.51 566.50 303.48 C 565.17 297.74 565.77 291.23 569.43 286.41 C 572.25 281.90 577.42 279.72 582.31 278.27 Z" />
<path fill="#060606" d=" M 621.57 283.57 C 626.17 278.46 633.56 277.55 640.06 277.97 C 646.10 277.27 651.27 281.84 657.31 280.85 C 655.88 283.60 654.67 286.48 652.93 289.06 C 650.16 289.66 650.32 285.56 647.90 285.08 C 643.36 283.67 638.42 282.13 633.70 283.64 C 630.29 284.23 626.11 285.98 625.97 290.00 C 626.26 293.93 630.85 294.67 633.99 294.98 C 640.45 295.02 647.41 294.33 653.22 297.76 C 657.04 300.18 657.87 305.44 656.48 309.45 C 654.53 314.27 649.43 316.57 644.70 317.74 C 637.46 318.61 629.83 318.15 623.27 314.69 C 621.27 313.41 618.90 313.48 616.65 313.23 C 618.53 310.37 619.63 306.54 623.11 305.21 C 624.10 310.01 629.49 311.26 633.59 312.34 C 637.51 313.73 641.64 312.60 645.48 311.52 C 648.45 310.81 650.65 307.40 649.69 304.44 C 647.74 301.18 643.63 302.28 640.51 301.68 C 634.59 300.66 627.96 301.94 622.76 298.31 C 617.98 295.11 617.52 287.52 621.57 283.57 Z" />
<path fill="#060606" d=" M 58.51 279.12 C 62.50 278.91 66.50 278.91 70.49 279.11 C 69.50 281.00 67.57 282.62 67.97 284.97 C 68.08 291.98 67.87 298.99 68.10 306.00 C 68.12 308.79 70.10 311.59 72.93 312.07 C 77.25 313.60 82.10 313.16 86.19 311.20 C 88.49 309.65 89.08 306.67 89.00 304.08 C 88.94 297.11 89.13 290.14 88.90 283.18 C 88.26 281.73 87.26 280.49 86.51 279.10 C 90.50 278.93 94.50 279.03 98.49 278.94 C 97.76 280.39 96.74 281.68 96.10 283.18 C 95.87 291.13 96.06 299.10 96.01 307.05 C 96.06 311.46 92.76 315.34 88.70 316.74 C 84.38 318.78 79.53 317.79 74.94 318.03 C 69.14 318.22 62.41 314.99 61.08 308.89 C 60.79 300.33 61.16 291.75 60.95 283.19 C 60.39 281.69 59.26 280.51 58.51 279.12 Z" />
<path fill="#060606" d=" M 146.51 279.11 C 155.97 278.91 165.44 278.98 174.89 279.05 C 178.91 280.10 182.99 282.86 183.88 287.17 C 184.16 290.29 184.48 293.80 182.39 296.43 C 180.68 299.25 177.35 300.20 174.49 301.42 C 178.24 306.53 180.81 312.56 185.69 316.75 C 181.74 317.20 177.75 316.99 173.78 317.03 C 173.75 315.32 174.27 313.40 173.07 311.96 C 170.72 308.30 168.32 304.68 166.01 301.00 C 162.68 301.04 159.35 301.03 156.02 301.02 C 156.04 304.95 155.90 308.89 156.06 312.83 C 156.71 314.26 157.72 315.51 158.47 316.90 C 154.49 317.10 150.50 317.09 146.53 316.86 C 147.28 315.21 149.00 313.89 148.99 311.97 C 149.00 302.66 148.99 293.34 149.00 284.03 C 149.03 282.08 147.27 280.77 146.51 279.11 Z" />
<path fill="#060606" d=" M 241.43 279.05 C 245.70 278.92 249.97 278.98 254.24 278.97 C 253.89 280.27 253.12 281.50 253.13 282.88 C 255.47 289.30 258.95 295.22 261.54 301.55 C 264.20 306.83 265.93 312.88 270.67 316.75 C 266.40 317.15 262.11 317.01 257.83 317.00 C 259.94 313.65 258.05 309.88 255.98 307.06 C 250.48 306.91 244.97 307.04 239.46 307.00 C 238.66 308.99 237.55 310.86 236.95 312.93 C 237.09 314.35 237.76 315.64 238.18 317.00 C 233.90 316.99 229.62 317.17 225.35 316.78 C 230.29 312.62 231.74 306.13 234.63 300.63 C 237.65 294.72 239.96 288.49 243.06 282.62 C 242.52 281.42 241.96 280.24 241.43 279.05 Z" />
<path fill="#060606" d=" M 341.52 279.09 C 345.51 278.94 349.50 278.94 353.49 279.11 C 352.55 281.00 350.65 282.64 351.01 284.95 C 350.98 293.65 351.01 302.35 350.99 311.05 C 350.61 313.36 352.52 314.99 353.47 316.88 C 349.48 317.04 345.49 317.09 341.50 316.89 C 342.26 315.23 344.05 313.92 343.99 311.97 C 343.96 302.37 344.11 292.77 343.90 283.18 C 343.31 281.71 342.26 280.48 341.52 279.09 Z" />
<path fill="#060606" d=" M 359.50 279.09 C 367.01 278.87 374.54 279.08 382.06 278.98 C 385.93 278.83 390.05 279.50 393.31 281.71 C 401.41 287.65 403.48 299.88 398.42 308.42 C 395.63 314.07 389.20 317.17 383.07 317.03 C 375.22 316.91 367.36 317.17 359.52 316.87 C 360.28 315.22 362.05 313.91 361.99 311.98 C 361.99 302.66 362.03 293.35 361.98 284.03 C 362.02 282.07 360.26 280.76 359.50 279.09 Z" />
<path fill="#060606" d=" M 419.55 278.95 C 423.80 279.02 428.05 278.98 432.31 279.01 C 431.84 280.27 431.35 281.52 430.88 282.79 C 435.43 292.40 439.65 302.16 444.40 311.68 C 445.28 313.78 447.29 315.00 448.65 316.75 C 444.39 317.19 440.10 316.98 435.83 317.00 C 437.97 313.60 435.81 310.29 434.47 307.07 C 428.79 306.93 423.11 307.02 417.44 307.04 C 416.62 309.00 415.60 310.88 414.97 312.92 C 415.16 314.34 415.75 315.66 416.16 317.03 C 411.88 316.95 407.60 317.19 403.34 316.78 C 408.34 312.67 409.73 306.13 412.61 300.62 C 415.41 295.02 417.79 289.23 420.49 283.58 C 421.50 281.99 419.97 280.46 419.55 278.95 Z" />
<path fill="#060606" d=" M 520.48 279.11 C 529.01 278.83 537.54 279.11 546.07 278.96 C 551.19 278.57 556.67 282.05 557.88 287.17 C 558.19 290.29 558.46 293.79 556.39 296.41 C 554.71 299.25 551.38 300.21 548.52 301.37 C 552.13 306.59 554.88 312.50 559.65 316.81 C 555.72 317.18 551.78 317.01 547.85 316.97 C 547.78 315.28 548.18 313.39 547.03 311.97 C 544.72 308.32 542.28 304.75 540.06 301.04 C 536.72 301.04 533.37 301.00 530.03 301.02 C 530.04 304.95 529.90 308.89 530.05 312.82 C 530.58 314.30 531.74 315.45 532.50 316.83 C 528.51 317.09 524.51 317.06 520.53 316.87 C 521.48 314.98 523.40 313.36 523.01 311.05 C 522.97 302.04 523.03 293.04 522.98 284.03 C 523.03 282.07 521.26 280.76 520.48 279.11 Z" />
<path fill="#060606" d=" M 662.44 279.12 C 671.91 278.92 681.40 278.95 690.87 279.07 C 698.28 279.77 702.30 288.75 699.09 295.10 C 697.26 298.84 693.16 301.12 689.05 301.02 C 683.36 301.01 677.68 300.99 672.00 301.00 C 672.04 304.94 671.91 308.88 672.05 312.82 C 672.60 314.31 673.74 315.49 674.50 316.89 C 670.51 317.09 666.52 317.04 662.53 316.88 C 663.47 314.99 665.38 313.35 665.01 311.05 C 664.97 302.04 665.04 293.03 664.98 284.03 C 665.24 281.97 663.33 280.73 662.44 279.12 Z" />
<path fill="#060606" d=" M 746.51 279.11 C 755.97 278.91 765.44 278.98 774.90 279.05 C 778.91 280.10 782.99 282.86 783.88 287.17 C 784.16 290.29 784.48 293.80 782.39 296.43 C 780.67 299.25 777.35 300.20 774.49 301.42 C 778.23 306.53 780.82 312.54 785.67 316.76 C 781.72 317.20 777.74 316.99 773.78 317.03 C 773.74 315.32 774.27 313.40 773.07 311.96 C 770.72 308.30 768.32 304.68 766.01 301.00 C 762.67 301.04 759.34 301.03 756.02 301.02 C 756.04 304.95 755.90 308.89 756.06 312.83 C 756.71 314.26 757.71 315.51 758.47 316.90 C 754.49 317.10 750.50 317.09 746.53 316.86 C 747.28 315.21 749.00 313.89 748.99 311.98 C 749.00 302.66 748.99 293.35 749.00 284.03 C 749.03 282.08 747.27 280.77 746.51 279.11 Z" />
<path fill="#060606" d=" M 791.52 279.10 C 795.51 278.93 799.51 278.94 803.50 279.12 C 802.73 280.77 800.95 282.08 801.02 284.03 C 800.98 293.34 801.00 302.66 801.01 311.97 C 800.94 313.92 802.71 315.23 803.49 316.89 C 799.50 317.06 795.50 317.08 791.52 316.87 C 792.27 315.22 794.04 313.91 793.99 311.98 C 793.99 302.66 794.03 293.35 793.98 284.04 C 794.02 282.08 792.27 280.76 791.52 279.10 Z" />
<path fill="#060606" d=" M 809.51 279.11 C 818.01 278.88 826.52 279.02 835.03 279.02 C 840.70 279.19 845.82 282.63 848.45 287.59 C 852.08 293.89 852.08 302.11 848.44 308.42 C 845.57 313.99 839.24 317.22 833.07 317.03 C 825.22 316.91 817.37 317.16 809.53 316.90 C 810.27 315.51 811.28 314.26 811.94 312.82 C 812.10 303.54 811.93 294.25 812.03 284.96 C 812.42 282.62 810.48 280.99 809.51 279.11 Z" />
<path fill="#060606" d=" M 869.45 278.97 C 873.71 279.00 877.98 279.03 882.25 278.95 C 881.86 280.26 881.16 281.52 881.09 282.91 C 883.61 289.50 887.15 295.64 889.86 302.15 C 892.38 307.25 894.13 313.00 898.67 316.75 C 894.40 317.19 890.10 316.98 885.83 317.00 C 888.03 313.58 885.73 310.32 884.42 307.08 C 878.78 306.93 873.13 307.02 867.48 307.04 C 865.88 310.19 863.93 313.60 866.17 317.00 C 861.89 316.98 857.60 317.18 853.34 316.78 C 858.44 312.43 859.94 305.67 862.92 299.94 C 865.87 294.30 868.00 288.28 871.06 282.69 C 870.52 281.45 869.96 280.21 869.45 278.97 Z" />
<path fill="#060606" d=" M 901.51 278.93 C 910.01 279.09 918.52 278.93 927.03 279.01 C 932.65 279.25 937.84 282.61 940.45 287.59 C 944.07 293.89 944.06 302.11 940.45 308.42 C 937.57 313.99 931.24 317.24 925.06 317.03 C 917.22 316.92 909.37 317.14 901.54 316.89 C 902.27 315.50 903.27 314.26 903.94 312.84 C 904.07 303.55 903.99 294.25 903.97 284.96 C 904.33 282.59 902.40 280.91 901.51 278.93 Z" />
<path fill="#fefefe" d=" M 585.43 283.46 C 589.70 282.16 594.26 284.03 597.96 286.15 C 605.92 291.37 605.87 304.62 597.99 309.90 C 594.00 312.09 589.15 314.08 584.63 312.31 C 579.86 311.17 575.35 307.94 573.94 303.06 C 571.95 298.18 573.30 292.50 576.41 288.41 C 578.61 285.61 582.15 284.46 585.43 283.46 Z" />
<path fill="#fefefe" d=" M 156.02 284.01 C 162.19 284.41 168.73 282.89 174.59 285.41 C 176.77 287.16 177.98 290.74 176.20 293.20 C 175.11 294.98 172.87 295.48 170.96 295.89 C 165.98 296.15 160.99 295.92 156.00 296.00 C 156.00 292.00 156.00 288.01 156.02 284.01 Z" />
<path fill="#fefefe" d=" M 369.03 284.03 C 375.22 284.14 381.58 283.34 387.56 285.42 C 396.17 290.69 396.12 305.33 387.57 310.58 C 381.57 312.62 375.21 311.88 369.00 312.00 C 369.01 302.67 368.98 293.35 369.03 284.03 Z" />
<path fill="#fefefe" d=" M 530.01 283.99 C 536.22 284.39 542.73 282.96 548.66 285.37 C 550.73 287.25 551.92 290.69 550.22 293.19 C 549.10 295.00 546.89 295.54 544.95 295.92 C 539.97 296.16 534.98 295.92 530.00 296.00 C 530.00 291.99 529.99 287.99 530.01 283.99 Z" />
<path fill="#fefefe" d=" M 672.00 284.00 C 677.74 284.40 683.76 283.14 689.33 284.74 C 694.24 285.91 694.26 294.10 689.33 295.25 C 683.74 296.83 677.75 295.62 672.00 296.00 C 672.00 292.00 672.00 288.00 672.00 284.00 Z" />
<path fill="#fefefe" d=" M 756.02 284.01 C 762.19 284.41 768.72 282.89 774.59 285.41 C 776.76 287.15 777.98 290.74 776.20 293.20 C 775.10 294.98 772.86 295.48 770.96 295.89 C 765.98 296.15 760.98 295.92 756.00 296.00 C 755.99 292.00 756.00 288.01 756.02 284.01 Z" />
<path fill="#fefefe" d=" M 819.00 284.01 C 825.39 284.21 832.17 283.13 838.18 285.83 C 846.22 291.35 845.87 305.48 837.55 310.57 C 831.57 312.65 825.20 311.86 819.01 312.00 C 819.00 302.67 819.01 293.34 819.00 284.01 Z" />
<path fill="#fefefe" d=" M 910.98 284.00 C 916.36 284.21 921.86 283.41 927.14 284.82 C 930.99 285.25 933.78 288.69 934.96 292.17 C 937.03 297.49 935.93 303.96 932.37 308.37 C 926.66 313.65 918.07 311.54 911.00 312.00 C 910.98 302.67 911.03 293.33 910.98 284.00 Z" />
<path fill="#fefefe" d=" M 241.72 301.96 C 243.92 297.52 245.81 292.93 247.90 288.44 C 249.84 292.98 252.10 297.39 253.98 301.96 C 249.89 301.97 245.81 301.99 241.72 301.96 Z" />
<path fill="#fefefe" d=" M 419.75 301.97 C 421.92 297.51 423.81 292.93 425.97 288.47 C 427.85 293.04 430.08 297.46 432.01 302.02 C 427.92 301.98 423.84 302.01 419.75 301.97 Z" />
<path fill="#fefefe" d=" M 869.73 301.99 C 871.90 297.53 873.81 292.95 875.91 288.46 C 877.93 293.00 880.07 297.48 882.14 302.00 C 878.00 301.98 873.86 302.01 869.73 301.99 Z" />
<path fill="#151795" d=" M 0.00 370.97 C 319.67 370.96 639.33 370.96 959.00 370.97 L 959.00 372.14 C 939.34 372.65 919.66 372.23 900.00 372.36 C 603.33 372.36 306.67 372.36 10.00 372.37 C 6.67 372.34 3.33 372.27 0.00 372.21 L 0.00 370.97 Z" />
<path fill="#0001be" d=" M 0.00 372.21 C 3.33 372.27 6.67 372.34 10.00 372.37 C 306.67 372.36 603.33 372.36 900.00 372.36 C 919.66 372.23 939.34 372.65 959.00 372.14 L 959.00 603.00 L 0.00 603.00 L 0.00 372.21 Z" />
</svg>
