<?xml version="1.0" encoding="UTF-8" standalone="no"?>
<!-- Created with Inkscape (http://www.inkscape.org/) -->

<svg
   xmlns:dc="http://purl.org/dc/elements/1.1/"
   xmlns:cc="http://creativecommons.org/ns#"
   xmlns:rdf="http://www.w3.org/1999/02/22-rdf-syntax-ns#"
   xmlns:svg="http://www.w3.org/2000/svg"
   xmlns="http://www.w3.org/2000/svg"
   xmlns:sodipodi="http://sodipodi.sourceforge.net/DTD/sodipodi-0.dtd"
   xmlns:inkscape="http://www.inkscape.org/namespaces/inkscape"
   id="svg2"
   version="1.1"
   inkscape:version="0.48.4 r9939"
   width="878"
   height="537"
   sodipodi:docname="Bandera_del_Departamento_de_Central.JPG">
  <metadata
     id="metadata8">
    <rdf:RDF>
      <cc:Work
         rdf:about="">
        <dc:format>image/svg+xml</dc:format>
        <dc:type
           rdf:resource="http://purl.org/dc/dcmitype/StillImage" />
        <dc:title></dc:title>
      </cc:Work>
    </rdf:RDF>
  </metadata>
  <defs
     id="defs6" />
  <sodipodi:namedview
     pagecolor="#ffffff"
     bordercolor="#666666"
     borderopacity="1"
     objecttolerance="10"
     gridtolerance="10"
     guidetolerance="10"
     inkscape:pageopacity="0"
     inkscape:pageshadow="2"
     inkscape:window-width="1366"
     inkscape:window-height="705"
     id="namedview4"
     showgrid="true"
     inkscape:zoom="0.38460498"
     inkscape:cx="598.10284"
     inkscape:cy="377.16187"
     inkscape:window-x="-8"
     inkscape:window-y="-8"
     inkscape:window-maximized="1"
     inkscape:current-layer="svg2">
    <sodipodi:guide
       position="0,0"
       orientation="0,878"
       id="guide2987" />
    <sodipodi:guide
       position="878,0"
       orientation="-537,0"
       id="guide2989" />
    <sodipodi:guide
       position="878,537"
       orientation="0,-878"
       id="guide2991" />
    <sodipodi:guide
       position="0,537"
       orientation="537,0"
       id="guide2993" />
    <inkscape:grid
       type="xygrid"
       id="grid3019" />
  </sodipodi:namedview>
  <rect
     style="fill:#ffffff;fill-opacity:1;fill-rule:evenodd;stroke:none"
     id="rect2995"
     width="878"
     height="537"
     x="0"
     y="0" />
  <rect
     style="fill:#fe0000;fill-opacity:1;fill-rule:evenodd;stroke:none"
     id="rect2997"
     width="119.47456"
     height="537"
     x="525.13287"
     y="0" />
  <rect
     style="fill:#ffffff;fill-opacity:1;fill-rule:evenodd;stroke:none"
     id="rect3144"
     width="380"
     height="300"
     x="400"
     y="117" />
  <path
     sodipodi:type="star"
     style="fill:#010198;fill-opacity:1;fill-rule:evenodd;stroke:none"
     id="path2999"
     sodipodi:sides="5"
     sodipodi:cx="332.72311"
     sodipodi:cy="232.75633"
     sodipodi:r1="28.757614"
     sodipodi:r2="11.280546"
     sodipodi:arg1="0.92246434"
     sodipodi:arg2="1.5507829"
     inkscape:flatsided="false"
     inkscape:rounded="0"
     inkscape:randomized="0"
     d="m 350.08862,255.6788 -17.13976,-11.64418 -16.66007,12.32072 5.7778,-19.89913 -16.86595,-12.03736 20.71063,-0.65415 6.23634,-19.76022 7.02208,19.49484 20.72022,-0.17513 -16.37075,12.70263 z"
     inkscape:transform-center-x="-0.043501286"
     inkscape:transform-center-y="-2.943207"
     transform="matrix(1.0251182,0.02414005,-0.02541623,1.0793121,221.23061,-101.30622)" />
  <path
     sodipodi:type="star"
     style="fill:#010198;fill-opacity:1;fill-rule:evenodd;stroke:none"
     id="path2999-7"
     sodipodi:sides="5"
     sodipodi:cx="332.72311"
     sodipodi:cy="232.75633"
     sodipodi:r1="28.757614"
     sodipodi:r2="11.280546"
     sodipodi:arg1="0.92246434"
     sodipodi:arg2="1.5507829"
     inkscape:flatsided="false"
     inkscape:rounded="0"
     inkscape:randomized="0"
     d="m 350.08862,255.6788 -17.13976,-11.64418 -16.66007,12.32072 5.7778,-19.89913 -16.86595,-12.03736 20.71063,-0.65415 6.23634,-19.76022 7.02208,19.49484 20.72022,-0.17513 -16.37075,12.70263 z"
     inkscape:transform-center-x="-0.043501286"
     inkscape:transform-center-y="-2.943207"
     transform="matrix(1.0251182,0.02414005,-0.02541623,1.0793121,279.96004,-101.5942)" />
  <path
     sodipodi:type="star"
     style="fill:#010198;fill-opacity:1;fill-rule:evenodd;stroke:none"
     id="path2999-4"
     sodipodi:sides="5"
     sodipodi:cx="332.72311"
     sodipodi:cy="232.75633"
     sodipodi:r1="28.757614"
     sodipodi:r2="11.280546"
     sodipodi:arg1="0.92246434"
     sodipodi:arg2="1.5507829"
     inkscape:flatsided="false"
     inkscape:rounded="0"
     inkscape:randomized="0"
     d="m 350.08862,255.6788 -17.13976,-11.64418 -16.66007,12.32072 5.7778,-19.89913 -16.86595,-12.03736 20.71063,-0.65415 6.23634,-19.76022 7.02208,19.49484 20.72022,-0.17513 -16.37075,12.70263 z"
     inkscape:transform-center-x="-0.043501286"
     inkscape:transform-center-y="-2.943207"
     transform="matrix(1.0251182,0.02414005,-0.02541623,1.0793121,131.23061,-48.265082)" />
  <path
     sodipodi:type="star"
     style="fill:#010198;fill-opacity:1;fill-rule:evenodd;stroke:none"
     id="path2999-7-0"
     sodipodi:sides="5"
     sodipodi:cx="332.72311"
     sodipodi:cy="232.75633"
     sodipodi:r1="28.757614"
     sodipodi:r2="11.280546"
     sodipodi:arg1="0.92246434"
     sodipodi:arg2="1.5507829"
     inkscape:flatsided="false"
     inkscape:rounded="0"
     inkscape:randomized="0"
     d="m 350.08862,255.6788 -17.13976,-11.64418 -16.66007,12.32072 5.7778,-19.89913 -16.86595,-12.03736 20.71063,-0.65415 6.23634,-19.76022 7.02208,19.49484 20.72022,-0.17513 -16.37075,12.70263 z"
     inkscape:transform-center-x="-0.043501286"
     inkscape:transform-center-y="-2.943207"
     transform="matrix(1.0251182,0.02414005,-0.02541623,1.0793121,189.96004,-48.553062)" />
  <path
     sodipodi:type="star"
     style="fill:#010198;fill-opacity:1;fill-rule:evenodd;stroke:none"
     id="path2999-9"
     sodipodi:sides="5"
     sodipodi:cx="332.72311"
     sodipodi:cy="232.75633"
     sodipodi:r1="28.757614"
     sodipodi:r2="11.280546"
     sodipodi:arg1="0.92246434"
     sodipodi:arg2="1.5507829"
     inkscape:flatsided="false"
     inkscape:rounded="0"
     inkscape:randomized="0"
     d="m 350.08862,255.6788 -17.13976,-11.64418 -16.66007,12.32072 5.7778,-19.89913 -16.86595,-12.03736 20.71063,-0.65415 6.23634,-19.76022 7.02208,19.49484 20.72022,-0.17513 -16.37075,12.70263 z"
     inkscape:transform-center-x="-0.043501286"
     inkscape:transform-center-y="-2.943207"
     transform="matrix(1.0251182,0.02414005,-0.02541623,1.0793121,251.23061,-48.828373)" />
  <path
     sodipodi:type="star"
     style="fill:#010198;fill-opacity:1;fill-rule:evenodd;stroke:none"
     id="path2999-7-4"
     sodipodi:sides="5"
     sodipodi:cx="332.72311"
     sodipodi:cy="232.75633"
     sodipodi:r1="28.757614"
     sodipodi:r2="11.280546"
     sodipodi:arg1="0.92246434"
     sodipodi:arg2="1.5507829"
     inkscape:flatsided="false"
     inkscape:rounded="0"
     inkscape:randomized="0"
     d="m 350.08862,255.6788 -17.13976,-11.64418 -16.66007,12.32072 5.7778,-19.89913 -16.86595,-12.03736 20.71063,-0.65415 6.23634,-19.76022 7.02208,19.49484 20.72022,-0.17513 -16.37075,12.70263 z"
     inkscape:transform-center-x="-0.043501286"
     inkscape:transform-center-y="-2.943207"
     transform="matrix(1.0251182,0.02414005,-0.02541623,1.0793121,309.96004,-49.116353)" />
  <path
     sodipodi:type="star"
     style="fill:#010198;fill-opacity:1;fill-rule:evenodd;stroke:none"
     id="path2999-8"
     sodipodi:sides="5"
     sodipodi:cx="332.72311"
     sodipodi:cy="232.75633"
     sodipodi:r1="28.757614"
     sodipodi:r2="11.280546"
     sodipodi:arg1="0.92246434"
     sodipodi:arg2="1.5507829"
     inkscape:flatsided="false"
     inkscape:rounded="0"
     inkscape:randomized="0"
     d="m 350.08862,255.6788 -17.13976,-11.64418 -16.66007,12.32072 5.7778,-19.89913 -16.86595,-12.03736 20.71063,-0.65415 6.23634,-19.76022 7.02208,19.49484 20.72022,-0.17513 -16.37075,12.70263 z"
     inkscape:transform-center-x="-0.043501286"
     inkscape:transform-center-y="-2.943207"
     transform="matrix(1.0251182,0.02414005,-0.02541623,1.0793121,368.58346,-48.409069)" />
  <path
     sodipodi:type="star"
     style="fill:#010198;fill-opacity:1;fill-rule:evenodd;stroke:none"
     id="path2999-4-2"
     sodipodi:sides="5"
     sodipodi:cx="332.72311"
     sodipodi:cy="232.75633"
     sodipodi:r1="28.757614"
     sodipodi:r2="11.280546"
     sodipodi:arg1="0.92246434"
     sodipodi:arg2="1.5507829"
     inkscape:flatsided="false"
     inkscape:rounded="0"
     inkscape:randomized="0"
     d="m 350.08862,255.6788 -17.13976,-11.64418 -16.66007,12.32072 5.7778,-19.89913 -16.86595,-12.03736 20.71063,-0.65415 6.23634,-19.76022 7.02208,19.49484 20.72022,-0.17513 -16.37075,12.70263 z"
     inkscape:transform-center-x="-0.043501286"
     inkscape:transform-center-y="-2.943207"
     transform="matrix(1.0251182,0.02414005,-0.02541623,1.0793121,132.2939,7.4105519)" />
  <path
     sodipodi:type="star"
     style="fill:#010198;fill-opacity:1;fill-rule:evenodd;stroke:none"
     id="path2999-7-0-4"
     sodipodi:sides="5"
     sodipodi:cx="332.72311"
     sodipodi:cy="232.75633"
     sodipodi:r1="28.757614"
     sodipodi:r2="11.280546"
     sodipodi:arg1="0.92246434"
     sodipodi:arg2="1.5507829"
     inkscape:flatsided="false"
     inkscape:rounded="0"
     inkscape:randomized="0"
     d="m 350.08862,255.6788 -17.13976,-11.64418 -16.66007,12.32072 5.7778,-19.89913 -16.86595,-12.03736 20.71063,-0.65415 6.23634,-19.76022 7.02208,19.49484 20.72022,-0.17513 -16.37075,12.70263 z"
     inkscape:transform-center-x="-0.043501286"
     inkscape:transform-center-y="-2.943207"
     transform="matrix(1.0251182,0.02414005,-0.02541623,1.0793121,191.02333,7.1225719)" />
  <path
     sodipodi:type="star"
     style="fill:#010198;fill-opacity:1;fill-rule:evenodd;stroke:none"
     id="path2999-9-5"
     sodipodi:sides="5"
     sodipodi:cx="332.72311"
     sodipodi:cy="232.75633"
     sodipodi:r1="28.757614"
     sodipodi:r2="11.280546"
     sodipodi:arg1="0.92246434"
     sodipodi:arg2="1.5507829"
     inkscape:flatsided="false"
     inkscape:rounded="0"
     inkscape:randomized="0"
     d="m 350.08862,255.6788 -17.13976,-11.64418 -16.66007,12.32072 5.7778,-19.89913 -16.86595,-12.03736 20.71063,-0.65415 6.23634,-19.76022 7.02208,19.49484 20.72022,-0.17513 -16.37075,12.70263 z"
     inkscape:transform-center-x="-0.043501286"
     inkscape:transform-center-y="-2.943207"
     transform="matrix(1.0251182,0.02414005,-0.02541623,1.0793121,252.2939,6.8472619)" />
  <path
     sodipodi:type="star"
     style="fill:#010198;fill-opacity:1;fill-rule:evenodd;stroke:none"
     id="path2999-7-4-5"
     sodipodi:sides="5"
     sodipodi:cx="332.72311"
     sodipodi:cy="232.75633"
     sodipodi:r1="28.757614"
     sodipodi:r2="11.280546"
     sodipodi:arg1="0.92246434"
     sodipodi:arg2="1.5507829"
     inkscape:flatsided="false"
     inkscape:rounded="0"
     inkscape:randomized="0"
     d="m 350.08862,255.6788 -17.13976,-11.64418 -16.66007,12.32072 5.7778,-19.89913 -16.86595,-12.03736 20.71063,-0.65415 6.23634,-19.76022 7.02208,19.49484 20.72022,-0.17513 -16.37075,12.70263 z"
     inkscape:transform-center-x="-0.043501286"
     inkscape:transform-center-y="-2.943207"
     transform="matrix(1.0251182,0.02414005,-0.02541623,1.0793121,311.02333,6.5592819)" />
  <path
     sodipodi:type="star"
     style="fill:#010198;fill-opacity:1;fill-rule:evenodd;stroke:none"
     id="path2999-8-1"
     sodipodi:sides="5"
     sodipodi:cx="332.72311"
     sodipodi:cy="232.75633"
     sodipodi:r1="28.757614"
     sodipodi:r2="11.280546"
     sodipodi:arg1="0.92246434"
     sodipodi:arg2="1.5507829"
     inkscape:flatsided="false"
     inkscape:rounded="0"
     inkscape:randomized="0"
     d="m 350.08862,255.6788 -17.13976,-11.64418 -16.66007,12.32072 5.7778,-19.89913 -16.86595,-12.03736 20.71063,-0.65415 6.23634,-19.76022 7.02208,19.49484 20.72022,-0.17513 -16.37075,12.70263 z"
     inkscape:transform-center-x="-0.043501286"
     inkscape:transform-center-y="-2.943207"
     transform="matrix(1.0251182,0.02414005,-0.02541623,1.0793121,369.64674,7.2665619)" />
  <path
     sodipodi:type="star"
     style="fill:#010198;fill-opacity:1;fill-rule:evenodd;stroke:none"
     id="path2999-4-7"
     sodipodi:sides="5"
     sodipodi:cx="332.72311"
     sodipodi:cy="232.75633"
     sodipodi:r1="28.757614"
     sodipodi:r2="11.280546"
     sodipodi:arg1="0.92246434"
     sodipodi:arg2="1.5507829"
     inkscape:flatsided="false"
     inkscape:rounded="0"
     inkscape:randomized="0"
     d="m 350.08862,255.6788 -17.13976,-11.64418 -16.66007,12.32072 5.7778,-19.89913 -16.86595,-12.03736 20.71063,-0.65415 6.23634,-19.76022 7.02208,19.49484 20.72022,-0.17513 -16.37075,12.70263 z"
     inkscape:transform-center-x="-0.043501286"
     inkscape:transform-center-y="-2.943207"
     transform="matrix(1.0251182,0.02414005,-0.02541623,1.0793121,133.85245,62.611502)" />
  <path
     sodipodi:type="star"
     style="fill:#010198;fill-opacity:1;fill-rule:evenodd;stroke:none"
     id="path2999-7-0-1"
     sodipodi:sides="5"
     sodipodi:cx="332.72311"
     sodipodi:cy="232.75633"
     sodipodi:r1="28.757614"
     sodipodi:r2="11.280546"
     sodipodi:arg1="0.92246434"
     sodipodi:arg2="1.5507829"
     inkscape:flatsided="false"
     inkscape:rounded="0"
     inkscape:randomized="0"
     d="m 350.08862,255.6788 -17.13976,-11.64418 -16.66007,12.32072 5.7778,-19.89913 -16.86595,-12.03736 20.71063,-0.65415 6.23634,-19.76022 7.02208,19.49484 20.72022,-0.17513 -16.37075,12.70263 z"
     inkscape:transform-center-x="-0.043501286"
     inkscape:transform-center-y="-2.943207"
     transform="matrix(1.0251182,0.02414005,-0.02541623,1.0793121,192.58188,62.323522)" />
  <path
     sodipodi:type="star"
     style="fill:#010198;fill-opacity:1;fill-rule:evenodd;stroke:none"
     id="path2999-9-1"
     sodipodi:sides="5"
     sodipodi:cx="332.72311"
     sodipodi:cy="232.75633"
     sodipodi:r1="28.757614"
     sodipodi:r2="11.280546"
     sodipodi:arg1="0.92246434"
     sodipodi:arg2="1.5507829"
     inkscape:flatsided="false"
     inkscape:rounded="0"
     inkscape:randomized="0"
     d="m 350.08862,255.6788 -17.13976,-11.64418 -16.66007,12.32072 5.7778,-19.89913 -16.86595,-12.03736 20.71063,-0.65415 6.23634,-19.76022 7.02208,19.49484 20.72022,-0.17513 -16.37075,12.70263 z"
     inkscape:transform-center-x="-0.043501286"
     inkscape:transform-center-y="-2.943207"
     transform="matrix(1.0251182,0.02414005,-0.02541623,1.0793121,253.85245,62.048212)" />
  <path
     sodipodi:type="star"
     style="fill:#010198;fill-opacity:1;fill-rule:evenodd;stroke:none"
     id="path2999-7-4-52"
     sodipodi:sides="5"
     sodipodi:cx="332.72311"
     sodipodi:cy="232.75633"
     sodipodi:r1="28.757614"
     sodipodi:r2="11.280546"
     sodipodi:arg1="0.92246434"
     sodipodi:arg2="1.5507829"
     inkscape:flatsided="false"
     inkscape:rounded="0"
     inkscape:randomized="0"
     d="m 350.08862,255.6788 -17.13976,-11.64418 -16.66007,12.32072 5.7778,-19.89913 -16.86595,-12.03736 20.71063,-0.65415 6.23634,-19.76022 7.02208,19.49484 20.72022,-0.17513 -16.37075,12.70263 z"
     inkscape:transform-center-x="-0.043501286"
     inkscape:transform-center-y="-2.943207"
     transform="matrix(1.0251182,0.02414005,-0.02541623,1.0793121,312.58188,61.760232)" />
  <path
     sodipodi:type="star"
     style="fill:#010198;fill-opacity:1;fill-rule:evenodd;stroke:none"
     id="path2999-8-7"
     sodipodi:sides="5"
     sodipodi:cx="332.72311"
     sodipodi:cy="232.75633"
     sodipodi:r1="28.757614"
     sodipodi:r2="11.280546"
     sodipodi:arg1="0.92246434"
     sodipodi:arg2="1.5507829"
     inkscape:flatsided="false"
     inkscape:rounded="0"
     inkscape:randomized="0"
     d="m 350.08862,255.6788 -17.13976,-11.64418 -16.66007,12.32072 5.7778,-19.89913 -16.86595,-12.03736 20.71063,-0.65415 6.23634,-19.76022 7.02208,19.49484 20.72022,-0.17513 -16.37075,12.70263 z"
     inkscape:transform-center-x="-0.043501286"
     inkscape:transform-center-y="-2.943207"
     transform="matrix(1.0251182,0.02414005,-0.02541623,1.0793121,371.20529,62.467512)" />
  <path
     sodipodi:type="star"
     style="fill:#010198;fill-opacity:1;fill-rule:evenodd;stroke:none"
     id="path2999-6"
     sodipodi:sides="5"
     sodipodi:cx="332.72311"
     sodipodi:cy="232.75633"
     sodipodi:r1="28.757614"
     sodipodi:r2="11.280546"
     sodipodi:arg1="0.92246434"
     sodipodi:arg2="1.5507829"
     inkscape:flatsided="false"
     inkscape:rounded="0"
     inkscape:randomized="0"
     d="m 350.08862,255.6788 -17.13976,-11.64418 -16.66007,12.32072 5.7778,-19.89913 -16.86595,-12.03736 20.71063,-0.65415 6.23634,-19.76022 7.02208,19.49484 20.72022,-0.17513 -16.37075,12.70263 z"
     inkscape:transform-center-x="-0.043501286"
     inkscape:transform-center-y="-2.943207"
     transform="matrix(1.0251182,0.02414005,-0.02541623,1.0793121,222.28137,118.09308)" />
  <path
     sodipodi:type="star"
     style="fill:#010198;fill-opacity:1;fill-rule:evenodd;stroke:none"
     id="path2999-7-1"
     sodipodi:sides="5"
     sodipodi:cx="332.72311"
     sodipodi:cy="232.75633"
     sodipodi:r1="28.757614"
     sodipodi:r2="11.280546"
     sodipodi:arg1="0.92246434"
     sodipodi:arg2="1.5507829"
     inkscape:flatsided="false"
     inkscape:rounded="0"
     inkscape:randomized="0"
     d="m 350.08862,255.6788 -17.13976,-11.64418 -16.66007,12.32072 5.7778,-19.89913 -16.86595,-12.03736 20.71063,-0.65415 6.23634,-19.76022 7.02208,19.49484 20.72022,-0.17513 -16.37075,12.70263 z"
     inkscape:transform-center-x="-0.043501286"
     inkscape:transform-center-y="-2.943207"
     transform="matrix(1.0251182,0.02414005,-0.02541623,1.0793121,281.0108,117.8051)" />
</svg>
