<?xml version="1.0" encoding="UTF-8" standalone="no"?>
<!-- Created with Inkscape (http://www.inkscape.org/) -->

<svg
   xmlns:dc="http://purl.org/dc/elements/1.1/"
   xmlns:cc="http://creativecommons.org/ns#"
   xmlns:rdf="http://www.w3.org/1999/02/22-rdf-syntax-ns#"
   xmlns:svg="http://www.w3.org/2000/svg"
   xmlns="http://www.w3.org/2000/svg"
   xmlns:sodipodi="http://sodipodi.sourceforge.net/DTD/sodipodi-0.dtd"
   xmlns:inkscape="http://www.inkscape.org/namespaces/inkscape"
   version="1.0"
   width="1200"
   height="600"
   id="svg2"
   xml:space="preserve"
   style="fill-rule:evenodd"
   inkscape:version="0.48.1 "
   sodipodi:docname="AJAX.svg"><metadata
     id="metadata12"><rdf:RDF><cc:Work
         rdf:about=""><dc:format>image/svg+xml</dc:format><dc:type
           rdf:resource="http://purl.org/dc/dcmitype/StillImage" /></cc:Work></rdf:RDF></metadata><sodipodi:namedview
     pagecolor="#ffffff"
     bordercolor="#666666"
     borderopacity="1"
     objecttolerance="10"
     gridtolerance="10"
     guidetolerance="10"
     inkscape:pageopacity="0"
     inkscape:pageshadow="2"
     inkscape:window-width="1280"
     inkscape:window-height="1004"
     id="namedview10"
     showgrid="false"
     fit-margin-top="0"
     fit-margin-left="0"
     fit-margin-right="0"
     fit-margin-bottom="0"
     inkscape:zoom="0.60876335"
     inkscape:cx="448.70018"
     inkscape:cy="54.773372"
     inkscape:window-x="-8"
     inkscape:window-y="-8"
     inkscape:window-maximized="1"
     inkscape:current-layer="svg2" /><defs
     id="defs18">
 </defs><rect
     width="1200"
     height="66"
     x="0"
     y="0"
     id="rect5"
     style="fill:#dd0000;fill-opacity:1" /><rect
     width="1200"
     height="66"
     x="0"
     y="534"
     id="rect7"
     style="fill:#ffffff" /><rect
     width="1200"
     height="480"
     x="0"
     y="60"
     id="rect9"
     style="fill:#003893;fill-opacity:1" /><path
     d="m 599.99995,89.040036 22.00001,69.999994 72,0 -58.00002,42 22.00002,67.99999 -58.00001,-42 -57.99999,42 22,-67.99999 -58,-42 72,0 21.99999,-69.999994 z"
     id="path11"
     style="fill:#ffe60c;fill-opacity:1;stroke:none"
     inkscape:connector-curvature="0" /><path
     d="m 773.99994,297.04001 -36,62 48,54 -70.00002,-16.00001 -36,64 -7.99998,-71.99999 -69.99996,-16 65.99994,-30 -7.99998,-69.99999 48,52 66,-28.00001 z"
     id="path13"
     style="fill:#ffe60c;fill-opacity:1;stroke:none"
     inkscape:connector-curvature="0" /><path
     d="m 425.99997,297.04001 65.99999,28.00001 48,-54 -6,71.99999 65.99999,30 -71.99999,16 -6,69.99999 -37.99999,-62 -70,16.00001 48,-54 -36,-62 z"
     id="path15"
     style="fill:#ffe60c;fill-opacity:1;stroke:none"
     inkscape:connector-curvature="0" /></svg>