<?xml version="1.0" encoding="UTF-8" standalone="no"?>
<!-- Created with Inkscape (http://www.inkscape.org/) -->
<svg
   xmlns:svg="http://www.w3.org/2000/svg"
   xmlns="http://www.w3.org/2000/svg"
   version="1.0"
   width="800"
   height="533.33002"
   id="svg1901">
  <defs
     id="defs1903" />
  <g
     transform="translate(-3.0000002,0.2989894)"
     style="opacity:1"
     id="layer1">
    <rect
       width="840"
       height="571.42859"
       x="-18.571428"
       y="-19.527126"
       transform="translate(3.0000002,-0.2989894)"
       style="opacity:0.98999999;fill:#1059D3;fill-opacity:1;fill-rule:nonzero;stroke:none;stroke-width:3;stroke-linecap:round;stroke-linejoin:miter;stroke-miterlimit:4;stroke-dasharray:none;stroke-dashoffset:0;stroke-opacity:1"
       id="rect3684" />
    <path
       d="M 504.28898,240.35459 C 478.52663,241.21023 455.17495,232.42316 432.06307,222.67692 C 428.51185,250.0326 427.55701,277.82102 432.06307,306.51958 C 454.59569,296.93099 478.06394,292.53795 503.27882,288.33683 L 504.28898,240.35459 z "
       style="opacity:0.98999999;fill:#ffffff;fill-opacity:1;fill-rule:nonzero;stroke:none;stroke-width:3;stroke-linecap:round;stroke-linejoin:miter;stroke-miterlimit:4;stroke-dasharray:none;stroke-dashoffset:0;stroke-opacity:1"
       id="path3673" />
    <path
       d="M 613.3839,241.36474 C 639.14625,242.22038 662.49793,233.43331 685.60981,223.68707 C 689.16103,251.04275 690.11587,278.83117 685.60981,307.52973 C 663.07719,297.94114 639.60894,293.5481 614.39406,289.34698 L 613.3839,241.36474 z "
       style="opacity:0.98999999;fill:#ffffff;fill-opacity:1;fill-rule:nonzero;stroke:none;stroke-width:3;stroke-linecap:round;stroke-linejoin:miter;stroke-miterlimit:4;stroke-dasharray:none;stroke-dashoffset:0;stroke-opacity:1"
       id="path3671" />
    <g
       transform="matrix(0.6487328,0,0,0.6487328,166.59379,356.53498)"
       id="g3622">
      <path
         d="M 67.28243,-227.07674 L 80.5979,-366.55148 L 100.29588,-225.6352 C 113.35089,-230.05612 104.83429,-246.89083 113.42785,-262.50577 C 119.11789,-274.42205 135.42863,-279.17124 134.13599,-302.91187 C 135.14547,-318.84136 148.09166,-325.9553 157.87457,-334.73168 C 163.57639,-331.88091 149.97027,-311.41524 154.0865,-297.10349 C 158.96767,-283.38517 159.55761,-270.35897 143.73244,-259.98039 C 136.50445,-255.07565 147.31019,-225.30246 132.29074,-213.21756 L 240.82802,-303.21762 L 155.11373,-189.64619 C 167.47108,-183.54097 173.35288,-201.46705 190.47087,-206.43191 C 202.92042,-210.83453 217.81204,-202.65928 233.68516,-220.36048 C 245.66282,-230.91051 259.84747,-226.78649 272.97087,-226.07477 C 274.98687,-220.02717 250.89448,-215.17674 243.68516,-202.14619 C 237.43635,-188.99436 228.64259,-179.3663 210.11373,-183.21762 C 201.5346,-184.86041 187.76545,-157.2382 168.60795,-157.94794 L 308.64608,-144.54628 L 167.72982,-124.84831 C 172.15073,-111.7933 188.98545,-120.3099 204.60037,-111.71634 C 216.51666,-106.02629 221.26584,-89.71555 245.00648,-91.00819 C 260.93597,-89.99871 268.0499,-77.05252 276.82627,-67.26961 C 273.97552,-61.56779 253.50983,-75.17391 239.19812,-71.05768 C 225.47977,-66.17652 212.45357,-65.58657 202.07499,-81.41174 C 197.17027,-88.63973 167.39707,-77.83399 155.31216,-91.782 L 245.3122,17.82671 L 131.74079,-67.88756 C 125.63556,-55.53022 143.56165,-49.64842 148.5265,-32.53044 C 152.92912,-20.08088 144.75386,-5.18927 162.45506,10.68386 C 173.0051,22.66152 168.88107,36.84617 168.16934,49.96956 C 162.12176,51.98557 157.27131,27.89317 144.24079,20.68387 C 131.08895,14.43504 121.46088,5.64128 125.3122,-12.88757 C 126.955,-21.46669 98.26136,-34.87871 99.80394,-52.93245 L 86.16369,88.56659 L 66.46571,-52.34967 C 53.41071,-47.92876 61.9273,-31.09404 53.33374,-15.47912 C 47.6437,-3.56283 31.33296,1.18635 32.6256,24.92699 C 31.61612,40.85648 18.66993,47.97041 8.88702,56.74678 C 3.1852,53.89603 16.79131,33.43034 12.67509,19.11862 C 7.79392,5.40028 7.20398,-7.62592 23.02915,-18.0045 C 30.25714,-22.90922 19.4514,-52.68242 34.1137,-66.55303 L -74.78074,21.66131 L 10.93353,-91.9101 C -1.42381,-98.01533 -7.30561,-80.08925 -24.42359,-75.12439 C -36.87315,-70.72177 -51.76476,-78.89703 -67.63789,-61.19583 C -79.61555,-50.64579 -93.8002,-54.76982 -106.92359,-55.48155 C -108.9396,-61.52913 -84.8472,-66.37958 -77.63789,-79.41011 C -71.38907,-92.56194 -62.59531,-102.19001 -44.06646,-98.33869 C -35.48733,-96.69589 -22.07532,-125.38953 -2.59301,-124.56124 L -142.66348,-138.91578 L -1.74722,-158.61376 C -6.16813,-171.66877 -23.00284,-163.15217 -38.61777,-171.74573 C -50.53406,-177.43577 -55.28324,-193.74651 -79.02388,-192.45387 C -94.95337,-193.46335 -102.0673,-206.40954 -110.84367,-216.19245 C -107.99291,-221.89427 -87.52723,-208.28815 -73.2155,-212.40438 C -59.49717,-217.28555 -46.47097,-217.87549 -36.09239,-202.05032 C -31.18766,-194.82233 -1.41447,-205.62807 11.38471,-190.96577 L -77.90106,-299.86019 L 35.67036,-214.14592 C 41.77559,-226.50326 23.84951,-232.38506 18.88465,-249.50305 C 14.48203,-261.9526 22.65728,-276.84421 4.95608,-292.71734 C -5.59396,-304.695 -1.46993,-318.87965 -0.7582,-332.00305 C 5.28939,-334.01905 10.13983,-309.92665 23.17037,-302.71734 C 36.3222,-296.46853 45.95026,-287.67476 42.09894,-269.14591 C 40.45615,-260.56678 69.33327,-247.22846 67.28243,-227.07674 z "
         style="opacity:1;fill:#feff9d;fill-opacity:1;fill-rule:nonzero;stroke:none;stroke-width:5;stroke-linecap:round;stroke-linejoin:round;stroke-miterlimit:4;stroke-dasharray:none;stroke-dashoffset:0;stroke-opacity:1"
         id="path3301" />
      <path
         d="M 150.89186,-114.73438 C 158.81878,-107.5632 165.23661,-101.91822 184.80829,-102.6879 C 195.71191,-102.96034 208.19791,-96.66914 217.34857,-85.20675 C 223.80785,-78.84768 233.2974,-79.77993 243.43844,-81.48061 C 253.48357,-84.02161 262.90259,-73.47244 270.05878,-66.89218 C 258.74369,-70.36331 248.4538,-76.07567 228.74092,-70.47061 C 218.66049,-68.75999 215.04262,-70.57978 208.5237,-75.17457 C 203.33597,-79.59912 194.37007,-87.4038 177.60898,-86.40658 C 165.47178,-84.8469 159.09282,-89.67024 147.16823,-98.51544 L 150.89186,-114.73438 z "
         style="opacity:1;fill:#ca9702;fill-opacity:1;fill-rule:nonzero;stroke:none;stroke-width:5;stroke-linecap:round;stroke-linejoin:round;stroke-miterlimit:4;stroke-dashoffset:0;stroke-opacity:1"
         id="path3270" />
      <path
         d="M 129.62253,-82.38523 C 129.18041,-71.70504 126.9784,-61.05903 140.08862,-46.50687 C 147.27228,-38.29967 150.21832,-26.59854 149.43254,-12.41424 C 148.9925,1.46569 155.89715,2.72239 163.57467,12.08197 C 171.95303,18.17824 169.55009,30.10806 169.06923,39.81784 C 164.50001,28.89986 162.30933,17.33639 145.39192,5.76852 C 137.62927,-0.886 137.94842,-4.46427 137.3107,-12.41423 C 140.66286,-18.93241 136.42372,-31.48278 124.93633,-43.72894 C 115.97415,-52.06102 115.60163,-60.04958 114.77353,-74.87346 L 129.62253,-82.38523 z "
         style="opacity:1;fill:#ca9702;fill-opacity:1;fill-rule:nonzero;stroke:none;stroke-width:5;stroke-linecap:round;stroke-linejoin:round;stroke-miterlimit:4;stroke-dashoffset:0;stroke-opacity:1"
         id="path3268" />
      <path
         d="M 74.62751,-63.39002 C 66.76285,-56.15061 57.67792,-50.1798 56.65832,-30.61954 C 55.93457,-19.73656 49.74378,-9.37945 39.15834,0.09474 C 29.03259,9.59818 33.0263,15.36912 31.8369,27.41617 C 33.45058,37.65128 23.31579,44.3878 16.10992,50.91363 C 20.59917,39.96253 27.22673,30.23688 23.44403,10.09474 C 22.66047,-0.09974 25.41636,-2.40428 30.58689,-8.47669 C 37.56628,-10.7154 43.44321,-22.58738 43.97974,-39.36954 C 43.53419,-51.59842 48.91955,-57.5106 58.81605,-68.57822 L 74.62751,-63.39002 z "
         style="opacity:1;fill:#ca9702;fill-opacity:1;fill-rule:nonzero;stroke:none;stroke-width:5;stroke-linecap:round;stroke-linejoin:round;stroke-miterlimit:4;stroke-dashoffset:0;stroke-opacity:1"
         id="path3266" />
      <path
         d="M 26.46311,-94.60181 C 15.78292,-95.04393 5.1369,-97.24594 -9.41526,-84.13572 C -17.62246,-76.95206 -29.32359,-74.00603 -43.50789,-74.7918 C -57.38782,-75.23184 -58.64451,-68.32719 -68.0041,-60.64967 C -74.10037,-52.27131 -86.03019,-54.67425 -95.73996,-55.15511 C -84.82199,-59.72433 -73.25852,-61.91501 -61.69065,-78.83243 C -55.03613,-86.59507 -51.45786,-86.27592 -43.5079,-86.91364 C -36.98972,-83.56148 -24.43935,-87.80062 -12.19318,-99.28801 C -3.86111,-108.25019 4.12746,-108.62271 18.95133,-109.45081 L 26.46311,-94.60181 z "
         style="opacity:1;fill:#ca9702;fill-opacity:1;fill-rule:nonzero;stroke:none;stroke-width:5;stroke-linecap:round;stroke-linejoin:round;stroke-miterlimit:4;stroke-dashoffset:0;stroke-opacity:1"
         id="path3264" />
      <path
         d="M 154.25033,-143.94105 L 285.83119,-141.66823 L 150.79094,-124.21156 L 154.25033,-143.94105 z "
         style="opacity:1;fill:#ca9702;fill-opacity:1;fill-rule:nonzero;stroke:none;stroke-width:5;stroke-linecap:round;stroke-linejoin:round;stroke-miterlimit:4;stroke-dashoffset:0;stroke-opacity:1"
         id="path3261" />
      <path
         d="M 137.36577,-90.24235 L 228.97894,8.15649 L 120.96876,-78.73765 L 137.36577,-90.24235 z "
         style="opacity:1;fill:#ca9702;fill-opacity:1;fill-rule:nonzero;stroke:none;stroke-width:5;stroke-linecap:round;stroke-linejoin:round;stroke-miterlimit:4;stroke-dashoffset:0;stroke-opacity:1"
         id="path3259" />
      <path
         d="M 81.78685,-65.40026 L 86.58504,68.95852 L 101.51634,-68.85965 L 81.78685,-65.40026 z "
         style="opacity:1;fill:#ca9702;fill-opacity:1;fill-rule:nonzero;stroke:none;stroke-width:5;stroke-linecap:round;stroke-linejoin:round;stroke-miterlimit:4;stroke-dashoffset:0;stroke-opacity:1"
         id="path3257" />
      <path
         d="M 28.59629,-87.05762 L -63.01688,11.34122 L 44.99331,-75.55292 L 28.59629,-87.05762 z "
         style="opacity:1;fill:#ca9702;fill-opacity:1;fill-rule:nonzero;stroke:none;stroke-width:5;stroke-linecap:round;stroke-linejoin:round;stroke-miterlimit:4;stroke-dashoffset:0;stroke-opacity:1"
         id="path3255" />
      <path
         d="M 9.02273,-150.76389 C 1.78332,-158.62855 -4.1875,-167.71348 -23.74775,-168.73309 C -34.63074,-169.45684 -44.98784,-175.64763 -54.46203,-186.23307 C -63.96547,-196.35881 -69.73641,-192.36511 -81.78346,-193.55451 C -92.01857,-191.94083 -99.00763,-200.81292 -105.53346,-208.01879 C -94.58236,-203.52954 -84.60417,-198.16468 -64.46203,-201.94738 C -54.26756,-202.73094 -51.96301,-199.97505 -45.8906,-194.80451 C -43.65189,-187.82512 -31.77992,-181.9482 -14.99775,-181.41166 C -2.76887,-181.85722 3.14331,-176.47186 14.21093,-166.57535 L 9.02273,-150.76389 z "
         style="opacity:1;fill:#ca9702;fill-opacity:1;fill-rule:nonzero;stroke:none;stroke-width:5;stroke-linecap:round;stroke-linejoin:round;stroke-miterlimit:4;stroke-dashoffset:0;stroke-opacity:1"
         id="path3253" />
      <path
         d="M 10.31959,-143.28668 L -124.03919,-138.48848 L 13.77898,-123.55718 L 10.31959,-143.28668 z "
         style="opacity:1;fill:#ca9702;fill-opacity:1;fill-rule:nonzero;stroke:none;stroke-width:5;stroke-linecap:round;stroke-linejoin:round;stroke-miterlimit:4;stroke-dashoffset:0;stroke-opacity:1"
         id="path3251" />
      <path
         d="M 54.58797,-207.39751 C 51.74709,-216.815 54.95925,-226.95596 41.84903,-241.50811 C 34.66536,-249.71532 28.43635,-258.63853 29.22212,-272.82284 C 29.66214,-286.70276 23.76765,-288.96961 14.06984,-296.81395 C 5.69148,-302.91024 4.49759,-313.62068 4.97846,-323.33046 L 21.64598,-303.12741 L 35.28304,-293.53097 C 43.04568,-286.87645 42.72655,-278.7525 43.36426,-270.80253 C 42.02664,-262.88967 52.53076,-254.97682 57.75893,-247.06395 C 63.84044,-238.73189 68.24498,-229.48063 69.6895,-214.65675 L 54.58797,-207.39751 z "
         style="opacity:1;fill:#ca9702;fill-opacity:1;fill-rule:nonzero;stroke:none;stroke-width:5;stroke-linecap:round;stroke-linejoin:round;stroke-miterlimit:4;stroke-dashoffset:0;stroke-opacity:1"
         id="path3231" />
      <path
         d="M 32.82828,-195.54338 L -61.02489,-282.10578 L 21.32358,-179.14636 L 32.82828,-195.54338 z "
         style="opacity:1;fill:#ca9702;fill-opacity:1;fill-rule:nonzero;stroke:none;stroke-width:5;stroke-linecap:round;stroke-linejoin:round;stroke-miterlimit:4;stroke-dashoffset:0;stroke-opacity:1"
         id="path3227" />
      <path
         d="M 108.98385,-209.83158 C 113.63421,-218.49955 123.0763,-223.39895 124.09589,-242.9592 C 124.81965,-253.84221 126.72473,-264.55644 137.31018,-274.03064 C 147.43591,-283.53407 144.87078,-289.30503 143.56018,-301.7092 C 141.94651,-311.94431 148.67573,-320.36194 155.88161,-326.88778 L 153.38161,-300.81635 L 156.23876,-284.38778 C 157.02232,-274.1933 151.05216,-268.67447 145.88161,-262.60206 C 139.34054,-257.95267 141.17283,-244.9299 139.27447,-235.63778 C 137.68309,-225.44584 134.25595,-215.78974 124.79531,-204.28625 L 108.98385,-209.83158 z M 83.02447,-216.71446 L 83.38161,-329.38778 L 101.23875,-212.24492 L 83.02447,-216.71446 z "
         style="opacity:1;fill:#ca9702;fill-opacity:1;fill-rule:nonzero;stroke:none;stroke-width:5;stroke-linecap:round;stroke-linejoin:round;stroke-miterlimit:4;stroke-dashoffset:0;stroke-opacity:1"
         id="path3224" />
      <path
         d="M 151.50218,-167.77862 C 160.91966,-170.6195 169.27491,-171.33591 183.82706,-184.44613 C 192.03428,-191.6298 200.95748,-197.85882 215.14179,-197.07304 C 229.02171,-196.63301 231.28857,-202.52752 239.13291,-212.22532 C 245.22919,-220.60368 255.93963,-221.79756 265.64942,-221.3167 L 245.44637,-204.64918 L 235.84992,-191.01212 C 229.1954,-183.24947 221.07146,-183.56861 213.12149,-182.9309 C 205.20863,-184.26852 197.29577,-173.76441 189.38291,-168.53623 L 170.19,-157.67709 L 151.50218,-167.77862 z M 138.3702,-197.07304 L 216.15194,-274.34971 L 145.94634,-178.89029 L 138.3702,-197.07304 z "
         style="opacity:1;fill:#ca9702;fill-opacity:1;fill-rule:nonzero;stroke:none;stroke-width:5;stroke-linecap:round;stroke-linejoin:round;stroke-miterlimit:4;stroke-dashoffset:0;stroke-opacity:1"
         id="path3219" />
      <path
         d="M 162.08846,-139.43343 C 162.09817,-96.74784 127.49738,-62.13918 84.81179,-62.13918 C 42.1262,-62.13918 7.52541,-96.74784 7.53512,-139.43343 C 7.52541,-182.11902 42.1262,-216.72768 84.81179,-216.72768 C 127.49738,-216.72768 162.09817,-182.11902 162.08846,-139.43343 z "
         style="opacity:1;fill:#feff9d;fill-opacity:1;fill-rule:nonzero;stroke:#facb16;stroke-width:6.16586733;stroke-linecap:round;stroke-linejoin:round;stroke-miterlimit:4;stroke-dasharray:none;stroke-dashoffset:0;stroke-opacity:1"
         id="path3299" />
      <path
         d="M 115.8943,-156.91947 C 111.84453,-149.58604 104.87509,-149.18685 95.43871,-154.64662 C 102.74988,-166.24231 109.21254,-159.1708 115.8943,-156.91947 z "
         style="opacity:1;fill:#fed55c;fill-opacity:1;fill-rule:nonzero;stroke:none;stroke-width:4;stroke-linecap:round;stroke-linejoin:round;stroke-miterlimit:4;stroke-dasharray:none;stroke-dashoffset:0;stroke-opacity:1"
         id="path3307" />
      <path
         d="M 51.24454,-156.91948 C 55.29431,-149.58605 62.26375,-149.18686 71.70013,-154.64663 C 64.38896,-166.24232 57.9263,-159.17081 51.24454,-156.91948 z "
         style="opacity:1;fill:#fed55c;fill-opacity:1;fill-rule:nonzero;stroke:none;stroke-width:4;stroke-linecap:round;stroke-linejoin:round;stroke-miterlimit:4;stroke-dasharray:none;stroke-dashoffset:0;stroke-opacity:1"
         id="path3305" />
      <path
         d="M 67.28243,-227.07674 L 80.5979,-366.55148 L 100.29588,-225.6352 C 113.35089,-230.05612 104.83429,-246.89083 113.42785,-262.50577 C 119.11789,-274.42205 135.42863,-279.17124 134.13599,-302.91187 C 135.14547,-318.84136 148.09166,-325.9553 157.87457,-334.73168 C 163.57639,-331.88091 149.97027,-311.41524 154.0865,-297.10349 C 158.96767,-283.38517 159.55761,-270.35897 143.73244,-259.98039 C 136.50445,-255.07565 147.31019,-225.30246 132.29074,-213.21756 L 240.82802,-303.21762 L 155.11373,-189.64619 C 167.47108,-183.54097 173.35288,-201.46705 190.47087,-206.43191 C 202.92042,-210.83453 217.81204,-202.65928 233.68516,-220.36048 C 245.66282,-230.91051 259.84747,-226.78649 272.97087,-226.07477 C 274.98687,-220.02717 250.89448,-215.17674 243.68516,-202.14619 C 237.43635,-188.99436 228.64259,-179.3663 210.11373,-183.21762 C 201.5346,-184.86041 187.76545,-157.2382 168.60795,-157.94794 L 308.64608,-144.54628 L 167.72982,-124.84831 C 172.15073,-111.7933 188.98545,-120.3099 204.60037,-111.71634 C 216.51666,-106.02629 221.26584,-89.71555 245.00648,-91.00819 C 260.93597,-89.99871 268.0499,-77.05252 276.82627,-67.26961 C 273.97552,-61.56779 253.50983,-75.17391 239.19812,-71.05768 C 225.47977,-66.17652 212.45357,-65.58657 202.07499,-81.41174 C 197.17027,-88.63973 167.39707,-77.83399 155.31216,-91.782 L 245.3122,17.82671 L 131.74079,-67.88756 C 125.63556,-55.53022 143.56165,-49.64842 148.5265,-32.53044 C 152.92912,-20.08088 144.75386,-5.18927 162.45506,10.68386 C 173.0051,22.66152 168.88107,36.84617 168.16934,49.96956 C 162.12176,51.98557 157.27131,27.89317 144.24079,20.68387 C 131.08895,14.43504 121.46088,5.64128 125.3122,-12.88757 C 126.955,-21.46669 98.26136,-34.87871 99.80394,-52.93245 L 86.16369,88.56659 L 66.46571,-52.34967 C 53.41071,-47.92876 61.9273,-31.09404 53.33374,-15.47912 C 47.6437,-3.56283 31.33296,1.18635 32.6256,24.92699 C 31.61612,40.85648 18.66993,47.97041 8.88702,56.74678 C 3.1852,53.89603 16.79131,33.43034 12.67509,19.11862 C 7.79392,5.40028 7.20398,-7.62592 23.02915,-18.0045 C 30.25714,-22.90922 19.4514,-52.68242 34.1137,-66.55303 L -74.78074,21.66131 L 10.93353,-91.9101 C -1.42381,-98.01533 -7.30561,-80.08925 -24.42359,-75.12439 C -36.87315,-70.72177 -51.76476,-78.89703 -67.63789,-61.19583 C -79.61555,-50.64579 -93.8002,-54.76982 -106.92359,-55.48155 C -108.9396,-61.52913 -84.8472,-66.37958 -77.63789,-79.41011 C -71.38907,-92.56194 -62.59531,-102.19001 -44.06646,-98.33869 C -35.48733,-96.69589 -22.07532,-125.38953 -2.59301,-124.56124 L -142.66348,-138.91578 L -1.74722,-158.61376 C -6.16813,-171.66877 -23.00284,-163.15217 -38.61777,-171.74573 C -50.53406,-177.43577 -55.28324,-193.74651 -79.02388,-192.45387 C -94.95337,-193.46335 -102.0673,-206.40954 -110.84367,-216.19245 C -107.99291,-221.89427 -87.52723,-208.28815 -73.2155,-212.40438 C -59.49717,-217.28555 -46.47097,-217.87549 -36.09239,-202.05032 C -31.18766,-194.82233 -1.41447,-205.62807 11.38471,-190.96577 L -77.90106,-299.86019 L 35.67036,-214.14592 C 41.77559,-226.50326 23.84951,-232.38506 18.88465,-249.50305 C 14.48203,-261.9526 22.65728,-276.84421 4.95608,-292.71734 C -5.59396,-304.695 -1.46993,-318.87965 -0.7582,-332.00305 C 5.28939,-334.01905 10.13983,-309.92665 23.17037,-302.71734 C 36.3222,-296.46853 45.95026,-287.67476 42.09894,-269.14591 C 40.45615,-260.56678 69.33327,-247.22846 67.28243,-227.07674 z "
         style="opacity:1;fill:none;fill-opacity:1;fill-rule:nonzero;stroke:#facb16;stroke-width:7.70733404;stroke-linecap:round;stroke-linejoin:round;stroke-miterlimit:4;stroke-dasharray:none;stroke-dashoffset:0;stroke-opacity:1"
         id="path2218" />
      <path
         d="M 68.68516,-106.61048 C 78.94166,-101.55837 88.90423,-102.09096 98.68516,-106.07477"
         style="opacity:1;fill:none;fill-opacity:1;fill-rule:nonzero;stroke:#ca9702;stroke-width:7.70733404;stroke-linecap:round;stroke-linejoin:round;stroke-miterlimit:4;stroke-dasharray:none;stroke-dashoffset:0;stroke-opacity:1"
         id="path3279" />
      <path
         d="M 78.68516,-88.21762 C 81.74384,-89.22435 84.80437,-90.21633 88.32802,-87.50334"
         style="opacity:1;fill:none;fill-opacity:1;fill-rule:nonzero;stroke:#ca9702;stroke-width:4.62440062;stroke-linecap:round;stroke-linejoin:round;stroke-miterlimit:4;stroke-dasharray:none;stroke-dashoffset:0;stroke-opacity:1"
         id="path3281" />
      <g
         transform="translate(-387.74341,-474.62742)"
         style="opacity:1;stroke:#ca9702;stroke-width:1.54146683;stroke-opacity:1"
         id="g3287">
        <path
           d="M 373.92857,269.40475 C 387.71047,244.95061 399.78703,248.06608 410.71429,269.76189 C 397.30025,281.74465 386.98642,281.58493 379.28571,271.19046 C 386.26695,261.96236 400.15445,253.83132 407.15029,267.97618 C 399.28907,274.02159 389.06017,274.46565 386.42857,265.29761"
           transform="translate(52.857136,52.362194)"
           style="opacity:1;fill:none;fill-opacity:1;fill-rule:nonzero;stroke:#ca9702;stroke-width:4.62440062;stroke-linecap:round;stroke-linejoin:round;stroke-miterlimit:4;stroke-dasharray:none;stroke-dashoffset:0;stroke-opacity:1"
           id="path3283" />
        <path
           d="M 391.96429,266.90475 C 395.56268,266.95013 396.3355,264.73506 397.67857,262.97618"
           transform="translate(52.857136,52.362194)"
           style="opacity:1;fill:none;fill-opacity:1;fill-rule:nonzero;stroke:#ca9702;stroke-width:6.16586733;stroke-linecap:round;stroke-linejoin:round;stroke-miterlimit:4;stroke-dasharray:none;stroke-dashoffset:0;stroke-opacity:1"
           id="path3285" />
      </g>
      <g
         transform="matrix(-1,0,0,1,554.61372,-474.62742)"
         style="opacity:1;stroke:#ca9702;stroke-width:1.54146683;stroke-opacity:1"
         id="g3291">
        <path
           d="M 373.92857,269.40475 C 387.71047,244.95061 399.78703,248.06608 410.71429,269.76189 C 397.30025,281.74465 386.98642,281.58493 379.28571,271.19046 C 386.26695,261.96236 400.15445,254.08386 407.15029,268.22872 C 399.28907,274.27413 389.06017,274.46565 386.42857,265.29761"
           transform="translate(52.857136,52.362194)"
           style="opacity:1;fill:none;fill-opacity:1;fill-rule:nonzero;stroke:#ca9702;stroke-width:4.62440062;stroke-linecap:round;stroke-linejoin:round;stroke-miterlimit:4;stroke-dasharray:none;stroke-dashoffset:0;stroke-opacity:1"
           id="path3293" />
        <path
           d="M 391.96429,266.90475 C 395.56268,266.95013 396.3355,264.73506 397.67857,262.97618"
           transform="translate(52.857136,52.362194)"
           style="opacity:1;fill:none;fill-opacity:1;fill-rule:nonzero;stroke:#ca9702;stroke-width:6.16586733;stroke-linecap:round;stroke-linejoin:round;stroke-miterlimit:4;stroke-dasharray:none;stroke-dashoffset:0;stroke-opacity:1"
           id="path3295" />
      </g>
      <path
         d="M 78.68516,-118.54301 C 81.74384,-117.53629 84.80437,-116.5443 88.32802,-119.25729"
         style="opacity:1;fill:none;fill-opacity:1;fill-rule:nonzero;stroke:#ca9702;stroke-width:4.62440062;stroke-linecap:round;stroke-linejoin:round;stroke-miterlimit:4;stroke-dasharray:none;stroke-dashoffset:0;stroke-opacity:1"
         id="path3620" />
    </g>
    <path
       d="M 534.84532,211.31348 C 535.70096,185.55113 526.91389,162.19945 517.16765,139.08757 C 544.52333,135.53635 572.31175,134.58151 601.01031,139.08757 C 591.42172,161.62019 587.02868,185.08844 582.82756,210.30332 L 534.84532,211.31348 z "
       style="opacity:0.98999999;fill:#ffffff;fill-opacity:1;fill-rule:nonzero;stroke:none;stroke-width:3;stroke-linecap:round;stroke-linejoin:miter;stroke-miterlimit:4;stroke-dasharray:none;stroke-dashoffset:0;stroke-opacity:1"
       id="path3669" />
    <path
       d="M 535.85547,321.41855 C 536.71111,347.1809 527.92404,370.53258 518.1778,393.64446 C 545.53348,397.19568 573.3219,398.15052 602.02046,393.64446 C 592.43187,371.11184 588.03883,347.64359 583.83771,322.42871 L 535.85547,321.41855 z "
       style="opacity:0.98999999;fill:#ffffff;fill-opacity:1;fill-rule:nonzero;stroke:none;stroke-width:3;stroke-linecap:round;stroke-linejoin:miter;stroke-miterlimit:4;stroke-dasharray:none;stroke-dashoffset:0;stroke-opacity:1"
       id="path3675" />
    <path
       d="M 613,200.55758 L 504.71429,200.55758 L 504.71429,309.129 C 505.86637,319.88169 509.0527,327.17155 518.28572,326.98615 L 547.57143,326.98615 C 553.21405,327.03886 558.06896,328.19436 558.85715,334.84329 C 559.64533,328.19436 564.50024,327.03886 570.14286,326.98615 L 599.42857,326.98615 C 608.66159,327.17155 611.84792,319.88169 613,309.129 L 613,200.55758 z "
       style="opacity:0.98999999;fill:#1059D3;fill-opacity:1;fill-rule:nonzero;stroke:#000000;stroke-width:3;stroke-linecap:round;stroke-linejoin:miter;stroke-miterlimit:4;stroke-dashoffset:0;stroke-opacity:1"
       id="path3655" />
    <path
       d="M 587.53125,207.78113 C 556.76683,207.83199 531.8125,232.81737 531.8125,263.59363 C 531.8125,294.36989 556.76682,319.3553 587.53125,319.40613 C 568.75766,307.90664 556.21875,287.20709 556.21875,263.59363 C 556.21873,239.98058 568.75821,219.28074 587.53125,207.78113 z "
       style="opacity:0.98999999;fill:#ffffff;fill-opacity:1;fill-rule:nonzero;stroke:none;stroke-width:3;stroke-linecap:round;stroke-linejoin:miter;stroke-miterlimit:4;stroke-dashoffset:0;stroke-opacity:1"
       id="path3662" />
    <path
       d="M -10,86.18716 L 811.42857,86.18716"
       transform="translate(3.0000002,-0.2989894)"
       style="opacity:0.98999999;fill:none;fill-opacity:1;fill-rule:nonzero;stroke:#ff0100;stroke-width:50;stroke-linecap:butt;stroke-linejoin:round;stroke-miterlimit:4;stroke-dasharray:none;stroke-dashoffset:0;stroke-opacity:1"
       id="path3679" />
    <path
       d="M -6.9999998,443.84403 L 814.42857,443.84403"
       style="opacity:0.98999999;fill:none;fill-opacity:1;fill-rule:nonzero;stroke:#ff0100;stroke-width:50;stroke-linecap:butt;stroke-linejoin:miter;stroke-miterlimit:4;stroke-dasharray:none;stroke-dashoffset:0;stroke-opacity:1"
       id="path3681" />
  </g>
</svg>
