<?xml version="1.0" encoding="UTF-8" standalone="no"?>
<!-- Generator: Adobe Illustrator 15.1.0, SVG Export Plug-In . SVG Version: 6.00 Build 0)  -->

<svg
   xmlns:dc="http://purl.org/dc/elements/1.1/"
   xmlns:cc="http://creativecommons.org/ns#"
   xmlns:rdf="http://www.w3.org/1999/02/22-rdf-syntax-ns#"
   xmlns:svg="http://www.w3.org/2000/svg"
   xmlns="http://www.w3.org/2000/svg"
   xmlns:sodipodi="http://sodipodi.sourceforge.net/DTD/sodipodi-0.dtd"
   xmlns:inkscape="http://www.inkscape.org/namespaces/inkscape"
   version="1.0"
   id="Layer"
   x="0px"
   y="0px"
   width="1200px"
   height="800px"
   viewBox="0 0 1200 800"
   enable-background="new 0 0 1200 800"
   xml:space="preserve"
   inkscape:version="0.48.3.1 r9886"
   sodipodi:docname="Flag_of_Ivano-Frankivsk_Oblast.svg"><metadata
   id="metadata38"><rdf:RDF><cc:Work
       rdf:about=""><dc:format>image/svg+xml</dc:format><dc:type
         rdf:resource="http://purl.org/dc/dcmitype/StillImage" /><dc:title></dc:title><cc:license
         rdf:resource="http://creativecommons.org/licenses/by-sa/3.0/" /></cc:Work><cc:License
       rdf:about="http://creativecommons.org/licenses/by-sa/3.0/"><cc:permits
         rdf:resource="http://creativecommons.org/ns#Reproduction" /><cc:permits
         rdf:resource="http://creativecommons.org/ns#Distribution" /><cc:requires
         rdf:resource="http://creativecommons.org/ns#Notice" /><cc:requires
         rdf:resource="http://creativecommons.org/ns#Attribution" /><cc:permits
         rdf:resource="http://creativecommons.org/ns#DerivativeWorks" /><cc:requires
         rdf:resource="http://creativecommons.org/ns#ShareAlike" /></cc:License></rdf:RDF></metadata><defs
   id="defs36" /><sodipodi:namedview
   pagecolor="#ffffff"
   bordercolor="#666666"
   borderopacity="1"
   objecttolerance="10"
   gridtolerance="10"
   guidetolerance="10"
   inkscape:pageopacity="0"
   inkscape:pageshadow="2"
   inkscape:window-width="1280"
   inkscape:window-height="948"
   id="namedview34"
   showgrid="false"
   inkscape:zoom="0.59"
   inkscape:cx="264.79482"
   inkscape:cy="348.95196"
   inkscape:window-x="-5"
   inkscape:window-y="-5"
   inkscape:window-maximized="1"
   inkscape:current-layer="Layer" />






























<g
   id="g3152"><g
     id="g3143"><g
       id="g3139"><path
         d="M1200,800h-100V0h100V800z"
         fill="#FFFF00"
         id="Polosa_3_" /><path
         d="M1100,800h-100V0h100V800z"
         fill="#006699"
         id="Polosa_2_" /></g><path
       id="Polosa_4_"
       fill="#FFFFFF"
       d="M1000,800H200V0h800V800z" /><g
       id="g3135"><path
         d="M200,800H100V0h100V800z"
         id="Polosa_1_" /><path
         d="M100,800H0V0h100V800z"
         fill="#CC0000"
         id="Polosa" /></g></g><g
     id="g3101"><g
       id="g3071"><path
         d="M556.51,127.489l-3.921,23.415c0,0,9.085,9.044,7.786,19.437  c-1.299,10.393-7.786,14.322-7.786,14.322s-5.156,29.877-11.651,45.466s-20.8,36.373-20.8,36.373l14.265,3.865  c0,0-27.263,37.704-33.758,59.787c-6.495,22.084-5.188,62.321,10.4,94.796c15.588,32.477,94.812,80.588,124.69,107.869  c29.877,27.279,18.186,55.809,18.186,55.809c0.271,0.646,11.316,0.467,16.368-0.682s14.663-8.525,14.663-8.525  s3.682,9.855,10.57,18.813c6.89,8.955,18.868,14.945,18.868,14.945s0.232-26.885-0.227-32.166  c-0.46-5.281,5.512-15.115,11.253-15.346c5.74-0.229,9.406,7.539,12.162,9.605c2.755,2.066,8.235,1.15,8.695-0.229  c0.459-1.377-1.148-10.32,0-12.615c1.147-2.297,6.422-5.268,6.422-7.105c0-1.836-2.046-4.148-2.046-4.148l-57.401-77.859  c5.494,7.082,67.154,88.498,86.67,110.141c0,0,13.723,21.361,29.894,36.373c16.113,14.957,27.46,14.186,35.065,11.707  c4.143-1.35,1.194-7.957,1.194-7.957L724.449,480.135c-36.294-52.9,73.24,89.691,132.761,133.84  c14.938,7.793,31.193,4.57,34.44,3.922c3.247-0.65-0.909-12.049-0.909-12.049c-48.875-46.902-110.569-102.828-152.937-142.139  l137.989,122.133c0,0,8.269,6.191,22.506,6.65s19.096-7.105,19.096-7.105c0.844-1.273-0.762-3.006-2.955-4.887l-172.43-136.113  c0.775,0.387,3.12,0.93,9.32-1.137c8.268-2.756,9.207-9.207,9.207-9.207s-7.36-8.682-10.116-10.059  c-2.756-1.379-8.747-15.611-9.207-17.449c-0.459-1.836-14.125-7.909-22.392-6.99c-4.469,0.497-8.813,5.123-11.878,9.32l-4.263,6.82  c0,0,1.658-3.25,4.263-6.82l6.706-10.626c0,0,16.278,0.468,19.493-0.91c3.078-1.318,2.396-14.537,2.33-15.686  c0.849,1.907,16.357,0.475,21.313-7.104c2.317-3.544,1.421-13.981,1.421-13.981s12.211-2.27,18.641-8.24s3.41-24.779,3.41-24.779  s9.227-7.398,12.901-11.991c3.674-4.593-2.501-20.346-2.501-20.346s6.636-8.125,8.014-14.095c1.378-5.971-6.024-15.572-6.024-15.572  s8.961-5.525,10.798-15.629s-10.57-18.471-10.57-18.471s8.704-9.387,6.706-21.994c-1.325-8.364-17.447-13.753-17.447-13.753  s6.702-10.539,6.876-24.324c0.138-10.885-20.857-15.913-20.857-15.913s-2.107-14.389-1.647-18.982  c0.459-4.593-6.423-8.297-6.423-8.297s-2.315,3.695-3.693,9.207c-1.378,5.512-14.256,19.263-32.168,42.227  c-17.911,22.964-18.343,37.251-19.721,45.978s7.332,55.071,7.332,55.071s-3.22,5.984-16.539,15.628  c-13.318,9.646-33.985,15.175-33.985,15.175l11.708-4.831l-7.389-23.245l20.801-9.093c0,0-9.126-2.623-14.322-13.015  c-5.195-10.393-5.163-45.442-3.864-68.824s-14.322-62.345-14.322-62.345L556.51,127.489z M595.1,138.798  c8.542,0,15.458,6.974,15.458,15.516s-6.916,15.458-15.458,15.458s-15.458-6.916-15.458-15.458S586.558,138.798,595.1,138.798z   M594.872,149.313c-3.137,0-5.683,2.444-5.683,5.456c0,3.011,2.546,5.456,5.683,5.456s5.683-2.444,5.683-5.456  C600.555,151.757,598.009,149.313,594.872,149.313z"
         stroke="#FFFFFF"
         fill="#373535"
         id="path2453" /><g
         id="g3063"><path
           id="path2459"
           nodetypes="cccc"
           fill="#373535"
           stroke="#FFFFFF"
           d="M560.006,168.697  c0.964-4.761-2.334-12.114-8.956-17.682c-20.623-0.524-37.926,3.295-55.572,8.726C516.19,162.317,539.837,163.945,560.006,168.697z" /><path
           id="path2461"
           nodetypes="cccc"
           fill="#373535"
           stroke="#FFFFFF"
           d="M559.546,170.763  c-0.353,5.977-3.154,9.931-7.119,13.549c-15.253-0.742-31.286-1.708-42.253-7.349C531.199,175.247,542.164,173.346,559.546,170.763z  " /></g><g
         id="g3028"><path
           id="path2476"
           nodetypes="cccccc"
           fill="#373535"
           stroke="#FFFFFF"
           d="M788.332,172.909  c15.595-8.2,34.359-21.387,44.554-34.986c31.387-39.909,53.045-76.228,30.234-88.431c-36.563,37.11-85.117,88.425-96.78,93.845  l1.306,12.64C778.904,158.196,788.19,165.899,788.332,172.909z" /><path
           id="path2591"
           nodetypes="cccssccc"
           fill="#373535"
           stroke="#FFFFFF"
           d="M788.39,173.252l45.459-31.263l58.189-34.721  c0,0,11.092-8.68,12.057,5.305c0.964,13.985-10.288,37.775-45.491,61.244c-35.204,23.469-60.691,33.737-60.691,33.737  c-4.156-5.438-9.005-8.933-16.083-11.738C785.029,188.371,788.252,181.38,788.39,173.252z" /><path
           id="path2593"
           nodetypes="ccssccc"
           fill="#373535"
           stroke="#FFFFFF"
           d="M799.491,208.755  c4.092-1.819,99.798-50.24,99.798-50.24s12.034-4.148,14.094,4.092c1.819,7.274-17.731,32.735-42.737,51.831  c-12.147,9.276-67.744,29.098-67.744,29.098l-10.43-11.582C799.063,222.597,800.203,218.034,799.491,208.755z" /><path
           id="path2595"
           nodetypes="cccccc"
           fill="#373535"
           stroke="#FFFFFF"
           d="M803.788,245.028  c18.982-9.049,76.247-35.513,104.807-34.399c6.703,4.303,6.27,13.181,6.27,13.181c-27.847,27.362-72.122,43.569-118.798,47.464  l-4.079-5.748C799.527,259.619,803.1,253.503,803.788,245.028z" /><path
           id="path2597"
           nodetypes="cszcccc"
           fill="#373535"
           stroke="#FFFFFF"
           d="M796.438,272.516  c3.215,0,41.814,0.249,58.511-1.286c19.042-1.75,37.898-6.72,42.798-4.634c4.763,2.028-0.245,21.646-8.765,25.021  c-32.437,12.658-56.023,15.353-96.363,15.165c1.003-6.662-2.477-8.345-5.144-10.931  C796.155,291.651,799.855,280.303,796.438,272.516z" /><path
           id="path2599"
           nodetypes="cccccc"
           fill="#373535"
           stroke="#FFFFFF"
           d="M794.239,307.056  c1.721,5.382,49.543-3.175,74.045,7.196c0.502,8.405-2.837,17.046-30.137,25.617l-60.73,1.74c1.449-3.575,2.584-7.567,0.455-15.913  C786.045,324.238,794.311,314.702,794.239,307.056z" /><path
           id="path2601"
           nodetypes="ccccccc"
           fill="#373535"
           stroke="#FFFFFF"
           d="M779.998,342.119  c29.854,2.245,46.607,13.223,66.87,21.861c-0.915,7.258-3.827,13.519-11.573,17.361c-21.433,0.882-43.509-3.07-64.941-9.002  l-14.146-6.43l1.285-7.716C770.912,357.766,776.814,351.075,779.998,342.119z" /><path
           id="path2605"
           nodetypes="csccc"
           fill="#373535"
           stroke="#FFFFFF"
           d="M756.779,367.481  c0,0,50.415,31.477,44.366,41.794c-10.931,18.646-70.085-14.146-70.085-14.146l1.286-15.432  C744.931,380.954,752.766,376.51,756.779,367.481z" /></g><path
         d="m 505.986,415.266 c -14.81,-38.254 -7.621,-77.388 7.729,-116.848 -12.678,-2.852 -20.354,-9.277 -24.551,-18.187 13.533,-42.206 5.071,-77.813 -17.732,-109.118 -13.935,-11.446 -25.588,-28.125 -34.1,-40.465 l -0.455,24.552 c -28.972,4.05 -33.444,19.3 -20.005,42.738 -15.751,10.206 -15.026,21.326 -9.093,32.736 -9.152,11.111 -15.999,22.422 2.273,35.918 -11.905,8.553 -10.666,19.182 0.455,31.371 -3.603,12.984 -7.821,26.109 14.549,33.19 1.5,11.552 -11,26.464 18.186,31.371 0.095,13.58 4.897,23.282 25.461,20.006 0.606,13.64 7.274,20.005 20.005,19.095 0.623,9.17 4.589,15.33 17.278,13.641 z"
         nodetypes="ccccccccccccccc"
         id="path2607"
         inkscape:connector-curvature="0"
         style="fill:#373535;stroke:#ffffff" /><g
         id="g3048"><path
           style="fill:#373535;stroke:#ffffff"
           inkscape:connector-curvature="0"
           id="path2609"
           nodetypes="cscccc"
           d="m 434.605,154.291 c 0,0 1.135,-17.767 0,-15.458 -3.913,7.955 -93.85,-88.683 -93.66,-89.568 -8.786,1.268 -15.078,5.445 -13.64,18.641 4.213,25.928 22.894,57.203 82.56,102.753 6.435,-9.682 15.857,-12.396 24.74,-16.368 z" /><path
           style="fill:#373535;stroke:#ffffff"
           inkscape:connector-curvature="0"
           id="path2611"
           nodetypes="cccccc"
           d="m 418.237,197.483 c -7.595,-7.331 -8.668,-16.963 -9.093,-26.825 L 305.936,101.095 c -5.604,3.087 -11.86,5.231 -10.002,19.096 53.088,61.459 82.658,77.401 109.573,88.204 3.421,-5.008 8.049,-8.004 12.73,-10.912 z" /><path
           style="fill:#373535;stroke:#ffffff"
           inkscape:connector-curvature="0"
           id="path2613"
           nodetypes="cccccc"
           d="m 398.232,243.858 9.093,-13.185 c -2.847,-6.546 -5.748,-13.082 -1.488,-20.882 -10.794,-7.529 -102.471,-54.928 -118.832,-55.409 -6.367,23.678 49.875,62.086 49.875,62.086 l 61.352,27.39 z" /><path
           style="fill:#373535;stroke:#ffffff"
           inkscape:connector-curvature="0"
           id="path2615"
           nodetypes="cczzcccc"
           d="m 398.232,243.404 -62.183,-24.846 c -20.879,-4.914 -48.995,-14.129 -53.167,-6.577 -4.241,7.677 18.939,33.286 40.896,42.173 l 43.082,17.438 35.918,1.819 8.184,-7.274 c -9.411,-4.477 -14.032,-11.828 -12.73,-22.733 z" /><path
           style="fill:#373535;stroke:#ffffff"
           inkscape:connector-curvature="0"
           id="path2617"
           nodetypes="ccccc"
           d="m 408.184,310.504 c -0.778,-4.017 0.374,-8.677 3.233,-13.905 -9.044,-3.322 -10.586,-12.037 -10.002,-22.279 l -105.41,-2.715 c 1.779,18.851 31.379,35.255 112.179,38.899 z" /><path
           style="fill:#373535;stroke:#ffffff"
           inkscape:connector-curvature="0"
           id="path2619"
           nodetypes="cccccc"
           d="m 405.961,312.057 -31.372,-0.455 c -17.102,4.735 -34.579,6.474 -52.286,6.365 10.786,42.85 73.284,26.303 101.389,25.007 l 2.273,-11.821 c -9.131,-2.259 -16.317,-7.761 -20.004,-19.096 z" /><path
           style="fill:#373535;stroke:#ffffff"
           inkscape:connector-curvature="0"
           id="path2621"
           nodetypes="ccccc"
           d="m 422.784,344.792 c -0.527,-2.726 -67.332,19.931 -68.767,22.96 2.4,31.582 48.319,16.149 91.955,7.957 l -2.728,-13.64 c -12.62,-0.417 -19.359,-6.25 -20.46,-17.277 z" /><path
           style="fill:#373535;stroke:#ffffff"
           inkscape:connector-curvature="0"
           id="path2623"
           nodetypes="ccccc"
           d="m 444.948,375.482 c -1.69,-2.722 -55.389,32.098 -48.99,37.282 17.56,10.662 37.527,9.283 75.019,-17.503 l -2.728,-12.73 c -11.121,1.309 -18.847,-1.085 -23.301,-7.049 z" /><path
           style="fill:#373535;stroke:#ffffff"
           inkscape:connector-curvature="0"
           id="path2625"
           nodetypes="ccccc"
           d="m 470.068,395.714 c -18.332,18.215 -24.882,26.178 -28.047,42.397 21.049,11.801 39.484,-6.137 58.196,-20.914 -4.876,-4.203 -12.098,-5.801 -11.963,-15.572 -6.486,1.426 -12.277,-2.713 -18.186,-5.911 z" /></g><g
         id="g3059"><path
           id="path2627"
           nodetypes="ccccsc"
           fill="#373535"
           stroke="#FFFFFF"
           d="M640.416,582.156  c1.264-15.277,4.65-22.982,11.366-29.779c-12.095-19.031-31.98-33.418-52.74-48.648c3.192,20.441,1.366,38.383-14.094,51.604  c0,0,30.982-1.35,31.144-0.455C616.664,558.051,628.542,578.01,640.416,582.156z" /><path
           id="path2633"
           nodetypes="cccccccccccccccccccccccc"
           fill="#373535"
           stroke="#FFFFFF"
           d="M612.822,551.09  c-1.803,1.709-23.922,3.852-25.076,1.928l-48.224,63.656l-60.44-10.932c-20.875-0.635-25.088,6.811-29.256,12.859  c9.47,2.029,20.065,9.201,27.97-1.285c7.131,1.42,18.781,0.805,20.254,7.072l22.826,2.252l-68.156,5.465  c-10.273,6.1-8.689,14.762-11.574,22.504c8.276-2.293,16.602-4.238,25.719-0.643c-2.694-6.084,1.861-8.264,10.288-8.359  l30.863,0.643l18.646-14.145c-14.626,14.35-28.992,29.021-46.938,39.223c-3.153,6.521-4.698,13.203,0.643,20.574  c5.109-3.678,8.749-8.826,21.218-5.143c1.715-7.719,3.429-15.9,5.144-18.646c12.394-8.574,25.33-17.146,38.579-25.721  c26.246-4.648,45.302,1.49,66.871,3.857c1.59-8.137-10.308-13.563-18.004-18.324l-37.936-4.822  c14.037-17.973,43.294-40.295,64.941-60.441C617.681,559.994,613.849,557.881,612.822,551.09z" /></g><path
         d="M696.41,599.313  c-6.995-7.014-9.35-13.1-12.217-19.289c-5.151,3.246-9.481,7.039-17.039,8.68c-10.817,20.543-23.266,49.244-36.65,82.625  l-69.12-4.502c-15.167-0.795-19.457,6.957-22.826,15.432c7.204,1.357,13.998,3.33,22.826,2.25c1.179-3.688,0.559-8.125,11.574-7.715  c11.71,4.426,24.417,6.361,39.542,2.25l-61.083,16.074c-15.101,6.49-13.948,17.314-17.039,27.006  c15.153-8.555,27.466,0.082,31.828-18.324l35.364-5.467l22.504-11.572l-22.826,13.18c-5.417,14.357-17.43,24.945-28.612,36.008  l11.896,14.789l3.536-9.324c13.669,2.275,12.288-7.971,16.074-12.537c-0.869-16.189,24.862-19.076,39.222-27.648l50.475-3.537  l17.683,1.285c-3.113-9.902-10.82-18.764-22.505-17.682c-11.546,0.035-25.216-0.463-40.187-1.285  C663.505,650.74,678.37,621.852,696.41,599.313z"
         stroke="#FFFFFF"
         fill="#373535"
         nodetypes="ccccccccccccccccccccccccc"
         id="path2635" /></g><g
       id="g3067"><path
         d="M594.941,76.346  c-5.554-0.285-9.307,7.319-9.24,11.735c0.06,3.954,3.169,4.648,7.088,4.897c3.919,0.249,1.872,4.128,1.872,4.128  s-4.709,9.126-16.046,8.48c-9.253-0.527-14.07-7.174-14.663-9.967s9.057-2.91,9.057-2.91l0.44-5.223c0,0-3.556-1.876-4.31-4.836  c-0.753-2.96-5.667-2.576-6.868,0.014c-1.201,2.59-7.596-4.09-7.596-4.09l-14.053-0.47l-0.697,9.469c0,0,0.405-3.588,11.461,14.313  c11.056,17.901,5.861,23.675,5.861,23.675l98.046,2.137c0,0-4.938-5.994,6.888-23.397c11.826-17.402,11.573-14.44,11.573-14.44  l0.218-8.85l-14.06-0.143c0,0-6.681,6.396-7.768,3.755c-1.088-2.64-5.98-3.237-6.861-0.313c-0.881,2.924-4.517,4.644-4.517,4.644  l0.213,5.237c0,0,9.636,0.537,8.922,3.301c-0.714,2.765-5.817,9.196-15.083,9.319c-11.355,0.151-15.662-9.172-15.662-9.172  s-1.876-3.965,2.051-4.043c3.926-0.078,7.063-0.636,7.295-4.583c0.26-4.409-3.169-12.169-8.73-12.127  c-5.904,0.045-7.588-11.939-7.588-11.939l-10.46-0.228C601.726,64.72,598.725,75.283,594.941,76.346z"
         stroke="#000000"
         fill="#FFF215"
         nodetypes="csscssccsscccsccscccssccsscsssccc"
         id="path2465" /><path
         d="M655.311,118.587l-97.081-2.117"
         stroke="#000000"
         fill="none"
         id="path2470" /></g></g></g>
<g
   inkscape:groupmode="layer"
   id="layer1"
   inkscape:label="Layer" /></svg>