<?xml version="1.0" encoding="utf-8"?>
<!-- Generator: Adobe Illustrator 24.1.0, SVG Export Plug-In . SVG Version: 6.00 Build 0)  -->
<svg version="1.1"
	 id="svg3374" inkscape:export-filename="C:\Documents and Settings\Владелец\Мои документы\Kyiv\Flag of Kyiv Kurovskyi.png" inkscape:export-xdpi="90" inkscape:export-ydpi="90" inkscape:version="0.48.2 r9819" sodipodi:docname="Flag of Kyiv Kurovskyi.svg" xmlns:cc="http://creativecommons.org/ns#" xmlns:dc="http://purl.org/dc/elements/1.1/" xmlns:inkscape="http://www.inkscape.org/namespaces/inkscape" xmlns:rdf="http://www.w3.org/1999/02/22-rdf-syntax-ns#" xmlns:sodipodi="http://sodipodi.sourceforge.net/DTD/sodipodi-0.dtd" xmlns:svg="http://www.w3.org/2000/svg"
	 xmlns="http://www.w3.org/2000/svg" xmlns:xlink="http://www.w3.org/1999/xlink" x="0px" y="0px" viewBox="0 0 900 600"
	 style="enable-background:new 0 0 900 600;" xml:space="preserve">
<style type="text/css">
	.st0{fill:#D4AF37;}
	.st1{fill:#005BBB;}
	.st2{fill-rule:evenodd;clip-rule:evenodd;fill:#FFD500;stroke:#000000;stroke-miterlimit:2.7524;}
	.st3{fill-rule:evenodd;clip-rule:evenodd;fill:#FFFFFF;}
	.st4{fill-rule:evenodd;clip-rule:evenodd;fill:#D4AF37;stroke:#000000;}
	.st5{fill-rule:evenodd;clip-rule:evenodd;fill:#FFFFFF;stroke:#000000;}
	.st6{fill-rule:evenodd;clip-rule:evenodd;}
	.st7{fill-rule:evenodd;clip-rule:evenodd;fill:#FFFFFF;stroke:#000000;stroke-linejoin:round;}
	.st8{fill-rule:evenodd;clip-rule:evenodd;fill:#A00035;}
	.st9{fill-rule:evenodd;clip-rule:evenodd;fill:#FFD399;stroke:#000000;stroke-width:7.850000e-02;stroke-miterlimit:1.798;}
	.st10{fill-rule:evenodd;clip-rule:evenodd;fill:#FFD500;}
	.st11{fill:#A00035;}
	.st12{fill:#FFFFFF;}
	.st13{fill:#FFD399;stroke:#000000;stroke-width:7.850000e-02;stroke-miterlimit:1.798;}
	.st14{fill:#D4AF37;stroke:#000000;}
	.st15{fill:#FFD500;}
	.st16{fill:#FFFFFF;stroke:#000000;}
	.st17{fill:#FFD500;stroke:#000000;}
	.st18{fill:#96995F;stroke:#000000;stroke-width:0.6881;}
	.st19{fill:#FFD500;stroke:#000000;stroke-width:0.6881;}
	.st20{fill:url(#path4143_1_);}
	.st21{fill-rule:evenodd;clip-rule:evenodd;fill:#FFD500;stroke:#000000;}
</style>
<sodipodi:namedview  bordercolor="#666666" borderopacity="1.0" fit-margin-bottom="0" fit-margin-left="0" fit-margin-right="0" fit-margin-top="0" id="base" inkscape:current-layer="layer1" inkscape:cx="478.43478" inkscape:cy="306.55567" inkscape:document-units="px" inkscape:pageopacity="0.0" inkscape:pageshadow="2" inkscape:window-height="911" inkscape:window-maximized="1" inkscape:window-width="1280" inkscape:window-x="-4" inkscape:window-y="-4" inkscape:zoom="1" pagecolor="#ffffff" showgrid="false">
	</sodipodi:namedview>
<rect id="rect4391" x="0" y="0" class="st0" width="900" height="600"/>
<rect id="rect4391-1" x="18.1" y="19.6" class="st1" width="863.9" height="560.8"/>
<g>
	<g id="g4065" transform="matrix(0.68808975,0,0,0.68808975,-4.6038559,-12.085824)">
		<path id="path19-4" class="st2" d="M692.4,135.5c-37.2-0.3-57.8,27.4-58.6,57.5c-0.9,32.4,15.1,49.7,37.8,55.5
			c0.8-2.9,0.9-6,0.9-10.5c-33.5-8.5-19.9-74,17-73.9c32.5,0.1,52.3,61.4,16.3,74.1c0.1,4.6,0.5,7.8,1.6,10.8
			c24.4-5.5,40.2-24,40.4-55.7C748.1,163.8,726.2,135.8,692.4,135.5L692.4,135.5z"/>
		<path id="path21" class="st2" d="M691.5,140.4c29.7,0,52.8,24.7,52.8,54.6c0,29.9-23.9,52.3-53.7,52.3
			c-29.7,0-52.8-19.2-52.8-52.9C637.9,164.5,661.8,140.4,691.5,140.4z"/>
	</g>
	<path id="path25" class="st3" d="M452.7,167.9c5.7-3.9,6.8-7.6,7.2-13.8c6.4,5.1,14.5,4.3,19.7,0.9c0.6,7.1,2.6,10.2,8.1,12.6
		C486.7,173.9,454.4,174.3,452.7,167.9z"/>
	<path id="path93" class="st3" d="M552.6,266.4c0-1,0-7.6,1.5-7.6c3.6,0.1,1.7,25.4,1.9,29.9c0.3,4.4-0.4,5.6-3.7,5.6
		c-7.4,0.2-3-22.1-4.7-34.9c-0.3-2.2,1.9-1.5,2.4-1.1c1.7,1.4,1.1,22.9,1.7,22.9C552.8,281.3,552.7,269.5,552.6,266.4L552.6,266.4z"
		/>
	<path id="path73" class="st4" d="M510.9,167.3l10.8-13.7c-12.7-30.5-1.7-82.4,32.7-65.8c56.5,30.2,31,163.6,32.6,210
		c1.6,45.4,5.2,94.9,15.5,130.8c-3-1.3-9-0.4-10.3-0.4c0.9,11.6,5.4,22.6,7.1,30.5c-13-0.2-24.8-17.4-29.9-30.5l-4.6,4.3l-0.7-5.3
		l5.3-4.9c-11.3-25.5-19.4-41.2-24.6-133.9c10.2-15.2,13.2-33,10.2-64.6C552.4,196.9,546.9,166.2,510.9,167.3L510.9,167.3z"/>
	<path id="path65" class="st5" d="M565.7,245.3c-1.9,0.3-0.5-12.7-1-24.3l-3.9,0.7c0.6,26.5-2.9,43.3,5.1,42.2c7-1,4.9-9.8,5.5-43.8
		l-4,0.8C567,234,568.6,244.9,565.7,245.3L565.7,245.3z"/>
	<path id="path101" class="st6" d="M400.4,218.2c-49.9,52.8-30.3,19.1-51.6,40.6c-6.4,6.5-1.8,13.7,5.5,19.5
		c8.7,6.8,12.5,0.2,15.9-6.3c3.9-2.2,5.6-4.9,6.6-8.9c7.1-4.2,12.9-6.6,21.7-13.6c-0.3,10.4-5.1,99.4-6.7,110.3
		c3,28.9,11.8,55.4,26.8,83l7.2,7.5c0.3,11.9,1.2,23,1.5,26.4c2,21.6-21.9,15.5-22.5,42.2c32.6-3.4,22.2-8.8,40.3-19.7
		c13.9-8.4,1-13,5.5-34.7c10,5.1,25.4,6,32.1,5.2c0.2,7.1-8.3,17.3,4.3,23.9c7.7,4.1,10.1,23.2,36.5,18.9
		c0.7-21.4-20.9-14.1-21.8-47c9.5-2,46.5-22.6,68-42.7c-12.9-27.3-18.5-41.5-24.7-134c12.4-20.8,12.7-39.3,10.9-64.6
		c-11.9-96.8-74-30-74.9-72.3c24.7-8.8,11.3-50.7-11.1-50.8c-25.4-0.1-34.5,44.8-11.6,50.6C457.7,189.7,418.3,132.4,400.4,218.2
		L400.4,218.2z"/>
	<path id="path57" class="st7" d="M540.4,178.4c2.5,3.4,4.3,5.6,6.5,9.6c8.7,0.7,2.6-24.3-3.5-53.6l-1.9,4.9
		c4.1,23.4,6.3,33.4,3.4,34c-1.6,0.4-3-16.3-5.3-30.2l-2.7,8.4C540.7,174.7,540.4,178.4,540.4,178.4z"/>
	<path id="path71" class="st7" d="M545.4,130.4c7.6,27.7,11.7,44.6,17.2,41.1c9.9-6.2-0.1-34.1-12.7-51.9l-1.7,3.9
		c4.1,8.9,13.6,32.4,10.8,33.9c-1.4,0.7-6.6-18.2-11.8-31.2L545.4,130.4z"/>
	<path id="path83" class="st5" d="M568.7,320.9c-6.6,0.9-7.4-15.4-8.2-50.5l3.4-0.7c0.6,8.9-0.4,27.5,2,27.2
		c2.9-0.3,1.8-11.6,1.4-27.9l3.7-0.8C571.5,302.4,575.2,320.1,568.7,320.9L568.7,320.9z"/>
	<path id="path85" class="st5" d="M554.5,330.5c-1.7,0-1.5-18.6-2.4-26l-3.5,0.5c3.5,44.3,3.1,51.4,8.1,51.1c6.4-0.4,4.3-7,1.3-52.2
		l-3.4,0.2C554.9,313,556.9,330.5,554.5,330.5L554.5,330.5z"/>
	<path id="path89" class="st5" d="M558.3,386.6l6.1,19.9c3.4-1.8,3.2-6.1-4.8-45.3l-3.8,0.8C558.4,375.2,561.4,385.8,558.3,386.6
		L558.3,386.6z"/>
	<path id="path97" class="st5" d="M551,275.9c1-2.4,2.3-7.4,3.5-11c1.8,23.6,2.3,33.5-2.8,34.3c-5.4,0.9-4.6-5.6-5.4-12.9l2.4-5.4
		c0.9,2.2,0.4,7,1.7,6.4C552.2,286.4,551.3,278.1,551,275.9L551,275.9z"/>
	<path id="path99" class="st8" d="M426.8,220c0,0,0,1.7,2.3,2c-0.5,15.8,2.5,27.5-0.2,36c-4.6,14.5-9,29.1-15.5,110.9
		c-0.6,7.3,7.1,9.3,9.6,10.7c2.4,20.7,5.1,14.9,5,20.1c-0.1,2.9-2.6-2.5-1.9,48.1l-6.3-6.4c-14.3-25.2-23.3-54.7-26.2-81.1
		c3.9-48.7,5.3-82.6,6.6-111.9c7.7-4.8,14.6-10,20.6-15.2C423.6,227.3,425.5,224.2,426.8,220z"/>
	<path id="path105" class="st9" d="M453.9,415c2.5,16.8-18.1,26.7-26.3,20c-0.9-14.8,0.6-28.6,0.6-28.6c14.7-3.9-1.3,2.4-3.3-26.5
		c9.6,2.9,16.7,3,28.1,3C456.2,397.4,443.5,404.5,453.9,415L453.9,415z"/>
	<path id="path107" class="st9" d="M427.5,437.8c0,0,0.4,19.6,0.4,20.7c8.6,6.2,18.6-0.2,21.3-4.3c0.2-10.9,4.6-18.9,3.6-25.5
		C449.6,433.8,437.7,443.5,427.5,437.8L427.5,437.8z"/>
	<path id="path109" class="st9" d="M449.2,456.6c-5.5,6.7-13.9,8-21.3,4.7c0.5,6.7,1.1,13.9,1.2,20.1c5,2.6,16.1-2.1,18.7-6
		C447.8,468.6,449.4,463.4,449.2,456.6L449.2,456.6z"/>
	<path id="path111" class="st9" d="M448,478.1c-3.7,2.8-7.4,7-19.2,5.9c-3.3,14.2-20.3,14-22.1,32.4c27.3-1.3,22.8-11.8,36.6-18.5
		C453.6,492.8,449,487.3,448,478.1z"/>
	<path id="path115" class="st9" d="M500,380.5c-6.5,1.9-13.9,2.6-28,2.5c-1.8,18.8,6,15.7,4.4,22.6c-4.9,20.4,17,24.1,24.5,13.8
		C502.4,411.6,501.9,403.2,500,380.5L500,380.5z M495.4,400.7c0.7,2.1-4.9,13.2-8.9,0.9C488.6,402.6,493.5,401.8,495.4,400.7z"/>
	<path id="path117" class="st9" d="M476.8,420.9c-0.3,7-0.6,10.7,0.3,18c1.9,16,18,13.7,24.1,7.1l-0.3-24
		C498.3,427.2,483,430.5,476.8,420.9z"/>
	<path id="path119" class="st9" d="M484.1,467.4c-1.6-6.2-2.5-8.9-3.4-17.3c6.8,4.4,12.7,4.3,20.4-1.5c0.3,6.8-1.2,19-1.2,19
		C495.3,471.5,489.8,470.9,484.1,467.4z"/>
	<path id="path121" class="st9" d="M500.2,469.9c2.9,29.4,22.8,25.2,21.6,40.6c-23,3.4-25.8-14.2-33.6-18.4
		c-11.8-6.4-3.5-12.8-3.8-22C490.7,473.9,495.3,473,500.2,469.9L500.2,469.9z"/>
	<path id="path127" class="st3" d="M450.7,176.8c-1.5,1.4-3.3,1.9-6.8,2.2c0.1,7.1-0.9,16.3-2.7,22c0.7,3.5-0.3,5.8-2.7,17.9
		c-0.6,2.9-1.9,3.7-7.8,3.2c0.4,9.3,0.6,20.9,0.7,29c28.5,0,16.9,5.6,51.3,5.8c-0.8-5-1.5-11.5-1.8-18.7c-3.5,1-6.9,3.1-11.5,3.1
		c-14,0-26.6-9.9-26.6-24.2c0-14.3,11-25.4,25-25.4c5,0,9.2,1.6,9.2,1.6C469.6,188.3,462.1,182.4,450.7,176.8L450.7,176.8z"/>
	<path id="path129" class="st3" d="M483.1,259l1.5,6.4c-29.4,5-23.2-6.8-54.2-6.6l1-5.2C455.6,253.6,452.7,259,483.1,259L483.1,259z
		"/>
	<path id="path131" class="st3" d="M429.8,260.8l-1.9,8.2c8.3-1.2,18,8.5,26.9,16c8.4,7.1,30.4,3.7,34.8-4.9
		c-2.2-3.8-3.9-10-4.6-12.6C449.5,272.4,466.5,261.3,429.8,260.8z"/>
	<path id="path133" class="st3" d="M472,290.5c-7.1,1-11.9-0.9-17-2.6c-3.2,23.5-3.8,36.4-5.2,68.8c-0.2,4,23.4,3.2,23.4,0
		C473.1,334,473.1,312.4,472,290.5L472,290.5z"/>
	<path id="path135" class="st3" d="M438.1,274.5c0,0-10.3-7.6-11.4-1.6c-4.5,23.2-7,42.6-9.9,76.2c-0.6,2.9,13.3,7.5,13.5,4.5
		C433.5,310.6,438.1,274.5,438.1,274.5L438.1,274.5z"/>
	<path id="path137" class="st3" d="M448.1,364.1c-3.5,1.8-10.9,1.7-16-1.4c-0.4,4.9-0.4,8.2-0.6,14.9c-1.3,3.5,16.5,4.2,16.9,2.1
		C448.2,374.8,448.1,369.6,448.1,364.1L448.1,364.1z"/>
	<path id="path139" class="st3" d="M474.1,290.5c4.3-0.5,10.1-2.8,13.1-5.3c0,0,7.4,49.4,8.4,70.9c0.4,3.2-19.4,4.5-19.9,0.3
		C475,335.1,474.1,290.5,474.1,290.5L474.1,290.5z"/>
	<path id="path141" class="st3" d="M488.6,283.9l1.7-2.1c3.5,8,9,14.5,13.7,18.3c0,0,3.9,31.2,6.1,51.9c0.5,2.6-12,6.6-12.6,4
		C495.8,334.8,488.6,283.9,488.6,283.9z"/>
	<path id="path143" class="st3" d="M429.8,362.1c-8.1-0.7-11.3-4.9-13.3-9.5c-0.8,7.4-1.2,13-1.2,18.5c0,3,14.2,10,14.2,6.4
		C429.5,371.1,429.5,368.1,429.8,362.1L429.8,362.1z"/>
	<path id="path145" class="st3" d="M473.3,364.3c-2.1,4.8-20.8,5.2-23.1-0.6c-0.2,5.3,0,10.3,0.5,15.3c0.3,3.4,23.2,2.9,23.1,0.4
		C473.6,373.8,473.6,370.5,473.3,364.3L473.3,364.3z"/>
	<path id="path147" class="st3" d="M475.9,364.7c2.3,3.4,20.9,2.3,21.1-1.1c1.1,5.7,1.1,7.5,1.8,13.6c1.2,1.8-16.1,5-22.4,2.5
		C475.9,374.4,476.1,370.4,475.9,364.7z"/>
	<path id="path149" class="st3" d="M498.9,362.8c2.9,1.7,11.9-3.5,12-6.9c0.8,3.9,1.7,10,2,14.1c-2.5,2.7-6.7,6.9-11.9,7.1
		C500.1,371.6,499.6,368.1,498.9,362.8z"/>
	<path id="path151" class="st3" d="M453.3,286.6c-2.4-1.7-7-8-13.6-11.1c-3,23.5-5.3,49.9-7,78.6c-0.2,3.1,15,5.7,15.1,1.5
		C449.1,326.9,450.5,305.9,453.3,286.6L453.3,286.6z"/>
	<g id="g3775" transform="matrix(0.60937788,0,0,0.62637748,16.082678,-8.818002)">
		<path id="path157" class="st3" d="M739.8,344.4c3.6,0,7-3.6,6.2-9.9c-0.8-6-4.2-11.2-6.2-11.6c-2.4,0.6-5.5,5.8-6.2,11.6
			C732.9,340.9,736.2,344.4,739.8,344.4z"/>
		<path id="path159" class="st3" d="M724.3,359.8c0-3.6-3.6-7-10-6.2c-6.1,0.8-11.2,4.1-11.7,6.2c0.6,2.4,5.9,5.5,11.7,6.2
			C720.7,366.7,724.3,363.4,724.3,359.8z"/>
		<path id="path161" class="st3" d="M739.8,375.2c-3.6,0-7,3.6-6.2,9.9c0.8,6,4.2,11.2,6.2,11.6c2.4-0.6,5.5-5.8,6.2-11.6
			C746.8,378.7,743.4,375.2,739.8,375.2z"/>
		<path id="path163" class="st3" d="M755.3,359.8c-0.2,3.6,2.9,7,8.3,6.2l1.1-12.3C764.7,353.7,755.7,351.3,755.3,359.8z"/>
		<path id="path165" class="st3" d="M728.9,348.9c2.6-2.6,2.4-7.5-2.7-11.4c-4.8-3.7-10.9-5-12.7-3.9c-1.3,2.1,0.3,8,3.9,12.6
			C721.4,351.3,726.3,351.5,728.9,348.9z"/>
		<path id="path167" class="st3" d="M728.9,370.7c-2.6-2.6-7.5-2.4-11.5,2.7c-3.7,4.8-5,10.8-3.9,12.6c2.1,1.2,8.1-0.3,12.7-3.9
			C731.2,378.1,731.4,373.2,728.9,370.7L728.9,370.7z"/>
		<path id="path169" class="st3" d="M751.4,371.3c-2.2,2.9-2.4,7.5,2.7,11.4c2.8,2.2,6.1,3.5,8.6,4l0.1-12.7
			C762.9,374,757.1,363.7,751.4,371.3z"/>
		<path id="path171" class="st3" d="M750.8,348.9c2.6,2.5,7.5,2.4,11.5-2.7c3.7-4.8,5-10.8,3.9-12.6c-2.1-1.2-8.1,0.3-12.7,3.9
			C748.4,341.5,748.2,346.4,750.8,348.9z"/>
		<path id="path173" class="st3" d="M725.7,326.1c2.6-1.1,5.3-1.6,6,1.8c0.6,3.1-0.7,6.6-2.1,7.5c-1.8,0.4-5.2-1.2-6.8-3.8
			C721,328.7,723.1,327.2,725.7,326.1z"/>
		<path id="path175" class="st3" d="M705.8,373.8c-1.1-2.6-1.6-5.2,1.8-5.9c3.2-0.6,6.7,0.7,7.5,2.1c0.4,1.8-1.2,5.1-3.8,6.8
			C708.4,378.5,706.9,376.4,705.8,373.8z"/>
		<path id="path177" class="st3" d="M754.1,394.2c-2.6,1.1-5.3,1.6-6-1.8c-0.6-3.1,0.7-6.6,2.1-7.5c1.8-0.4,5.2,1.2,6.8,3.8
			C758.9,391.6,756.7,393.1,754.1,394.2z"/>
		<path id="path181" class="st3" d="M705.8,345.8c1.1-2.6,2.6-4.8,5.5-2.9c2.7,1.8,4.2,5.2,3.8,6.8c-1,1.6-4.5,2.8-7.5,2.1
			C704.3,351,704.7,348.4,705.8,345.8z"/>
		<path id="path183" class="st3" d="M726.2,393.5c-2.6-1.1-4.9-2.6-3-5.5c1.8-2.7,5.2-4.2,6.8-3.8c1.6,1,2.8,4.5,2.1,7.5
			C731.4,395.1,728.8,394.6,726.2,393.5L726.2,393.5z"/>
		<path id="path187" class="st3" d="M753.9,326.1c2.6,1.1,4.8,2.6,3,5.4c-1.8,2.7-5.2,4.2-6.8,3.8c-1.6-1-2.8-4.5-2.1-7.5
			C748.7,324.6,751.3,325,753.9,326.1z"/>
	</g>
	<g id="g3124" transform="matrix(0.68808975,0,0,0.68808975,-7.1268517,-15.29691)">
		<path id="path197" class="st9" d="M525.9,401.8c-8.6,6.3-10.5,1.8-3.5-4.7c6.9-6.4,11.3-8.8,22-7.5c16-15,34.7-31.6,49.4-47.8
			c1.7-1.8,1.9-5.9,2.4-7.2c1.1,1.7,13.9,5.4,15.5,2.2c0.3,3.7,13.9,5.7,15.8,4.6c-2.1,6.9-3.9,10.2-7.6,16.7
			c-18.9,15.4-55.2,41.8-62.9,43.3c-3.6,9.3-6.7,12-9.8,11.6C541.2,412.4,535.3,400.5,525.9,401.8L525.9,401.8z"/>
	</g>
	<path id="path213" class="st10" d="M482.1,237c0.5,32,12.3,65.8,38.1,67.3c14.4,0.9,37.2-21.1,35.3-66.5
		c-1.9-42.8-11.8-67.8-36.5-69.3C491.9,166.9,479.6,207.1,482.1,237L482.1,237z M518.8,177c14.9,0,27,26.5,27,59.2
		s-12.1,59.2-27,59.2c-14.9,0-27-26.5-27-59.2S503.9,177,518.8,177z"/>
	<path id="path29" class="st9" d="M469.7,113.9c13,0,14.9,10.1,13.5,21.8c-1.3,10.9-5.1,19.2-13.4,19c-7.5-0.2-12.3-8.1-13.9-19
		C454,123.7,457.3,113.9,469.7,113.9z"/>
	<path id="path31" class="st6" d="M472.4,128.8c1.7-1.6,3.1-2.3,3.9-2.8c2.3-1.5,4.3-0.3,5,0.3c0.2,0.7-2,0.3-2.6,0.4
		C476.4,126.9,475,128.2,472.4,128.8L472.4,128.8z"/>
	<path id="path33" class="st6" d="M463.3,127.1c1.5,0.7,2.9,1.8,4.7,1.2c-2.6-2.1-8.2-3.6-10.6-1.7
		C460.5,127,460.7,126.4,463.3,127.1z"/>
	<path id="path37" d="M474.1,145.7c-1.1,1.9-5.7,2.5-7.7,0.1c0.9-1.5,2.6-2,4-1.6C472.2,143.9,473.3,144.4,474.1,145.7L474.1,145.7z
		"/>
	<path id="path43" d="M468.4,130.2C468.4,130.2,468.4,130.2,468.4,130.2C468.4,130.2,468.4,130.2,468.4,130.2z M468.4,130.2
		C468.4,130.2,468.4,130.2,468.4,130.2C468.4,130.2,468.4,130.2,468.4,130.2z M468.4,130.2c-0.2-0.2-0.2-0.6,0-0.8
		c0.1-0.2,0.4-0.3,0.5-0.1c0,0,0,0,0.1,0.1c0.9,1.5,0,5.8-0.4,7.4l0,0.2c-0.1,0.4-0.1,0.9-0.1,1.2c0,0.3,0.1,0.6,0.3,0.8
		c0.2,0.2,0.2,0.6,0.1,0.8c-0.1,0.3-1.1-0.9-1.2-1.5v0c0-0.6,0-1.2,0.1-1.7v0l0-0.2v0C468.1,135,469,131.1,468.4,130.2L468.4,130.2
		L468.4,130.2L468.4,130.2z"/>
	<path id="path241" d="M477.3,132.2L477.3,132.2C477.3,132.2,477.3,132.2,477.3,132.2z M477.3,132.2c-0.4,0-0.8-0.1-1.2-0.2
		c-0.2-0.1-0.4-0.1-0.6-0.2c-0.2-0.1-0.4-0.2-0.5-0.3c-0.6-0.4-1-0.9-1.1-1.3c0.1-0.1,0.1-0.3,0.2-0.4c0.1-0.1,0.2-0.2,0.3-0.4
		c0.7-0.6,1.7-0.8,2.9-0.8h0c0.1,0,0.2,0,0.3,0c0.2,0,0.4,0,0.7,0.1c0.2,0,0.4,0.1,0.6,0.1c0.9,0.2,1.5,0.7,1.8,1.3
		c0,0.1-0.1,0.2-0.2,0.3c-0.1,0.1-0.2,0.3-0.3,0.4C479.6,131.6,478.5,132.2,477.3,132.2L477.3,132.2L477.3,132.2z M476,132.8
		c0.4,0.1,0.9,0.2,1.4,0.2h0c1.4-0.1,2.7-0.8,3.4-1.6c0.2-0.2,0.3-0.3,0.4-0.5v0c0.1-0.2,0.2-0.3,0.3-0.5v0l0,0v-0.2
		c-0.3-0.9-1.2-1.5-2.3-1.8c-0.2-0.1-0.5-0.1-0.7-0.1c-0.2,0-0.5-0.1-0.7-0.1c-0.1,0-0.2,0-0.3,0c0,0,0,0,0,0c0,0,0,0,0,0
		c-1.3-0.1-2.5,0.2-3.3,0.9c-0.2,0.1-0.3,0.3-0.4,0.5c-0.1,0.2-0.2,0.4-0.3,0.6v0c0,0,0,0,0,0.1l0,0.2c0.2,0.7,0.7,1.3,1.4,1.8
		c0.2,0.1,0.4,0.2,0.6,0.3C475.5,132.6,475.7,132.7,476,132.8L476,132.8z M477.3,128.1C477.3,128.1,477.3,128.1,477.3,128.1
		L477.3,128.1z M477.4,128.1C477.3,128.1,477.3,128.1,477.4,128.1L477.4,128.1z"/>
	<path id="path243" class="st6" d="M477,128.4c-1.1,0-1.9,0.9-1.9,2c0,1.1,0.9,1.9,1.9,1.9c1.1,0,1.9-0.9,1.9-1.9
		C479,129.3,478.1,128.4,477,128.4z"/>
	<path id="path247" d="M462.7,132.2C462.7,132.2,462.7,132.2,462.7,132.2S462.7,132.2,462.7,132.2z M462.7,132.2
		c0.4,0,0.8-0.1,1.2-0.2c0.2-0.1,0.4-0.1,0.6-0.2c0.2-0.1,0.4-0.2,0.5-0.3c0.6-0.4,1-0.8,1.2-1.3c-0.1-0.1-0.1-0.3-0.2-0.4
		c-0.1-0.1-0.2-0.2-0.3-0.3c-0.7-0.6-1.7-0.8-2.9-0.7h0c-0.1,0-0.2,0-0.3,0c-0.2,0-0.5,0-0.7,0.1c-0.2,0-0.4,0.1-0.6,0.1
		c-0.9,0.2-1.6,0.7-1.9,1.3c0,0.1,0.1,0.2,0.2,0.2c0.1,0.1,0.2,0.3,0.3,0.4C460.3,131.6,461.5,132.2,462.7,132.2L462.7,132.2
		L462.7,132.2z M464.1,132.8c-0.4,0.1-0.9,0.2-1.4,0.2h0c-1.4-0.1-2.7-0.8-3.5-1.5c-0.2-0.2-0.3-0.3-0.4-0.5h0
		c-0.1-0.2-0.2-0.3-0.3-0.5v0l0,0l0-0.2c0.3-0.9,1.2-1.5,2.4-1.8h0c0.2-0.1,0.5-0.1,0.7-0.1c0.2,0,0.5-0.1,0.8-0.1
		c0.1,0,0.2,0,0.3,0c0,0,0,0,0,0c0,0,0,0,0,0c1.4-0.1,2.6,0.2,3.4,0.9c0.2,0.1,0.3,0.3,0.5,0.5c0.1,0.2,0.2,0.4,0.3,0.6
		c0,0,0,0,0,0.1l0,0.2c-0.2,0.6-0.7,1.3-1.5,1.8c-0.2,0.1-0.4,0.2-0.6,0.3C464.6,132.6,464.4,132.7,464.1,132.8L464.1,132.8z
		 M462.7,128.1C462.7,128.1,462.7,128.1,462.7,128.1L462.7,128.1z M462.7,128.1C462.7,128.1,462.7,128.1,462.7,128.1L462.7,128.1z"
		/>
	<path id="path3103" class="st11" d="M454.9,383H470c-0.2,22.5,5.4,15.2,5,36.3c-0.6,29.8,4,28.6,7.5,48.3
		c-10.7,1.3-21.7-1-31.9-5.2c-0.7-20.4,9.8-39.6,3-51.6C448,400.9,456.4,404.2,454.9,383L454.9,383z"/>
	<path id="path3873" class="st11" d="M501.8,463.6c11.9-2.2,51-27,66.1-41.5c-17.9-41.7-18.5-62.4-23.8-131.1
		c-14.2,18.1-27.6,17.1-38.3,10.1c0,0,5.2,46.9,8.7,67.4c0.9,5.2-12.5,11-12.5,11C502.2,401.9,505.5,391.2,501.8,463.6L501.8,463.6z
		"/>
	<path id="path75" class="st5" d="M517,167.1l10.8-10.5c-21.8-69.2,35.6-97.8,55.9-2.4c6.9,32.6,0.3,76.7-0.4,131.6
		c-0.5,46.5,6.7,103.6,14.5,137.9l-4.2,0.1c-15.5-79.6-20.2-110.9-18.2-191.3c1.5-58.7-5-105.1-27.8-119c-6.3-3.8-11.4,18.8-14,36.4
		c-2.1,14.1,2.8,18.5,4.1,25.8C532.6,171,526.9,168.1,517,167.1L517,167.1z"/>
	<path id="path3104" class="st12" d="M475.5,216.4c0,4.7-3.6,8.5-8,8.5c-4.4,0-8-3.8-8-8.5l0,0c0-4.7,3.6-8.5,8-8.5
		C471.9,207.9,475.5,211.7,475.5,216.4z"/>
	<path id="path3106" class="st11" d="M450.8,169.1c1.9,1.4,2.1,4.2,0.9,6.6c3,1.8,19.7,9.9,33.6,22.2c4.5-12.8,11.2-23.9,22.4-29.1
		c-6.2-0.1-15.4,1.3-20-0.3C485.9,173.6,453.3,172.5,450.8,169.1z"/>
	<path id="path3876" class="st11" d="M409.4,193.7c6-13.7,14.2-24.9,29.6-25c-4.5,2.5-2.7,8.8,3.2,9.9c0.1,6.9-0.6,15.2-2.2,20.3
		c-1.3-1.9-8.1-3.5-10.5-0.5c-0.4-2.9-8.6-4.4-11-1.2C417.1,194.2,413.2,192.8,409.4,193.7L409.4,193.7z"/>
	<path id="rect3878" class="st12" d="M434.5,199.5l1.5,0.3c2.2,0.4,3.6,2.5,3.2,4.7l-2.1,11.8c-0.4,2.2-2.5,3.6-4.7,3.2l-1.5-0.3
		c-2.2-0.4-3.6-2.5-3.2-4.7l2.1-11.8C430.2,200.6,432.3,199.1,434.5,199.5z"/>
	<path id="rect3878-1" class="st12" d="M423.3,198.2l1.7,0.4c2.2,0.5,3.5,2.6,3,4.8l-2.6,11c-0.5,2.2-2.7,3.6-4.8,3.1l-1.7-0.4
		c-2.2-0.5-3.5-2.6-3-4.8l2.6-11C419,199.1,421.1,197.7,423.3,198.2z"/>
	<path id="rect3878-1-7" class="st12" d="M412.5,196l1,0.3c2.1,0.6,3.4,2.8,2.9,4.9l-2.8,11c-0.6,2.2-2.7,3.5-4.9,2.9l-1-0.3
		c-2.1-0.6-3.4-2.8-2.9-4.9l2.8-11C408.2,196.7,410.4,195.4,412.5,196z"/>
	<path id="path3916" class="st13" d="M356.9,262.9c0.1,1.3-1.6,3.8-3.8,5.6c-2.2,1.8-4.1,2.2-4.3,0.9l0,0c-0.1-1.3,1.6-3.8,3.8-5.6
		C354.9,262,356.8,261.6,356.9,262.9z"/>
	<path id="path3916-4" class="st13" d="M361,264.9c0.2,1.3-1.8,4.4-4.5,6.9c-2.7,2.5-5.1,3.4-5.3,2c0,0,0,0,0,0
		c-0.2-1.3,1.8-4.4,4.5-6.9S360.8,263.6,361,264.9C361,264.9,361,264.9,361,264.9z"/>
	<path id="path3916-0" class="st13" d="M363.6,269.3c0.2,1.3-1.5,4-3.8,6s-4.3,2.5-4.5,1.2l0,0c-0.2-1.3,1.5-4,3.8-6
		S363.4,268,363.6,269.3z"/>
	<path id="path3916-9" class="st13" d="M367.7,272c0.1,1.2-1.5,3.8-3.8,5.6c-2.2,1.9-4.2,2.4-4.3,1.2l0,0c-0.1-1.2,1.5-3.8,3.8-5.6
		C365.6,271.3,367.5,270.8,367.7,272z"/>
	<path id="path3976" class="st14" d="M424.4,156.8l8.7,10.4c-10.5,2.7-23.3,7.7-32.6,50.9c-8.8,9.5-16.3,16.8-24.6,24.4
		c-6.1,5-9.5,8.6-16.8,8c-8.2,5.6-14.6,10.7-13.1,16.9l-5.8,2.3l-8.2-14.1l8.4-6.2c-6-4.6-9.4-14.8-9.6-22.6
		c-11.9-11.9-14.5-18.1-16.6-34.5c-10.6-8.5-16.3-27-16.6-49.4c14.4,10.3,26,23.7,28.8,41.4c10,8.6,15.6,14.7,18,34.1
		c7.1,4.8,9.1,11,10.6,20.8l2.4-1.8C327.8,62.9,449.7,43.7,424.4,156.8z"/>
	<path id="path67" class="st7" d="M391.1,192.4c-1,12.6-0.6,36-0.6,36c4.1-4.4,6.8-6.7,9.8-10.1c0.5-2.1,1-4.2,1.7-7.2
		c-0.2-6.3-0.1-12.9-0.6-17.5l-3.5-0.5c-0.5,9.5,1.3,20.8-1.4,19.9c-2.2-0.8-1.6-20.2-1.6-20.2S392.2,192.3,391.1,192.4L391.1,192.4
		z"/>
	<path id="path55" class="st7" d="M383.5,171.2c6,0.7,7.8-11.1,15.8-40.6l-2.2-4.7c-8.7,21.6-10.3,33.8-12.1,29.6
		c-1.5-3.6,7.1-23.2,9.6-33l-2.1-3.9C384.9,127.1,369.5,169.5,383.5,171.2z"/>
	<path id="path53" class="st7" d="M398,188.3c6.2,1.8,12.1-23.8,12.1-35.6l-3.5-9.3c-1.8,17-3.8,30.4-6.2,29.5
		c-3.1-1.2,2.4-15.6,3.9-33.3l-2.1-4.7C393.5,174.3,386.9,185,398,188.3L398,188.3z"/>
	<g id="g3876" transform="matrix(0.68808975,0,0,0.68808975,-4.7532012,-12.200666)">
		<path id="path193" class="st2" d="M502,405.7l-9-15.4l40.8-29.2l7.8,13.5c-8,6.4-6.6,4.5-14,3.2c-4,2.9-22.8,12.8-21.2,26.2
			L502,405.7z"/>
	</g>
	<path id="path3104-4" class="st15" d="M451,172.8c0,2.6-2.9,4.7-6.4,4.7c-3.5,0-6.4-2.1-6.4-4.7c0,0,0,0,0,0c0-2.6,2.9-4.7,6.4-4.7
		C448.1,168.1,451,170.2,451,172.8C451,172.8,451,172.8,451,172.8z"/>
	<path id="path3978" class="st16" d="M428.2,168.5l-9.9-8.8c20.5-101.1-79-89.9-56.9,74.1l1.1-0.8l7.3,12.9
		c-3.5-94.4,13.5-130.8,26.6-132.9c5.6-0.9,15.7,33.3,16.2,38.9c1.8,20.6-7.4,26.8-7.1,46.8C410,186.2,414,175.5,428.2,168.5
		L428.2,168.5z"/>
	<path id="path51" class="st7" d="M376.8,173c-2.5,28.3-5,39.5,3,40.6c7.2,1,5.6-5,7.5-37.5l-3.5-1.2c-1.8,16.1-1.8,23.9-4.3,23
		c-2-0.7,0.7-15.6,0.8-23.7L376.8,173z"/>
	<path id="path67-1" class="st7" d="M373.8,216.6c-0.4,8.1-0.9,17.3-0.4,27.8c6.1-5.3,8.1-7.2,13-11.9c0-5.8,0.1-8.5-0.6-14.4
		l-3.9-0.4c-0.3,5.4,1.1,19.1-1.8,19.9c-2.2,0.5-1.6-6.1-2.1-20.4L373.8,216.6z"/>
	<path id="path3124" class="st14" d="M360.1,281.3c2.6-0.1,4.8,0.7,10.2-9.2c3.8-2.1,5.8-4.9,6.6-9.1c7.1-4.4,10.9-5.5,21.8-13.8
		c-2.9,59.6-5.5,100.8-6.6,110.2c1.3,17.3,7,35.8,7,35.8l-17.1,39.3c-1.3-1.4-2.6-2.7-4-5.1c-6.3,12-13.2,24.1-29.7,30.2l4.4-32.3
		c-3.1-0.1-5.4,0.7-7.7,1.5C359.3,373.6,361.8,327.1,360.1,281.3z"/>
	<path id="path69" class="st5" d="M377.1,268.9c-1.8,50.4-4.4,49.4,2.5,50c8.2,0.7,5.1-7.4,8.2-57.3l-3.9,2.7
		c-1.9,23.2-0.5,28-2.9,29.1c-2.1,0.9-1-6.3-0.5-27.2L377.1,268.9z"/>
	<path id="path59" class="st5" d="M378,346.4c1.9-0.1,1.4-6,2.3-21.2l3.7,0.2c-1.2,32.7-2.3,47.5-8.6,46.7c-6.8-0.8-3.1-20.2-1-47.4
		l3.4,0.3C376.4,341.6,375.9,346.6,378,346.4z"/>
	<path id="path63" class="st5" d="M387.8,398.9c1.9-1.4,5-22.7,5-22.7l1.9,9.3c-4.3,22.6-10.2,40.7-14.5,37.2
		c-2.7-2.2,1.7-16.6,7.7-63.1l2.8,1.5C390.7,372.5,384.1,401.7,387.8,398.9z"/>
	<path id="path61" class="st5" d="M366.7,418.2c2.1,1.2,6.7-21.7,9.9-39.5l3.2,0.5c-2.5,21.8-8.5,54.8-19.1,67
		c-6.8,7.9-1.2-33.4,9-68.5l3.6,0.5C368.4,403.6,364.3,416.8,366.7,418.2L366.7,418.2z"/>
	<path id="path3894" class="st16" d="M364.1,287.9c2.2,1.7,4.6,2.7,6.3,2.2c-3.6,47.2-3.6,86-16.8,133.3l-4.7,0.4
		C359.1,382.9,363.5,341.7,364.1,287.9z"/>
	<path id="path3109" class="st16" d="M392.9,330.6c-2.7-0.4-1.7-3.3-1.1-22l-2.5-0.9c-2.2,41.6-2.3,47.3,1.4,48
		C391.4,355.7,392.6,335.5,392.9,330.6z"/>
	<path id="path3109-1" class="st16" d="M395.5,281.8c-2.7,0-1.5-9.6-1-25l-2.8,2c-1.7,37.1-3.1,43.7,1.8,44.1
		C394.7,303.1,394.5,300.2,395.5,281.8z"/>
	<path id="path3897" class="st17" d="M362.7,283.8c8.2-4.3,5.5-6.2,9.1-9.3C373.2,286.2,373.3,292.8,362.7,283.8z"/>
	<path id="path51-1" class="st5" d="M563,176.7l-4.3,1.6c0.5,21.5,0.6,37.2,7.2,36.8c7.5-0.5,5.9-4.7,3.7-40.4l-3.6,1.1
		c0.2,8.7,1.5,22.1-1,22C563.5,197.6,563.4,185.4,563,176.7z"/>
	<path id="path3932" class="st18" d="M511.4,180.6c-7.6,4.2-16.5,21.4-18.1,45.1l19.8,2L511.4,180.6z"/>
	<path id="path3932-0" class="st18" d="M526.2,180.2l-2.1,47.5l20.4-1.9C542.5,201.4,534.7,187,526.2,180.2z"/>
	<path id="rect3934" class="st18" d="M524,238l1.7,54c10.8-7,18.5-26.7,19-52.3L524,238z"/>
	<path id="path3932-0-8" class="st18" d="M492.8,239.9c1.2,25.6,8,43.6,18.2,51.4l2.2-53.3L492.8,239.9z"/>
	<path id="path4041" class="st19" d="M493.1,226.8l20.9,1.8l-1.7-48.5c3.4-2.8,8.8-2.8,12.9-0.4l-1.9,48.9l21.5-1.7
		c0.2,3.3,0.3,9,0.1,11.6l-21.5-1.4l1.7,55.3c-4.3,3.2-10.6,1.4-13.1-0.6l2.1-54.7l-21.1,1.8C492.9,227.5,493,228.8,493.1,226.8z"/>
	<path id="path4141" class="st13" d="M459.7,151.6c6.3,7.2,14.9,7,19.9,0c0.5,7.7,1.4,12.1,7.3,16.2c-5.9,3.4-30.7,2.9-36.7,0
		C456.1,166.9,459.3,163.2,459.7,151.6z"/>
	<linearGradient id="path4143_1_" gradientUnits="userSpaceOnUse" x1="469.7014" y1="104.8316" x2="469.7014" y2="129.2114">
		<stop  offset="0" style="stop-color:#66460F"/>
		<stop  offset="1" style="stop-color:#000000"/>
	</linearGradient>
	<path id="path4143" class="st20" d="M448.5,129.2c2.7-33,39.5-31.7,42.5-0.8l-4.9,0.1c1.3-23.6-34.6-23.8-32.7,0.6L448.5,129.2z"/>
	<path id="path4145" class="st12" d="M418.4,353.2c2.8,3.8,5.6,6.3,11.4,6.6c0.5-1,0.2-1.6,0-2.6
		C423.1,357.1,421.5,354.8,418.4,353.2z"/>
	<path id="path4145-1" class="st12" d="M510,355.2c-2.8,3.8-5.3,5.6-11.1,6c-0.3-0.7-0.5-1.5-0.5-2.4
		C505.2,358.5,507,356.7,510,355.2z"/>
	<path id="path4165" class="st12" d="M432.5,357.3c4.2,2.9,10,4.3,15.4,1.7c0,1.2,0.2,1.8-0.1,2.8c-3.9,2-11.3,1.4-15.4-1.7
		C432.2,358.7,432.4,358,432.5,357.3z"/>
	<path id="path4165-7" class="st12" d="M450.3,359.5c4.1,3.9,16.7,2.8,23,0.2c0.2,0.9,0.4,1.9,0,2.8c-5.7,4.2-18.6,4.4-23-0.7
		C449.8,360.2,450.1,360.2,450.3,359.5L450.3,359.5z"/>
	<path id="path4165-1" class="st12" d="M476.1,360c6,2.5,15.4,1.9,19.8-1c0.4,0.7,1,1.3,0.4,2.9c-4.7,3.1-13.4,4.4-20,0.9
		C475.9,362,475.8,361.1,476.1,360z"/>
	<path id="path243-1" class="st6" d="M462.8,128.5c-1.1,0-1.9,0.9-1.9,2c0,1.1,0.9,1.9,1.9,1.9c1.1,0,1.9-0.9,1.9-1.9
		C464.7,129.4,463.9,128.5,462.8,128.5z"/>
	<path id="path59-1" class="st5" d="M570,347.2c-1.9-0.1-1.4-6-2.3-21.2l-3.7,0.2c1.2,32.7,2.1,46.3,8.3,45.5
		c6.8-0.8,3.4-19,1.2-46.2l-3.4,0.3C571.6,342.4,572.2,347.4,570,347.2L570,347.2z"/>
	<path id="path61-6" class="st5" d="M580.3,416.8c-2.1,1.2-6.7-21.7-9.9-39.5l-3.2,0.5c2.5,21.8,8.5,54.8,19.1,67
		c6.8,7.9,1.2-33.4-9-68.5l-3.6,0.5C578.7,402.2,582.8,415.4,580.3,416.8L580.3,416.8z"/>
	<path id="path67-8" class="st7" d="M555,192.9c1,12.6,0.6,36,0.6,36c-0.3-4.3-2.1-20.9-4.2-28.8c0-3.4-0.1-6.7-0.1-6.7
		S554,192.8,555,192.9L555,192.9z"/>
	<path id="path2971-8-2" class="st21" d="M313.7,161.8c13.1,11.7,9.6,39.8,14.2,27.1c20.8,16.8,10,44.8,17.4,32.9
		c4.6,4.2,7.4,11.9,7.6,19l-10,7.2c-7.4-5.2-9.9-19.6-10.8-30c-0.3,9.4-15.2-4.3-16-31.4c-6.1,1.8-11.5-11.8-12.3-16.6
		c10,7.6-5.3-7.8-4-22.8C299.9,147.1,309.6,158.2,313.7,161.8L313.7,161.8z"/>
	<path d="M472.4,139.9"/>
</g>
</svg>
