<?xml version="1.0" encoding="UTF-8" standalone="no"?>
<!-- Created with Inkscape (http://www.inkscape.org/) -->
<svg id="svg2993" xmlns:rdf="http://www.w3.org/1999/02/22-rdf-syntax-ns#" xmlns="http://www.w3.org/2000/svg" height="400" width="600" version="1.1" xmlns:cc="http://creativecommons.org/ns#" xmlns:dc="http://purl.org/dc/elements/1.1/">
 <metadata id="metadata2998">
  <rdf:RDF>
   <cc:Work rdf:about="">
    <dc:format>image/svg+xml</dc:format>
    <dc:type rdf:resource="http://purl.org/dc/dcmitype/StillImage"/>
    <dc:title/>
   </cc:Work>
  </rdf:RDF>
 </metadata>
 <g id="layer1" transform="translate(0,-652.36218)">
  <rect id="rect3012" height="400" width="600" y="652.36" x="0" fill="#0067ac"/>
  <rect id="rect3012-1" height="400" width="300" y="652.36" x="300" fill="#d40000"/>
  <path id="path3038" fill="#000" d="m239.19,830.02,0.19912-6.9691,0.64355,0.061,0.0672,0.006c9.8434,0.93461,19.749,2.8134,28.95,6.5227,18.726,7.5502,28.857,20.68,30.947,38.102,2.0898-17.422,12.222-30.552,30.948-38.102,9.2013-3.7094,19.106-5.5881,28.95-6.5227l0.0672-0.006,0.64356-0.061,0.19864,6.9691,2.2374,0.0257-0.0857,6.2155,1.7754,0.0729,0.11528,6.728,1.9769,0.0529,0.33773,7.3468c-16.837-1.7296-43.854-1.359-50.434,18.37-1.6406,4.9193-1.5939,10.378-0.13481,15.826,2.5009,9.3418,9.1441,18.636,18.554,25.16l-0.00047,0.00048c1.5053,0.95223,2.0178,2.2508,1.8464,3.5612-0.0886,0.68071-0.36727,1.3543-0.78885,1.9726-0.41014,0.60211-0.95747,1.1552-1.5953,1.6124-1.7997,1.2895-4.3539,1.8468-6.6713,0.63784-11.772-4.784-18.934-11.365-23.119-18.961-2.7243-4.9436-4.1795-10.308-4.8212-15.879-0.64165,5.571-2.0964,10.935-4.8207,15.879-4.1848,7.5959-11.346,14.177-23.118,18.961-2.3175,1.209-4.8722,0.65166-6.6718-0.63784-0.63784-0.4573-1.1847-1.0103-1.5953-1.6124-0.4211-0.61831-0.69977-1.2919-0.78884-1.9726-0.17102-1.3104,0.34107-2.609,1.8463-3.5612l-0.00047-0.00048c9.4104-6.5237,16.054-15.818,18.554-25.16,1.4586-5.4485,1.5058-10.907-0.13529-15.826-6.5794-19.729-33.596-20.1-50.433-18.37l0.33725-7.3468,1.9769-0.0529,0.11528-6.728,1.7754-0.0729-0.0853-6.2155,2.237-0.0257z"/>
  <path id="path3040" fill="#000" d="m299.98,765.55c12.321,0,22.314,9.992,22.314,22.313s-9.9925,22.314-22.314,22.314c-12.321,0-22.314-9.9925-22.314-22.314,0-12.321,9.9925-22.313,22.314-22.313zm-20.358,9.4609-15.283-22.789,21.986,14.746c-2.2813-4.3634-1.8259-7.6717-1.3776-10.925,0.62116-4.5116,0.54399-7.2201-2.1746-11.527,5.5876,2.0012,6.3817,5.7191,7.665,10.406,0.86458,3.1902,1.7916,6.6123,4.2343,9.4575l5.308-26.926,5.1208,25.977c1.4724-4.6968,4.1333-6.7142,6.7504-8.6982,3.6293-2.7505,5.49-4.7202,6.6128-9.6881,2.5366,5.3661,0.46873,8.5568-1.9383,12.779-1.6448,2.8672-3.4088,5.943-3.6932,9.6828l22.789-15.284-14.746,21.988c4.3634-2.2817,7.6722-1.8273,10.926-1.379,4.5111,0.62117,7.2196,0.544,11.526-2.1746-2.0007,5.5881-5.7191,6.3817-10.406,7.665-3.1901,0.86458-6.6123,1.7916-9.457,4.2348l26.926,5.3075-25.977,5.1208c4.6964,1.4724,6.7142,4.1333,8.6978,6.7504,2.7505,3.6293,4.7202,5.49,9.6881,6.6127-5.3661,2.5366-8.5563,0.46874-12.779-1.9383-2.8672-1.6448-5.943-3.4088-9.6824-3.6932l15.283,22.789-21.987-14.746c2.2813,4.3629,1.8268,7.6717,1.3786,10.926-0.62116,4.5111-0.54399,7.2196,2.1746,11.526-5.5876-2.0007-6.3817-5.7186-7.665-10.406-0.86411-3.1897-1.792-6.6113-4.2343-9.4566l-5.308,26.926-5.1213-25.978c-1.4719,4.6973-4.1324,6.7152-6.7499,8.6987-3.6293,2.7509-5.49,4.7207-6.6128,9.6881-2.5366-5.3661-0.46873-8.5563,1.9383-12.778,1.6448-2.8672,3.4078-5.943,3.6922-9.6824l-22.788,15.283,14.746-21.988c-4.3634,2.2813-7.6722,1.8268-10.926,1.3786-4.5111-0.62117-7.2196-0.544-11.526,2.175,2.0007-5.5881,5.7191-6.3822,10.406-7.6655,3.1897-0.8641,6.6118-1.7916,9.4566-4.2343l-26.925-5.308,25.978-5.1208c-4.6973-1.4724-6.7152-4.1328-8.6992-6.7499-2.7505-3.6293-4.7202-5.49-9.6881-6.6132,5.3661-2.5361,8.5563-0.46873,12.779,1.9388,2.8672,1.6444,5.943,3.4088,9.6824,3.6927z"/>
  <path id="path3042" fill="#FF0" d="m299.98,765.55c12.316,0,22.313,9.9972,22.313,22.313,0,12.317-9.9972,22.314-22.313,22.314-12.317,0-22.314-9.9972-22.314-22.314,0-12.316,9.9972-22.313,22.314-22.313z"/>
  <path id="path3044" fill="#fadb00" d="m283.08,894.91-0.92032,0.84601-0.89507,0.89554-0.87077,0.89555-0.82076,0.89554-0.79599,0.89555-0.7212,0.8703-0.32297,0.44777-0.29867,0.423-0.2982,0.423-0.2739,0.42301-0.24866,0.39775-0.19864,0.39824-0.19912,0.39775-0.14909,0.37346-0.12481,0.34822-0.0991,0.34821-0.0748,0.34822-0.0248,0.29867,0,0.32345,0.0495,0.27342,0.0748,0.27343,0.12433,0.24913,0.17387,0.22389,0.19911,0.19864,0.27343,0.17434,0.29867,0.17387,0.32345,0.12433,0.32297,0.0748,0.32344,0.0248,0.29868,0,0.29819-0.0743,0.27343-0.0996,0.2739-0.14957,0.24866-0.19864,0.24866-0.22389,0.24865-0.24866,0.22389-0.29867,0.22389-0.32345,0.22388-0.37298,0.19864-0.37346,0.19912-0.42253,0.19912-0.44777,0.17386-0.44777,0.17435-0.47255,0.17387-0.52256,0.1491-0.49779,0.29867-1.0942,0.24866-1.1194,0.24866-1.1442,0.19911-1.1942,0.19864-1.169,0.14958-1.1447z"/>
  <path id="path3046" fill="#fadb00" d="m290.35,902.88-1.169,0.24866-1.169,0.24913-1.119,0.27343-1.119,0.32345-1.0694,0.32344-1.0199,0.34821-0.47254,0.17387-0.44778,0.19912-0.44777,0.19912-0.42253,0.19911-0.39775,0.19864-0.37346,0.22389-0.32345,0.19911-0.32297,0.22389-0.2739,0.22389-0.24866,0.22388-0.22388,0.24866-0.17387,0.24913-0.1491,0.22389-0.0996,0.24866-0.0748,0.27342-0.0248,0.24914,0.0248,0.27342,0.05,0.24866,0.12433,0.2739,0.1491,0.27343,0.22388,0.27391,0.22389,0.22388,0.22389,0.17387,0.24865,0.1491,0.27343,0.0996,0.27343,0.05,0.29867,0,0.2982,0,0.29867-0.0748,0.32345-0.0748,0.34821-0.12433,0.32297-0.1491,0.34822-0.17434,0.37346-0.22389,0.34774-0.22389,0.37346-0.27342,0.37298-0.27343,0.37299-0.29867,0.37298-0.32345,0.37299-0.32344,0.77122-0.7212,0.77074-0.77122,0.77121-0.79599,0.74597-0.846,0.7212-0.84553,0.7212-0.84601z"/>
  <path id="path3048" fill="#fadb00" d="m273.73,904.67-1.0446,0.54733-1.0446,0.54733-1.0199,0.5721-0.96986,0.59687-0.94509,0.59735-0.8703,0.59687-0.423,0.29867-0.37298,0.2982-0.37299,0.29868-0.34821,0.29867-0.32297,0.2982-0.29868,0.29867-0.2739,0.2982-0.22341,0.2739-0.22389,0.29868-0.17434,0.27342-0.12433,0.27343-0.12433,0.2739-0.0743,0.27343-0.0253,0.27391,0.0253,0.24865,0.0495,0.24866,0.0748,0.22389,0.1491,0.22388,0.17387,0.22389,0.24865,0.22388,0.27391,0.19912,0.27343,0.1491,0.2739,0.0996,0.27343,0.05,0.27342,0.0248,0.29868-0.0248,0.27342-0.0748,0.2982-0.0996,0.27391-0.12433,0.29819-0.17435,0.27391-0.22388,0.29819-0.22389,0.27343-0.27343,0.27391-0.2739,0.29819-0.32297,0.27343-0.32344,0.2739-0.37346,0.27343-0.37299,0.27343-0.39775,0.2739-0.42301,0.54686-0.87077,0.52256-0.92032,0.49731-0.97033,0.49731-0.97033,0.44778-0.99463,0.44777-0.97033z"/>
  <path id="path3050" fill="#fadb00" d="m280.05,912.83-1.1937-0.12432-1.169-0.0996-1.169-0.0996-1.1437-0.05-1.1194,0-1.0694,0.0252-0.52209,0.0248-0.49731,0.0495-0.47302,0.05-0.47207,0.0495-0.423,0.0748-0.423,0.0995-0.39776,0.0996-0.34821,0.0991-0.34822,0.14958-0.29819,0.12433-0.27391,0.17434-0.24865,0.17387-0.22389,0.17435-0.17387,0.22388-0.1491,0.22389-0.0996,0.22389-0.05,0.24865-0.0248,0.27343,0.0248,0.29868,0.0748,0.32344,0.0996,0.32344,0.1491,0.27343,0.17435,0.24866,0.19864,0.19911,0.22388,0.17435,0.24866,0.12433,0.2739,0.0996,0.27343,0.0743,0.32345,0.05,0.34821,0.0248,0.34774-0.0248,0.37346-0.05,0.37299-0.0495,0.39775-0.0996,0.423-0.0996,0.42253-0.1491,0.44777-0.14957,0.44777-0.17387,0.44778-0.17435,0.47254-0.22388,0.94509-0.44778,0.96985-0.49731,0.96986-0.52256,0.96986-0.5721,0.94508-0.5721,0.94509-0.59688z"/>
  <path id="path3052" fill="#fadb00" d="m296.99,888.99-0.94509,0.6969-0.94508,0.7212-0.92032,0.74645-0.8703,0.74645-0.82076,0.74597-0.77074,0.74644-0.37298,0.37299-0.32345,0.34821-0.32344,0.37299-0.2982,0.34869-0.2739,0.37298-0.22389,0.34822-0.22341,0.32344-0.19911,0.34822-0.1491,0.32344-0.12481,0.29868-0.0991,0.32344-0.0748,0.27343-0.0248,0.29867,0,0.27343,0.0495,0.24866,0.0996,0.24865,0.12433,0.22389,0.17435,0.22389,0.22388,0.19911,0.24866,0.17435,0.2982,0.1491,0.29867,0.12433,0.2982,0.05,0.27343,0.0248,0.29867-0.0248,0.27343-0.0748,0.24913-0.0996,0.27343-0.1491,0.27342-0.19912,0.24866-0.19911,0.24866-0.24866,0.24865-0.29867,0.22389-0.2982,0.24866-0.34822,0.22388-0.37346,0.22389-0.37298,0.22389-0.42301,0.19911-0.423,0.22389-0.44777,0.19864-0.47254,0.37298-0.97034,0.37347-1.0199,0.34821-1.0446,0.32297-1.0942,0.29867-1.0699,0.2982-1.0451z"/>
  <path id="path3054" fill="#fadb00" d="m286.56,885.11-0.42253,1.0947-0.423,1.1194-0.37299,1.1194-0.34821,1.0942-0.2982,1.0699-0.2739,1.0446-0.0996,0.49779-0.0996,0.49732-0.0743,0.47254-0.05,0.44777-0.0495,0.44778-0.0248,0.423,0,0.39823,0.0248,0.39776,0.0248,0.34821,0.05,0.34821,0.0991,0.29868,0.0996,0.2739,0.12481,0.27343,0.14909,0.22389,0.17387,0.17434,0.19912,0.17387,0.24866,0.12433,0.24865,0.0996,0.29868,0.05,0.32297,0,0.32344-0.0252,0.29867-0.0495,0.2982-0.0996,0.24866-0.1491,0.22388-0.17435,0.19912-0.19911,0.1491-0.22389,0.1491-0.27343,0.12433-0.29867,0.0995-0.29867,0.0748-0.34822,0.0743-0.37298,0.0252-0.39824,0.0248-0.39775,0-0.44777-0.0248-0.44778-0.0252-0.44777-0.0495-0.49731-0.0495-0.47302-0.0748-0.52209-0.19911-1.0199-0.22389-1.0699-0.27343-1.0694-0.27342-1.0947-0.32345-1.0699-0.32344-1.0446z"/>
  <path id="path3056" fill="#fadb00" d="m286.39,870.98-0.12433,1.3681-0.0996,1.3433-0.05,1.3433-0.0248,1.3185,0,1.2933,0.05,1.2195,0.0495,0.59687,0.05,0.57211,0.0743,0.54733,0.0996,0.52208,0.0996,0.49779,0.0996,0.47254,0.12432,0.44778,0.1491,0.423,0.1491,0.37298,0.17435,0.34822,0.17387,0.32344,0.22388,0.27343,0.22389,0.24913,0.22389,0.19912,0.27342,0.1491,0.27391,0.0996,0.29819,0.0743,0.2982,0,0.34869-0.0248,0.34774-0.0743,0.37346-0.14958,0.32297-0.17387,0.27391-0.19911,0.22341-0.22389,0.19911-0.2739,0.1491-0.27343,0.0996-0.32345,0.0748-0.32344,0.0495-0.37299,0-0.37298-0.0248-0.423-0.0495-0.42301-0.0996-0.44777-0.0996-0.44777-0.1491-0.47254-0.14957-0.49732-0.19864-0.49779-0.19912-0.49731-0.22389-0.52256-0.24865-0.54733-0.54686-1.0699-0.59735-1.0942-0.64641-1.0947-0.67166-1.0947-0.67118-1.0947-0.69643-1.0446z"/>
  <path id="path3058" fill="#fadb00" d="m298.83,873.4-0.69643,0.94509-0.69643,0.97033-0.67118,0.94509-0.64689,0.97033-0.5721,0.96986-0.52208,0.92079-0.24866,0.44777-0.22389,0.44778-0.19911,0.44777-0.17435,0.42252-0.1491,0.42301-0.1491,0.39823-0.12432,0.37298-0.0748,0.37299-0.0743,0.37346-0.0248,0.32297,0,0.32344,0.0248,0.29868,0.0495,0.27342,0.0748,0.27391,0.12432,0.22388,0.1491,0.22389,0.19912,0.17435,0.22388,0.1491,0.27343,0.12432,0.29868,0.0996,0.32296,0.0748,0.32345,0.0248,0.27343-0.0248,0.29867-0.05,0.24866-0.12433,0.24865-0.12432,0.22389-0.19912,0.22389-0.19912,0.19864-0.24865,0.17434-0.29868,0.17435-0.2982,0.1491-0.34869,0.14909-0.34821,0.12433-0.39776,0.0996-0.423,0.12433-0.423,0.0743-0.47255,0.0996-0.47254,0.0748-0.47254,0.0495-0.52256,0.0996-1.0446,0.0748-1.0699,0.0248-1.1194,0.0248-1.1194-0.0248-1.1194-0.0248-1.0942z"/>
  <path id="path3060" fill="#fadb00" d="m295.74,857.65-0.39824,1.2933-0.37298,1.2933-0.34822,1.3186-0.29819,1.269-0.24866,1.2438-0.19912,1.2185-0.0743,0.5721-0.05,0.57258-0.0495,0.54733-0.0252,0.52209-0.0248,0.52256,0.0248,0.47254,0.0252,0.47254,0.0495,0.42301,0.0748,0.423,0.0743,0.37298,0.12433,0.34822,0.1491,0.29867,0.17435,0.27343,0.17434,0.24866,0.22389,0.19911,0.24866,0.17435,0.27342,0.12433,0.2982,0.0743,0.34822,0.05,0.37298-0.0248,0.37346-0.05,0.34822-0.0996,0.2982-0.1491,0.27342-0.17387,0.24914-0.19912,0.19864-0.24865,0.17434-0.29868,0.1491-0.29867,0.0996-0.34821,0.0996-0.37299,0.0495-0.39823,0.0495-0.42253,0-0.44777-0.0248-0.47254-0.0248-0.49779-0.0495-0.52256-0.0748-0.52209-0.0996-0.52256-0.12433-0.5721-0.12433-0.5721-0.29819-1.1442-0.34822-1.1942-0.39823-1.219-0.42253-1.1942-0.44777-1.1938-0.47254-1.169z"/>
  <path id="path3062" fill="#fadb00" d="m281.27,859.44,0.49732,1.269,0.49731,1.2685,0.54685,1.2438,0.54733,1.1942,0.57211,1.1442,0.59687,1.0694,0.29867,0.49779,0.2982,0.49731,0.32344,0.44778,0.2982,0.44777,0.29867,0.39823,0.32345,0.37299,0.2982,0.34821,0.32344,0.32345,0.2982,0.2739,0.29867,0.24866,0.32345,0.19911,0.29819,0.1491,0.29868,0.12433,0.2982,0.0748,0.32344,0.0248,0.27343-0.0248,0.29867-0.0748,0.2982-0.12433,0.2739-0.19911,0.2982-0.22389,0.2739-0.27343,0.19864-0.29867,0.1491-0.29868,0.12433-0.32296,0.05-0.29868,0-0.32344-0.0248-0.34822-0.0996-0.32344-0.12433-0.34822-0.14957-0.34821-0.19864-0.34822-0.24866-0.37346-0.2739-0.34821-0.2982-0.37299-0.32345-0.34821-0.37298-0.37346-0.37299-0.37299-0.423-0.37298-0.42252-0.34822-0.47255-0.37346-0.94508-0.7212-1.0199-0.7212-1.0694-0.72168-1.0694-0.67166-1.0942-0.67166-1.0942-0.64688z"/>
  <path id="path3064" fill="#fadb00" d="m281.72,849.47,0.47254,1.2685,0.52256,1.2685,0.54686,1.219,0.54733,1.1942,0.5721,1.1442,0.59687,1.0947,0.2982,0.49731,0.29867,0.49779,0.2982,0.44777,0.32344,0.4473,0.29868,0.39823,0.2982,0.37299,0.32344,0.34821,0.2982,0.32345,0.32344,0.2739,0.29868,0.22389,0.29819,0.19864,0.32345,0.17434,0.2982,0.0996,0.29867,0.0748,0.29867,0.0248,0.2982-0.0248,0.2982-0.05,0.29867-0.1491,0.27343-0.17434,0.29867-0.22389,0.24866-0.2982,0.22389-0.2739,0.1491-0.29868,0.0996-0.32296,0.05-0.32345,0.0248-0.32344-0.05-0.32345-0.0743-0.32344-0.12433-0.34822-0.17434-0.34821-0.19912-0.34822-0.22388-0.37298-0.27343-0.34822-0.2982-0.37346-0.34821-0.34821-0.34822-0.37299-0.39823-0.37346-0.39776-0.37299-0.44777-0.37298-0.44777-0.34822-0.94509-0.74644-1.0194-0.7212-1.0694-0.69691-1.0947-0.69643-1.0942-0.64641-1.0694-0.64689z"/>
  <path id="path3066" fill="#FF0" d="m310.37,820.57c0.97033,3.5812,1.8616,6.8681,4.7369,8.6939-1.782-3.7327-1.3748-6.6956-0.96033-9.7052,0.47159-3.4245,0.9508-6.9119-2.0617-11.737-0.7855,0.47778-1.6015,0.91031-2.4446,1.2942,4.0971,5.0651,1.149,6.8471,2.3408,10.538-1.4548-1.7954-0.3425-6.0354-4.0533-9.8405-0.7231,0.26152-1.4634,0.48826-2.2174,0.6788,2.7505,3.032,3.7394,6.6814,4.6597,10.078zm-26.173-2.2355c-1.8464,3.2187-3.5403,6.1731-2.7981,9.4976,1.379-3.8999,3.7627-5.7067,6.1836-7.5416,2.7548-2.0879,5.56-4.2148,6.8419-9.7562-0.90316-0.22102-1.7854-0.4935-2.6438-0.81599-0.68452,6.4798-4.0295,5.6548-5.7963,9.1084,0.24008-2.2989,4.0262-4.5111,4.0919-9.8272-0.70214-0.32964-1.3857-0.69357-2.0478-1.0889-0.19817,4.0904-2.0802,7.3716-3.8313,10.424zm-16.927-20.087c-3.5812,0.97033-6.8676,1.8616-8.6939,4.7373,3.7327-1.7825,6.6961-1.3752,9.7052-0.96033,3.4245,0.47159,6.9128,0.95128,11.738-2.0612-0.47779-0.78646-0.91032-1.6024-1.2938-2.4456-5.0656,4.0976-6.8481,1.149-10.539,2.3413,1.7954-1.4553,6.0368-0.34297,9.8415-4.0542-0.26152-0.72263-0.48874-1.4629-0.67928-2.2165-3.0315,2.75-6.6818,3.7394-10.078,4.6592zm2.2355-26.173c-3.2187-1.8464-6.1731-3.5398-9.4976-2.7981,3.8999,1.3795,5.7072,3.7627,7.5416,6.1836,2.0883,2.7552,4.2157,5.5605,9.7567,6.8419,0.22103-0.90269,0.49446-1.7849,0.81695-2.6433-6.4813-0.68404-5.6562-4.03-9.1093-5.7968,2.2984,0.24008,4.5116,4.0271,9.8281,4.0919,0.32963-0.70215,0.69261-1.3857,1.0885-2.0478-4.0904-0.19816-7.372-2.0802-10.425-3.8313zm20.087-16.926c-0.97033-3.5817-1.8616-6.8681-4.7369-8.6944,1.782,3.7332,1.3748,6.6961,0.96033,9.7052-0.4716,3.425-0.95081,6.9128,2.0617,11.738,0.7855-0.47778,1.6024-0.90983,2.4456-1.2933-4.0981-5.066-1.1499-6.8481-2.3418-10.539,1.4553,1.7949,0.34298,6.0364,4.0547,9.8415,0.7231-0.26152,1.4624-0.48921,2.2165-0.67928-2.7505-3.032-3.7398-6.6823-4.6602-10.078zm26.173,2.235c1.8464-3.2187,3.5403-6.1726,2.7981-9.4971-1.379,3.8994-3.7627,5.7067-6.1836,7.5416-2.7548,2.0879-5.56,4.2153-6.8414,9.7567,0.90269,0.22055,1.7854,0.49398,2.6433,0.81647,0.68452-6.4808,4.0295-5.6562,5.7963-9.1093-0.24008,2.2989-4.0262,4.5116-4.0909,9.8281,0.70215,0.32964,1.3848,0.6931,2.0469,1.0885,0.19817-4.0904,2.0802-7.372,3.8313-10.425zm16.927,20.088c3.5812-0.97081,6.8676-1.8621,8.6939-4.7373-3.7327,1.782-6.6961,1.3748-9.7052,0.96033-3.4245-0.47159-6.9128-0.9508-11.738,2.0621,0.47779,0.78551,0.90936,1.602,1.2928,2.4456,5.0665-4.0986,6.849-1.1499,10.54-2.3422-1.7954,1.4553-6.0368,0.34297-9.842,4.0552,0.26152,0.72311,0.48922,1.4619,0.67929,2.216,3.032-2.7505,6.6823-3.7399,10.079-4.6597zm-2.2355,26.172c3.2187,1.8468,6.1731,3.5403,9.4975,2.7981-3.8999-1.379-5.7072-3.7622-7.5416-6.1836-2.0883-2.7548-4.2157-5.56-9.7572-6.8414-0.22055,0.90269-0.49397,1.7854-0.81647,2.6438,6.4813,0.68405,5.6562,4.029,9.1093,5.7963-2.2984-0.24056-4.5116-4.0266-9.8281-4.0914-0.32964,0.70262-0.6931,1.3852-1.0885,2.0478,4.0904,0.19769,7.372,2.0793,10.425,3.8304zm-53.377-20.313-22.975,4.5287,22.975,4.5292c-0.23437-1.1923-0.37918-2.417-0.42491-3.6665l-8.8902-0.86267,8.8902-0.8622c0.0457-1.25,0.19054-2.4742,0.42491-3.6665zm3.506,17.517-13.047,19.455,19.454-13.048c-1.0251-0.68786-1.9931-1.4553-2.8943-2.2927l-6.8976,5.6777,5.6777-6.8976c-0.83743-0.90126-1.6044-1.8687-2.2927-2.8943zm14.867,9.9129,4.5292,22.975,4.5292-22.975c-1.1923,0.23484-2.417,0.37917-3.667,0.42538l-0.8622,8.8902-0.8622-8.8902c-1.25-0.0457-2.4747-0.19054-3.667-0.42491zm17.517-3.506,19.455,13.048-13.047-19.455c-0.68833,1.0256-1.4557,1.9926-2.2932,2.8943l5.6781,6.8981-6.8986-5.6781c-0.90126,0.8379-1.8683,1.6053-2.8938,2.2932zm9.9129-14.867,22.975-4.5292-22.975-4.5287c0.23484,1.1923,0.37918,2.4165,0.42538,3.6665l8.8902,0.8622-8.8902,0.86267c-0.0462,1.2495-0.19054,2.4742-0.42538,3.6665zm-3.5055-17.517,13.047-19.455-19.455,13.047c1.0256,0.68833,1.9926,1.4557,2.8943,2.2936l6.8981-5.6781-5.6781,6.8981c0.83743,0.90078,1.6053,1.8683,2.2932,2.8938zm-14.867-9.9129-4.5292-22.975-4.5292,22.975c1.1923-0.23436,2.417-0.37918,3.667-0.42491l0.8622-8.8897,0.8622,8.8897c1.25,0.0462,2.4747,0.19055,3.667,0.42539zm-17.518,3.5055-19.454-13.047,13.047,19.455c0.68786-1.0256,1.4548-1.9931,2.2927-2.8948l-5.6777-6.8971,6.8976,5.6772c0.90126-0.83743,1.8692-1.6048,2.8943-2.2927z"/>
  <path id="path3068" fill="#000" d="m295.36,795c3.7151-9.7829-0.47588-16.673-4.8517-17.124-2.5804-0.26628-5.4762,1.5119-6.3508,6.6475l-2.8334-2.3065c1.5786-4.038,5.5843-6.2464,9.2446-6.0568,5.1351,0.26676,9.7557,5.3638,6.8995,17.325h5.0341c-2.8558-11.961,1.7644-17.058,6.8995-17.325,3.6608-0.18959,7.6664,2.0188,9.2446,6.0568l-2.8334,2.3065c-0.87459-5.1356-3.7699-6.9138-6.3508-6.6475-4.3758,0.4511-8.5668,7.3416-4.8512,17.124h-9.2513z"/>
  <path id="path3070" fill="#000" d="m306.62,800.96c0.69881-0.19006,1.4062-0.35059,2.0188-1.572-0.32583,0.1229-0.65451,0.23913-0.98462,0.34774-2.2074,0.46873-3.3688-0.52303-4.1033-1.1499-0.41586-0.35488-0.72882-0.62212-1.1252-0.60544-0.48683,0.02-0.7655,0.51113-1.0985,1.1004l-0.00095-0.00048c-0.34441,0.60926-0.77408,1.3681-1.3395,1.4033-0.56543-0.0353-0.9951-0.79408-1.3395-1.4033-0.33297-0.5883-0.61068-1.0799-1.0994-1.0999-0.39633-0.0167-0.70929,0.25056-1.1252,0.60544-0.73406,0.62689-1.8959,1.6186-4.1038,1.1499-0.33011-0.10861-0.65832-0.22484-0.98415-0.34774,0.61259,1.2214,1.32,1.3819,2.0188,1.572,0.74025,0.20102,1.4891,0.36775,2.2427,0.50017,0.3668,0.81933,0.95271,1.5867,1.8178,1.9097,0.87125,0.32439,1.794,0.0977,2.5728-0.34488,0.77884,0.44253,1.7015,0.66927,2.5728,0.34488,0.86458-0.32249,1.4514-1.0904,1.8182-1.9097,0.75359-0.13242,1.502-0.29915,2.2422-0.50017zm-1.7163-0.49255c-1.2742,0.26009-2.5656,0.41776-3.8604,0.4735,0.44825-0.37489,0.76693-0.9389,1.0442-1.4286v-0.002c0.20198-0.35775,0.37108-0.65594,0.37251-0.65594,0.0543-0.002,0.25533,0.1691,0.52208,0.3968,0.45921,0.39204,1.0618,0.9065,1.9216,1.2161zm-5.9725,0.4735c-1.2952-0.0557-2.5861-0.21341-3.8599-0.47302,0.85935-0.30963,1.461-0.82457,1.9202-1.2166,0.26675-0.2277,0.46778-0.39918,0.52208-0.3968l0.37251,0.65784c0.27724,0.48969,0.59639,1.0537,1.0451,1.4286zm-2.2589,0.68452c2.1979,0.28962,4.4301,0.28962,6.6285,0-0.28629,0.4492-0.63832,0.77264-1.0466,0.92508-0.81886,0.30486-1.5972-0.12766-2.2674-0.554-0.66975,0.42634-1.4491,0.85934-2.2674,0.554-0.45016-0.16815-0.79075-0.5197-1.047-0.92508z"/>
  <path id="path3072" fill="#000" d="m292.69,784.67c0,0.84362-0.4473,1.5834-1.1175,1.9954,1.249-0.26628,2.3332-0.97652,3.0796-1.9583-0.71215-0.93699-1.733-1.6268-2.9105-1.9188,0.57543,0.42634,0.94842,1.1109,0.94842,1.8816zm-4.6826,0c0-0.70453,0.31201-1.3366,0.80456-1.7658-1.0084,0.33774-1.8802,0.97367-2.5109,1.803,0.66261,0.87173,1.5924,1.5296,2.6666,1.8525-0.58163-0.42633-0.96033-1.1137-0.96033-1.8897zm7.7355,0.0371c-1.0761,1.7835-3.032,2.9767-5.2666,2.9767-2.2341,0-4.19-1.1933-5.2661-2.9767,1.0761-1.7835,3.032-2.9758,5.2661-2.9758,2.2346,0,4.1905,1.1923,5.2666,2.9758zm-6.5818,0.16196c0,0.27438,0.22103,0.49541,0.49493,0.49541,0.27438,0,0.49541-0.22103,0.49541-0.49541,0-0.2739-0.22103-0.49493-0.49541-0.49493-0.2739,0-0.49493,0.22103-0.49493,0.49493zm21.601-2.0807c1.1775,0.292,2.1979,0.98176,2.9105,1.9188-0.74645,0.98177-1.8311,1.692-3.0796,1.9583,0.67023-0.41204,1.1175-1.1518,1.1175-1.9954,0-0.77074-0.37346-1.4553-0.94842-1.8816zm-2.7738,3.7713c-1.0742-0.32296-2.004-0.98081-2.6671-1.8525,0.63069-0.82933,1.5029-1.4653,2.5113-1.803-0.49255,0.4292-0.80456,1.0613-0.80456,1.7658,0,0.77598,0.37822,1.4634,0.96033,1.8897zm1.5086-4.8283c-2.2346,0-4.19,1.1923-5.2661,2.9758,1.0761,1.7835,3.0315,2.9767,5.2661,2.9767s4.1905-1.1933,5.2666-2.9767c-1.0761-1.7835-3.032-2.9758-5.2666-2.9758zm-0.82028,2.6428c0.27438,0,0.49541,0.22103,0.49541,0.49493,0,0.27438-0.22103,0.49541-0.49541,0.49541-0.27391,0-0.49541-0.22103-0.49541-0.49541,0-0.2739,0.2215-0.49493,0.49541-0.49493z"/>
  <path id="path3074" fill="#FF0" d="m291.55,862.7c0.87268,0,1.5801,0.70739,1.5801,1.5801,0,0.8722-0.70739,1.5796-1.5801,1.5796-0.8722,0-1.5796-0.70739-1.5796-1.5796,0-0.87268,0.70739-1.5801,1.5796-1.5801zm1.3929,10.796c0.87268,0,1.5801,0.70739,1.5801,1.5801,0,0.8722-0.70739,1.5796-1.5801,1.5796-0.8722,0-1.5796-0.70739-1.5796-1.5796,0-0.87268,0.70739-1.5801,1.5796-1.5801zm-1.6663,13.458c0.87268,0,1.5801,0.70738,1.5801,1.5796,0,0.87268-0.70738,1.5801-1.5801,1.5801-0.87221,0-1.5796-0.70738-1.5796-1.5801,0-0.87221,0.70738-1.5796,1.5796-1.5796zm-6.1678,12.587c0.87268,0,1.5801,0.70738,1.5801,1.5796,0,0.87268-0.70739,1.5801-1.5801,1.5801-0.8722,0-1.5796-0.70738-1.5796-1.5801,0-0.87221,0.70739-1.5796,1.5796-1.5796zm-9.227,8.4329c0.87269,0,1.5801,0.70739,1.5801,1.5801,0,0.87221-0.70738,1.5796-1.5801,1.5796-0.8722,0-1.5796-0.70738-1.5796-1.5796,0-0.87268,0.70739-1.5801,1.5796-1.5801zm5.832-58.508c1.3333,3.5936,3.0306,7.5883,5.3971,10.199,1.0923,1.2052,2.6042,2.0169,3.9047,0.77122,1.3957-1.3371,0.81362-2.8234-0.32344-4.2534-2.3103-2.9062-5.8611-4.8317-8.9783-6.7166zm1.3681,45.448c-2.4189,2.2236-4.8112,4.5625-6.4665,7.413-0.85887,1.4791-1.6515,3.4569,0.32344,4.4029,2.0136,0.96462,3.2182-0.99367,3.9294-2.5618,1.2966-2.8596,1.8073-6.1392,2.2136-9.2541zm7.262,7.9604c-3.0906,0.65785-6.5041,1.3119-9.227,2.9601-1.4429,0.87363-2.6824,2.2055-1.3428,3.707,1.017,1.1394,2.2808,0.78312,3.4817,0.0991,2.8453-1.6196,5.0012-4.3186,7.0881-6.7661zm-16.613,1.7911c-2.8086,1.4719-5.7982,2.9515-8.0332,5.2489-1.0427,1.0718-1.9259,2.489-0.52256,3.6317,1.2819,1.0432,2.5909,0.36918,3.656-0.69643,2.2393-2.2398,3.6112-5.3918,4.8998-8.1842zm6.3169,8.1595c-3.1335-0.3263-6.5684-0.74644-9.6748,0-1.6644,0.40014-2.9834,1.1475-2.5366,2.811,0.47683,1.7749,2.3937,1.722,3.8051,1.3681,2.8362-0.7112,5.9163-2.6061,8.4062-4.1791zm16.937-23.832c-2.3956,1.7658-5.1146,3.7184-6.8643,6.2193-0.99129,1.4176-1.9792,3.313,0.0996,4.2786,1.5067,0.69976,2.7247-0.58401,3.4569-1.7411,1.6958-2.68,2.4427-5.7262,3.3078-8.7568zm-10.421-3.8804c-1.1175,2.8929-2.2217,5.8034-2.5118,8.9054-0.14386,1.5396,0.0448,3.6822,2.0393,3.6074,1.8921-0.0714,2.2779-1.6796,2.3132-3.3088,0.0662-3.0954-0.93365-6.2722-1.8406-9.2041zm-0.17387-14.13c-0.32011,3.5236-0.58782,7.1306,0.12433,10.622,0.42586,2.0893,1.2928,3.9714,3.3821,3.3335,2.116-0.64594,2.0145-2.5823,1.4924-4.4282-0.9832-3.4764-3.0044-6.5351-4.9989-9.5276zm12.435,2.4132c-1.8044,2.4494-3.7575,5.0174-4.8002,7.9103-0.55114,1.53-0.9408,3.464,0.97034,4.0052,1.7882,0.50637,2.7314-1.0204,3.1334-2.5623,0.80266-3.0782,0.76884-6.1664,0.69643-9.3532zm-3.0839-15.746c-1.0537,3.424-2.0374,6.7833-2.0893,10.373-0.0252,1.7744,0.31582,4.1586,2.6361,3.9304,2.1107-0.20769,2.4304-2.1636,2.338-3.9799-0.17911-3.5269-1.5782-7.091-2.8848-10.324zm-14.474,1.7906c1.3204,3.3692,2.6976,7.0691,5.0984,9.851,1.2209,1.4152,2.6047,2.4966,4.2029,1.1194,1.4596-1.2576,0.73263-2.9262-0.32344-4.2538-2.2894-2.8786-5.8649-4.8764-8.9778-6.7166z"/>
  <path id="path3076" fill="#FF0" d="m240.7,824.53-0.15386,5.3957c20.788,0.50256,42.687,5.2971,53.211,24.728-1.0504-8.2838-9.6247-15.52-17.217-19.901-2.4332-1.4038-5.0779-2.6857-7.9361-3.8404h-0.005l-0.0476-0.019,0.00048-0.002c-8.8692-3.575-18.365-5.4152-27.851-6.3612zm47.504,25.385c-11.636-14.658-31.764-18.766-49.881-18.538l0.0648,4.683c19.172-0.13481,34.768,3.7346,49.816,13.855zm-51.611-12.287-0.0919,5.3518c16.043,0.13672,34.721,0.95176,46.906,13.205-7.3258-15.49-31.141-19.2-46.814-18.556zm14.796,7.2963c-5.7167-0.59497-11.479-0.64213-16.924-0.49684l-0.20864,4.5454c14.56-1.3281,36.006-0.67785,45.236,9.237-7.162-12.082-25.054-12.968-28.104-13.286z"/>
  <path id="path3078" fill="#FF0" d="m359.3,824.53,0.15434,5.3957c-20.788,0.50256-42.688,5.2971-53.211,24.728,1.0499-8.2838,9.6243-15.52,17.217-19.901,2.4332-1.4038,5.0784-2.6857,7.9365-3.8404h0.005l0.0476-0.019-0.00095-0.002c8.8697-3.575,18.365-5.4152,27.851-6.3612zm-47.504,25.385c11.636-14.658,31.764-18.766,49.881-18.538l-0.0643,4.683c-19.172-0.13481-34.768,3.7346-49.817,13.855zm51.611-12.287,0.0919,5.3518c-16.043,0.13672-34.721,0.95176-46.906,13.205,7.3258-15.49,31.141-19.2,46.814-18.556zm-14.796,7.2963c5.7172-0.59497,11.479-0.64213,16.924-0.49684l0.20864,4.5454c-14.561-1.3281-36.006-0.67785-45.236,9.237,7.162-12.082,25.054-12.968,28.103-13.286z"/>
  <path id="path3080" fill="#FF0" d="m308.45,862.7c-0.87268,0-1.5801,0.70739-1.5801,1.5801,0,0.8722,0.70739,1.5796,1.5801,1.5796,0.8722,0,1.5796-0.70739,1.5796-1.5796,0-0.87268-0.70739-1.5801-1.5796-1.5801zm-1.3929,10.796c-0.8722,0-1.5796,0.70739-1.5796,1.5801,0,0.8722,0.70739,1.5796,1.5796,1.5796,0.87268,0,1.5801-0.70739,1.5801-1.5796,0-0.87268-0.70739-1.5801-1.5801-1.5801zm1.6663,13.458c-0.87221,0-1.5796,0.70738-1.5796,1.5796,0,0.87268,0.70738,1.5801,1.5796,1.5801,0.87268,0,1.5801-0.70738,1.5801-1.5801,0-0.87221-0.70738-1.5796-1.5801-1.5796zm6.1678,12.587c-0.87221,0-1.5796,0.70738-1.5796,1.5796,0,0.87268,0.70738,1.5801,1.5796,1.5801,0.87268,0,1.5801-0.70738,1.5801-1.5801,0-0.87221-0.70739-1.5796-1.5801-1.5796zm9.227,8.4329c-0.87221,0-1.5796,0.70739-1.5796,1.5801,0,0.87221,0.70738,1.5796,1.5796,1.5796,0.87268,0,1.5801-0.70738,1.5801-1.5796,0-0.87268-0.70738-1.5801-1.5801-1.5801zm-5.832-58.508c-1.3333,3.5936-3.0306,7.5883-5.3971,10.199-1.0918,1.2052-2.6042,2.0169-3.9047,0.77122-1.3957-1.3371-0.81314-2.8234,0.32344-4.2534,2.3103-2.9062,5.8615-4.8317,8.9783-6.7166zm-1.3676,45.448c2.4189,2.2236,4.8107,4.5625,6.466,7.413,0.85887,1.4791,1.652,3.4569-0.32344,4.4029-2.0136,0.96462-3.2182-0.99367-3.9294-2.5618-1.2966-2.8596-1.8073-6.1392-2.2131-9.2541zm-7.2625,7.9604c3.0911,0.65785,6.5041,1.3119,9.227,2.9601,1.4429,0.87363,2.6824,2.2055,1.3428,3.707-1.0165,1.1394-2.2808,0.78312-3.4817,0.0991-2.8453-1.6196-5.0008-4.3186-7.0882-6.7661zm16.614,1.7911c2.8086,1.4719,5.7977,2.9515,8.0332,5.2489,1.0427,1.0718,1.9254,2.489,0.52209,3.6317-1.2819,1.0432-2.5909,0.36918-3.656-0.69643-2.2389-2.2398-3.6112-5.3918-4.8993-8.1842zm-6.3174,8.1595c3.1335-0.3263,6.5684-0.74644,9.6748,0,1.6649,0.40014,2.9834,1.1475,2.5371,2.811-0.47683,1.7749-2.3942,1.722-3.8056,1.3681-2.8357-0.7112-5.9158-2.6061-8.4062-4.1791zm-16.937-23.832c2.3956,1.7658,5.1151,3.7184,6.8643,6.2193,0.99177,1.4176,1.9797,3.313-0.0996,4.2786-1.5062,0.69976-2.7248-0.58401-3.4569-1.7411-1.6958-2.68-2.4423-5.7262-3.3078-8.7568zm10.421-3.8804c1.118,2.8929,2.2217,5.8034,2.5118,8.9054,0.14433,1.5396-0.0448,3.6822-2.0393,3.6074-1.8916-0.0714-2.2779-1.6796-2.3127-3.3088-0.0667-3.0954,0.93318-6.2722,1.8402-9.2041zm0.17435-14.13c0.32011,3.5236,0.58734,7.1306-0.12433,10.622-0.42634,2.0893-1.2933,3.9714-3.3826,3.3335-2.1155-0.64594-2.0145-2.5823-1.4924-4.4282,0.9832-3.4764,3.0048-6.5351,4.9993-9.5276zm-12.435,2.4132c1.8044,2.4494,3.7575,5.0174,4.7997,7.9103,0.55162,1.53,0.94128,3.464-0.96986,4.0052-1.7882,0.50637-2.7319-1.0204-3.1339-2.5623-0.80218-3.0782-0.76836-6.1664-0.69595-9.3532zm3.0839-15.746c1.0532,3.424,2.0374,6.7833,2.0888,10.373,0.0257,1.7744-0.31582,4.1586-2.6361,3.9304-2.1102-0.20769-2.4299-2.1636-2.3379-3.9799,0.1791-3.5269,1.5786-7.091,2.8853-10.324zm14.474,1.7906c-1.3209,3.3692-2.6976,7.0691-5.0984,9.851-1.2214,1.4152-2.6052,2.4966-4.2034,1.1194-1.4596-1.2576-0.73216-2.9262,0.32345-4.2538,2.2894-2.8786,5.8653-4.8764,8.9783-6.7166z"/>
  <path id="path3883" style="baseline-shift:baseline;block-progression:tb;color:#000000;direction:ltr;text-indent:0;text-align:start;enable-background:accumulate;text-transform:none;" d="m202.51,727.04,0,2.5145,0,132.01c0,53.818,43.668,97.534,97.486,97.534s97.486-43.716,97.486-97.534v-132.01-2.5145h-2.4662-189.99-2.5145zm4.9807,4.9807,185.01,0,0,129.55c0,51.116-41.389,92.505-92.505,92.505s-92.505-41.389-92.505-92.505v-129.55z" stroke="#000" stroke-miterlimit="4" stroke-dasharray="none" stroke-width="1" fill="#FF0"/>
 </g>
</svg>
