<svg xmlns="http://www.w3.org/2000/svg" width="1200" height="600" viewBox="0 0 48 24">
<clipPath id="c1"><path d="M0,0H24V3.75L21,6v4.5h3V14H0Z"/></clipPath>
<clipPath id="c2"><path d="M0,0V6H22V12H21zM21,0H10.5V13H0V12z"/></clipPath>
<rect width="48" height="24" fill="#012169"/>
<g clip-path="url(#c1)">
<path d="M0,0 21,12M21,0 0,12" stroke="#fff" stroke-width="2.4"/>
<path d="M0,0 21,12M21,0 0,12" stroke="#c8102e" stroke-width="1.6" clip-path="url(#c2)"/>
<path d="M10.5,0V14M0,6H24" stroke="#fff" stroke-width="4"/>
<path d="M10.5,0V14M0,6H24" stroke="#c8102e" stroke-width="2.4"/>
</g>
<path d="M48,19.5H0m48,-9H21m0,-9h27" stroke="#fff" stroke-width="3"/>
<path d="M21,4.5H48M0,13.5H48M0,22.5H48" stroke="#c8102e" stroke-width="3"/>
</svg>